<?xml version="1.0" encoding="utf-8" standalone="no"?>
<!DOCTYPE svg PUBLIC "-//W3C//DTD SVG 1.1//EN"
  "http://www.w3.org/Graphics/SVG/1.1/DTD/svg11.dtd">
<svg xmlns:xlink="http://www.w3.org/1999/xlink" width="460.8pt" height="345.6pt" viewBox="0 0 460.8 345.6" xmlns="http://www.w3.org/2000/svg" version="1.1">
 <metadata>
  <rdf:RDF xmlns:dc="http://purl.org/dc/elements/1.1/" xmlns:cc="http://creativecommons.org/ns#" xmlns:rdf="http://www.w3.org/1999/02/22-rdf-syntax-ns#">
   <cc:Work>
    <dc:type rdf:resource="http://purl.org/dc/dcmitype/StillImage"/>
    <dc:date>2022-09-15T12:37:34.054510</dc:date>
    <dc:format>image/svg+xml</dc:format>
    <dc:creator>
     <cc:Agent>
      <dc:title>Matplotlib v3.5.3, https://matplotlib.org/</dc:title>
     </cc:Agent>
    </dc:creator>
   </cc:Work>
  </rdf:RDF>
 </metadata>
 <defs>
  <style type="text/css">*{stroke-linejoin: round; stroke-linecap: butt}</style>
 </defs>
 <g id="figure_1">
  <g id="patch_1">
   <path d="M 0 345.6 
L 460.8 345.6 
L 460.8 0 
L 0 0 
z
" style="fill: #ffffff"/>
  </g>
  <g id="axes_1">
   <g id="patch_2">
    <path d="M 57.6 307.584 
L 414.72 307.584 
L 414.72 41.472 
L 57.6 41.472 
z
" style="fill: #ffffff"/>
   </g>
   <g id="PolyCollection_1">
    <path d="M 165.92504 53.568 
L 165.92504 56.577782 
L 165.92504 53.568 
L 165.92504 53.568 
z
" clip-path="url(#pc0c31fb4b5)" style="fill: #1f77b4; fill-opacity: 0.2; stroke: #1f77b4; stroke-opacity: 0.2"/>
    <path d="M 170.005079 56.450864 
L 170.005079 59.299202 
L 170.005079 56.450864 
L 170.005079 56.450864 
z
" clip-path="url(#pc0c31fb4b5)" style="fill: #1f77b4; fill-opacity: 0.2; stroke: #1f77b4; stroke-opacity: 0.2"/>
    <path d="M 218.382686 59.287786 
L 218.382686 61.164118 
L 218.382686 59.287786 
L 218.382686 59.287786 
z
" clip-path="url(#pc0c31fb4b5)" style="fill: #1f77b4; fill-opacity: 0.2; stroke: #1f77b4; stroke-opacity: 0.2"/>
    <path d="M 239.365745 60.214603 
L 239.365745 61.847505 
L 239.365745 60.214603 
L 239.365745 60.214603 
z
" clip-path="url(#pc0c31fb4b5)" style="fill: #1f77b4; fill-opacity: 0.2; stroke: #1f77b4; stroke-opacity: 0.2"/>
    <path d="M 243.445784 61.651706 
L 243.445784 63.235786 
L 244.028647 64.771638 
L 244.028647 63.203344 
L 244.028647 63.203344 
L 243.445784 61.651706 
z
" clip-path="url(#pc0c31fb4b5)" style="fill: #1f77b4; fill-opacity: 0.2; stroke: #1f77b4; stroke-opacity: 0.2"/>
    <path d="M 258.017353 65.384183 
L 258.017353 66.820304 
L 258.017353 65.384183 
L 258.017353 65.384183 
z
" clip-path="url(#pc0c31fb4b5)" style="fill: #1f77b4; fill-opacity: 0.2; stroke: #1f77b4; stroke-opacity: 0.2"/>
    <path d="M 269.091745 66.088345 
L 269.091745 68.782189 
L 269.091745 66.088345 
L 269.091745 66.088345 
z
" clip-path="url(#pc0c31fb4b5)" style="fill: #1f77b4; fill-opacity: 0.2; stroke: #1f77b4; stroke-opacity: 0.2"/>
    <path d="M 282.497588 70.336788 
L 282.497588 71.57815 
L 282.497588 70.336788 
L 282.497588 70.336788 
z
" clip-path="url(#pc0c31fb4b5)" style="fill: #1f77b4; fill-opacity: 0.2; stroke: #1f77b4; stroke-opacity: 0.2"/>
    <path d="M 291.240529 70.880082 
L 291.240529 72.068853 
L 291.240529 70.880082 
L 291.240529 70.880082 
z
" clip-path="url(#pc0c31fb4b5)" style="fill: #1f77b4; fill-opacity: 0.2; stroke: #1f77b4; stroke-opacity: 0.2"/>
    <path d="M 297.069156 71.604008 
L 297.069156 72.758192 
L 297.069156 71.604008 
L 297.069156 71.604008 
z
" clip-path="url(#pc0c31fb4b5)" style="fill: #1f77b4; fill-opacity: 0.2; stroke: #1f77b4; stroke-opacity: 0.2"/>
    <path d="M 300.566333 72.473893 
L 300.566333 73.606034 
L 301.149195 74.680739 
L 301.149195 73.556801 
L 301.149195 73.556801 
L 300.566333 72.473893 
z
" clip-path="url(#pc0c31fb4b5)" style="fill: #1f77b4; fill-opacity: 0.2; stroke: #1f77b4; stroke-opacity: 0.2"/>
    <path d="M 315.137901 73.507809 
L 315.137901 74.566967 
L 315.720764 75.570547 
L 315.720764 74.518582 
L 315.720764 74.518582 
L 315.137901 73.507809 
z
" clip-path="url(#pc0c31fb4b5)" style="fill: #1f77b4; fill-opacity: 0.2; stroke: #1f77b4; stroke-opacity: 0.2"/>
    <path d="M 322.132254 75.027884 
L 322.132254 76.050469 
L 322.132254 75.027884 
L 322.132254 75.027884 
z
" clip-path="url(#pc0c31fb4b5)" style="fill: #1f77b4; fill-opacity: 0.2; stroke: #1f77b4; stroke-opacity: 0.2"/>
    <path d="M 323.880842 75.900586 
L 323.880842 76.912166 
L 323.880842 75.900586 
L 323.880842 75.900586 
z
" clip-path="url(#pc0c31fb4b5)" style="fill: #1f77b4; fill-opacity: 0.2; stroke: #1f77b4; stroke-opacity: 0.2"/>
    <path d="M 327.378019 76.605678 
L 327.378019 77.600258 
L 327.378019 76.605678 
L 327.378019 76.605678 
z
" clip-path="url(#pc0c31fb4b5)" style="fill: #1f77b4; fill-opacity: 0.2; stroke: #1f77b4; stroke-opacity: 0.2"/>
    <path d="M 330.292332 77.340731 
L 330.292332 78.320866 
L 330.292332 77.340731 
L 330.292332 77.340731 
z
" clip-path="url(#pc0c31fb4b5)" style="fill: #1f77b4; fill-opacity: 0.2; stroke: #1f77b4; stroke-opacity: 0.2"/>
    <path d="M 332.040921 78.161854 
L 332.040921 79.131857 
L 332.040921 78.161854 
L 332.040921 78.161854 
z
" clip-path="url(#pc0c31fb4b5)" style="fill: #1f77b4; fill-opacity: 0.2; stroke: #1f77b4; stroke-opacity: 0.2"/>
    <path d="M 333.789509 78.96903 
L 333.789509 79.929103 
L 333.789509 78.96903 
L 333.789509 78.96903 
z
" clip-path="url(#pc0c31fb4b5)" style="fill: #1f77b4; fill-opacity: 0.2; stroke: #1f77b4; stroke-opacity: 0.2"/>
    <path d="M 341.366724 79.222517 
L 341.366724 80.154412 
L 341.366724 79.222517 
L 341.366724 79.222517 
z
" clip-path="url(#pc0c31fb4b5)" style="fill: #1f77b4; fill-opacity: 0.2; stroke: #1f77b4; stroke-opacity: 0.2"/>
    <path d="M 345.446764 80.692598 
L 345.446764 82.512884 
L 346.029626 85.330373 
L 346.612489 88.190502 
L 347.195352 89.436058 
L 347.778214 93.187215 
L 348.361077 96.147398 
L 348.361077 94.454287 
L 348.361077 94.454287 
L 347.778214 90.726048 
L 347.195352 88.561182 
L 346.612489 86.422722 
L 346.029626 83.174837 
L 345.446764 80.692598 
z
" clip-path="url(#pc0c31fb4b5)" style="fill: #1f77b4; fill-opacity: 0.2; stroke: #1f77b4; stroke-opacity: 0.2"/>
    <path d="M 351.858254 95.658915 
L 351.858254 96.491863 
L 351.858254 95.658915 
L 351.858254 95.658915 
z
" clip-path="url(#pc0c31fb4b5)" style="fill: #1f77b4; fill-opacity: 0.2; stroke: #1f77b4; stroke-opacity: 0.2"/>
    <path d="M 355.35543 96.005932 
L 355.35543 96.827246 
L 355.35543 96.005932 
L 355.35543 96.005932 
z
" clip-path="url(#pc0c31fb4b5)" style="fill: #1f77b4; fill-opacity: 0.2; stroke: #1f77b4; stroke-opacity: 0.2"/>
    <path d="M 356.521156 96.664922 
L 356.521156 97.480388 
L 356.521156 96.664922 
L 356.521156 96.664922 
z
" clip-path="url(#pc0c31fb4b5)" style="fill: #1f77b4; fill-opacity: 0.2; stroke: #1f77b4; stroke-opacity: 0.2"/>
    <path d="M 357.686881 97.316535 
L 357.686881 98.932918 
L 357.686881 97.316535 
L 357.686881 97.316535 
z
" clip-path="url(#pc0c31fb4b5)" style="fill: #1f77b4; fill-opacity: 0.2; stroke: #1f77b4; stroke-opacity: 0.2"/>
    <path d="M 358.852606 98.7649 
L 358.852606 99.565932 
L 359.435469 102.019608 
L 360.018332 104.514855 
L 360.601195 105.584892 
L 361.184057 106.260924 
L 361.76692 110.549437 
L 362.349783 113.598802 
L 362.932646 114.964388 
L 362.932646 113.492928 
L 362.932646 113.492928 
L 362.349783 112.114672 
L 361.76692 107.945329 
L 361.184057 105.490829 
L 360.601195 104.810775 
L 360.018332 102.952098 
L 359.435469 100.116721 
L 358.852606 98.7649 
z
" clip-path="url(#pc0c31fb4b5)" style="fill: #1f77b4; fill-opacity: 0.2; stroke: #1f77b4; stroke-opacity: 0.2"/>
    <path d="M 364.098371 114.749339 
L 364.098371 116.206142 
L 364.098371 114.749339 
L 364.098371 114.749339 
z
" clip-path="url(#pc0c31fb4b5)" style="fill: #1f77b4; fill-opacity: 0.2; stroke: #1f77b4; stroke-opacity: 0.2"/>
    <path d="M 369.926999 117.315622 
L 369.926999 119.936842 
L 369.926999 117.315622 
L 369.926999 117.315622 
z
" clip-path="url(#pc0c31fb4b5)" style="fill: #1f77b4; fill-opacity: 0.2; stroke: #1f77b4; stroke-opacity: 0.2"/>
    <path d="M 371.675587 122.618263 
L 371.675587 124.439182 
L 372.258449 126.460546 
L 372.258449 125.112828 
L 372.258449 125.112828 
L 371.675587 122.618263 
z
" clip-path="url(#pc0c31fb4b5)" style="fill: #1f77b4; fill-opacity: 0.2; stroke: #1f77b4; stroke-opacity: 0.2"/>
    <path d="M 374.007038 126.100286 
L 374.007038 126.768087 
L 374.5899 127.312604 
L 375.172763 129.715698 
L 375.755626 131.00415 
L 375.755626 130.354038 
L 375.755626 130.354038 
L 375.172763 127.961682 
L 374.5899 126.64789 
L 374.007038 126.100286 
z
" clip-path="url(#pc0c31fb4b5)" style="fill: #1f77b4; fill-opacity: 0.2; stroke: #1f77b4; stroke-opacity: 0.2"/>
    <path d="M 376.921351 131.077 
L 376.921351 132.366022 
L 376.921351 131.077 
L 376.921351 131.077 
z
" clip-path="url(#pc0c31fb4b5)" style="fill: #1f77b4; fill-opacity: 0.2; stroke: #1f77b4; stroke-opacity: 0.2"/>
    <path d="M 378.66994 132.307947 
L 378.66994 133.581245 
L 379.252802 135.032053 
L 379.252802 133.765998 
L 379.252802 133.765998 
L 378.66994 132.307947 
z
" clip-path="url(#pc0c31fb4b5)" style="fill: #1f77b4; fill-opacity: 0.2; stroke: #1f77b4; stroke-opacity: 0.2"/>
    <path d="M 380.418528 135.08848 
L 380.418528 136.337017 
L 381.001391 138.185131 
L 381.584253 139.157225 
L 382.167116 140.970794 
L 382.749979 141.916691 
L 383.332842 142.976514 
L 383.332842 141.780978 
L 383.332842 141.780978 
L 382.749979 141.315448 
L 382.167116 139.51151 
L 381.584253 138.545129 
L 381.001391 136.702742 
L 380.418528 135.08848 
z
" clip-path="url(#pc0c31fb4b5)" style="fill: #1f77b4; fill-opacity: 0.2; stroke: #1f77b4; stroke-opacity: 0.2"/>
    <path d="M 384.498567 144.081204 
L 384.498567 146.100944 
L 385.08143 148.41682 
L 385.664292 149.422148 
L 386.247155 152.114131 
L 386.830018 154.870671 
L 386.830018 153.536179 
L 386.830018 153.536179 
L 386.247155 150.414914 
L 385.664292 148.274617 
L 385.08143 147.261077 
L 384.498567 144.081204 
z
" clip-path="url(#pc0c31fb4b5)" style="fill: #1f77b4; fill-opacity: 0.2; stroke: #1f77b4; stroke-opacity: 0.2"/>
    <path d="M 387.995743 155.016149 
L 387.995743 155.566671 
L 388.578606 159.118038 
L 389.161469 161.739323 
L 389.161469 160.676527 
L 389.161469 160.676527 
L 388.578606 157.100604 
L 387.995743 155.016149 
z
" clip-path="url(#pc0c31fb4b5)" style="fill: #1f77b4; fill-opacity: 0.2; stroke: #1f77b4; stroke-opacity: 0.2"/>
    <path d="M 390.327194 161.852244 
L 390.327194 163.114774 
L 390.910057 165.040995 
L 391.49292 166.941409 
L 392.075783 170.927769 
L 392.075783 169.002582 
L 392.075783 169.002582 
L 391.49292 165.709533 
L 390.910057 163.795113 
L 390.327194 161.852244 
z
" clip-path="url(#pc0c31fb4b5)" style="fill: #1f77b4; fill-opacity: 0.2; stroke: #1f77b4; stroke-opacity: 0.2"/>
    <path d="M 393.241508 173.158558 
L 393.241508 174.489958 
L 393.824371 176.701906 
L 393.824371 175.54444 
L 393.824371 175.54444 
L 393.241508 173.158558 
z
" clip-path="url(#pc0c31fb4b5)" style="fill: #1f77b4; fill-opacity: 0.2; stroke: #1f77b4; stroke-opacity: 0.2"/>
    <path d="M 394.990096 177.135957 
L 394.990096 178.279748 
L 394.990096 177.135957 
L 394.990096 177.135957 
z
" clip-path="url(#pc0c31fb4b5)" style="fill: #1f77b4; fill-opacity: 0.2; stroke: #1f77b4; stroke-opacity: 0.2"/>
    <path d="M 396.155822 178.702477 
L 396.155822 179.740462 
L 396.738685 190.082912 
L 397.321547 198.121287 
L 397.90441 228.451575 
L 398.487273 295.488 
L 398.487273 290.741194 
L 398.487273 290.741194 
L 397.90441 223.484785 
L 397.321547 197.110179 
L 396.738685 187.028582 
L 396.155822 178.702477 
z
" clip-path="url(#pc0c31fb4b5)" style="fill: #1f77b4; fill-opacity: 0.2; stroke: #1f77b4; stroke-opacity: 0.2"/>
   </g>
   <g id="matplotlib.axis_1">
    <g id="xtick_1">
     <g id="line2d_1">
      <defs>
       <path id="mfee0986979" d="M 0 0 
L 0 3.5 
" style="stroke: #000000; stroke-width: 0.8"/>
      </defs>
      <g>
       <use xlink:href="#mfee0986979" x="73.832727" y="307.584" style="stroke: #000000; stroke-width: 0.8"/>
      </g>
     </g>
     <g id="text_1">
      <!-- 0.0 -->
      <g transform="translate(65.881165 322.182437)scale(0.1 -0.1)">
       <defs>
        <path id="DejaVuSans-30" d="M 2034 4250 
Q 1547 4250 1301 3770 
Q 1056 3291 1056 2328 
Q 1056 1369 1301 889 
Q 1547 409 2034 409 
Q 2525 409 2770 889 
Q 3016 1369 3016 2328 
Q 3016 3291 2770 3770 
Q 2525 4250 2034 4250 
z
M 2034 4750 
Q 2819 4750 3233 4129 
Q 3647 3509 3647 2328 
Q 3647 1150 3233 529 
Q 2819 -91 2034 -91 
Q 1250 -91 836 529 
Q 422 1150 422 2328 
Q 422 3509 836 4129 
Q 1250 4750 2034 4750 
z
" transform="scale(0.015625)"/>
        <path id="DejaVuSans-2e" d="M 684 794 
L 1344 794 
L 1344 0 
L 684 0 
L 684 794 
z
" transform="scale(0.015625)"/>
       </defs>
       <use xlink:href="#DejaVuSans-30"/>
       <use xlink:href="#DejaVuSans-2e" x="63.623047"/>
       <use xlink:href="#DejaVuSans-30" x="95.410156"/>
      </g>
     </g>
    </g>
    <g id="xtick_2">
     <g id="line2d_2">
      <g>
       <use xlink:href="#mfee0986979" x="138.763636" y="307.584" style="stroke: #000000; stroke-width: 0.8"/>
      </g>
     </g>
     <g id="text_2">
      <!-- 0.2 -->
      <g transform="translate(130.812074 322.182437)scale(0.1 -0.1)">
       <defs>
        <path id="DejaVuSans-32" d="M 1228 531 
L 3431 531 
L 3431 0 
L 469 0 
L 469 531 
Q 828 903 1448 1529 
Q 2069 2156 2228 2338 
Q 2531 2678 2651 2914 
Q 2772 3150 2772 3378 
Q 2772 3750 2511 3984 
Q 2250 4219 1831 4219 
Q 1534 4219 1204 4116 
Q 875 4013 500 3803 
L 500 4441 
Q 881 4594 1212 4672 
Q 1544 4750 1819 4750 
Q 2544 4750 2975 4387 
Q 3406 4025 3406 3419 
Q 3406 3131 3298 2873 
Q 3191 2616 2906 2266 
Q 2828 2175 2409 1742 
Q 1991 1309 1228 531 
z
" transform="scale(0.015625)"/>
       </defs>
       <use xlink:href="#DejaVuSans-30"/>
       <use xlink:href="#DejaVuSans-2e" x="63.623047"/>
       <use xlink:href="#DejaVuSans-32" x="95.410156"/>
      </g>
     </g>
    </g>
    <g id="xtick_3">
     <g id="line2d_3">
      <g>
       <use xlink:href="#mfee0986979" x="203.694545" y="307.584" style="stroke: #000000; stroke-width: 0.8"/>
      </g>
     </g>
     <g id="text_3">
      <!-- 0.4 -->
      <g transform="translate(195.742983 322.182437)scale(0.1 -0.1)">
       <defs>
        <path id="DejaVuSans-34" d="M 2419 4116 
L 825 1625 
L 2419 1625 
L 2419 4116 
z
M 2253 4666 
L 3047 4666 
L 3047 1625 
L 3713 1625 
L 3713 1100 
L 3047 1100 
L 3047 0 
L 2419 0 
L 2419 1100 
L 313 1100 
L 313 1709 
L 2253 4666 
z
" transform="scale(0.015625)"/>
       </defs>
       <use xlink:href="#DejaVuSans-30"/>
       <use xlink:href="#DejaVuSans-2e" x="63.623047"/>
       <use xlink:href="#DejaVuSans-34" x="95.410156"/>
      </g>
     </g>
    </g>
    <g id="xtick_4">
     <g id="line2d_4">
      <g>
       <use xlink:href="#mfee0986979" x="268.625455" y="307.584" style="stroke: #000000; stroke-width: 0.8"/>
      </g>
     </g>
     <g id="text_4">
      <!-- 0.6 -->
      <g transform="translate(260.673892 322.182437)scale(0.1 -0.1)">
       <defs>
        <path id="DejaVuSans-36" d="M 2113 2584 
Q 1688 2584 1439 2293 
Q 1191 2003 1191 1497 
Q 1191 994 1439 701 
Q 1688 409 2113 409 
Q 2538 409 2786 701 
Q 3034 994 3034 1497 
Q 3034 2003 2786 2293 
Q 2538 2584 2113 2584 
z
M 3366 4563 
L 3366 3988 
Q 3128 4100 2886 4159 
Q 2644 4219 2406 4219 
Q 1781 4219 1451 3797 
Q 1122 3375 1075 2522 
Q 1259 2794 1537 2939 
Q 1816 3084 2150 3084 
Q 2853 3084 3261 2657 
Q 3669 2231 3669 1497 
Q 3669 778 3244 343 
Q 2819 -91 2113 -91 
Q 1303 -91 875 529 
Q 447 1150 447 2328 
Q 447 3434 972 4092 
Q 1497 4750 2381 4750 
Q 2619 4750 2861 4703 
Q 3103 4656 3366 4563 
z
" transform="scale(0.015625)"/>
       </defs>
       <use xlink:href="#DejaVuSans-30"/>
       <use xlink:href="#DejaVuSans-2e" x="63.623047"/>
       <use xlink:href="#DejaVuSans-36" x="95.410156"/>
      </g>
     </g>
    </g>
    <g id="xtick_5">
     <g id="line2d_5">
      <g>
       <use xlink:href="#mfee0986979" x="333.556364" y="307.584" style="stroke: #000000; stroke-width: 0.8"/>
      </g>
     </g>
     <g id="text_5">
      <!-- 0.8 -->
      <g transform="translate(325.604801 322.182437)scale(0.1 -0.1)">
       <defs>
        <path id="DejaVuSans-38" d="M 2034 2216 
Q 1584 2216 1326 1975 
Q 1069 1734 1069 1313 
Q 1069 891 1326 650 
Q 1584 409 2034 409 
Q 2484 409 2743 651 
Q 3003 894 3003 1313 
Q 3003 1734 2745 1975 
Q 2488 2216 2034 2216 
z
M 1403 2484 
Q 997 2584 770 2862 
Q 544 3141 544 3541 
Q 544 4100 942 4425 
Q 1341 4750 2034 4750 
Q 2731 4750 3128 4425 
Q 3525 4100 3525 3541 
Q 3525 3141 3298 2862 
Q 3072 2584 2669 2484 
Q 3125 2378 3379 2068 
Q 3634 1759 3634 1313 
Q 3634 634 3220 271 
Q 2806 -91 2034 -91 
Q 1263 -91 848 271 
Q 434 634 434 1313 
Q 434 1759 690 2068 
Q 947 2378 1403 2484 
z
M 1172 3481 
Q 1172 3119 1398 2916 
Q 1625 2713 2034 2713 
Q 2441 2713 2670 2916 
Q 2900 3119 2900 3481 
Q 2900 3844 2670 4047 
Q 2441 4250 2034 4250 
Q 1625 4250 1398 4047 
Q 1172 3844 1172 3481 
z
" transform="scale(0.015625)"/>
       </defs>
       <use xlink:href="#DejaVuSans-30"/>
       <use xlink:href="#DejaVuSans-2e" x="63.623047"/>
       <use xlink:href="#DejaVuSans-38" x="95.410156"/>
      </g>
     </g>
    </g>
    <g id="xtick_6">
     <g id="line2d_6">
      <g>
       <use xlink:href="#mfee0986979" x="398.487273" y="307.584" style="stroke: #000000; stroke-width: 0.8"/>
      </g>
     </g>
     <g id="text_6">
      <!-- 1.0 -->
      <g transform="translate(390.53571 322.182437)scale(0.1 -0.1)">
       <defs>
        <path id="DejaVuSans-31" d="M 794 531 
L 1825 531 
L 1825 4091 
L 703 3866 
L 703 4441 
L 1819 4666 
L 2450 4666 
L 2450 531 
L 3481 531 
L 3481 0 
L 794 0 
L 794 531 
z
" transform="scale(0.015625)"/>
       </defs>
       <use xlink:href="#DejaVuSans-31"/>
       <use xlink:href="#DejaVuSans-2e" x="63.623047"/>
       <use xlink:href="#DejaVuSans-30" x="95.410156"/>
      </g>
     </g>
    </g>
   </g>
   <g id="matplotlib.axis_2">
    <g id="ytick_1">
     <g id="line2d_7">
      <defs>
       <path id="m31421f4447" d="M 0 0 
L -3.5 0 
" style="stroke: #000000; stroke-width: 0.8"/>
      </defs>
      <g>
       <use xlink:href="#m31421f4447" x="57.6" y="292.845704" style="stroke: #000000; stroke-width: 0.8"/>
      </g>
     </g>
     <g id="text_7">
      <!-- 0.5 -->
      <g transform="translate(34.696875 296.644923)scale(0.1 -0.1)">
       <defs>
        <path id="DejaVuSans-35" d="M 691 4666 
L 3169 4666 
L 3169 4134 
L 1269 4134 
L 1269 2991 
Q 1406 3038 1543 3061 
Q 1681 3084 1819 3084 
Q 2600 3084 3056 2656 
Q 3513 2228 3513 1497 
Q 3513 744 3044 326 
Q 2575 -91 1722 -91 
Q 1428 -91 1123 -41 
Q 819 9 494 109 
L 494 744 
Q 775 591 1075 516 
Q 1375 441 1709 441 
Q 2250 441 2565 725 
Q 2881 1009 2881 1497 
Q 2881 1984 2565 2268 
Q 2250 2553 1709 2553 
Q 1456 2553 1204 2497 
Q 953 2441 691 2322 
L 691 4666 
z
" transform="scale(0.015625)"/>
       </defs>
       <use xlink:href="#DejaVuSans-30"/>
       <use xlink:href="#DejaVuSans-2e" x="63.623047"/>
       <use xlink:href="#DejaVuSans-35" x="95.410156"/>
      </g>
     </g>
    </g>
    <g id="ytick_2">
     <g id="line2d_8">
      <g>
       <use xlink:href="#m31421f4447" x="57.6" y="244.990163" style="stroke: #000000; stroke-width: 0.8"/>
      </g>
     </g>
     <g id="text_8">
      <!-- 0.6 -->
      <g transform="translate(34.696875 248.789382)scale(0.1 -0.1)">
       <use xlink:href="#DejaVuSans-30"/>
       <use xlink:href="#DejaVuSans-2e" x="63.623047"/>
       <use xlink:href="#DejaVuSans-36" x="95.410156"/>
      </g>
     </g>
    </g>
    <g id="ytick_3">
     <g id="line2d_9">
      <g>
       <use xlink:href="#m31421f4447" x="57.6" y="197.134622" style="stroke: #000000; stroke-width: 0.8"/>
      </g>
     </g>
     <g id="text_9">
      <!-- 0.7 -->
      <g transform="translate(34.696875 200.933841)scale(0.1 -0.1)">
       <defs>
        <path id="DejaVuSans-37" d="M 525 4666 
L 3525 4666 
L 3525 4397 
L 1831 0 
L 1172 0 
L 2766 4134 
L 525 4134 
L 525 4666 
z
" transform="scale(0.015625)"/>
       </defs>
       <use xlink:href="#DejaVuSans-30"/>
       <use xlink:href="#DejaVuSans-2e" x="63.623047"/>
       <use xlink:href="#DejaVuSans-37" x="95.410156"/>
      </g>
     </g>
    </g>
    <g id="ytick_4">
     <g id="line2d_10">
      <g>
       <use xlink:href="#m31421f4447" x="57.6" y="149.279082" style="stroke: #000000; stroke-width: 0.8"/>
      </g>
     </g>
     <g id="text_10">
      <!-- 0.8 -->
      <g transform="translate(34.696875 153.0783)scale(0.1 -0.1)">
       <use xlink:href="#DejaVuSans-30"/>
       <use xlink:href="#DejaVuSans-2e" x="63.623047"/>
       <use xlink:href="#DejaVuSans-38" x="95.410156"/>
      </g>
     </g>
    </g>
    <g id="ytick_5">
     <g id="line2d_11">
      <g>
       <use xlink:href="#m31421f4447" x="57.6" y="101.423541" style="stroke: #000000; stroke-width: 0.8"/>
      </g>
     </g>
     <g id="text_11">
      <!-- 0.9 -->
      <g transform="translate(34.696875 105.22276)scale(0.1 -0.1)">
       <defs>
        <path id="DejaVuSans-39" d="M 703 97 
L 703 672 
Q 941 559 1184 500 
Q 1428 441 1663 441 
Q 2288 441 2617 861 
Q 2947 1281 2994 2138 
Q 2813 1869 2534 1725 
Q 2256 1581 1919 1581 
Q 1219 1581 811 2004 
Q 403 2428 403 3163 
Q 403 3881 828 4315 
Q 1253 4750 1959 4750 
Q 2769 4750 3195 4129 
Q 3622 3509 3622 2328 
Q 3622 1225 3098 567 
Q 2575 -91 1691 -91 
Q 1453 -91 1209 -44 
Q 966 3 703 97 
z
M 1959 2075 
Q 2384 2075 2632 2365 
Q 2881 2656 2881 3163 
Q 2881 3666 2632 3958 
Q 2384 4250 1959 4250 
Q 1534 4250 1286 3958 
Q 1038 3666 1038 3163 
Q 1038 2656 1286 2365 
Q 1534 2075 1959 2075 
z
" transform="scale(0.015625)"/>
       </defs>
       <use xlink:href="#DejaVuSans-30"/>
       <use xlink:href="#DejaVuSans-2e" x="63.623047"/>
       <use xlink:href="#DejaVuSans-39" x="95.410156"/>
      </g>
     </g>
    </g>
    <g id="ytick_6">
     <g id="line2d_12">
      <g>
       <use xlink:href="#m31421f4447" x="57.6" y="53.568" style="stroke: #000000; stroke-width: 0.8"/>
      </g>
     </g>
     <g id="text_12">
      <!-- 1.0 -->
      <g transform="translate(34.696875 57.367219)scale(0.1 -0.1)">
       <use xlink:href="#DejaVuSans-31"/>
       <use xlink:href="#DejaVuSans-2e" x="63.623047"/>
       <use xlink:href="#DejaVuSans-30" x="95.410156"/>
      </g>
     </g>
    </g>
   </g>
   <g id="line2d_13">
    <path d="M 73.832727 53.568 
L 165.342177 53.568 
L 165.92504 55.072891 
L 167.090765 56.540394 
L 169.422216 56.468336 
L 170.587942 59.265088 
L 185.742373 58.501561 
L 204.976843 57.784347 
L 211.388334 57.589474 
L 211.971196 59.549943 
L 217.799824 59.310665 
L 218.965549 61.134093 
L 237.617157 60.284567 
L 238.782882 60.237762 
L 239.948608 61.818955 
L 242.862921 61.679109 
L 243.445784 62.443746 
L 244.028647 63.987491 
L 244.61151 64.734293 
L 253.354451 64.202565 
L 253.937314 65.645108 
L 257.43449 65.420766 
L 258.017353 66.102243 
L 259.183078 66.73925 
L 267.926019 66.161563 
L 270.25747 68.694751 
L 272.588921 68.522857 
L 273.171784 69.790217 
L 280.166137 69.258341 
L 280.749 70.47349 
L 281.914725 70.382109 
L 283.08045 71.529865 
L 290.657666 70.924932 
L 291.823392 72.021293 
L 296.486293 71.649439 
L 297.652019 72.710216 
L 299.98347 72.520689 
L 300.566333 73.039963 
L 301.149195 74.11877 
L 301.732058 74.629118 
L 314.555038 73.554073 
L 315.137901 74.037388 
L 315.720764 75.044565 
L 316.303627 75.520083 
L 321.549391 75.076108 
L 322.715117 76.000285 
L 323.297979 75.950324 
L 324.463705 76.86052 
L 326.795156 76.6562 
L 327.960881 77.547901 
L 329.70947 77.392187 
L 330.875195 78.267634 
L 331.458058 78.21463 
L 332.623783 79.07735 
L 333.206646 79.023075 
L 334.372371 79.873371 
L 340.783862 79.275522 
L 341.949587 80.099819 
L 342.53245 80.969946 
L 344.863901 80.747617 
L 345.446764 81.603354 
L 346.612489 87.307052 
L 347.195352 88.99862 
L 348.361077 95.30139 
L 348.94394 96.065198 
L 351.275391 95.739549 
L 352.441116 96.410103 
L 354.772567 96.086155 
L 357.104018 97.398308 
L 358.269744 98.848753 
L 358.852606 99.165416 
L 359.435469 101.068749 
L 360.018332 103.733834 
L 360.601195 105.197834 
L 361.184057 105.875877 
L 362.349783 112.857175 
L 362.932646 114.22909 
L 364.681234 116.097017 
L 369.344136 115.237511 
L 370.509861 122.048151 
L 371.092724 121.933058 
L 371.675587 123.528914 
L 372.258449 125.78706 
L 372.841312 126.340062 
L 373.424175 126.219976 
L 374.007038 126.434187 
L 374.5899 126.980247 
L 375.755626 130.679094 
L 376.338489 130.879051 
L 377.504214 132.560319 
L 378.087077 132.433931 
L 378.66994 132.944935 
L 379.252802 134.401247 
L 379.835665 135.217264 
L 380.418528 135.713076 
L 381.584253 138.851177 
L 382.749979 141.616069 
L 383.332842 142.379052 
L 383.915704 142.839804 
L 384.498567 145.061271 
L 385.08143 147.839238 
L 385.664292 148.848669 
L 386.247155 151.264213 
L 386.830018 154.203753 
L 387.412881 155.164683 
L 387.995743 155.29141 
L 389.161469 161.208179 
L 389.744332 161.584792 
L 390.327194 162.483809 
L 391.49292 166.325759 
L 392.075783 169.965079 
L 392.658645 172.549496 
L 393.241508 173.857942 
L 393.824371 176.123566 
L 396.155822 179.267299 
L 397.321547 197.615733 
L 397.90441 226.057346 
L 398.487273 293.166426 
L 398.487273 293.166426 
" clip-path="url(#pc0c31fb4b5)" style="fill: none; stroke: #1f77b4; stroke-width: 1.5; stroke-linecap: square"/>
   </g>
   <g id="patch_3">
    <path d="M 57.6 307.584 
L 57.6 41.472 
" style="fill: none; stroke: #000000; stroke-width: 0.8; stroke-linejoin: miter; stroke-linecap: square"/>
   </g>
   <g id="patch_4">
    <path d="M 414.72 307.584 
L 414.72 41.472 
" style="fill: none; stroke: #000000; stroke-width: 0.8; stroke-linejoin: miter; stroke-linecap: square"/>
   </g>
   <g id="patch_5">
    <path d="M 57.6 307.584 
L 414.72 307.584 
" style="fill: none; stroke: #000000; stroke-width: 0.8; stroke-linejoin: miter; stroke-linecap: square"/>
   </g>
   <g id="patch_6">
    <path d="M 57.6 41.472 
L 414.72 41.472 
" style="fill: none; stroke: #000000; stroke-width: 0.8; stroke-linejoin: miter; stroke-linecap: square"/>
   </g>
  </g>
 </g>
 <defs>
  <clipPath id="pc0c31fb4b5">
   <rect x="57.6" y="41.472" width="357.12" height="266.112"/>
  </clipPath>
 </defs>
</svg>
