<?xml version="1.0" encoding="utf-8" standalone="no"?>
<!DOCTYPE svg PUBLIC "-//W3C//DTD SVG 1.1//EN"
  "http://www.w3.org/Graphics/SVG/1.1/DTD/svg11.dtd">
<svg xmlns:xlink="http://www.w3.org/1999/xlink" width="460.8pt" height="345.6pt" viewBox="0 0 460.8 345.6" xmlns="http://www.w3.org/2000/svg" version="1.1">
 <metadata>
  <rdf:RDF xmlns:dc="http://purl.org/dc/elements/1.1/" xmlns:cc="http://creativecommons.org/ns#" xmlns:rdf="http://www.w3.org/1999/02/22-rdf-syntax-ns#">
   <cc:Work>
    <dc:type rdf:resource="http://purl.org/dc/dcmitype/StillImage"/>
    <dc:date>2022-09-15T12:37:35.313416</dc:date>
    <dc:format>image/svg+xml</dc:format>
    <dc:creator>
     <cc:Agent>
      <dc:title>Matplotlib v3.5.3, https://matplotlib.org/</dc:title>
     </cc:Agent>
    </dc:creator>
   </cc:Work>
  </rdf:RDF>
 </metadata>
 <defs>
  <style type="text/css">*{stroke-linejoin: round; stroke-linecap: butt}</style>
 </defs>
 <g id="figure_1">
  <g id="patch_1">
   <path d="M 0 345.6 
L 460.8 345.6 
L 460.8 0 
L 0 0 
z
" style="fill: #ffffff"/>
  </g>
  <g id="axes_1">
   <g id="patch_2">
    <path d="M 57.6 307.584 
L 414.72 307.584 
L 414.72 41.472 
L 57.6 41.472 
z
" style="fill: #ffffff"/>
   </g>
   <g id="PolyCollection_1">
    <defs>
     <path id="meea9771388" d="M 73.832727 -61.769118 
L 73.832727 -50.112 
L 74.267921 -93.766774 
L 74.703115 -108.531961 
L 75.138309 -134.016105 
L 75.573502 -143.871394 
L 76.008696 -156.376845 
L 76.44389 -159.855183 
L 76.879084 -162.836615 
L 77.314277 -168.799478 
L 77.749471 -173.435191 
L 78.619859 -181.719017 
L 79.055052 -187.255962 
L 79.490246 -191.657124 
L 79.92544 -193.14784 
L 80.360634 -200.849872 
L 80.795827 -205.570473 
L 81.231021 -208.551905 
L 81.666215 -209.04881 
L 82.101409 -220.974538 
L 82.536602 -221.471443 
L 82.971796 -226.937402 
L 83.40699 -228.428118 
L 83.842184 -231.40955 
L 84.277378 -233.894077 
L 84.712571 -235.384793 
L 85.147765 -236.875509 
L 85.582959 -243.335278 
L 86.018153 -244.329088 
L 86.88854 -246.813615 
L 88.629315 -247.31052 
L 89.934896 -247.807426 
L 90.37009 -248.304331 
L 92.981253 -248.801236 
L 93.85164 -249.298142 
L 94.286834 -252.279574 
L 94.722028 -255.261006 
L 95.157222 -256.254816 
L 96.027609 -257.248627 
L 96.462803 -258.242438 
L 98.203578 -258.739343 
L 99.509159 -259.236248 
L 99.944353 -259.733154 
L 100.379547 -260.230059 
L 103.861097 -260.726964 
L 104.731484 -261.22387 
L 105.601872 -261.720775 
L 106.472259 -262.714586 
L 110.824197 -267.683639 
L 113.000166 -269.174355 
L 113.870553 -269.67126 
L 114.305747 -271.161976 
L 114.740941 -271.658882 
L 116.91691 -272.155787 
L 117.352103 -272.652692 
L 118.657685 -273.646503 
L 119.528072 -275.137219 
L 120.833653 -275.634124 
L 121.704041 -276.627935 
L 123.444816 -277.12484 
L 123.88001 -277.621745 
L 125.620785 -278.118651 
L 126.055979 -278.615556 
L 126.926366 -279.112461 
L 130.407916 -280.106272 
L 131.278304 -280.603177 
L 132.148691 -281.100083 
L 135.195048 -281.596988 
L 136.935823 -282.093893 
L 137.371016 -283.087704 
L 141.722954 -283.584609 
L 142.593341 -284.081515 
L 144.334117 -285.075325 
L 146.074892 -285.572231 
L 147.815667 -286.069136 
L 152.602798 -286.566041 
L 155.213961 -287.559852 
L 156.954736 -288.056757 
L 158.695511 -289.050568 
L 160.436286 -290.044379 
L 176.973649 -290.541284 
L 178.714424 -291.038189 
L 243.558294 -291.535095 
L 243.558294 -292.032 
L 243.558294 -292.032 
L 178.714424 -291.535095 
L 176.973649 -291.038189 
L 160.436286 -290.541284 
L 158.695511 -290.044379 
L 156.954736 -289.050568 
L 155.213961 -288.056757 
L 152.602798 -287.559852 
L 147.815667 -286.566041 
L 146.074892 -286.069136 
L 144.334117 -285.572231 
L 142.593341 -285.075325 
L 141.722954 -284.081515 
L 137.371016 -283.584609 
L 136.935823 -283.087704 
L 135.195048 -282.093893 
L 132.148691 -281.596988 
L 131.278304 -281.100083 
L 130.407916 -280.603177 
L 126.926366 -280.106272 
L 126.055979 -279.112461 
L 125.620785 -278.615556 
L 123.88001 -278.118651 
L 123.444816 -277.621745 
L 121.704041 -277.12484 
L 120.833653 -276.627935 
L 119.528072 -275.634124 
L 118.657685 -275.137219 
L 117.352103 -273.646503 
L 116.91691 -272.652692 
L 114.740941 -272.155787 
L 114.305747 -271.658882 
L 113.870553 -271.161976 
L 113.000166 -269.67126 
L 110.824197 -269.174355 
L 106.472259 -267.683639 
L 105.601872 -262.714586 
L 104.731484 -261.720775 
L 103.861097 -261.22387 
L 100.379547 -260.726964 
L 99.944353 -260.230059 
L 99.509159 -259.733154 
L 98.203578 -259.236248 
L 96.462803 -258.739343 
L 96.027609 -258.242438 
L 95.157222 -257.248627 
L 94.722028 -256.254816 
L 94.286834 -255.261006 
L 93.85164 -252.279574 
L 92.981253 -249.298142 
L 90.37009 -248.801236 
L 89.934896 -248.304331 
L 88.629315 -247.807426 
L 86.88854 -247.31052 
L 86.018153 -246.813615 
L 85.582959 -243.832183 
L 85.147765 -243.335278 
L 84.712571 -236.875509 
L 84.277378 -235.384793 
L 83.842184 -233.894077 
L 83.40699 -231.40955 
L 82.971796 -228.428118 
L 82.536602 -226.937402 
L 82.101409 -221.471443 
L 81.666215 -220.974538 
L 81.231021 -209.04881 
L 80.795827 -208.551905 
L 80.360634 -204.452436 
L 79.92544 -200.60142 
L 79.490246 -193.14784 
L 79.055052 -189.882462 
L 78.619859 -184.700449 
L 77.749471 -178.90322 
L 77.314277 -172.277816 
L 76.879084 -166.977492 
L 76.44389 -160.352088 
L 76.008696 -159.855183 
L 75.573502 -150.952295 
L 75.138309 -137.496927 
L 74.703115 -117.71347 
L 74.267921 -97.245111 
L 73.832727 -61.769118 
z
" style="stroke: #1f77b4; stroke-opacity: 0.2"/>
    </defs>
    <g clip-path="url(#pf936383efe)">
     <use xlink:href="#meea9771388" x="0" y="345.6" style="fill: #1f77b4; fill-opacity: 0.2; stroke: #1f77b4; stroke-opacity: 0.2"/>
    </g>
   </g>
   <g id="matplotlib.axis_1">
    <g id="xtick_1">
     <g id="line2d_1">
      <defs>
       <path id="m837fb6d9d6" d="M 0 0 
L 0 3.5 
" style="stroke: #000000; stroke-width: 0.8"/>
      </defs>
      <g>
       <use xlink:href="#m837fb6d9d6" x="73.832727" y="307.584" style="stroke: #000000; stroke-width: 0.8"/>
      </g>
     </g>
     <g id="text_1">
      <!-- 0.0 -->
      <g transform="translate(65.881165 322.182437)scale(0.1 -0.1)">
       <defs>
        <path id="DejaVuSans-30" d="M 2034 4250 
Q 1547 4250 1301 3770 
Q 1056 3291 1056 2328 
Q 1056 1369 1301 889 
Q 1547 409 2034 409 
Q 2525 409 2770 889 
Q 3016 1369 3016 2328 
Q 3016 3291 2770 3770 
Q 2525 4250 2034 4250 
z
M 2034 4750 
Q 2819 4750 3233 4129 
Q 3647 3509 3647 2328 
Q 3647 1150 3233 529 
Q 2819 -91 2034 -91 
Q 1250 -91 836 529 
Q 422 1150 422 2328 
Q 422 3509 836 4129 
Q 1250 4750 2034 4750 
z
" transform="scale(0.015625)"/>
        <path id="DejaVuSans-2e" d="M 684 794 
L 1344 794 
L 1344 0 
L 684 0 
L 684 794 
z
" transform="scale(0.015625)"/>
       </defs>
       <use xlink:href="#DejaVuSans-30"/>
       <use xlink:href="#DejaVuSans-2e" x="63.623047"/>
       <use xlink:href="#DejaVuSans-30" x="95.410156"/>
      </g>
     </g>
    </g>
    <g id="xtick_2">
     <g id="line2d_2">
      <g>
       <use xlink:href="#m837fb6d9d6" x="138.763636" y="307.584" style="stroke: #000000; stroke-width: 0.8"/>
      </g>
     </g>
     <g id="text_2">
      <!-- 0.2 -->
      <g transform="translate(130.812074 322.182437)scale(0.1 -0.1)">
       <defs>
        <path id="DejaVuSans-32" d="M 1228 531 
L 3431 531 
L 3431 0 
L 469 0 
L 469 531 
Q 828 903 1448 1529 
Q 2069 2156 2228 2338 
Q 2531 2678 2651 2914 
Q 2772 3150 2772 3378 
Q 2772 3750 2511 3984 
Q 2250 4219 1831 4219 
Q 1534 4219 1204 4116 
Q 875 4013 500 3803 
L 500 4441 
Q 881 4594 1212 4672 
Q 1544 4750 1819 4750 
Q 2544 4750 2975 4387 
Q 3406 4025 3406 3419 
Q 3406 3131 3298 2873 
Q 3191 2616 2906 2266 
Q 2828 2175 2409 1742 
Q 1991 1309 1228 531 
z
" transform="scale(0.015625)"/>
       </defs>
       <use xlink:href="#DejaVuSans-30"/>
       <use xlink:href="#DejaVuSans-2e" x="63.623047"/>
       <use xlink:href="#DejaVuSans-32" x="95.410156"/>
      </g>
     </g>
    </g>
    <g id="xtick_3">
     <g id="line2d_3">
      <g>
       <use xlink:href="#m837fb6d9d6" x="203.694545" y="307.584" style="stroke: #000000; stroke-width: 0.8"/>
      </g>
     </g>
     <g id="text_3">
      <!-- 0.4 -->
      <g transform="translate(195.742983 322.182437)scale(0.1 -0.1)">
       <defs>
        <path id="DejaVuSans-34" d="M 2419 4116 
L 825 1625 
L 2419 1625 
L 2419 4116 
z
M 2253 4666 
L 3047 4666 
L 3047 1625 
L 3713 1625 
L 3713 1100 
L 3047 1100 
L 3047 0 
L 2419 0 
L 2419 1100 
L 313 1100 
L 313 1709 
L 2253 4666 
z
" transform="scale(0.015625)"/>
       </defs>
       <use xlink:href="#DejaVuSans-30"/>
       <use xlink:href="#DejaVuSans-2e" x="63.623047"/>
       <use xlink:href="#DejaVuSans-34" x="95.410156"/>
      </g>
     </g>
    </g>
    <g id="xtick_4">
     <g id="line2d_4">
      <g>
       <use xlink:href="#m837fb6d9d6" x="268.625455" y="307.584" style="stroke: #000000; stroke-width: 0.8"/>
      </g>
     </g>
     <g id="text_4">
      <!-- 0.6 -->
      <g transform="translate(260.673892 322.182437)scale(0.1 -0.1)">
       <defs>
        <path id="DejaVuSans-36" d="M 2113 2584 
Q 1688 2584 1439 2293 
Q 1191 2003 1191 1497 
Q 1191 994 1439 701 
Q 1688 409 2113 409 
Q 2538 409 2786 701 
Q 3034 994 3034 1497 
Q 3034 2003 2786 2293 
Q 2538 2584 2113 2584 
z
M 3366 4563 
L 3366 3988 
Q 3128 4100 2886 4159 
Q 2644 4219 2406 4219 
Q 1781 4219 1451 3797 
Q 1122 3375 1075 2522 
Q 1259 2794 1537 2939 
Q 1816 3084 2150 3084 
Q 2853 3084 3261 2657 
Q 3669 2231 3669 1497 
Q 3669 778 3244 343 
Q 2819 -91 2113 -91 
Q 1303 -91 875 529 
Q 447 1150 447 2328 
Q 447 3434 972 4092 
Q 1497 4750 2381 4750 
Q 2619 4750 2861 4703 
Q 3103 4656 3366 4563 
z
" transform="scale(0.015625)"/>
       </defs>
       <use xlink:href="#DejaVuSans-30"/>
       <use xlink:href="#DejaVuSans-2e" x="63.623047"/>
       <use xlink:href="#DejaVuSans-36" x="95.410156"/>
      </g>
     </g>
    </g>
    <g id="xtick_5">
     <g id="line2d_5">
      <g>
       <use xlink:href="#m837fb6d9d6" x="333.556364" y="307.584" style="stroke: #000000; stroke-width: 0.8"/>
      </g>
     </g>
     <g id="text_5">
      <!-- 0.8 -->
      <g transform="translate(325.604801 322.182437)scale(0.1 -0.1)">
       <defs>
        <path id="DejaVuSans-38" d="M 2034 2216 
Q 1584 2216 1326 1975 
Q 1069 1734 1069 1313 
Q 1069 891 1326 650 
Q 1584 409 2034 409 
Q 2484 409 2743 651 
Q 3003 894 3003 1313 
Q 3003 1734 2745 1975 
Q 2488 2216 2034 2216 
z
M 1403 2484 
Q 997 2584 770 2862 
Q 544 3141 544 3541 
Q 544 4100 942 4425 
Q 1341 4750 2034 4750 
Q 2731 4750 3128 4425 
Q 3525 4100 3525 3541 
Q 3525 3141 3298 2862 
Q 3072 2584 2669 2484 
Q 3125 2378 3379 2068 
Q 3634 1759 3634 1313 
Q 3634 634 3220 271 
Q 2806 -91 2034 -91 
Q 1263 -91 848 271 
Q 434 634 434 1313 
Q 434 1759 690 2068 
Q 947 2378 1403 2484 
z
M 1172 3481 
Q 1172 3119 1398 2916 
Q 1625 2713 2034 2713 
Q 2441 2713 2670 2916 
Q 2900 3119 2900 3481 
Q 2900 3844 2670 4047 
Q 2441 4250 2034 4250 
Q 1625 4250 1398 4047 
Q 1172 3844 1172 3481 
z
" transform="scale(0.015625)"/>
       </defs>
       <use xlink:href="#DejaVuSans-30"/>
       <use xlink:href="#DejaVuSans-2e" x="63.623047"/>
       <use xlink:href="#DejaVuSans-38" x="95.410156"/>
      </g>
     </g>
    </g>
    <g id="xtick_6">
     <g id="line2d_6">
      <g>
       <use xlink:href="#m837fb6d9d6" x="398.487273" y="307.584" style="stroke: #000000; stroke-width: 0.8"/>
      </g>
     </g>
     <g id="text_6">
      <!-- 1.0 -->
      <g transform="translate(390.53571 322.182437)scale(0.1 -0.1)">
       <defs>
        <path id="DejaVuSans-31" d="M 794 531 
L 1825 531 
L 1825 4091 
L 703 3866 
L 703 4441 
L 1819 4666 
L 2450 4666 
L 2450 531 
L 3481 531 
L 3481 0 
L 794 0 
L 794 531 
z
" transform="scale(0.015625)"/>
       </defs>
       <use xlink:href="#DejaVuSans-31"/>
       <use xlink:href="#DejaVuSans-2e" x="63.623047"/>
       <use xlink:href="#DejaVuSans-30" x="95.410156"/>
      </g>
     </g>
    </g>
   </g>
   <g id="matplotlib.axis_2">
    <g id="ytick_1">
     <g id="line2d_7">
      <defs>
       <path id="mec98c579ad" d="M 0 0 
L -3.5 0 
" style="stroke: #000000; stroke-width: 0.8"/>
      </defs>
      <g>
       <use xlink:href="#mec98c579ad" x="57.6" y="274.989014" style="stroke: #000000; stroke-width: 0.8"/>
      </g>
     </g>
     <g id="text_7">
      <!-- 0.2 -->
      <g transform="translate(34.696875 278.788233)scale(0.1 -0.1)">
       <use xlink:href="#DejaVuSans-30"/>
       <use xlink:href="#DejaVuSans-2e" x="63.623047"/>
       <use xlink:href="#DejaVuSans-32" x="95.410156"/>
      </g>
     </g>
    </g>
    <g id="ytick_2">
     <g id="line2d_8">
      <g>
       <use xlink:href="#mec98c579ad" x="57.6" y="219.633761" style="stroke: #000000; stroke-width: 0.8"/>
      </g>
     </g>
     <g id="text_8">
      <!-- 0.4 -->
      <g transform="translate(34.696875 223.43298)scale(0.1 -0.1)">
       <use xlink:href="#DejaVuSans-30"/>
       <use xlink:href="#DejaVuSans-2e" x="63.623047"/>
       <use xlink:href="#DejaVuSans-34" x="95.410156"/>
      </g>
     </g>
    </g>
    <g id="ytick_3">
     <g id="line2d_9">
      <g>
       <use xlink:href="#mec98c579ad" x="57.6" y="164.278507" style="stroke: #000000; stroke-width: 0.8"/>
      </g>
     </g>
     <g id="text_9">
      <!-- 0.6 -->
      <g transform="translate(34.696875 168.077726)scale(0.1 -0.1)">
       <use xlink:href="#DejaVuSans-30"/>
       <use xlink:href="#DejaVuSans-2e" x="63.623047"/>
       <use xlink:href="#DejaVuSans-36" x="95.410156"/>
      </g>
     </g>
    </g>
    <g id="ytick_4">
     <g id="line2d_10">
      <g>
       <use xlink:href="#mec98c579ad" x="57.6" y="108.923254" style="stroke: #000000; stroke-width: 0.8"/>
      </g>
     </g>
     <g id="text_10">
      <!-- 0.8 -->
      <g transform="translate(34.696875 112.722472)scale(0.1 -0.1)">
       <use xlink:href="#DejaVuSans-30"/>
       <use xlink:href="#DejaVuSans-2e" x="63.623047"/>
       <use xlink:href="#DejaVuSans-38" x="95.410156"/>
      </g>
     </g>
    </g>
    <g id="ytick_5">
     <g id="line2d_11">
      <g>
       <use xlink:href="#mec98c579ad" x="57.6" y="53.568" style="stroke: #000000; stroke-width: 0.8"/>
      </g>
     </g>
     <g id="text_11">
      <!-- 1.0 -->
      <g transform="translate(34.696875 57.367219)scale(0.1 -0.1)">
       <use xlink:href="#DejaVuSans-31"/>
       <use xlink:href="#DejaVuSans-2e" x="63.623047"/>
       <use xlink:href="#DejaVuSans-30" x="95.410156"/>
      </g>
     </g>
    </g>
   </g>
   <g id="line2d_12">
    <path d="M 73.832727 289.57928 
L 74.267921 250.34251 
L 74.703115 232.619553 
L 75.138309 209.894416 
L 75.573502 198.250268 
L 76.008696 187.483986 
L 76.44389 185.496365 
L 76.879084 180.610129 
L 77.314277 175.061353 
L 77.749471 169.512577 
L 78.619859 162.555902 
L 79.055052 156.995295 
L 79.490246 153.114701 
L 79.92544 148.72537 
L 80.360634 143.259412 
L 80.795827 138.538811 
L 81.231021 136.799643 
L 81.666215 130.588326 
L 82.101409 124.377009 
L 82.536602 121.395577 
L 82.971796 117.91724 
L 83.40699 115.681166 
L 83.842184 112.948187 
L 84.277378 110.960565 
L 84.712571 109.469849 
L 85.147765 105.494607 
L 85.582959 102.01627 
L 86.018153 100.028648 
L 86.88854 98.537932 
L 88.629315 98.041027 
L 89.934896 97.544122 
L 90.37009 97.047216 
L 92.981253 96.550311 
L 93.85164 94.811142 
L 94.286834 91.82971 
L 94.722028 89.842089 
L 95.157222 88.848278 
L 96.027609 87.854468 
L 96.462803 87.10911 
L 98.203578 86.612204 
L 99.509159 86.115299 
L 99.944353 85.618394 
L 100.379547 85.121488 
L 103.861097 84.624583 
L 104.731484 84.127678 
L 105.601872 83.38232 
L 106.472259 80.400888 
L 110.824197 77.171003 
L 113.000166 76.177192 
L 113.870553 75.183382 
L 114.305747 74.189571 
L 114.740941 73.692666 
L 116.91691 73.19576 
L 117.352103 72.450402 
L 118.657685 71.208139 
L 119.528072 70.214329 
L 120.833653 69.468971 
L 121.704041 68.723613 
L 123.444816 68.226707 
L 123.88001 67.729802 
L 125.620785 67.232897 
L 126.055979 66.735991 
L 126.926366 65.990633 
L 130.407916 65.245275 
L 131.278304 64.74837 
L 132.148691 64.251465 
L 135.195048 63.754559 
L 136.935823 63.009201 
L 137.371016 62.263843 
L 141.722954 61.766938 
L 142.593341 61.02158 
L 144.334117 60.276222 
L 146.074892 59.779317 
L 147.815667 59.282411 
L 152.602798 58.537053 
L 155.213961 57.791695 
L 156.954736 57.046337 
L 158.695511 56.052527 
L 160.436286 55.307169 
L 176.973649 54.810263 
L 178.714424 54.313358 
L 243.558294 53.816453 
L 398.487273 53.568 
" clip-path="url(#pf936383efe)" style="fill: none; stroke: #1f77b4; stroke-width: 1.5; stroke-linecap: square"/>
   </g>
   <g id="patch_3">
    <path d="M 57.6 307.584 
L 57.6 41.472 
" style="fill: none; stroke: #000000; stroke-width: 0.8; stroke-linejoin: miter; stroke-linecap: square"/>
   </g>
   <g id="patch_4">
    <path d="M 414.72 307.584 
L 414.72 41.472 
" style="fill: none; stroke: #000000; stroke-width: 0.8; stroke-linejoin: miter; stroke-linecap: square"/>
   </g>
   <g id="patch_5">
    <path d="M 57.6 307.584 
L 414.72 307.584 
" style="fill: none; stroke: #000000; stroke-width: 0.8; stroke-linejoin: miter; stroke-linecap: square"/>
   </g>
   <g id="patch_6">
    <path d="M 57.6 41.472 
L 414.72 41.472 
" style="fill: none; stroke: #000000; stroke-width: 0.8; stroke-linejoin: miter; stroke-linecap: square"/>
   </g>
  </g>
 </g>
 <defs>
  <clipPath id="pf936383efe">
   <rect x="57.6" y="41.472" width="357.12" height="266.112"/>
  </clipPath>
 </defs>
</svg>
