<svg class="main-svg" xmlns="http://www.w3.org/2000/svg" xmlns:xlink="http://www.w3.org/1999/xlink" width="800" height="400" style="" viewBox="0 0 800 400"><rect x="0" y="0" width="800" height="400" style="fill: rgb(255, 255, 255); fill-opacity: 1;"/><defs id="defs-b48d5b"><g class="clips"><clipPath id="clipb48d5bxyplot" class="plotclip"><rect width="740" height="362"/></clipPath><clipPath class="axesclip" id="clipb48d5bx"><rect x="58" y="0" width="740" height="400"/></clipPath><clipPath class="axesclip" id="clipb48d5by"><rect x="0" y="0" width="800" height="362"/></clipPath><clipPath class="axesclip" id="clipb48d5bxy"><rect x="58" y="0" width="740" height="362"/></clipPath></g><g class="gradients"/><g class="patterns"/></defs><g class="bglayer"><rect class="bg" x="58" y="0" width="740" height="362" style="fill: rgb(229, 236, 246); fill-opacity: 1; stroke-width: 0;"/></g><g class="layer-below"><g class="imagelayer"/><g class="shapelayer"/></g><g class="cartesianlayer"><g class="subplot xy"><g class="layer-subplot"><g class="shapelayer"/><g class="imagelayer"/></g><g class="minor-gridlayer"><g class="x"/><g class="y"/></g><g class="gridlayer"><g class="x"/><g class="y"><path class="ygrid crisp" transform="translate(0,343.9)" d="M58,0h740" style="stroke: rgb(255, 255, 255); stroke-opacity: 1; stroke-width: 1px;"/><path class="ygrid crisp" transform="translate(0,321.75)" d="M58,0h740" style="stroke: rgb(255, 255, 255); stroke-opacity: 1; stroke-width: 1px;"/><path class="ygrid crisp" transform="translate(0,292.46)" d="M58,0h740" style="stroke: rgb(255, 255, 255); stroke-opacity: 1; stroke-width: 1px;"/><path class="ygrid crisp" transform="translate(0,270.31)" d="M58,0h740" style="stroke: rgb(255, 255, 255); stroke-opacity: 1; stroke-width: 1px;"/><path class="ygrid crisp" transform="translate(0,248.16)" d="M58,0h740" style="stroke: rgb(255, 255, 255); stroke-opacity: 1; stroke-width: 1px;"/><path class="ygrid crisp" transform="translate(0,218.88)" d="M58,0h740" style="stroke: rgb(255, 255, 255); stroke-opacity: 1; stroke-width: 1px;"/><path class="ygrid crisp" transform="translate(0,196.73)" d="M58,0h740" style="stroke: rgb(255, 255, 255); stroke-opacity: 1; stroke-width: 1px;"/><path class="ygrid crisp" transform="translate(0,174.57)" d="M58,0h740" style="stroke: rgb(255, 255, 255); stroke-opacity: 1; stroke-width: 1px;"/><path class="ygrid crisp" transform="translate(0,145.29)" d="M58,0h740" style="stroke: rgb(255, 255, 255); stroke-opacity: 1; stroke-width: 1px;"/><path class="ygrid crisp" transform="translate(0,123.14)" d="M58,0h740" style="stroke: rgb(255, 255, 255); stroke-opacity: 1; stroke-width: 1px;"/><path class="ygrid crisp" transform="translate(0,100.99)" d="M58,0h740" style="stroke: rgb(255, 255, 255); stroke-opacity: 1; stroke-width: 1px;"/><path class="ygrid crisp" transform="translate(0,71.7)" d="M58,0h740" style="stroke: rgb(255, 255, 255); stroke-opacity: 1; stroke-width: 1px;"/><path class="ygrid crisp" transform="translate(0,49.55)" d="M58,0h740" style="stroke: rgb(255, 255, 255); stroke-opacity: 1; stroke-width: 1px;"/><path class="ygrid crisp" transform="translate(0,27.4)" d="M58,0h740" style="stroke: rgb(255, 255, 255); stroke-opacity: 1; stroke-width: 1px;"/></g></g><g class="zerolinelayer"/><path class="xlines-below"/><path class="ylines-below"/><g class="overlines-below"/><g class="xaxislayer-below"/><g class="yaxislayer-below"/><g class="overaxes-below"/><g class="plot" transform="translate(58,0)" clip-path="url(#clipb48d5bxyplot)"><g class="barlayer mlayer"><g class="trace bars" style="opacity: 1;"><g class="points"><g class="point"><path d="M0.86,3801V18.1H7.74V3801Z" style="vector-effect: non-scaling-stroke; opacity: 1; stroke-width: 0.5px; fill: rgb(99, 110, 250); fill-opacity: 1; stroke: rgb(229, 236, 246); stroke-opacity: 1;"/></g><g class="point"><path d="M9.47,3801V79.55H16.35V3801Z" style="vector-effect: non-scaling-stroke; opacity: 1; stroke-width: 0.5px; fill: rgb(99, 110, 250); fill-opacity: 1; stroke: rgb(229, 236, 246); stroke-opacity: 1;"/></g><g class="point"><path d="M18.07,3801V116.01H24.95V3801Z" style="vector-effect: non-scaling-stroke; opacity: 1; stroke-width: 0.5px; fill: rgb(99, 110, 250); fill-opacity: 1; stroke: rgb(229, 236, 246); stroke-opacity: 1;"/></g><g class="point"><path d="M26.67,3801V140.66H33.56V3801Z" style="vector-effect: non-scaling-stroke; opacity: 1; stroke-width: 0.5px; fill: rgb(99, 110, 250); fill-opacity: 1; stroke: rgb(229, 236, 246); stroke-opacity: 1;"/></g><g class="point"><path d="M35.28,3801V159.55H42.16V3801Z" style="vector-effect: non-scaling-stroke; opacity: 1; stroke-width: 0.5px; fill: rgb(99, 110, 250); fill-opacity: 1; stroke: rgb(229, 236, 246); stroke-opacity: 1;"/></g><g class="point"><path d="M43.88,3801V176.89H50.77V3801Z" style="vector-effect: non-scaling-stroke; opacity: 1; stroke-width: 0.5px; fill: rgb(99, 110, 250); fill-opacity: 1; stroke: rgb(229, 236, 246); stroke-opacity: 1;"/></g><g class="point"><path d="M52.49,3801V192.26H59.37V3801Z" style="vector-effect: non-scaling-stroke; opacity: 1; stroke-width: 0.5px; fill: rgb(99, 110, 250); fill-opacity: 1; stroke: rgb(229, 236, 246); stroke-opacity: 1;"/></g><g class="point"><path d="M61.09,3801V194.56H67.98V3801Z" style="vector-effect: non-scaling-stroke; opacity: 1; stroke-width: 0.5px; fill: rgb(99, 110, 250); fill-opacity: 1; stroke: rgb(229, 236, 246); stroke-opacity: 1;"/></g><g class="point"><path d="M69.7,3801V221.54H76.58V3801Z" style="vector-effect: non-scaling-stroke; opacity: 1; stroke-width: 0.5px; fill: rgb(99, 110, 250); fill-opacity: 1; stroke: rgb(229, 236, 246); stroke-opacity: 1;"/></g><g class="point"><path d="M78.3,3801V205.92H85.19V3801Z" style="vector-effect: non-scaling-stroke; opacity: 1; stroke-width: 0.5px; fill: rgb(99, 110, 250); fill-opacity: 1; stroke: rgb(229, 236, 246); stroke-opacity: 1;"/></g><g class="point"><path d="M86.91,3801V226.82H93.79V3801Z" style="vector-effect: non-scaling-stroke; opacity: 1; stroke-width: 0.5px; fill: rgb(99, 110, 250); fill-opacity: 1; stroke: rgb(229, 236, 246); stroke-opacity: 1;"/></g><g class="point"><path d="M95.51,3801V229.38H102.4V3801Z" style="vector-effect: non-scaling-stroke; opacity: 1; stroke-width: 0.5px; fill: rgb(99, 110, 250); fill-opacity: 1; stroke: rgb(229, 236, 246); stroke-opacity: 1;"/></g><g class="point"><path d="M104.12,3801V243.69H111V3801Z" style="vector-effect: non-scaling-stroke; opacity: 1; stroke-width: 0.5px; fill: rgb(99, 110, 250); fill-opacity: 1; stroke: rgb(229, 236, 246); stroke-opacity: 1;"/></g><g class="point"><path d="M112.72,3801V261.93H119.6V3801Z" style="vector-effect: non-scaling-stroke; opacity: 1; stroke-width: 0.5px; fill: rgb(99, 110, 250); fill-opacity: 1; stroke: rgb(229, 236, 246); stroke-opacity: 1;"/></g><g class="point"><path d="M121.33,3801V234.15H128.21V3801Z" style="vector-effect: non-scaling-stroke; opacity: 1; stroke-width: 0.5px; fill: rgb(99, 110, 250); fill-opacity: 1; stroke: rgb(229, 236, 246); stroke-opacity: 1;"/></g><g class="point"><path d="M129.93,3801V255.29H136.81V3801Z" style="vector-effect: non-scaling-stroke; opacity: 1; stroke-width: 0.5px; fill: rgb(99, 110, 250); fill-opacity: 1; stroke: rgb(229, 236, 246); stroke-opacity: 1;"/></g><g class="point"><path d="M138.53,3801V267.27H145.42V3801Z" style="vector-effect: non-scaling-stroke; opacity: 1; stroke-width: 0.5px; fill: rgb(99, 110, 250); fill-opacity: 1; stroke: rgb(229, 236, 246); stroke-opacity: 1;"/></g><g class="point"><path d="M147.14,3801V299.6H154.02V3801Z" style="vector-effect: non-scaling-stroke; opacity: 1; stroke-width: 0.5px; fill: rgb(99, 110, 250); fill-opacity: 1; stroke: rgb(229, 236, 246); stroke-opacity: 1;"/></g><g class="point"><path d="M155.74,3801V277.44H162.63V3801Z" style="vector-effect: non-scaling-stroke; opacity: 1; stroke-width: 0.5px; fill: rgb(99, 110, 250); fill-opacity: 1; stroke: rgb(229, 236, 246); stroke-opacity: 1;"/></g><g class="point"><path d="M164.35,3801V286.64H171.23V3801Z" style="vector-effect: non-scaling-stroke; opacity: 1; stroke-width: 0.5px; fill: rgb(99, 110, 250); fill-opacity: 1; stroke: rgb(229, 236, 246); stroke-opacity: 1;"/></g><g class="point"><path d="M172.95,3801V299.6H179.84V3801Z" style="vector-effect: non-scaling-stroke; opacity: 1; stroke-width: 0.5px; fill: rgb(99, 110, 250); fill-opacity: 1; stroke: rgb(229, 236, 246); stroke-opacity: 1;"/></g><g class="point"><path d="M181.56,3801V321.75H188.44V3801Z" style="vector-effect: non-scaling-stroke; opacity: 1; stroke-width: 0.5px; fill: rgb(99, 110, 250); fill-opacity: 1; stroke: rgb(229, 236, 246); stroke-opacity: 1;"/></g><g class="point"><path d="M190.16,3801V292.46H197.05V3801Z" style="vector-effect: non-scaling-stroke; opacity: 1; stroke-width: 0.5px; fill: rgb(99, 110, 250); fill-opacity: 1; stroke: rgb(229, 236, 246); stroke-opacity: 1;"/></g><g class="point"><path d="M207.37,3801V277.44H214.26V3801Z" style="vector-effect: non-scaling-stroke; opacity: 1; stroke-width: 0.5px; fill: rgb(99, 110, 250); fill-opacity: 1; stroke: rgb(229, 236, 246); stroke-opacity: 1;"/></g><g class="point"><path d="M215.98,3801V299.6H222.86V3801Z" style="vector-effect: non-scaling-stroke; opacity: 1; stroke-width: 0.5px; fill: rgb(99, 110, 250); fill-opacity: 1; stroke: rgb(229, 236, 246); stroke-opacity: 1;"/></g><g class="point"><path d="M224.58,3801V308.79H231.47V3801Z" style="vector-effect: non-scaling-stroke; opacity: 1; stroke-width: 0.5px; fill: rgb(99, 110, 250); fill-opacity: 1; stroke: rgb(229, 236, 246); stroke-opacity: 1;"/></g><g class="point"><path d="M241.79,3801V292.46H248.67V3801Z" style="vector-effect: non-scaling-stroke; opacity: 1; stroke-width: 0.5px; fill: rgb(99, 110, 250); fill-opacity: 1; stroke: rgb(229, 236, 246); stroke-opacity: 1;"/></g><g class="point"><path d="M250.4,3801V321.75H257.28V3801Z" style="vector-effect: non-scaling-stroke; opacity: 1; stroke-width: 0.5px; fill: rgb(99, 110, 250); fill-opacity: 1; stroke: rgb(229, 236, 246); stroke-opacity: 1;"/></g><g class="point"><path d="M259,3801V343.9H265.88V3801Z" style="vector-effect: non-scaling-stroke; opacity: 1; stroke-width: 0.5px; fill: rgb(99, 110, 250); fill-opacity: 1; stroke: rgb(229, 236, 246); stroke-opacity: 1;"/></g><g class="point"><path d="M267.6,3801V343.9H274.49V3801Z" style="vector-effect: non-scaling-stroke; opacity: 1; stroke-width: 0.5px; fill: rgb(99, 110, 250); fill-opacity: 1; stroke: rgb(229, 236, 246); stroke-opacity: 1;"/></g><g class="point"><path d="M276.21,3801V343.9H283.09V3801Z" style="vector-effect: non-scaling-stroke; opacity: 1; stroke-width: 0.5px; fill: rgb(99, 110, 250); fill-opacity: 1; stroke: rgb(229, 236, 246); stroke-opacity: 1;"/></g><g class="point"><path d="M284.81,3801V343.9H291.7V3801Z" style="vector-effect: non-scaling-stroke; opacity: 1; stroke-width: 0.5px; fill: rgb(99, 110, 250); fill-opacity: 1; stroke: rgb(229, 236, 246); stroke-opacity: 1;"/></g><g class="point"><path d="M302.02,3801V343.9H308.91V3801Z" style="vector-effect: non-scaling-stroke; opacity: 1; stroke-width: 0.5px; fill: rgb(99, 110, 250); fill-opacity: 1; stroke: rgb(229, 236, 246); stroke-opacity: 1;"/></g><g class="point"><path d="M379.47,3801V299.6H386.35V3801Z" style="vector-effect: non-scaling-stroke; opacity: 1; stroke-width: 0.5px; fill: rgb(99, 110, 250); fill-opacity: 1; stroke: rgb(229, 236, 246); stroke-opacity: 1;"/></g><g class="point"><path d="M388.07,3801V321.75H394.95V3801Z" style="vector-effect: non-scaling-stroke; opacity: 1; stroke-width: 0.5px; fill: rgb(99, 110, 250); fill-opacity: 1; stroke: rgb(229, 236, 246); stroke-opacity: 1;"/></g><g class="point"><path d="M396.67,3801V321.75H403.56V3801Z" style="vector-effect: non-scaling-stroke; opacity: 1; stroke-width: 0.5px; fill: rgb(99, 110, 250); fill-opacity: 1; stroke: rgb(229, 236, 246); stroke-opacity: 1;"/></g><g class="point"><path d="M405.28,3801V321.75H412.16V3801Z" style="vector-effect: non-scaling-stroke; opacity: 1; stroke-width: 0.5px; fill: rgb(99, 110, 250); fill-opacity: 1; stroke: rgb(229, 236, 246); stroke-opacity: 1;"/></g><g class="point"><path d="M456.91,3801V321.75H463.79V3801Z" style="vector-effect: non-scaling-stroke; opacity: 1; stroke-width: 0.5px; fill: rgb(99, 110, 250); fill-opacity: 1; stroke: rgb(229, 236, 246); stroke-opacity: 1;"/></g><g class="point"><path d="M465.51,3801V308.79H472.4V3801Z" style="vector-effect: non-scaling-stroke; opacity: 1; stroke-width: 0.5px; fill: rgb(99, 110, 250); fill-opacity: 1; stroke: rgb(229, 236, 246); stroke-opacity: 1;"/></g><g class="point"><path d="M491.33,3801V343.9H498.21V3801Z" style="vector-effect: non-scaling-stroke; opacity: 1; stroke-width: 0.5px; fill: rgb(99, 110, 250); fill-opacity: 1; stroke: rgb(229, 236, 246); stroke-opacity: 1;"/></g><g class="point"><path d="M603.19,3801V343.9H610.07V3801Z" style="vector-effect: non-scaling-stroke; opacity: 1; stroke-width: 0.5px; fill: rgb(99, 110, 250); fill-opacity: 1; stroke: rgb(229, 236, 246); stroke-opacity: 1;"/></g><g class="point"><path d="M611.79,3801V343.9H618.67V3801Z" style="vector-effect: non-scaling-stroke; opacity: 1; stroke-width: 0.5px; fill: rgb(99, 110, 250); fill-opacity: 1; stroke: rgb(229, 236, 246); stroke-opacity: 1;"/></g><g class="point"><path d="M732.26,3801V343.9H739.14V3801Z" style="vector-effect: non-scaling-stroke; opacity: 1; stroke-width: 0.5px; fill: rgb(99, 110, 250); fill-opacity: 1; stroke: rgb(229, 236, 246); stroke-opacity: 1;"/></g></g></g></g></g><g class="overplot"/><path class="xlines-above crisp" d="M0,0" style="fill: none;"/><path class="ylines-above crisp" d="M0,0" style="fill: none;"/><g class="overlines-above"/><g class="xaxislayer-above"><g class="xtick"><text text-anchor="start" x="1.575" y="367.5" transform="translate(62.3,0) rotate(90,1.575,363)" style="font-family: Arial; font-size: 9px; fill: rgb(42, 63, 95); fill-opacity: 1; white-space: pre; opacity: 1;">1</text></g><g class="xtick"><text text-anchor="start" x="1.575" y="367.5" style="font-family: Arial; font-size: 9px; fill: rgb(42, 63, 95); fill-opacity: 1; white-space: pre; opacity: 1;" transform="translate(70.91,0) rotate(90,1.575,363)">2</text></g><g class="xtick"><text text-anchor="start" x="1.575" y="367.5" style="font-family: Arial; font-size: 9px; fill: rgb(42, 63, 95); fill-opacity: 1; white-space: pre; opacity: 1;" transform="translate(79.51,0) rotate(90,1.575,363)">3</text></g><g class="xtick"><text text-anchor="start" x="1.575" y="367.5" style="font-family: Arial; font-size: 9px; fill: rgb(42, 63, 95); fill-opacity: 1; white-space: pre; opacity: 1;" transform="translate(88.12,0) rotate(90,1.575,363)">4</text></g><g class="xtick"><text text-anchor="start" x="1.575" y="367.5" style="font-family: Arial; font-size: 9px; fill: rgb(42, 63, 95); fill-opacity: 1; white-space: pre; opacity: 1;" transform="translate(96.72,0) rotate(90,1.575,363)">5</text></g><g class="xtick"><text text-anchor="start" x="1.575" y="367.5" style="font-family: Arial; font-size: 9px; fill: rgb(42, 63, 95); fill-opacity: 1; white-space: pre; opacity: 1;" transform="translate(105.33,0) rotate(90,1.575,363)">6</text></g><g class="xtick"><text text-anchor="start" x="1.575" y="367.5" style="font-family: Arial; font-size: 9px; fill: rgb(42, 63, 95); fill-opacity: 1; white-space: pre; opacity: 1;" transform="translate(113.93,0) rotate(90,1.575,363)">7</text></g><g class="xtick"><text text-anchor="start" x="1.575" y="367.5" style="font-family: Arial; font-size: 9px; fill: rgb(42, 63, 95); fill-opacity: 1; white-space: pre; opacity: 1;" transform="translate(122.53,0) rotate(90,1.575,363)">8</text></g><g class="xtick"><text text-anchor="start" x="1.575" y="367.5" style="font-family: Arial; font-size: 9px; fill: rgb(42, 63, 95); fill-opacity: 1; white-space: pre; opacity: 1;" transform="translate(131.14,0) rotate(90,1.575,363)">9</text></g><g class="xtick"><text text-anchor="start" x="1.575" y="367.5" style="font-family: Arial; font-size: 9px; fill: rgb(42, 63, 95); fill-opacity: 1; white-space: pre; opacity: 1;" transform="translate(139.74,0) rotate(90,1.575,363)">10</text></g><g class="xtick"><text text-anchor="start" x="1.575" y="367.5" style="font-family: Arial; font-size: 9px; fill: rgb(42, 63, 95); fill-opacity: 1; white-space: pre; opacity: 1;" transform="translate(148.35,0) rotate(90,1.575,363)">11</text></g><g class="xtick"><text text-anchor="start" x="1.575" y="367.5" style="font-family: Arial; font-size: 9px; fill: rgb(42, 63, 95); fill-opacity: 1; white-space: pre; opacity: 1;" transform="translate(156.95,0) rotate(90,1.575,363)">12</text></g><g class="xtick"><text text-anchor="start" x="1.575" y="367.5" style="font-family: Arial; font-size: 9px; fill: rgb(42, 63, 95); fill-opacity: 1; white-space: pre; opacity: 1;" transform="translate(165.56,0) rotate(90,1.575,363)">13</text></g><g class="xtick"><text text-anchor="start" x="1.575" y="367.5" style="font-family: Arial; font-size: 9px; fill: rgb(42, 63, 95); fill-opacity: 1; white-space: pre; opacity: 1;" transform="translate(174.16,0) rotate(90,1.575,363)">14</text></g><g class="xtick"><text text-anchor="start" x="1.575" y="367.5" style="font-family: Arial; font-size: 9px; fill: rgb(42, 63, 95); fill-opacity: 1; white-space: pre; opacity: 1;" transform="translate(182.76999999999998,0) rotate(90,1.575,363)">15</text></g><g class="xtick"><text text-anchor="start" x="1.575" y="367.5" style="font-family: Arial; font-size: 9px; fill: rgb(42, 63, 95); fill-opacity: 1; white-space: pre; opacity: 1;" transform="translate(191.37,0) rotate(90,1.575,363)">16</text></g><g class="xtick"><text text-anchor="start" x="1.575" y="367.5" style="font-family: Arial; font-size: 9px; fill: rgb(42, 63, 95); fill-opacity: 1; white-space: pre; opacity: 1;" transform="translate(199.98,0) rotate(90,1.575,363)">17</text></g><g class="xtick"><text text-anchor="start" x="1.575" y="367.5" style="font-family: Arial; font-size: 9px; fill: rgb(42, 63, 95); fill-opacity: 1; white-space: pre; opacity: 1;" transform="translate(208.58,0) rotate(90,1.575,363)">18</text></g><g class="xtick"><text text-anchor="start" x="1.575" y="367.5" style="font-family: Arial; font-size: 9px; fill: rgb(42, 63, 95); fill-opacity: 1; white-space: pre; opacity: 1;" transform="translate(217.19,0) rotate(90,1.575,363)">19</text></g><g class="xtick"><text text-anchor="start" x="1.575" y="367.5" style="font-family: Arial; font-size: 9px; fill: rgb(42, 63, 95); fill-opacity: 1; white-space: pre; opacity: 1;" transform="translate(225.79,0) rotate(90,1.575,363)">20</text></g><g class="xtick"><text text-anchor="start" x="1.575" y="367.5" style="font-family: Arial; font-size: 9px; fill: rgb(42, 63, 95); fill-opacity: 1; white-space: pre; opacity: 1;" transform="translate(234.4,0) rotate(90,1.575,363)">21</text></g><g class="xtick"><text text-anchor="start" x="1.575" y="367.5" style="font-family: Arial; font-size: 9px; fill: rgb(42, 63, 95); fill-opacity: 1; white-space: pre; opacity: 1;" transform="translate(243,0) rotate(90,1.575,363)">22</text></g><g class="xtick"><text text-anchor="start" x="1.575" y="367.5" style="font-family: Arial; font-size: 9px; fill: rgb(42, 63, 95); fill-opacity: 1; white-space: pre; opacity: 1;" transform="translate(251.6,0) rotate(90,1.575,363)">23</text></g><g class="xtick"><text text-anchor="start" x="1.575" y="367.5" style="font-family: Arial; font-size: 9px; fill: rgb(42, 63, 95); fill-opacity: 1; white-space: pre; opacity: 1;" transform="translate(260.21000000000004,0) rotate(90,1.575,363)">24</text></g><g class="xtick"><text text-anchor="start" x="1.575" y="367.5" style="font-family: Arial; font-size: 9px; fill: rgb(42, 63, 95); fill-opacity: 1; white-space: pre; opacity: 1;" transform="translate(268.81,0) rotate(90,1.575,363)">25</text></g><g class="xtick"><text text-anchor="start" x="1.575" y="367.5" style="font-family: Arial; font-size: 9px; fill: rgb(42, 63, 95); fill-opacity: 1; white-space: pre; opacity: 1;" transform="translate(277.41999999999996,0) rotate(90,1.575,363)">26</text></g><g class="xtick"><text text-anchor="start" x="1.575" y="367.5" style="font-family: Arial; font-size: 9px; fill: rgb(42, 63, 95); fill-opacity: 1; white-space: pre; opacity: 1;" transform="translate(286.02,0) rotate(90,1.575,363)">27</text></g><g class="xtick"><text text-anchor="start" x="1.575" y="367.5" style="font-family: Arial; font-size: 9px; fill: rgb(42, 63, 95); fill-opacity: 1; white-space: pre; opacity: 1;" transform="translate(294.63,0) rotate(90,1.575,363)">28</text></g><g class="xtick"><text text-anchor="start" x="1.575" y="367.5" style="font-family: Arial; font-size: 9px; fill: rgb(42, 63, 95); fill-opacity: 1; white-space: pre; opacity: 1;" transform="translate(303.23,0) rotate(90,1.575,363)">29</text></g><g class="xtick"><text text-anchor="start" x="1.575" y="367.5" style="font-family: Arial; font-size: 9px; fill: rgb(42, 63, 95); fill-opacity: 1; white-space: pre; opacity: 1;" transform="translate(311.84000000000003,0) rotate(90,1.575,363)">30</text></g><g class="xtick"><text text-anchor="start" x="1.575" y="367.5" style="font-family: Arial; font-size: 9px; fill: rgb(42, 63, 95); fill-opacity: 1; white-space: pre; opacity: 1;" transform="translate(320.44,0) rotate(90,1.575,363)">31</text></g><g class="xtick"><text text-anchor="start" x="1.575" y="367.5" style="font-family: Arial; font-size: 9px; fill: rgb(42, 63, 95); fill-opacity: 1; white-space: pre; opacity: 1;" transform="translate(329.05,0) rotate(90,1.575,363)">32</text></g><g class="xtick"><text text-anchor="start" x="1.575" y="367.5" style="font-family: Arial; font-size: 9px; fill: rgb(42, 63, 95); fill-opacity: 1; white-space: pre; opacity: 1;" transform="translate(337.65,0) rotate(90,1.575,363)">33</text></g><g class="xtick"><text text-anchor="start" x="1.575" y="367.5" style="font-family: Arial; font-size: 9px; fill: rgb(42, 63, 95); fill-opacity: 1; white-space: pre; opacity: 1;" transform="translate(346.26,0) rotate(90,1.575,363)">34</text></g><g class="xtick"><text text-anchor="start" x="1.575" y="367.5" style="font-family: Arial; font-size: 9px; fill: rgb(42, 63, 95); fill-opacity: 1; white-space: pre; opacity: 1;" transform="translate(354.86,0) rotate(90,1.575,363)">35</text></g><g class="xtick"><text text-anchor="start" x="1.575" y="367.5" style="font-family: Arial; font-size: 9px; fill: rgb(42, 63, 95); fill-opacity: 1; white-space: pre; opacity: 1;" transform="translate(363.47,0) rotate(90,1.575,363)">36</text></g><g class="xtick"><text text-anchor="start" x="1.575" y="367.5" style="font-family: Arial; font-size: 9px; fill: rgb(42, 63, 95); fill-opacity: 1; white-space: pre; opacity: 1;" transform="translate(372.07,0) rotate(90,1.575,363)">37</text></g><g class="xtick"><text text-anchor="start" x="1.575" y="367.5" style="font-family: Arial; font-size: 9px; fill: rgb(42, 63, 95); fill-opacity: 1; white-space: pre; opacity: 1;" transform="translate(380.67,0) rotate(90,1.575,363)">38</text></g><g class="xtick"><text text-anchor="start" x="1.575" y="367.5" style="font-family: Arial; font-size: 9px; fill: rgb(42, 63, 95); fill-opacity: 1; white-space: pre; opacity: 1;" transform="translate(389.28,0) rotate(90,1.575,363)">39</text></g><g class="xtick"><text text-anchor="start" x="1.575" y="367.5" style="font-family: Arial; font-size: 9px; fill: rgb(42, 63, 95); fill-opacity: 1; white-space: pre; opacity: 1;" transform="translate(397.88,0) rotate(90,1.575,363)">40</text></g><g class="xtick"><text text-anchor="start" x="1.575" y="367.5" style="font-family: Arial; font-size: 9px; fill: rgb(42, 63, 95); fill-opacity: 1; white-space: pre; opacity: 1;" transform="translate(406.49,0) rotate(90,1.575,363)">41</text></g><g class="xtick"><text text-anchor="start" x="1.575" y="367.5" style="font-family: Arial; font-size: 9px; fill: rgb(42, 63, 95); fill-opacity: 1; white-space: pre; opacity: 1;" transform="translate(415.09,0) rotate(90,1.575,363)">42</text></g><g class="xtick"><text text-anchor="start" x="1.575" y="367.5" style="font-family: Arial; font-size: 9px; fill: rgb(42, 63, 95); fill-opacity: 1; white-space: pre; opacity: 1;" transform="translate(423.7,0) rotate(90,1.575,363)">43</text></g><g class="xtick"><text text-anchor="start" x="1.575" y="367.5" style="font-family: Arial; font-size: 9px; fill: rgb(42, 63, 95); fill-opacity: 1; white-space: pre; opacity: 1;" transform="translate(432.3,0) rotate(90,1.575,363)">44</text></g><g class="xtick"><text text-anchor="start" x="1.575" y="367.5" style="font-family: Arial; font-size: 9px; fill: rgb(42, 63, 95); fill-opacity: 1; white-space: pre; opacity: 1;" transform="translate(440.91,0) rotate(90,1.575,363)">45</text></g><g class="xtick"><text text-anchor="start" x="1.575" y="367.5" style="font-family: Arial; font-size: 9px; fill: rgb(42, 63, 95); fill-opacity: 1; white-space: pre; opacity: 1;" transform="translate(449.51,0) rotate(90,1.575,363)">46</text></g><g class="xtick"><text text-anchor="start" x="1.575" y="367.5" style="font-family: Arial; font-size: 9px; fill: rgb(42, 63, 95); fill-opacity: 1; white-space: pre; opacity: 1;" transform="translate(458.12,0) rotate(90,1.575,363)">47</text></g><g class="xtick"><text text-anchor="start" x="1.575" y="367.5" style="font-family: Arial; font-size: 9px; fill: rgb(42, 63, 95); fill-opacity: 1; white-space: pre; opacity: 1;" transform="translate(466.72,0) rotate(90,1.575,363)">48</text></g><g class="xtick"><text text-anchor="start" x="1.575" y="367.5" style="font-family: Arial; font-size: 9px; fill: rgb(42, 63, 95); fill-opacity: 1; white-space: pre; opacity: 1;" transform="translate(475.33,0) rotate(90,1.575,363)">49</text></g><g class="xtick"><text text-anchor="start" x="1.575" y="367.5" style="font-family: Arial; font-size: 9px; fill: rgb(42, 63, 95); fill-opacity: 1; white-space: pre; opacity: 1;" transform="translate(483.93,0) rotate(90,1.575,363)">50</text></g><g class="xtick"><text text-anchor="start" x="1.575" y="367.5" style="font-family: Arial; font-size: 9px; fill: rgb(42, 63, 95); fill-opacity: 1; white-space: pre; opacity: 1;" transform="translate(492.53,0) rotate(90,1.575,363)">51</text></g><g class="xtick"><text text-anchor="start" x="1.575" y="367.5" style="font-family: Arial; font-size: 9px; fill: rgb(42, 63, 95); fill-opacity: 1; white-space: pre; opacity: 1;" transform="translate(501.14,0) rotate(90,1.575,363)">52</text></g><g class="xtick"><text text-anchor="start" x="1.575" y="367.5" style="font-family: Arial; font-size: 9px; fill: rgb(42, 63, 95); fill-opacity: 1; white-space: pre; opacity: 1;" transform="translate(509.74,0) rotate(90,1.575,363)">53</text></g><g class="xtick"><text text-anchor="start" x="1.575" y="367.5" style="font-family: Arial; font-size: 9px; fill: rgb(42, 63, 95); fill-opacity: 1; white-space: pre; opacity: 1;" transform="translate(518.35,0) rotate(90,1.575,363)">54</text></g><g class="xtick"><text text-anchor="start" x="1.575" y="367.5" style="font-family: Arial; font-size: 9px; fill: rgb(42, 63, 95); fill-opacity: 1; white-space: pre; opacity: 1;" transform="translate(526.95,0) rotate(90,1.575,363)">55</text></g><g class="xtick"><text text-anchor="start" x="1.575" y="367.5" style="font-family: Arial; font-size: 9px; fill: rgb(42, 63, 95); fill-opacity: 1; white-space: pre; opacity: 1;" transform="translate(535.56,0) rotate(90,1.575,363)">56</text></g><g class="xtick"><text text-anchor="start" x="1.575" y="367.5" style="font-family: Arial; font-size: 9px; fill: rgb(42, 63, 95); fill-opacity: 1; white-space: pre; opacity: 1;" transform="translate(544.1600000000001,0) rotate(90,1.575,363)">57</text></g><g class="xtick"><text text-anchor="start" x="1.575" y="367.5" style="font-family: Arial; font-size: 9px; fill: rgb(42, 63, 95); fill-opacity: 1; white-space: pre; opacity: 1;" transform="translate(552.77,0) rotate(90,1.575,363)">58</text></g><g class="xtick"><text text-anchor="start" x="1.575" y="367.5" style="font-family: Arial; font-size: 9px; fill: rgb(42, 63, 95); fill-opacity: 1; white-space: pre; opacity: 1;" transform="translate(561.37,0) rotate(90,1.575,363)">59</text></g><g class="xtick"><text text-anchor="start" x="1.575" y="367.5" style="font-family: Arial; font-size: 9px; fill: rgb(42, 63, 95); fill-opacity: 1; white-space: pre; opacity: 1;" transform="translate(569.98,0) rotate(90,1.575,363)">60</text></g><g class="xtick"><text text-anchor="start" x="1.575" y="367.5" style="font-family: Arial; font-size: 9px; fill: rgb(42, 63, 95); fill-opacity: 1; white-space: pre; opacity: 1;" transform="translate(578.58,0) rotate(90,1.575,363)">61</text></g><g class="xtick"><text text-anchor="start" x="1.575" y="367.5" style="font-family: Arial; font-size: 9px; fill: rgb(42, 63, 95); fill-opacity: 1; white-space: pre; opacity: 1;" transform="translate(587.19,0) rotate(90,1.575,363)">62</text></g><g class="xtick"><text text-anchor="start" x="1.575" y="367.5" style="font-family: Arial; font-size: 9px; fill: rgb(42, 63, 95); fill-opacity: 1; white-space: pre; opacity: 1;" transform="translate(595.79,0) rotate(90,1.575,363)">63</text></g><g class="xtick"><text text-anchor="start" x="1.575" y="367.5" style="font-family: Arial; font-size: 9px; fill: rgb(42, 63, 95); fill-opacity: 1; white-space: pre; opacity: 1;" transform="translate(604.4,0) rotate(90,1.575,363)">64</text></g><g class="xtick"><text text-anchor="start" x="1.575" y="367.5" style="font-family: Arial; font-size: 9px; fill: rgb(42, 63, 95); fill-opacity: 1; white-space: pre; opacity: 1;" transform="translate(613,0) rotate(90,1.575,363)">65</text></g><g class="xtick"><text text-anchor="start" x="1.575" y="367.5" style="font-family: Arial; font-size: 9px; fill: rgb(42, 63, 95); fill-opacity: 1; white-space: pre; opacity: 1;" transform="translate(621.6,0) rotate(90,1.575,363)">66</text></g><g class="xtick"><text text-anchor="start" x="1.575" y="367.5" style="font-family: Arial; font-size: 9px; fill: rgb(42, 63, 95); fill-opacity: 1; white-space: pre; opacity: 1;" transform="translate(630.21,0) rotate(90,1.575,363)">67</text></g><g class="xtick"><text text-anchor="start" x="1.575" y="367.5" style="font-family: Arial; font-size: 9px; fill: rgb(42, 63, 95); fill-opacity: 1; white-space: pre; opacity: 1;" transform="translate(638.81,0) rotate(90,1.575,363)">68</text></g><g class="xtick"><text text-anchor="start" x="1.575" y="367.5" style="font-family: Arial; font-size: 9px; fill: rgb(42, 63, 95); fill-opacity: 1; white-space: pre; opacity: 1;" transform="translate(647.42,0) rotate(90,1.575,363)">69</text></g><g class="xtick"><text text-anchor="start" x="1.575" y="367.5" style="font-family: Arial; font-size: 9px; fill: rgb(42, 63, 95); fill-opacity: 1; white-space: pre; opacity: 1;" transform="translate(656.02,0) rotate(90,1.575,363)">70</text></g><g class="xtick"><text text-anchor="start" x="1.575" y="367.5" style="font-family: Arial; font-size: 9px; fill: rgb(42, 63, 95); fill-opacity: 1; white-space: pre; opacity: 1;" transform="translate(664.63,0) rotate(90,1.575,363)">71</text></g><g class="xtick"><text text-anchor="start" x="1.575" y="367.5" style="font-family: Arial; font-size: 9px; fill: rgb(42, 63, 95); fill-opacity: 1; white-space: pre; opacity: 1;" transform="translate(673.23,0) rotate(90,1.575,363)">72</text></g><g class="xtick"><text text-anchor="start" x="1.575" y="367.5" style="font-family: Arial; font-size: 9px; fill: rgb(42, 63, 95); fill-opacity: 1; white-space: pre; opacity: 1;" transform="translate(681.84,0) rotate(90,1.575,363)">73</text></g><g class="xtick"><text text-anchor="start" x="1.575" y="367.5" style="font-family: Arial; font-size: 9px; fill: rgb(42, 63, 95); fill-opacity: 1; white-space: pre; opacity: 1;" transform="translate(690.44,0) rotate(90,1.575,363)">74</text></g><g class="xtick"><text text-anchor="start" x="1.575" y="367.5" style="font-family: Arial; font-size: 9px; fill: rgb(42, 63, 95); fill-opacity: 1; white-space: pre; opacity: 1;" transform="translate(699.05,0) rotate(90,1.575,363)">75</text></g><g class="xtick"><text text-anchor="start" x="1.575" y="367.5" style="font-family: Arial; font-size: 9px; fill: rgb(42, 63, 95); fill-opacity: 1; white-space: pre; opacity: 1;" transform="translate(707.65,0) rotate(90,1.575,363)">76</text></g><g class="xtick"><text text-anchor="start" x="1.575" y="367.5" style="font-family: Arial; font-size: 9px; fill: rgb(42, 63, 95); fill-opacity: 1; white-space: pre; opacity: 1;" transform="translate(716.26,0) rotate(90,1.575,363)">77</text></g><g class="xtick"><text text-anchor="start" x="1.575" y="367.5" style="font-family: Arial; font-size: 9px; fill: rgb(42, 63, 95); fill-opacity: 1; white-space: pre; opacity: 1;" transform="translate(724.86,0) rotate(90,1.575,363)">78</text></g><g class="xtick"><text text-anchor="start" x="1.575" y="367.5" style="font-family: Arial; font-size: 9px; fill: rgb(42, 63, 95); fill-opacity: 1; white-space: pre; opacity: 1;" transform="translate(733.47,0) rotate(90,1.575,363)">79</text></g><g class="xtick"><text text-anchor="start" x="1.575" y="367.5" style="font-family: Arial; font-size: 9px; fill: rgb(42, 63, 95); fill-opacity: 1; white-space: pre; opacity: 1;" transform="translate(742.07,0) rotate(90,1.575,363)">80</text></g><g class="xtick"><text text-anchor="start" x="1.575" y="367.5" style="font-family: Arial; font-size: 9px; fill: rgb(42, 63, 95); fill-opacity: 1; white-space: pre; opacity: 1;" transform="translate(750.67,0) rotate(90,1.575,363)">81</text></g><g class="xtick"><text text-anchor="start" x="1.575" y="367.5" style="font-family: Arial; font-size: 9px; fill: rgb(42, 63, 95); fill-opacity: 1; white-space: pre; opacity: 1;" transform="translate(759.28,0) rotate(90,1.575,363)">82</text></g><g class="xtick"><text text-anchor="start" x="1.575" y="367.5" style="font-family: Arial; font-size: 9px; fill: rgb(42, 63, 95); fill-opacity: 1; white-space: pre; opacity: 1;" transform="translate(767.88,0) rotate(90,1.575,363)">83</text></g><g class="xtick"><text text-anchor="start" x="1.575" y="367.5" style="font-family: Arial; font-size: 9px; fill: rgb(42, 63, 95); fill-opacity: 1; white-space: pre; opacity: 1;" transform="translate(776.49,0) rotate(90,1.575,363)">84</text></g><g class="xtick"><text text-anchor="start" x="1.575" y="367.5" style="font-family: Arial; font-size: 9px; fill: rgb(42, 63, 95); fill-opacity: 1; white-space: pre; opacity: 1;" transform="translate(785.09,0) rotate(90,1.575,363)">85</text></g><g class="xtick"><text text-anchor="start" x="1.575" y="367.5" style="font-family: Arial; font-size: 9px; fill: rgb(42, 63, 95); fill-opacity: 1; white-space: pre; opacity: 1;" transform="translate(793.7,0) rotate(90,1.575,363)">86</text></g></g><g class="yaxislayer-above"><g class="ytick"><text text-anchor="end" x="57" y="4.199999999999999" transform="translate(0,343.9)" style="font-family: Arial; font-size: 12px; fill: rgb(42, 63, 95); fill-opacity: 1; white-space: pre; opacity: 1;">1</text></g><g class="ytick"><text text-anchor="end" x="57" y="3.15" style="font-family: Arial; font-size: 9px; fill: rgb(42, 63, 95); fill-opacity: 1; white-space: pre; opacity: 1;" transform="translate(0,321.75)">2</text></g><g class="ytick"><text text-anchor="end" x="57" y="3.15" style="font-family: Arial; font-size: 9px; fill: rgb(42, 63, 95); fill-opacity: 1; white-space: pre; opacity: 1;" transform="translate(0,292.46)">5</text></g><g class="ytick"><text text-anchor="end" x="57" y="4.199999999999999" style="font-family: Arial; font-size: 12px; fill: rgb(42, 63, 95); fill-opacity: 1; white-space: pre; opacity: 1;" transform="translate(0,270.31)">10</text></g><g class="ytick"><text text-anchor="end" x="57" y="3.15" style="font-family: Arial; font-size: 9px; fill: rgb(42, 63, 95); fill-opacity: 1; white-space: pre; opacity: 1;" transform="translate(0,248.16)">2</text></g><g class="ytick"><text text-anchor="end" x="57" y="3.15" style="font-family: Arial; font-size: 9px; fill: rgb(42, 63, 95); fill-opacity: 1; white-space: pre; opacity: 1;" transform="translate(0,218.88)">5</text></g><g class="ytick"><text text-anchor="end" x="57" y="4.199999999999999" style="font-family: Arial; font-size: 12px; fill: rgb(42, 63, 95); fill-opacity: 1; white-space: pre; opacity: 1;" transform="translate(0,196.73)">100</text></g><g class="ytick"><text text-anchor="end" x="57" y="3.15" style="font-family: Arial; font-size: 9px; fill: rgb(42, 63, 95); fill-opacity: 1; white-space: pre; opacity: 1;" transform="translate(0,174.57)">2</text></g><g class="ytick"><text text-anchor="end" x="57" y="3.15" style="font-family: Arial; font-size: 9px; fill: rgb(42, 63, 95); fill-opacity: 1; white-space: pre; opacity: 1;" transform="translate(0,145.29)">5</text></g><g class="ytick"><text text-anchor="end" x="57" y="4.199999999999999" style="font-family: Arial; font-size: 12px; fill: rgb(42, 63, 95); fill-opacity: 1; white-space: pre; opacity: 1;" transform="translate(0,123.14)">1000</text></g><g class="ytick"><text text-anchor="end" x="57" y="3.15" style="font-family: Arial; font-size: 9px; fill: rgb(42, 63, 95); fill-opacity: 1; white-space: pre; opacity: 1;" transform="translate(0,100.99)">2</text></g><g class="ytick"><text text-anchor="end" x="57" y="3.15" style="font-family: Arial; font-size: 9px; fill: rgb(42, 63, 95); fill-opacity: 1; white-space: pre; opacity: 1;" transform="translate(0,71.7)">5</text></g><g class="ytick"><text text-anchor="end" x="57" y="4.199999999999999" style="font-family: Arial; font-size: 12px; fill: rgb(42, 63, 95); fill-opacity: 1; white-space: pre; opacity: 1;" transform="translate(0,49.55)">10k</text></g><g class="ytick"><text text-anchor="end" x="57" y="3.15" style="font-family: Arial; font-size: 9px; fill: rgb(42, 63, 95); fill-opacity: 1; white-space: pre; opacity: 1;" transform="translate(0,27.4)">2</text></g></g><g class="overaxes-above"/></g></g><g class="polarlayer"/><g class="smithlayer"/><g class="ternarylayer"/><g class="geolayer"/><g class="funnelarealayer"/><g class="pielayer"/><g class="iciclelayer"/><g class="treemaplayer"/><g class="sunburstlayer"/><g class="glimages"/><defs id="topdefs-b48d5b"><g class="clips"/></defs><g class="layer-above"><g class="imagelayer"/><g class="shapelayer"/></g><g class="infolayer"><g class="g-gtitle"/><g class="g-xtitle" transform="translate(0,-2.8029296875000114)"><text class="xtitle" x="428" y="399.8029296875" text-anchor="middle" style="font-family: Arial; font-size: 14px; fill: rgb(42, 63, 95); opacity: 1; font-weight: normal; white-space: pre;"># of sources</text></g><g class="g-ytitle" transform="translate(12.7998046875,0)"><text class="ytitle" transform="rotate(-90,0.20000000000000284,181)" x="0.20000000000000284" y="181" text-anchor="middle" style="font-family: Arial; font-size: 14px; fill: rgb(42, 63, 95); opacity: 1; font-weight: normal; white-space: pre;"># of triples</text></g></g></svg>