<svg class="main-svg" xmlns="http://www.w3.org/2000/svg" xmlns:xlink="http://www.w3.org/1999/xlink" width="700" height="500" style="" viewBox="0 0 700 500"><rect x="0" y="0" width="700" height="500" style="fill: rgb(255, 255, 255); fill-opacity: 1;"/><defs id="defs-4a617d"><g class="clips"/><g class="gradients"/><g class="patterns"/></defs><g class="bglayer"/><g class="layer-below"><g class="imagelayer"/><g class="shapelayer"/></g><g class="cartesianlayer"/><g class="polarlayer"/><g class="smithlayer"/><g class="ternarylayer"/><g class="geolayer"/><g class="funnelarealayer"/><g class="pielayer"/><g class="iciclelayer"/><g class="treemaplayer"/><g class="sunburstlayer"><g class="trace sunburst" stroke-linejoin="round" style="opacity: 1;"><g class="slice"><path class="surface" d="M350,250A0,0 0,1,0 350,250A0,0 0,1,0 350,250ZM433.3333333333333,250A83.33333333333333,83.33333333333333 0,1,1 266.6666666666667,250A83.33333333333333,83.33333333333333 0,1,1 433.3333333333333,250.00000000000003Z" style="pointer-events: none; stroke-width: 1; fill: rgb(0, 0, 0); fill-opacity: 0; stroke: rgb(255, 255, 255); stroke-opacity: 1;"/><g class="slicetext"><text data-notex="1" class="slicetext" text-anchor="middle" x="0" y="0" style="font-family: Arial; font-size: 12px; fill: rgb(42, 63, 95); fill-opacity: 1; white-space: pre;" transform="translate(350,254)">Entity</text></g></g><g class="slice cursor-pointer"><path class="surface" d="M433.3333333333333,250L516.6666666666666,250A166.66666666666666,166.66666666666666 0,0,0 190.5834379774363,201.37760258189775L270.2917189887181,225.68880129094887A83.33333333333333,83.33333333333333 0,0,1 433.3333333333333,250Z" style="pointer-events: none; stroke-width: 1; fill: rgb(99, 110, 250); fill-opacity: 1; stroke: rgb(255, 255, 255); stroke-opacity: 1;"/><g class="slicetext"><text data-notex="1" class="slicetext" text-anchor="middle" x="0" y="0" style="font-family: Arial; font-size: 12px; fill: rgb(255, 255, 255); fill-opacity: 1; white-space: pre;" transform="translate(368.4349845454865,130.36686793254944)">food</text></g></g><g class="slice cursor-pointer"><path class="surface" d="M270.2917189887181,225.68880129094887L190.5834379774363,201.37760258189775A166.66666666666666,166.66666666666666 0,0,0 458.087630599375,376.8654479722151L404.04381529968754,313.4327239861076A83.33333333333333,83.33333333333333 0,0,1 270.2917189887181,225.68880129094887Z" style="pointer-events: none; stroke-width: 1; fill: rgb(239, 85, 59); fill-opacity: 1; stroke: rgb(255, 255, 255); stroke-opacity: 1;"/><g class="slicetext"><text data-notex="1" class="slicetext" text-anchor="middle" x="0" y="0" style="font-family: Arial; font-size: 12px; fill: rgb(68, 68, 68); fill-opacity: 1; white-space: pre;" transform="translate(281.43481799604837,358.5170599316924)">chemical</text></g></g><g class="slice cursor-pointer"><path class="surface" d="M404.04381529968754,313.4327239861076L458.087630599375,376.8654479722151A166.66666666666666,166.66666666666666 0,0,0 516.6666666666666,250.0000000000002L433.3333333333333,250.00000000000009A83.33333333333333,83.33333333333333 0,0,1 404.04381529968754,313.4327239861076Z" style="pointer-events: none; stroke-width: 1; fill: rgb(0, 204, 150); fill-opacity: 1; stroke: rgb(255, 255, 255); stroke-opacity: 1;"/><g class="slicetext"><text data-notex="1" class="slicetext" text-anchor="middle" x="0" y="0" style="font-family: Arial; font-size: 12px; fill: rgb(68, 68, 68); fill-opacity: 1; white-space: pre;" transform="translate(463.4861563555031,306.40126253874337)">food - part</text></g></g><g class="slice"><path class="surface" d="M516.6666666666666,250L600,250A250,250 0,0,0 480.6654386652792,36.86496501417193L437.1102924435195,107.90997667611464A166.66666666666666,166.66666666666666 0,0,1 516.6666666666666,250Z" style="pointer-events: none; stroke-width: 1; fill: rgb(99, 110, 250); fill-opacity: 1; stroke: rgb(255, 255, 255); stroke-opacity: 1; opacity: 0.7;"/><g class="slicetext"><text data-notex="1" class="slicetext" text-anchor="middle" x="0" y="0" style="font-family: Arial; font-size: 12px; fill: rgb(255, 255, 255); fill-opacity: 1; white-space: pre;" transform="translate(531.779742777183,152.2213043233558)">f - ours</text></g></g><g class="slice"><path class="surface" d="M437.1102924435195,107.90997667611464L480.6654386652792,36.86496501417193A250,250 0,0,0 236.58765489271883,27.204937269097087L274.3917699284792,101.46995817939808A166.66666666666666,166.66666666666666 0,0,1 437.1102924435195,107.90997667611464Z" style="pointer-events: none; stroke-width: 1; fill: rgb(99, 110, 250); fill-opacity: 1; stroke: rgb(255, 255, 255); stroke-opacity: 1; opacity: 0.7;"/><g class="slicetext"><text data-notex="1" class="slicetext" text-anchor="middle" x="0" y="0" style="font-family: Arial; font-size: 12px; fill: rgb(255, 255, 255); fill-opacity: 1; white-space: pre;" transform="translate(358.23889586635494,45.82964098440638)">f - external</text></g></g><g class="slice"><path class="surface" d="M274.3917699284792,101.46995817939808L236.58765489271883,27.204937269097087A250,250 0,0,0 110.87515696615444,177.06640387284662L190.5834379774363,201.37760258189775A166.66666666666666,166.66666666666666 0,0,1 274.3917699284792,101.46995817939808Z" style="pointer-events: none; stroke-width: 1; fill: rgb(99, 110, 250); fill-opacity: 1; stroke: rgb(255, 255, 255); stroke-opacity: 1; opacity: 0.7;"/><g class="slicetext"><text data-notex="1" class="slicetext" text-anchor="middle" x="0" y="0" style="font-family: Arial; font-size: 12px; fill: rgb(255, 255, 255); fill-opacity: 1; white-space: pre;" transform="translate(190.38842275880043,120.10854325852472)">NCBI</text></g></g><g class="slice"><path class="surface" d="M190.5834379774363,201.37760258189775L110.87515696615444,177.06640387284662A250,250 0,0,0 162.83977170805375,415.74392581843404L225.22651447203583,360.4959505456227A166.66666666666666,166.66666666666666 0,0,1 190.5834379774363,201.37760258189775Z" style="pointer-events: none; stroke-width: 1; fill: rgb(239, 85, 59); fill-opacity: 1; stroke: rgb(255, 255, 255); stroke-opacity: 1; opacity: 0.7;"/><g class="slicetext"><text data-notex="1" class="slicetext" text-anchor="middle" x="0" y="0" style="font-family: Arial; font-size: 12px; fill: rgb(68, 68, 68); fill-opacity: 1; white-space: pre;" transform="translate(146.43544502737788,298.31985713623277)">c - ours</text></g></g><g class="slice"><path class="surface" d="M225.22651447203583,360.4959505456227L162.83977170805375,415.74392581843404A250,250 0,0,0 393.4818563901578,496.18961831252284L378.9879042601052,414.1264122083486A166.66666666666666,166.66666666666666 0,0,1 225.22651447203583,360.4959505456227Z" style="pointer-events: none; stroke-width: 1; fill: rgb(239, 85, 59); fill-opacity: 1; stroke: rgb(255, 255, 255); stroke-opacity: 1; opacity: 0.7;"/><g class="slicetext"><text data-notex="1" class="slicetext" text-anchor="middle" x="0" y="0" style="font-family: Arial; font-size: 12px; fill: rgb(68, 68, 68); fill-opacity: 1; white-space: pre;" transform="translate(281.38904971639147,450.7112484810108)">c - external</text></g></g><g class="slice"><path class="surface" d="M378.9879042601052,414.1264122083486L393.4818563901578,496.18961831252284A250,250 0,0,0 512.1314458990626,440.29817195832265L458.087630599375,376.8654479722151A166.66666666666666,166.66666666666666 0,0,1 378.9879042601052,414.1264122083486Z" style="pointer-events: none; stroke-width: 1; fill: rgb(239, 85, 59); fill-opacity: 1; stroke: rgb(255, 255, 255); stroke-opacity: 1; opacity: 0.7;"/><g class="slicetext"><text data-notex="1" class="slicetext" text-anchor="middle" x="0" y="0" style="font-family: Arial; font-size: 12px; fill: rgb(68, 68, 68); fill-opacity: 1; white-space: pre;" transform="translate(438.7809842763073,442.46939966134516)">MeSH</text></g></g><g class="slice"><path class="surface" d="M458.087630599375,376.8654479722151L512.1314458990626,440.29817195832265A250,250 0,0,0 591.902793321155,313.111318980216L511.26852888076996,292.0742126534774A166.66666666666666,166.66666666666666 0,0,1 458.087630599375,376.8654479722151Z" style="pointer-events: none; stroke-width: 1; fill: rgb(0, 204, 150); fill-opacity: 1; stroke: rgb(255, 255, 255); stroke-opacity: 1; opacity: 0.7;"/><g class="slicetext"><text data-notex="1" class="slicetext" text-anchor="middle" x="0" y="0" style="font-family: Arial; font-size: 12px; fill: rgb(68, 68, 68); fill-opacity: 1; white-space: pre;" transform="translate(526.4917382945689,364.6952758320749)">fp - external</text></g></g><g class="slice"><path class="surface" d="M511.26852888076996,292.0742126534774L591.902793321155,313.111318980216A250,250 0,0,0 600,250.00000000000028L516.6666666666666,250.0000000000002A166.66666666666666,166.66666666666666 0,0,1 511.26852888076996,292.0742126534774Z" style="pointer-events: none; stroke-width: 1; fill: rgb(0, 204, 150); fill-opacity: 1; stroke: rgb(255, 255, 255); stroke-opacity: 1; opacity: 0.7;"/><g class="slicetext"><text data-notex="1" class="slicetext" text-anchor="middle" x="0" y="0" style="font-family: Arial; font-size: 12px; fill: rgb(68, 68, 68); fill-opacity: 1; white-space: pre;" transform="translate(569.974128164364,282.22276587665607)">fp - ours</text></g></g></g></g><g class="glimages"/><defs id="topdefs-4a617d"><g class="clips"/></defs><g class="layer-above"><g class="imagelayer"/><g class="shapelayer"/></g><g class="infolayer"><g class="g-gtitle"/></g></svg>