<svg class="main-svg" xmlns="http://www.w3.org/2000/svg" xmlns:xlink="http://www.w3.org/1999/xlink" width="700" height="500" style="" viewBox="0 0 700 500"><rect x="0" y="0" width="700" height="500" style="fill: rgb(255, 255, 255); fill-opacity: 1;"/><defs id="defs-c2cb8c"><g class="clips"/><g class="gradients"/><g class="patterns"/></defs><g class="bglayer"/><g class="layer-below"><g class="imagelayer"/><g class="shapelayer"/></g><g class="cartesianlayer"/><g class="polarlayer"/><g class="smithlayer"/><g class="ternarylayer"/><g class="geolayer"/><g class="funnelarealayer"/><g class="pielayer"/><g class="iciclelayer"/><g class="treemaplayer"/><g class="sunburstlayer"><g class="trace sunburst" stroke-linejoin="round" style="opacity: 1;"><g class="slice cursor-pointer"><path class="surface" d="M350,250L475,250A125,125 0,0,0 330.8058607533886,126.48245056437652L350,250A0,0 0,0,1 350,250Z" style="pointer-events: none; stroke-width: 1; fill: rgb(102, 197, 204); fill-opacity: 1; stroke: rgb(255, 255, 255); stroke-opacity: 1;"/><g class="slicetext"><text data-notex="1" class="slicetext" text-anchor="middle" x="0" y="0" style="font-family: Arial; font-size: 12px; fill: rgb(68, 68, 68); fill-opacity: 1; white-space: pre;" transform="translate(396.218511004668,200.04460303795446)">Fruits</text></g></g><g class="slice cursor-pointer"><path class="surface" d="M350,250L330.8058607533886,126.48245056437652A125,125 0,0,0 227.70274944157,224.1469052945572L350,250A0,0 0,0,1 350,250Z" style="pointer-events: none; stroke-width: 1; fill: rgb(246, 207, 113); fill-opacity: 1; stroke: rgb(255, 255, 255); stroke-opacity: 1;"/><g class="slicetext"><text data-notex="1" class="slicetext" text-anchor="middle" x="0" y="0" style="font-family: Arial; font-size: 12px; fill: rgb(68, 68, 68); fill-opacity: 1; white-space: pre;" transform="translate(295.179283868298,196.12647361687652)">Vegetables</text></g></g><g class="slice cursor-pointer"><path class="surface" d="M350,250L227.70274944157,224.1469052945572A125,125 0,0,0 281.58559060805806,354.61581423260907L350,250A0,0 0,0,1 350,250Z" style="pointer-events: none; stroke-width: 1; fill: rgb(248, 156, 116); fill-opacity: 1; stroke: rgb(255, 255, 255); stroke-opacity: 1;"/><g class="slicetext"><text data-notex="1" class="slicetext" text-anchor="middle" x="0" y="0" style="font-family: Arial; font-size: 12px; fill: rgb(68, 68, 68); fill-opacity: 1; white-space: pre;" transform="translate(252.9577719020567,290.07783161217617)rotate(67.55968169761275)">Herbs and Spices</text></g></g><g class="slice cursor-pointer"><path class="surface" d="M350,250L281.58559060805806,354.61581423260907A125,125 0,0,0 351.5624225028721,374.99023496226624L350,250A0,0 0,0,1 350,250Z" style="pointer-events: none; stroke-width: 1; fill: rgb(220, 176, 242); fill-opacity: 1; stroke: rgb(255, 255, 255); stroke-opacity: 1;"/><g class="slicetext"><text data-notex="1" class="slicetext" text-anchor="middle" x="0" y="0" style="font-family: Arial; font-size: 12px; fill: rgb(68, 68, 68); fill-opacity: 1; white-space: pre;" transform="translate(332.59262855288677,324.09502056823027)rotate(-73.76657824933682)">Aquatic foods</text></g></g><g class="slice cursor-pointer"><path class="surface" d="M350,250L351.5624225028721,374.99023496226624A125,125 0,0,0 396.75069705444474,365.92830683195336L350,250A0,0 0,0,1 350,250Z" style="pointer-events: none; stroke-width: 1; fill: rgb(135, 197, 95); fill-opacity: 1; stroke: rgb(255, 255, 255); stroke-opacity: 1;"/><g class="slicetext"><text data-notex="1" class="slicetext" text-anchor="middle" x="0" y="0" style="font-family: Arial; font-size: 12px; fill: rgb(68, 68, 68); fill-opacity: 1; white-space: pre;" transform="translate(364.45682388970135,342.43404892099005)rotate(78.66047745358094)">Pulses</text></g></g><g class="slice cursor-pointer"><path class="surface" d="M350,250L396.75069705444474,365.92830683195336A125,125 0,0,0 428.5165473422147,347.26331165171047L350,250A0,0 0,0,1 350,250Z" style="pointer-events: none; stroke-width: 1; fill: rgb(158, 185, 243); fill-opacity: 1; stroke: rgb(255, 255, 255); stroke-opacity: 1;"/><g class="slicetext"><text data-notex="1" class="slicetext" text-anchor="middle" x="0" y="0" style="font-family: Arial; font-size: 12px; fill: rgb(68, 68, 68); fill-opacity: 1; white-space: pre;" transform="translate(405.19129740684815,347.92975854981745)">Nuts</text></g></g><g class="slice cursor-pointer"><path class="surface" d="M350,250L428.5165473422147,347.26331165171047A125,125 0,0,0 449.82595600515276,325.231499437784L350,250A0,0 0,0,1 350,250Z" style="pointer-events: none; stroke-width: 1; fill: rgb(254, 136, 177); fill-opacity: 1; stroke: rgb(255, 255, 255); stroke-opacity: 1;"/><g class="slicetext"><text data-notex="1" class="slicetext" text-anchor="middle" x="0" y="0" style="font-family: Arial; font-size: 12px; fill: rgb(68, 68, 68); fill-opacity: 1; white-space: pre;" transform="translate(419.57408598293847,314.5579394084984)scale(0.5166805419665758)rotate(44.0450928381963)"><tspan class="line" dy="0em" x="0" y="0">Cereals and cereal</tspan><tspan class="line" dy="1.3em" x="0" y="0">products</tspan></text></g></g><g class="slice cursor-pointer"><path class="surface" d="M350,250L449.82595600515276,325.231499437784A125,125 0,0,0 463.2272562687558,302.9583651357318L350,250A0,0 0,0,1 350,250Z" style="pointer-events: none; stroke-width: 1; fill: rgb(201, 219, 116); fill-opacity: 1; stroke: rgb(255, 255, 255); stroke-opacity: 1;"/><g class="slicetext"><text data-notex="1" class="slicetext" text-anchor="middle" x="0" y="0" style="font-family: Arial; font-size: 12px; fill: rgb(68, 68, 68); fill-opacity: 1; white-space: pre;" transform="translate(430.37387782063126,302.83372766475975)scale(0.9584739916330703)rotate(31.034482758620697)">Unknown</text></g></g><g class="slice cursor-pointer"><path class="surface" d="M350,250L463.2272562687558,302.9583651357318A125,125 0,0,0 471.3677271782565,279.91445803594473L350,250A0,0 0,0,1 350,250Z" style="pointer-events: none; stroke-width: 1; fill: rgb(139, 224, 164); fill-opacity: 1; stroke: rgb(255, 255, 255); stroke-opacity: 1;"/><g class="slicetext"><text data-notex="1" class="slicetext" text-anchor="middle" x="0" y="0" style="font-family: Arial; font-size: 12px; fill: rgb(68, 68, 68); fill-opacity: 1; white-space: pre;" transform="translate(444.17354974167256,287.50991612658356)rotate(19.456233421750653)">Gourds</text></g></g><g class="slice cursor-pointer"><path class="surface" d="M350,250L471.3677271782565,279.91445803594473A125,125 0,0,0 473.3533153176908,270.2227495690956L350,250A0,0 0,0,1 350,250Z" style="pointer-events: none; stroke-width: 1; fill: rgb(180, 151, 231); fill-opacity: 1; stroke: rgb(255, 255, 255); stroke-opacity: 1;"/><g class="slicetext"><text data-notex="1" class="slicetext" text-anchor="middle" x="0" y="0" style="font-family: Arial; font-size: 12px; fill: rgb(68, 68, 68); fill-opacity: 1; white-space: pre;" transform="translate(453.4612882779791,273.11069310731745)scale(0.4687800069982015)rotate(11.578249336870044)">Animal foods</text></g></g><g class="slice cursor-pointer"><path class="surface" d="M350,250L473.3533153176908,270.2227495690956A125,125 0,0,0 474.2672446442949,263.5148773029927L350,250A0,0 0,0,1 350,250Z" style="pointer-events: none; stroke-width: 1; fill: rgb(179, 179, 179); fill-opacity: 1; stroke: rgb(255, 255, 255); stroke-opacity: 1;"/><g class="slicetext"><text data-notex="1" class="slicetext" text-anchor="middle" x="0" y="0" style="font-family: Arial; font-size: 12px; fill: rgb(68, 68, 68); fill-opacity: 1; white-space: pre;" transform="translate(468.1398873651518,267.78486253177823)scale(0.418291573612561)rotate(7.758620689655174)">Teas</text></g></g><g class="slice cursor-pointer"><path class="surface" d="M350,250L474.2672446442949,263.5148773029927A125,125 0,0,0 474.75595033308247,257.80723103856036L350,250A0,0 0,0,1 350,250Z" style="pointer-events: none; stroke-width: 1; fill: rgb(179, 226, 230); fill-opacity: 1; stroke: rgb(255, 255, 255); stroke-opacity: 1;"/><g class="slicetext"><text data-notex="1" class="slicetext" text-anchor="middle" x="0" y="0" style="font-family: Arial; font-size: 12px; fill: rgb(68, 68, 68); fill-opacity: 1; white-space: pre;" transform="translate(465.93728006224774,259.3210669604872)scale(0.15865165617173932)rotate(4.893899204244008)"><tspan class="line" dy="0em" x="0" y="0">Coffee and coffee</tspan><tspan class="line" dy="1.3em" x="0" y="0">products</tspan></text></g></g><g class="slice cursor-pointer"><path class="surface" d="M350,250L474.75595033308247,257.80723103856036A125,125 0,0,0 474.9305652567335,254.1657969985421L350,250A0,0 0,0,1 350,250Z" style="pointer-events: none; stroke-width: 1; fill: rgb(252, 239, 209); fill-opacity: 1; stroke: rgb(255, 255, 255); stroke-opacity: 1;"/><g class="slicetext"><text data-notex="1" class="slicetext" text-anchor="middle" x="0" y="0" style="font-family: Arial; font-size: 12px; fill: rgb(68, 68, 68); fill-opacity: 1; white-space: pre;" transform="translate(469.165447489828,255.30853381481327)scale(0.10651356287114527)rotate(2.7453580901856753)"><tspan class="line" dy="0em" x="0" y="0">Cocoa and cocoa</tspan><tspan class="line" dy="1.3em" x="0" y="0">products</tspan></text></g></g><g class="slice cursor-pointer"><path class="surface" d="M350,250L474.9305652567335,254.1657969985421A125,125 0,0,0 474.99891498324996,250.52081955632787L350,250A0,0 0,0,1 350,250Z" style="pointer-events: none; stroke-width: 1; fill: rgb(253, 225, 213); fill-opacity: 1; stroke: rgb(255, 255, 255); stroke-opacity: 1;"/><g class="slicetext"><text data-notex="1" class="slicetext" text-anchor="middle" x="0" y="0" style="font-family: Arial; font-size: 12px; fill: rgb(68, 68, 68); fill-opacity: 1; white-space: pre;" transform="translate(472.20968342805327,253.2399707188426)scale(0.2370394766202233)rotate(1.0742705570291378)">Soy</text></g></g><g class="slice cursor-pointer"><path class="surface" d="M350,250L474.99891498324996,250.52081955632787A125,125 0,0,0 475,250.00000000000003L350,250A0,0 0,0,1 350,250Z" style="pointer-events: none; stroke-width: 1; fill: rgb(255, 255, 255); fill-opacity: 1; stroke: rgb(255, 255, 255); stroke-opacity: 1;"/><g class="slicetext"><text data-notex="1" class="slicetext" text-anchor="middle" x="0" y="0" style="font-family: Arial; font-size: 12px; fill: rgb(68, 68, 68); fill-opacity: 1; white-space: pre;" transform="translate(473.14029741637387,250.3939867575506)scale(0.034362461406733394)rotate(0.11936339522543449)">Herbs and spices</text></g></g><g class="slice"><path class="surface" d="M475,250L600,250A250,250 0,0,0 537.1276870427753,84.2193354398012L443.56384352138764,167.10966771990059A125,125 0,0,1 475,250Z" style="pointer-events: none; stroke-width: 1; fill: rgb(102, 197, 204); fill-opacity: 1; stroke: rgb(255, 255, 255); stroke-opacity: 1; opacity: 0.7;"/><g class="slicetext"><text data-notex="1" class="slicetext" text-anchor="middle" x="0" y="0" style="font-family: Arial; font-size: 12px; fill: rgb(68, 68, 68); fill-opacity: 1; white-space: pre;" transform="translate(525.8155455035153,187.5115836795246)">Tropical fruits</text></g></g><g class="slice"><path class="surface" d="M443.56384352138764,167.10966771990059L537.1276870427753,84.2193354398012A250,250 0,0,0 410.8397677220248,7.515933175950579L380.4198838610124,128.7579665879753A125,125 0,0,1 443.56384352138764,167.10966771990059Z" style="pointer-events: none; stroke-width: 1; fill: rgb(102, 197, 204); fill-opacity: 1; stroke: rgb(255, 255, 255); stroke-opacity: 1; opacity: 0.7;"/><g class="slicetext"><text data-notex="1" class="slicetext" text-anchor="middle" x="0" y="0" style="font-family: Arial; font-size: 12px; fill: rgb(68, 68, 68); fill-opacity: 1; white-space: pre;" transform="translate(450.176405731253,89.06507571446369)">Berries</text></g></g><g class="slice"><path class="surface" d="M380.4198838610124,128.7579665879753L410.8397677220248,7.515933175950579A250,250 0,0,0 374.95776814052556,1.2488998829477111L362.4788840702628,125.62444994147386A125,125 0,0,1 380.4198838610124,128.7579665879753Z" style="pointer-events: none; stroke-width: 1; fill: rgb(102, 197, 204); fill-opacity: 1; stroke: rgb(255, 255, 255); stroke-opacity: 1; opacity: 0.7;"/><g class="slicetext"><text data-notex="1" class="slicetext" text-anchor="middle" x="0" y="0" style="font-family: Arial; font-size: 12px; fill: rgb(68, 68, 68); fill-opacity: 1; white-space: pre;" transform="translate(390.24618426993624,42.818580340872956)rotate(-80.0928381962865)">Drupes</text></g></g><g class="slice"><path class="surface" d="M362.4788840702628,125.62444994147386L374.95776814052556,1.2488998829477111A250,250 0,0,0 346.87515499425575,0.01953007546754293L348.4375774971279,125.00976503773377A125,125 0,0,1 362.4788840702628,125.62444994147386Z" style="pointer-events: none; stroke-width: 1; fill: rgb(102, 197, 204); fill-opacity: 1; stroke: rgb(255, 255, 255); stroke-opacity: 1; opacity: 0.7;"/><g class="slicetext"><text data-notex="1" class="slicetext" text-anchor="middle" x="0" y="0" style="font-family: Arial; font-size: 12px; fill: rgb(68, 68, 68); fill-opacity: 1; white-space: pre;" transform="translate(363.61560595269214,30.437297215154793)rotate(-87.49336870026525)">Pomes</text></g></g><g class="slice"><path class="surface" d="M348.4375774971279,125.00976503773377L346.87515499425575,0.01953007546754293A250,250 0,0,0 319.8658299361693,1.8227814754864937L334.9329149680846,125.91139073774325A125,125 0,0,1 348.4375774971279,125.00976503773377Z" style="pointer-events: none; stroke-width: 1; fill: rgb(102, 197, 204); fill-opacity: 1; stroke: rgb(255, 255, 255); stroke-opacity: 1; opacity: 0.7;"/><g class="slicetext"><text data-notex="1" class="slicetext" text-anchor="middle" x="0" y="0" style="font-family: Arial; font-size: 12px; fill: rgb(68, 68, 68); fill-opacity: 1; white-space: pre;" transform="translate(331.14439457860215,27.62426314017935)rotate(86.18037135278519)">Citrus</text></g></g><g class="slice"><path class="surface" d="M334.9329149680846,125.91139073774325L319.8658299361693,1.8227814754864937A250,250 0,0,0 311.61172150677714,2.9649011287530413L330.8058607533886,126.48245056437652A125,125 0,0,1 334.9329149680846,125.91139073774325Z" style="pointer-events: none; stroke-width: 1; fill: rgb(102, 197, 204); fill-opacity: 1; stroke: rgb(255, 255, 255); stroke-opacity: 1; opacity: 0.7;"/><g class="slicetext"><text data-notex="1" class="slicetext" text-anchor="middle" x="0" y="0" style="font-family: Arial; font-size: 12px; fill: rgb(68, 68, 68); fill-opacity: 1; white-space: pre;" transform="translate(316.177974020541,20.129193471888254)scale(0.49895596917929563)rotate(82.12201591511939)">Other fruits</text></g></g><g class="slice"><path class="surface" d="M330.8058607533886,126.48245056437652L311.61172150677714,2.9649011287530413A250,250 0,0,0 257.46546116502145,17.755820045802125L303.7327305825107,133.87791002290106A125,125 0,0,1 330.8058607533886,126.48245056437652Z" style="pointer-events: none; stroke-width: 1; fill: rgb(246, 207, 113); fill-opacity: 1; stroke: rgb(255, 255, 255); stroke-opacity: 1; opacity: 0.7;"/><g class="slicetext"><text data-notex="1" class="slicetext" text-anchor="middle" x="0" y="0" style="font-family: Arial; font-size: 12px; fill: rgb(68, 68, 68); fill-opacity: 1; white-space: pre;" transform="translate(296.75528940745187,70.26258457869984)rotate(74.72148541114063)">Root vegetables</text></g></g><g class="slice"><path class="surface" d="M303.7327305825107,133.87791002290106L257.46546116502145,17.755820045802125A250,250 0,0,0 219.33095436023885,36.8671763627338L284.6654771801194,143.4335881813669A125,125 0,0,1 303.7327305825107,133.87791002290106Z" style="pointer-events: none; stroke-width: 1; fill: rgb(246, 207, 113); fill-opacity: 1; stroke: rgb(255, 255, 255); stroke-opacity: 1; opacity: 0.7;"/><g class="slicetext"><text data-notex="1" class="slicetext" text-anchor="middle" x="0" y="0" style="font-family: Arial; font-size: 12px; fill: rgb(68, 68, 68); fill-opacity: 1; white-space: pre;" transform="translate(262.45504934975315,84.24191365054577)rotate(63.38196286472146)">Leaf vegetables</text></g></g><g class="slice"><path class="surface" d="M284.6654771801194,143.4335881813669L219.33095436023885,36.8671763627338A250,250 0,0,0 185.00045250972255,62.18320275331155L267.5002262548613,156.09160137665577A125,125 0,0,1 284.6654771801194,143.4335881813669Z" style="pointer-events: none; stroke-width: 1; fill: rgb(246, 207, 113); fill-opacity: 1; stroke: rgb(255, 255, 255); stroke-opacity: 1; opacity: 0.7;"/><g class="slicetext"><text data-notex="1" class="slicetext" text-anchor="middle" x="0" y="0" style="font-family: Arial; font-size: 12px; fill: rgb(68, 68, 68); fill-opacity: 1; white-space: pre;" transform="translate(235.54197968995723,101.52568754627823)rotate(53.59416445623344)">Other vegetables</text></g></g><g class="slice"><path class="surface" d="M267.5002262548613,156.09160137665577L185.00045250972255,62.18320275331155A250,250 0,0,0 156.1293524673548,92.15776222673202L253.0646762336774,171.078881113366A125,125 0,0,1 267.5002262548613,156.09160137665577Z" style="pointer-events: none; stroke-width: 1; fill: rgb(246, 207, 113); fill-opacity: 1; stroke: rgb(255, 255, 255); stroke-opacity: 1; opacity: 0.7;"/><g class="slicetext"><text data-notex="1" class="slicetext" text-anchor="middle" x="0" y="0" style="font-family: Arial; font-size: 12px; fill: rgb(68, 68, 68); fill-opacity: 1; white-space: pre;" transform="translate(204.53166934946185,115.44053095486552)rotate(43.925729442970805)">Cabbages</text></g></g><g class="slice"><path class="surface" d="M253.0646762336774,171.078881113366L156.1293524673548,92.15776222673202A250,250 0,0,0 135.25054430456382,122.0051904235414L242.62527215228192,186.0025952117707A125,125 0,0,1 253.0646762336774,171.078881113366Z" style="pointer-events: none; stroke-width: 1; fill: rgb(246, 207, 113); fill-opacity: 1; stroke: rgb(255, 255, 255); stroke-opacity: 1; opacity: 0.7;"/><g class="slicetext"><text data-notex="1" class="slicetext" text-anchor="middle" x="0" y="0" style="font-family: Arial; font-size: 12px; fill: rgb(68, 68, 68); fill-opacity: 1; white-space: pre;" transform="translate(194.1343093761181,145.85068700847683)rotate(34.973474801061)">Fruit vegetables</text></g></g><g class="slice"><path class="surface" d="M242.62527215228192,186.0025952117707L135.25054430456382,122.0051904235414A250,250 0,0,0 124.43595846067657,142.19989255828006L237.2179792303383,196.09994627914003A125,125 0,0,1 242.62527215228192,186.0025952117707Z" style="pointer-events: none; stroke-width: 1; fill: rgb(246, 207, 113); fill-opacity: 1; stroke: rgb(255, 255, 255); stroke-opacity: 1; opacity: 0.7;"/><g class="slicetext"><text data-notex="1" class="slicetext" text-anchor="middle" x="0" y="0" style="font-family: Arial; font-size: 12px; fill: rgb(68, 68, 68); fill-opacity: 1; white-space: pre;" transform="translate(151.17722254461532,148.0646725093003)rotate(28.169761273209588)">Tubers</text></g></g><g class="slice"><path class="surface" d="M237.2179792303383,196.09994627914003L124.43595846067657,142.19989255828006A250,250 0,0,0 116.61733866509852,160.37559825450057L233.30866933254924,205.1877991272503A125,125 0,0,1 237.2179792303383,196.09994627914003Z" style="pointer-events: none; stroke-width: 1; fill: rgb(246, 207, 113); fill-opacity: 1; stroke: rgb(255, 255, 255); stroke-opacity: 1; opacity: 0.7;"/><g class="slicetext"><text data-notex="1" class="slicetext" text-anchor="middle" x="0" y="0" style="font-family: Arial; font-size: 12px; fill: rgb(68, 68, 68); fill-opacity: 1; white-space: pre;" transform="translate(151.09777860906019,168.76005103173014)scale(0.9924607324340785)rotate(23.27586206896558)">Mushrooms</text></g></g><g class="slice"><path class="surface" d="M233.30866933254924,205.1877991272503L116.61733866509852,160.37559825450057A250,250 0,0,0 111.47524706224439,175.12715955713546L230.7376235311222,212.5635797785677A125,125 0,0,1 233.30866933254924,205.1877991272503Z" style="pointer-events: none; stroke-width: 1; fill: rgb(246, 207, 113); fill-opacity: 1; stroke: rgb(255, 255, 255); stroke-opacity: 1; opacity: 0.7;"/><g class="slicetext"><text data-notex="1" class="slicetext" text-anchor="middle" x="0" y="0" style="font-family: Arial; font-size: 12px; fill: rgb(68, 68, 68); fill-opacity: 1; white-space: pre;" transform="translate(150.43014107225946,183.58518232034498)scale(0.7438864476040175)rotate(19.217506631299784)">Shoot vegetables</text></g></g><g class="slice"><path class="surface" d="M230.7376235311222,212.5635797785677L111.47524706224439,175.12715955713546A250,250 0,0,0 108.03133256880133,187.14171509204232L229.01566628440065,218.57085754602116A125,125 0,0,1 230.7376235311222,212.5635797785677Z" style="pointer-events: none; stroke-width: 1; fill: rgb(246, 207, 113); fill-opacity: 1; stroke: rgb(255, 255, 255); stroke-opacity: 1; opacity: 0.7;"/><g class="slicetext"><text data-notex="1" class="slicetext" text-anchor="middle" x="0" y="0" style="font-family: Arial; font-size: 12px; fill: rgb(68, 68, 68); fill-opacity: 1; white-space: pre;" transform="translate(123.62716295318018,183.66397124221032)scale(0.365684239504659)rotate(15.994694960212314)"><tspan class="line" dy="0em" x="0" y="0">Onion-family</tspan><tspan class="line" dy="1.3em" x="0" y="0">vegetables</tspan></text></g></g><g class="slice"><path class="surface" d="M229.01566628440065,218.57085754602116L108.03133256880133,187.14171509204232A250,250 0,0,0 105.40549888314007,198.29381058911414L227.70274944157003,224.1469052945571A125,125 0,0,1 229.01566628440065,218.57085754602116Z" style="pointer-events: none; stroke-width: 1; fill: rgb(246, 207, 113); fill-opacity: 1; stroke: rgb(255, 255, 255); stroke-opacity: 1; opacity: 0.7;"/><g class="slicetext"><text data-notex="1" class="slicetext" text-anchor="middle" x="0" y="0" style="font-family: Arial; font-size: 12px; fill: rgb(68, 68, 68); fill-opacity: 1; white-space: pre;" transform="translate(135.91920516924867,202.0723075809313)scale(0.6032603122659799)rotate(13.249336870026582)">Stalk vegetables</text></g></g><g class="slice"><path class="surface" d="M227.70274944157,224.1469052945572L105.40549888314001,198.29381058911437A250,250 0,0,0 118.14338633609322,343.5013941088895L234.0716931680466,296.75069705444474A125,125 0,0,1 227.70274944157,224.1469052945572Z" style="pointer-events: none; stroke-width: 1; fill: rgb(248, 156, 116); fill-opacity: 1; stroke: rgb(255, 255, 255); stroke-opacity: 1; opacity: 0.7;"/><g class="slicetext"><text data-notex="1" class="slicetext" text-anchor="middle" x="0" y="0" style="font-family: Arial; font-size: 12px; fill: rgb(68, 68, 68); fill-opacity: 1; white-space: pre;" transform="translate(157.171692705445,270.9152685866921)">Herbs</text></g></g><g class="slice"><path class="surface" d="M234.0716931680466,296.75069705444474L118.14338633609322,343.5013941088895A250,250 0,0,0 157.45138950175811,409.452289400925L253.72569475087906,329.7261447004625A125,125 0,0,1 234.0716931680466,296.75069705444474Z" style="pointer-events: none; stroke-width: 1; fill: rgb(248, 156, 116); fill-opacity: 1; stroke: rgb(255, 255, 255); stroke-opacity: 1; opacity: 0.7;"/><g class="slicetext"><text data-notex="1" class="slicetext" text-anchor="middle" x="0" y="0" style="font-family: Arial; font-size: 12px; fill: rgb(68, 68, 68); fill-opacity: 1; white-space: pre;" transform="translate(163.8365255191163,364.9570144851312)">Spices</text></g></g><g class="slice"><path class="surface" d="M253.72569475087906,329.7261447004625L157.45138950175811,409.452289400925A250,250 0,0,0 195.41063497758682,446.4742431515315L272.7053174887934,348.23712157576574A125,125 0,0,1 253.72569475087906,329.7261447004625Z" style="pointer-events: none; stroke-width: 1; fill: rgb(248, 156, 116); fill-opacity: 1; stroke: rgb(255, 255, 255); stroke-opacity: 1; opacity: 0.7;"/><g class="slicetext"><text data-notex="1" class="slicetext" text-anchor="middle" x="0" y="0" style="font-family: Arial; font-size: 12px; fill: rgb(68, 68, 68); fill-opacity: 1; white-space: pre;" transform="translate(222.0317767926188,386.93692825296625)rotate(-45.71618037135272)">Oilseed crops</text></g></g><g class="slice"><path class="surface" d="M272.7053174887934,348.23712157576574L195.41063497758682,446.4742431515315A250,250 0,0,0 213.17118121611617,459.23162846521814L281.58559060805806,354.61581423260907A125,125 0,0,1 272.7053174887934,348.23712157576574Z" style="pointer-events: none; stroke-width: 1; fill: rgb(248, 156, 116); fill-opacity: 1; stroke: rgb(255, 255, 255); stroke-opacity: 1; opacity: 0.7;"/><g class="slicetext"><text data-notex="1" class="slicetext" text-anchor="middle" x="0" y="0" style="font-family: Arial; font-size: 12px; fill: rgb(68, 68, 68); fill-opacity: 1; white-space: pre;" transform="translate(230.09746650201146,423.7820459016337)rotate(-54.310344827586164)">Other seeds</text></g></g><g class="slice"><path class="surface" d="M281.58559060805806,354.61581423260907L213.17118121611617,459.23162846521814A250,250 0,0,0 316.7661226592478,497.78117240198026L333.3830613296239,373.8905862009901A125,125 0,0,1 281.58559060805806,354.61581423260907Z" style="pointer-events: none; stroke-width: 1; fill: rgb(220, 176, 242); fill-opacity: 1; stroke: rgb(255, 255, 255); stroke-opacity: 1; opacity: 0.7;"/><g class="slicetext"><text data-notex="1" class="slicetext" text-anchor="middle" x="0" y="0" style="font-family: Arial; font-size: 12px; fill: rgb(68, 68, 68); fill-opacity: 1; white-space: pre;" transform="translate(278.5965784542814,445.8838076528816)">Fishes</text></g></g><g class="slice"><path class="surface" d="M333.3830613296239,373.8905862009901L316.7661226592478,497.78117240198026A250,250 0,0,0 327.11595141158716,498.95043747742875L338.5579757057936,374.4752187387144A125,125 0,0,1 333.3830613296239,373.8905862009901Z" style="pointer-events: none; stroke-width: 1; fill: rgb(220, 176, 242); fill-opacity: 1; stroke: rgb(255, 255, 255); stroke-opacity: 1; opacity: 0.7;"/><g class="slicetext"><text data-notex="1" class="slicetext" text-anchor="middle" x="0" y="0" style="font-family: Arial; font-size: 12px; fill: rgb(68, 68, 68); fill-opacity: 1; white-space: pre;" transform="translate(326.2695049258321,482.5742908167215)scale(0.6320870620746181)rotate(-83.55437665782495)">Mollusks</text></g></g><g class="slice"><path class="surface" d="M338.5579757057936,374.4752187387144L327.11595141158716,498.95043747742875A250,250 0,0,0 335.4252788777299,499.57479340712285L342.7126394388649,374.7873967035614A125,125 0,0,1 338.5579757057936,374.4752187387144Z" style="pointer-events: none; stroke-width: 1; fill: rgb(220, 176, 242); fill-opacity: 1; stroke: rgb(255, 255, 255); stroke-opacity: 1; opacity: 0.7;"/><g class="slicetext"><text data-notex="1" class="slicetext" text-anchor="middle" x="0" y="0" style="font-family: Arial; font-size: 12px; fill: rgb(68, 68, 68); fill-opacity: 1; white-space: pre;" transform="translate(334.642911134792,480.7489597973954)scale(0.49390653020326)rotate(-85.70291777188322)">Crustaceans</text></g></g><g class="slice"><path class="surface" d="M342.7126394388649,374.7873967035614L335.4252788777299,499.57479340712285A250,250 0,0,0 343.7507982161815,499.9218827495206L346.8753991080908,374.9609413747603A125,125 0,0,1 342.7126394388649,374.7873967035614Z" style="pointer-events: none; stroke-width: 1; fill: rgb(220, 176, 242); fill-opacity: 1; stroke: rgb(255, 255, 255); stroke-opacity: 1; opacity: 0.7;"/><g class="slicetext"><text data-notex="1" class="slicetext" text-anchor="middle" x="0" y="0" style="font-family: Arial; font-size: 12px; fill: rgb(68, 68, 68); fill-opacity: 1; white-space: pre;" transform="translate(342.2594291096447,484.6877981924035)scale(0.5104364816100783)rotate(-87.61273209549063)">Pinnipeds</text></g></g><g class="slice"><path class="surface" d="M346.8753991080908,374.9609413747603L343.7507982161815,499.9218827495206A250,250 0,0,0 347.9167398578226,499.99131990367187L348.9583699289113,374.99565995183593A125,125 0,0,1 346.8753991080908,374.9609413747603Z" style="pointer-events: none; stroke-width: 1; fill: rgb(220, 176, 242); fill-opacity: 1; stroke: rgb(255, 255, 255); stroke-opacity: 1; opacity: 0.7;"/><g class="slicetext"><text data-notex="1" class="slicetext" text-anchor="middle" x="0" y="0" style="font-family: Arial; font-size: 12px; fill: rgb(68, 68, 68); fill-opacity: 1; white-space: pre;" transform="translate(347.0587924060247,491.3852232001335)scale(0.2705017288447697)rotate(-89.0450928381963)">Cetaceans</text></g></g><g class="slice"><path class="surface" d="M348.9583699289113,374.99565995183593L347.9167398578226,499.99131990367187A250,250 0,0,0 352.08326014217687,499.99131990367187L351.04163007108843,374.99565995183593A125,125 0,0,1 348.9583699289113,374.99565995183593Z" style="pointer-events: none; stroke-width: 1; fill: rgb(220, 176, 242); fill-opacity: 1; stroke: rgb(255, 255, 255); stroke-opacity: 1; opacity: 0.7;"/><g class="slicetext"><text data-notex="1" class="slicetext" text-anchor="middle" x="0" y="0" style="font-family: Arial; font-size: 12px; fill: rgb(68, 68, 68); fill-opacity: 1; white-space: pre;" transform="translate(351.09168870921474,492.44223572977614)scale(0.27292217730373675)rotate(-90)">Seaweed</text></g></g><g class="slice"><path class="surface" d="M351.04163007108843,374.99565995183593L352.08326014217687,499.99131990367187A250,250 0,0,0 353.12484500574396,499.9804699245325L351.562422502872,374.99023496226624A125,125 0,0,1 351.04163007108843,374.99565995183593Z" style="pointer-events: none; stroke-width: 1; fill: rgb(220, 176, 242); fill-opacity: 1; stroke: rgb(255, 255, 255); stroke-opacity: 1; opacity: 0.7;"/><g class="slicetext"><text data-notex="1" class="slicetext" text-anchor="middle" x="0" y="0" style="font-family: Arial; font-size: 12px; fill: rgb(68, 68, 68); fill-opacity: 1; white-space: pre;" transform="translate(352.2789991809454,495.7135314864574)scale(0.07013345655918359)rotate(89.40318302387277)">Other aquatic foods</text></g></g><g class="slice"><path class="surface" d="M351.5624225028721,374.99023496226624L353.1248450057442,499.9804699245325A250,250 0,0,0 403.742610052756,494.15513892752165L376.87130502637797,372.0775694637608A125,125 0,0,1 351.5624225028721,374.99023496226624Z" style="pointer-events: none; stroke-width: 1; fill: rgb(135, 197, 95); fill-opacity: 1; stroke: rgb(255, 255, 255); stroke-opacity: 1; opacity: 0.7;"/><g class="slicetext"><text data-notex="1" class="slicetext" text-anchor="middle" x="0" y="0" style="font-family: Arial; font-size: 12px; fill: rgb(68, 68, 68); fill-opacity: 1; white-space: pre;" transform="translate(375.9392175051283,479.392379909685)">Beans</text></g></g><g class="slice"><path class="surface" d="M376.87130502637797,372.0775694637608L403.742610052756,494.15513892752165A250,250 0,0,0 435.7225154641835,484.84388504385805L392.86125773209176,367.42194252192905A125,125 0,0,1 376.87130502637797,372.0775694637608Z" style="pointer-events: none; stroke-width: 1; fill: rgb(135, 197, 95); fill-opacity: 1; stroke: rgb(255, 255, 255); stroke-opacity: 1; opacity: 0.7;"/><g class="slicetext"><text data-notex="1" class="slicetext" text-anchor="middle" x="0" y="0" style="font-family: Arial; font-size: 12px; fill: rgb(68, 68, 68); fill-opacity: 1; white-space: pre;" transform="translate(415.52294546313516,479.04139876000454)">Peas</text></g></g><g class="slice"><path class="surface" d="M392.86125773209176,367.42194252192905L435.7225154641835,484.84388504385805A250,250 0,0,0 439.62440174549914,483.3826613349016L394.8122008727496,366.6913306674508A125,125 0,0,1 392.86125773209176,367.42194252192905Z" style="pointer-events: none; stroke-width: 1; fill: rgb(135, 197, 95); fill-opacity: 1; stroke: rgb(255, 255, 255); stroke-opacity: 1; opacity: 0.7;"/><g class="slicetext"><text data-notex="1" class="slicetext" text-anchor="middle" x="0" y="0" style="font-family: Arial; font-size: 12px; fill: rgb(68, 68, 68); fill-opacity: 1; white-space: pre;" transform="translate(434.6889474359019,479.30972071935486)scale(0.27757925765253394)rotate(69.46949602122015)">Lentils</text></g></g><g class="slice"><path class="surface" d="M394.8122008727496,366.6913306674508L439.62440174549914,483.3826613349016A250,250 0,0,0 443.5013941088895,481.8566136639068L396.75069705444474,365.92830683195336A125,125 0,0,1 394.8122008727496,366.6913306674508Z" style="pointer-events: none; stroke-width: 1; fill: rgb(135, 197, 95); fill-opacity: 1; stroke: rgb(255, 255, 255); stroke-opacity: 1; opacity: 0.7;"/><g class="slicetext"><text data-notex="1" class="slicetext" text-anchor="middle" x="0" y="0" style="font-family: Arial; font-size: 12px; fill: rgb(68, 68, 68); fill-opacity: 1; white-space: pre;" transform="translate(436.77349122149667,473.36095683835066)scale(0.26636766779613164)rotate(68.51458885941645)">Other pulses</text></g></g><g class="slice"><path class="surface" d="M396.75069705444474,365.92830683195336L443.5013941088895,481.8566136639068A250,250 0,0,0 507.03309468442944,444.52662330342093L428.5165473422147,347.26331165171047A125,125 0,0,1 396.75069705444474,365.92830683195336Z" style="pointer-events: none; stroke-width: 1; fill: rgb(158, 185, 243); fill-opacity: 1; stroke: rgb(255, 255, 255); stroke-opacity: 1; opacity: 0.7;"/><g class="slicetext"><text data-notex="1" class="slicetext" text-anchor="middle" x="0" y="0" style="font-family: Arial; font-size: 12px; fill: rgb(68, 68, 68); fill-opacity: 1; white-space: pre;" transform="translate(460.38259481369624,441.8595170996349)">Nuts</text></g></g><g class="slice"><path class="surface" d="M428.5165473422147,347.26331165171047L507.03309468442944,444.52662330342093A250,250 0,0,0 549.6519120103055,400.4629988755681L449.82595600515276,325.231499437784A125,125 0,0,1 428.5165473422147,347.26331165171047Z" style="pointer-events: none; stroke-width: 1; fill: rgb(254, 136, 177); fill-opacity: 1; stroke: rgb(255, 255, 255); stroke-opacity: 1; opacity: 0.7;"/><g class="slicetext"><text data-notex="1" class="slicetext" text-anchor="middle" x="0" y="0" style="font-family: Arial; font-size: 12px; fill: rgb(68, 68, 68); fill-opacity: 1; white-space: pre;" transform="translate(510.0725947952815,408.82395660913465)">Cereals</text></g></g><g class="slice"><path class="surface" d="M449.82595600515276,325.231499437784L549.6519120103055,400.4629988755681A250,250 0,0,0 576.4545125375116,355.9167302714636L463.2272562687558,302.9583651357318A125,125 0,0,1 449.82595600515276,325.231499437784Z" style="pointer-events: none; stroke-width: 1; fill: rgb(201, 219, 116); fill-opacity: 1; stroke: rgb(255, 255, 255); stroke-opacity: 1; opacity: 0.7;"/><g class="slicetext"><text data-notex="1" class="slicetext" text-anchor="middle" x="0" y="0" style="font-family: Arial; font-size: 12px; fill: rgb(68, 68, 68); fill-opacity: 1; white-space: pre;" transform="translate(512.6386999196767,352.52468149098354)rotate(31.034482758620697)">Unknown</text></g></g><g class="slice"><path class="surface" d="M463.2272562687558,302.9583651357318L576.4545125375116,355.9167302714636A250,250 0,0,0 592.735454356513,309.82891607188947L471.3677271782565,279.91445803594473A125,125 0,0,1 463.2272562687558,302.9583651357318Z" style="pointer-events: none; stroke-width: 1; fill: rgb(139, 224, 164); fill-opacity: 1; stroke: rgb(255, 255, 255); stroke-opacity: 1; opacity: 0.7;"/><g class="slicetext"><text data-notex="1" class="slicetext" text-anchor="middle" x="0" y="0" style="font-family: Arial; font-size: 12px; fill: rgb(68, 68, 68); fill-opacity: 1; white-space: pre;" transform="translate(539.679446305419,321.2482474475835)rotate(19.456233421750653)">Gourds</text></g></g><g class="slice"><path class="surface" d="M471.3677271782565,279.91445803594473L592.735454356513,309.82891607188947A250,250 0,0,0 595.2216886315837,298.64487048677L472.61084431579184,274.32243524338503A125,125 0,0,1 471.3677271782565,279.91445803594473Z" style="pointer-events: none; stroke-width: 1; fill: rgb(180, 151, 231); fill-opacity: 1; stroke: rgb(255, 255, 255); stroke-opacity: 1; opacity: 0.7;"/><g class="slicetext"><text data-notex="1" class="slicetext" text-anchor="middle" x="0" y="0" style="font-family: Arial; font-size: 12px; fill: rgb(68, 68, 68); fill-opacity: 1; white-space: pre;" transform="translate(578.6348051484296,303.7033159683319)scale(0.702201159674248)rotate(12.533156498673748)">Poultry</text></g></g><g class="slice"><path class="surface" d="M472.61084431579184,274.32243524338503L595.2216886315837,298.64487048677A250,250 0,0,0 595.8105625616253,295.57595125872086L472.90528128081263,272.7879756293604A125,125 0,0,1 472.61084431579184,274.32243524338503Z" style="pointer-events: none; stroke-width: 1; fill: rgb(180, 151, 231); fill-opacity: 1; stroke: rgb(255, 255, 255); stroke-opacity: 1; opacity: 0.7;"/><g class="slicetext"><text data-notex="1" class="slicetext" text-anchor="middle" x="0" y="0" style="font-family: Arial; font-size: 12px; fill: rgb(68, 68, 68); fill-opacity: 1; white-space: pre;" transform="translate(590.5158621095467,297.0032406918897)scale(0.20925654660011997)rotate(10.862068965517267)">Bovines</text></g></g><g class="slice"><path class="surface" d="M472.90528128081263,272.7879756293604L595.8105625616253,295.57595125872086A250,250 0,0,0 596.1818141749757,293.52601945408907L473.09090708748784,271.76300972704456A125,125 0,0,1 472.90528128081263,272.7879756293604Z" style="pointer-events: none; stroke-width: 1; fill: rgb(180, 151, 231); fill-opacity: 1; stroke: rgb(255, 255, 255); stroke-opacity: 1; opacity: 0.7;"/><g class="slicetext"><text data-notex="1" class="slicetext" text-anchor="middle" x="0" y="0" style="font-family: Arial; font-size: 12px; fill: rgb(68, 68, 68); fill-opacity: 1; white-space: pre;" transform="translate(593.3145870371342,294.6433374759163)scale(0.14218748523046595)rotate(10.265251989389924)">Swine</text></g></g><g class="slice"><path class="surface" d="M473.09090708748784,271.76300972704456L596.1818141749757,293.52601945408907A250,250 0,0,0 596.3610309009665,292.499911216531L473.18051545048326,271.2499556082655A125,125 0,0,1 473.09090708748784,271.76300972704456Z" style="pointer-events: none; stroke-width: 1; fill: rgb(180, 151, 231); fill-opacity: 1; stroke: rgb(255, 255, 255); stroke-opacity: 1; opacity: 0.7;"/><g class="slicetext"><text data-notex="1" class="slicetext" text-anchor="middle" x="0" y="0" style="font-family: Arial; font-size: 12px; fill: rgb(68, 68, 68); fill-opacity: 1; white-space: pre;" transform="translate(594.4878974001464,292.9921739338791)scale(0.07159453228363902)rotate(9.907161803713564)">Equines</text></g></g><g class="slice"><path class="surface" d="M473.18051545048326,271.2499556082655L596.3610309009665,292.499911216531A250,250 0,0,0 596.535970733436,291.4730651691242L473.267985366718,270.7365325845621A125,125 0,0,1 473.18051545048326,271.2499556082655Z" style="pointer-events: none; stroke-width: 1; fill: rgb(180, 151, 231); fill-opacity: 1; stroke: rgb(255, 255, 255); stroke-opacity: 1; opacity: 0.7;"/><g class="slicetext"><text data-notex="1" class="slicetext" text-anchor="middle" x="0" y="0" style="font-family: Arial; font-size: 12px; fill: rgb(68, 68, 68); fill-opacity: 1; white-space: pre;" transform="translate(593.7103779265597,291.80822570230754)scale(0.07103179501940472)rotate(9.668435013262581)">Lagomorphs</text></g></g><g class="slice"><path class="surface" d="M473.267985366718,270.7365325845621L596.535970733436,291.4730651691242A250,250 0,0,0 596.7066306353815,290.4454991381912L473.3533153176908,270.2227495690956A125,125 0,0,1 473.267985366718,270.7365325845621Z" style="pointer-events: none; stroke-width: 1; fill: rgb(180, 151, 231); fill-opacity: 1; stroke: rgb(255, 255, 255); stroke-opacity: 1; opacity: 0.7;"/><g class="slicetext"><text data-notex="1" class="slicetext" text-anchor="middle" x="0" y="0" style="font-family: Arial; font-size: 12px; fill: rgb(68, 68, 68); fill-opacity: 1; white-space: pre;" transform="translate(595.6633764404933,291.0924617928276)scale(0.07208098164340095)rotate(9.429708222811712)">Ovis</text></g></g><g class="slice"><path class="surface" d="M473.3533153176908,270.2227495690956L596.7066306353815,290.4454991381912A250,250 0,0,0 597.7811724019803,283.233877340752L473.8905862009901,266.616938670376A125,125 0,0,1 473.3533153176908,270.2227495690956Z" style="pointer-events: none; stroke-width: 1; fill: rgb(179, 179, 179); fill-opacity: 1; stroke: rgb(255, 255, 255); stroke-opacity: 1; opacity: 0.7;"/><g class="slicetext"><text data-notex="1" class="slicetext" text-anchor="middle" x="0" y="0" style="font-family: Arial; font-size: 12px; fill: rgb(68, 68, 68); fill-opacity: 1; white-space: pre;" transform="translate(590.8482790243933,287.8367803382445)scale(0.4821889505691444)rotate(8.474801061007952)">Teas</text></g></g><g class="slice"><path class="surface" d="M473.8905862009901,266.616938670376L597.7811724019803,283.233877340752A250,250 0,0,0 598.5344892885898,277.0297546059854L474.2672446442949,263.5148773029927A125,125 0,0,1 473.8905862009901,266.616938670376Z" style="pointer-events: none; stroke-width: 1; fill: rgb(179, 179, 179); fill-opacity: 1; stroke: rgb(255, 255, 255); stroke-opacity: 1; opacity: 0.7;"/><g class="slicetext"><text data-notex="1" class="slicetext" text-anchor="middle" x="0" y="0" style="font-family: Arial; font-size: 12px; fill: rgb(68, 68, 68); fill-opacity: 1; white-space: pre;" transform="translate(584.5386251489391,280.0436423621211)scale(0.3885207790012877)rotate(6.923076923076906)">Herbal teas</text></g></g><g class="slice"><path class="surface" d="M474.2672446442949,263.5148773029927L598.5344892885898,277.0297546059854A250,250 0,0,0 599.5119006661649,265.6144620771208L474.75595033308247,257.80723103856036A125,125 0,0,1 474.2672446442949,263.5148773029927Z" style="pointer-events: none; stroke-width: 1; fill: rgb(179, 226, 230); fill-opacity: 1; stroke: rgb(255, 255, 255); stroke-opacity: 1; opacity: 0.7;"/><g class="slicetext"><text data-notex="1" class="slicetext" text-anchor="middle" x="0" y="0" style="font-family: Arial; font-size: 12px; fill: rgb(68, 68, 68); fill-opacity: 1; white-space: pre;" transform="translate(585.3382357434097,273.0105916944484)scale(0.7124507658101039)rotate(4.893899204244008)">Coffee</text></g></g><g class="slice"><path class="surface" d="M474.75595033308247,257.80723103856036L599.5119006661649,265.6144620771208A250,250 0,0,0 599.861130513467,258.3315939970842L474.9305652567335,254.1657969985421A125,125 0,0,1 474.75595033308247,257.80723103856036Z" style="pointer-events: none; stroke-width: 1; fill: rgb(252, 239, 209); fill-opacity: 1; stroke: rgb(255, 255, 255); stroke-opacity: 1; opacity: 0.7;"/><g class="slicetext"><text data-notex="1" class="slicetext" text-anchor="middle" x="0" y="0" style="font-family: Arial; font-size: 12px; fill: rgb(68, 68, 68); fill-opacity: 1; white-space: pre;" transform="translate(590.8889974195831,263.4447227270954)scale(0.4728455284883936)rotate(2.7453580901856753)">Cocoa</text></g></g><g class="slice"><path class="surface" d="M474.9305652567335,254.1657969985421L599.861130513467,258.3315939970842A250,250 0,0,0 599.9978299664999,251.0416391126557L474.99891498324996,250.52081955632787A125,125 0,0,1 474.9305652567335,254.1657969985421Z" style="pointer-events: none; stroke-width: 1; fill: rgb(253, 225, 213); fill-opacity: 1; stroke: rgb(255, 255, 255); stroke-opacity: 1; opacity: 0.7;"/><g class="slicetext"><text data-notex="1" class="slicetext" text-anchor="middle" x="0" y="0" style="font-family: Arial; font-size: 12px; fill: rgb(68, 68, 68); fill-opacity: 1; white-space: pre;" transform="translate(594.4184705619718,256.52773931587853)scale(0.4860305234902057)rotate(1.0742705570291378)">Soy</text></g></g><g class="slice"><path class="surface" d="M474.99891498324996,250.52081955632787L599.9978299664999,251.0416391126557A250,250 0,0,0 600,250.00000000000006L475,250.00000000000003A125,125 0,0,1 474.99891498324996,250.52081955632787Z" style="pointer-events: none; stroke-width: 1; fill: rgb(255, 255, 255); fill-opacity: 1; stroke: rgb(255, 255, 255); stroke-opacity: 1; opacity: 0.7;"/><g class="slicetext"><text data-notex="1" class="slicetext" text-anchor="middle" x="0" y="0" style="font-family: Arial; font-size: 12px; fill: rgb(68, 68, 68); fill-opacity: 1; white-space: pre;" transform="translate(597.0914472318656,250.79847729660932)scale(0.07092855378890968)rotate(0.11936339522543449)">Oilseed crops</text></g></g></g></g><g class="glimages"/><defs id="topdefs-c2cb8c"><g class="clips"/></defs><g class="layer-above"><g class="imagelayer"/><g class="shapelayer"/></g><g class="infolayer"><g class="g-gtitle"/></g></svg>