<svg class="main-svg" xmlns="http://www.w3.org/2000/svg" xmlns:xlink="http://www.w3.org/1999/xlink" width="700" height="500" style="" viewBox="0 0 700 500"><rect x="0" y="0" width="700" height="500" style="fill: rgb(255, 255, 255); fill-opacity: 1;"/><defs id="defs-c0f4d9"><g class="clips"/><g class="gradients"/><g class="patterns"/></defs><g class="bglayer"/><g class="layer-below"><g class="imagelayer"/><g class="shapelayer"/></g><g class="cartesianlayer"/><g class="polarlayer"/><g class="smithlayer"/><g class="ternarylayer"/><g class="geolayer"/><g class="funnelarealayer"/><g class="pielayer"/><g class="iciclelayer"/><g class="treemaplayer"/><g class="sunburstlayer"><g class="trace sunburst" stroke-linejoin="round" style="opacity: 1;"><g class="slice cursor-pointer"><path class="surface" d="M350,250L475,250A125,125 0,0,0 357.21954184867855,125.20866129616536L350,250A0,0 0,0,1 350,250Z" style="pointer-events: none; stroke-width: 1; fill: rgb(102, 197, 204); fill-opacity: 1; stroke: rgb(255, 255, 255); stroke-opacity: 1;"/><g class="slicetext"><text data-notex="1" class="slicetext" text-anchor="middle" x="0" y="0" style="font-family: Arial; font-size: 12px; fill: rgb(68, 68, 68); fill-opacity: 1; white-space: pre;" transform="translate(403.905313698395,203.12313137968948)">Fruits</text></g></g><g class="slice cursor-pointer"><path class="surface" d="M350,250L357.21954184867855,125.20866129616536A125,125 0,0,0 232.43892030720022,207.52185807426153L350,250A0,0 0,0,1 350,250Z" style="pointer-events: none; stroke-width: 1; fill: rgb(246, 207, 113); fill-opacity: 1; stroke: rgb(255, 255, 255); stroke-opacity: 1;"/><g class="slicetext"><text data-notex="1" class="slicetext" text-anchor="middle" x="0" y="0" style="font-family: Arial; font-size: 12px; fill: rgb(68, 68, 68); fill-opacity: 1; white-space: pre;" transform="translate(306.9252540916129,188.70192171396667)">Vegetables</text></g></g><g class="slice cursor-pointer"><path class="surface" d="M350,250L232.43892030720022,207.52185807426153A125,125 0,0,0 269.99862098731256,346.0457149281962L350,250A0,0 0,0,1 350,250Z" style="pointer-events: none; stroke-width: 1; fill: rgb(248, 156, 116); fill-opacity: 1; stroke: rgb(255, 255, 255); stroke-opacity: 1;"/><g class="slicetext"><text data-notex="1" class="slicetext" text-anchor="middle" x="0" y="0" style="font-family: Arial; font-size: 12px; fill: rgb(68, 68, 68); fill-opacity: 1; white-space: pre;" transform="translate(249.2764899907936,277.3104212755583)rotate(74.82943143812713)">Herbs and Spices</text></g></g><g class="slice cursor-pointer"><path class="surface" d="M350,250L269.99862098731256,346.0457149281962A125,125 0,0,0 312.29001531914,369.17615976095766L350,250A0,0 0,0,1 350,250Z" style="pointer-events: none; stroke-width: 1; fill: rgb(220, 176, 242); fill-opacity: 1; stroke: rgb(255, 255, 255); stroke-opacity: 1;"/><g class="slicetext"><text data-notex="1" class="slicetext" text-anchor="middle" x="0" y="0" style="font-family: Arial; font-size: 12px; fill: rgb(68, 68, 68); fill-opacity: 1; white-space: pre;" transform="translate(299.714535150506,345.94126781760247)">Pulses</text></g></g><g class="slice cursor-pointer"><path class="surface" d="M350,250L312.29001531914,369.17615976095766A125,125 0,0,0 359.14167611287405,374.6652708569925L350,250A0,0 0,0,1 350,250Z" style="pointer-events: none; stroke-width: 1; fill: rgb(135, 197, 95); fill-opacity: 1; stroke: rgb(255, 255, 255); stroke-opacity: 1;"/><g class="slicetext"><text data-notex="1" class="slicetext" text-anchor="middle" x="0" y="0" style="font-family: Arial; font-size: 12px; fill: rgb(68, 68, 68); fill-opacity: 1; white-space: pre;" transform="translate(337.3668234044629,337.0925650608121)scale(0.6342077701887124)rotate(-83.3177257525083)"><tspan class="line" dy="0em" x="0" y="0">Cereals and cereal</tspan><tspan class="line" dy="1.3em" x="0" y="0">products</tspan></text></g></g><g class="slice cursor-pointer"><path class="surface" d="M350,250L359.14167611287405,374.6652708569925A125,125 0,0,0 403.11147067602315,363.1555198946562L350,250A0,0 0,0,1 350,250Z" style="pointer-events: none; stroke-width: 1; fill: rgb(158, 185, 243); fill-opacity: 1; stroke: rgb(255, 255, 255); stroke-opacity: 1;"/><g class="slicetext"><text data-notex="1" class="slicetext" text-anchor="middle" x="0" y="0" style="font-family: Arial; font-size: 12px; fill: rgb(68, 68, 68); fill-opacity: 1; white-space: pre;" transform="translate(368.21442149208485,335.37886020245935)rotate(75.33110367892982)">Unknown</text></g></g><g class="slice cursor-pointer"><path class="surface" d="M350,250L403.11147067602315,363.1555198946562A125,125 0,0,0 437.9694479090857,338.80527143458687L350,250A0,0 0,0,1 350,250Z" style="pointer-events: none; stroke-width: 1; fill: rgb(254, 136, 177); fill-opacity: 1; stroke: rgb(255, 255, 255); stroke-opacity: 1;"/><g class="slicetext"><text data-notex="1" class="slicetext" text-anchor="middle" x="0" y="0" style="font-family: Arial; font-size: 12px; fill: rgb(68, 68, 68); fill-opacity: 1; white-space: pre;" transform="translate(394.37976961756635,320.3018476386353)scale(0.969400257703435)rotate(55.06354515050168)">Aquatic foods</text></g></g><g class="slice cursor-pointer"><path class="surface" d="M350,250L437.9694479090857,338.80527143458687A125,125 0,0,0 459.7737083206571,309.7890705859466L350,250A0,0 0,0,1 350,250Z" style="pointer-events: none; stroke-width: 1; fill: rgb(201, 219, 116); fill-opacity: 1; stroke: rgb(255, 255, 255); stroke-opacity: 1;"/><g class="slicetext"><text data-notex="1" class="slicetext" text-anchor="middle" x="0" y="0" style="font-family: Arial; font-size: 12px; fill: rgb(68, 68, 68); fill-opacity: 1; white-space: pre;" transform="translate(437.26153053456915,319.5727862380437)">Nuts</text></g></g><g class="slice cursor-pointer"><path class="surface" d="M350,250L459.7737083206571,309.7890705859466A125,125 0,0,0 468.56705524339316,289.58349922518426L350,250A0,0 0,0,1 350,250Z" style="pointer-events: none; stroke-width: 1; fill: rgb(139, 224, 164); fill-opacity: 1; stroke: rgb(255, 255, 255); stroke-opacity: 1;"/><g class="slicetext"><text data-notex="1" class="slicetext" text-anchor="middle" x="0" y="0" style="font-family: Arial; font-size: 12px; fill: rgb(68, 68, 68); fill-opacity: 1; white-space: pre;" transform="translate(442.72761481449226,294.5989570080251)scale(0.9729655746948841)rotate(23.518394648829485)">Gourds</text></g></g><g class="slice cursor-pointer"><path class="surface" d="M350,250L468.56705524339316,289.58349922518426A125,125 0,0,0 472.83647788319126,273.1559862940937L350,250A0,0 0,0,1 350,250Z" style="pointer-events: none; stroke-width: 1; fill: rgb(180, 151, 231); fill-opacity: 1; stroke: rgb(255, 255, 255); stroke-opacity: 1;"/><g class="slicetext"><text data-notex="1" class="slicetext" text-anchor="middle" x="0" y="0" style="font-family: Arial; font-size: 12px; fill: rgb(68, 68, 68); fill-opacity: 1; white-space: pre;" transform="translate(444.34803550042074,277.2528193872102)scale(0.6611051088146713)rotate(14.568561872909754)">Animal foods</text></g></g><g class="slice cursor-pointer"><path class="surface" d="M350,250L472.83647788319126,273.1559862940937A125,125 0,0,0 473.8712373769731,266.76056534540464L350,250A0,0 0,0,1 350,250Z" style="pointer-events: none; stroke-width: 1; fill: rgb(179, 179, 179); fill-opacity: 1; stroke: rgb(255, 255, 255); stroke-opacity: 1;"/><g class="slicetext"><text data-notex="1" class="slicetext" text-anchor="middle" x="0" y="0" style="font-family: Arial; font-size: 12px; fill: rgb(68, 68, 68); fill-opacity: 1; white-space: pre;" transform="translate(468.4529617702317,270.81601972319703)scale(0.40737571177150234)rotate(9.190635451505102)">Soy</text></g></g><g class="slice cursor-pointer"><path class="surface" d="M350,250L473.8712373769731,266.76056534540464A125,125 0,0,0 474.5732518812237,260.32012188577204L350,250A0,0 0,0,1 350,250Z" style="pointer-events: none; stroke-width: 1; fill: rgb(179, 226, 230); fill-opacity: 1; stroke: rgb(255, 255, 255); stroke-opacity: 1;"/><g class="slicetext"><text data-notex="1" class="slicetext" text-anchor="middle" x="0" y="0" style="font-family: Arial; font-size: 12px; fill: rgb(68, 68, 68); fill-opacity: 1; white-space: pre;" transform="translate(468.7993577568344,264.56626219810175)scale(0.40187428437138795)rotate(6.220735785953252)">Teas</text></g></g><g class="slice cursor-pointer"><path class="surface" d="M350,250L474.5732518812237,260.32012188577204A125,125 0,0,0 474.92334323584004,254.3770212223036L350,250A0,0 0,0,1 350,250Z" style="pointer-events: none; stroke-width: 1; fill: rgb(252, 239, 209); fill-opacity: 1; stroke: rgb(255, 255, 255); stroke-opacity: 1;"/><g class="slicetext"><text data-notex="1" class="slicetext" text-anchor="middle" x="0" y="0" style="font-family: Arial; font-size: 12px; fill: rgb(68, 68, 68); fill-opacity: 1; white-space: pre;" transform="translate(465.8526035453885,256.1995482439022)scale(0.16398755399287981)rotate(3.3712374581941162)"><tspan class="line" dy="0em" x="0" y="0">Coffee and coffee</tspan><tspan class="line" dy="1.3em" x="0" y="0">products</tspan></text></g></g><g class="slice cursor-pointer"><path class="surface" d="M350,250L474.92334323584004,254.3770212223036A125,125 0,0,0 474.9998773366593,250.17511659007644L350,250A0,0 0,0,1 350,250Z" style="pointer-events: none; stroke-width: 1; fill: rgb(253, 225, 213); fill-opacity: 1; stroke: rgb(255, 255, 255); stroke-opacity: 1;"/><g class="slicetext"><text data-notex="1" class="slicetext" text-anchor="middle" x="0" y="0" style="font-family: Arial; font-size: 12px; fill: rgb(68, 68, 68); fill-opacity: 1; white-space: pre;" transform="translate(468.48714594788953,251.69732456019673)scale(0.12109827485019345)rotate(1.0434782608696764)"><tspan class="line" dy="0em" x="0" y="0">Cocoa and cocoa</tspan><tspan class="line" dy="1.3em" x="0" y="0">products</tspan></text></g></g><g class="slice cursor-pointer"><path class="surface" d="M350,250L474.9998773366593,250.17511659007644A125,125 0,0,0 475,250.00000000000026L350,250A0,0 0,0,1 350,250Z" style="pointer-events: none; stroke-width: 1; fill: rgb(255, 255, 255); fill-opacity: 1; stroke: rgb(255, 255, 255); stroke-opacity: 1;"/><g class="slicetext"><text data-notex="1" class="slicetext" text-anchor="middle" x="0" y="0" style="font-family: Arial; font-size: 12px; fill: rgb(68, 68, 68); fill-opacity: 1; white-space: pre;" transform="translate(474.3622991109368,250.1342574602592)scale(0.011786449733467503)rotate(0.040133779264294844)">Herbs and spices</text></g></g><g class="slice"><path class="surface" d="M475,250L600,250A250,250 0,0,0 553.9896944068588,105.47247813721992L451.9948472034294,177.73623906860996A125,125 0,0,1 475,250Z" style="pointer-events: none; stroke-width: 1; fill: rgb(102, 197, 204); fill-opacity: 1; stroke: rgb(255, 255, 255); stroke-opacity: 1; opacity: 0.7;"/><g class="slicetext"><text data-notex="1" class="slicetext" text-anchor="middle" x="0" y="0" style="font-family: Arial; font-size: 12px; fill: rgb(68, 68, 68); fill-opacity: 1; white-space: pre;" transform="translate(533.2752064828837,195.8135522097216)">Tropical fruits</text></g></g><g class="slice"><path class="surface" d="M451.9948472034294,177.73623906860996L553.9896944068588,105.47247813721992A250,250 0,0,0 476.6644830626719,34.463207942434764L413.3322415313359,142.2316039712174A125,125 0,0,1 451.9948472034294,177.73623906860996Z" style="pointer-events: none; stroke-width: 1; fill: rgb(102, 197, 204); fill-opacity: 1; stroke: rgb(255, 255, 255); stroke-opacity: 1; opacity: 0.7;"/><g class="slicetext"><text data-notex="1" class="slicetext" text-anchor="middle" x="0" y="0" style="font-family: Arial; font-size: 12px; fill: rgb(68, 68, 68); fill-opacity: 1; white-space: pre;" transform="translate(489.75301629355874,101.81660913787792)">Berries</text></g></g><g class="slice"><path class="surface" d="M413.3322415313359,142.2316039712174L476.6644830626719,34.463207942434764A250,250 0,0,0 438.48746311586723,16.183899460883907L394.24373155793364,133.09194973044197A125,125 0,0,1 413.3322415313359,142.2316039712174Z" style="pointer-events: none; stroke-width: 1; fill: rgb(102, 197, 204); fill-opacity: 1; stroke: rgb(255, 255, 255); stroke-opacity: 1; opacity: 0.7;"/><g class="slicetext"><text data-notex="1" class="slicetext" text-anchor="middle" x="0" y="0" style="font-family: Arial; font-size: 12px; fill: rgb(68, 68, 68); fill-opacity: 1; white-space: pre;" transform="translate(442.92067620969107,65.19407701966256)rotate(-64.41471571906357)">Drupes</text></g></g><g class="slice"><path class="surface" d="M394.24373155793364,133.09194973044197L438.48746311586723,16.183899460883907A250,250 0,0,0 401.5496184048385,5.372452813842841L375.77480920241925,127.68622640692142A125,125 0,0,1 394.24373155793364,133.09194973044197Z" style="pointer-events: none; stroke-width: 1; fill: rgb(102, 197, 204); fill-opacity: 1; stroke: rgb(255, 255, 255); stroke-opacity: 1; opacity: 0.7;"/><g class="slicetext"><text data-notex="1" class="slicetext" text-anchor="middle" x="0" y="0" style="font-family: Arial; font-size: 12px; fill: rgb(68, 68, 68); fill-opacity: 1; white-space: pre;" transform="translate(414.1929323798085,44.92121383768575)rotate(-73.68561872909697)">Citrus</text></g></g><g class="slice"><path class="surface" d="M375.77480920241925,127.68622640692142L401.5496184048385,5.372452813842841A250,250 0,0,0 375.9579520802089,1.351282481084212L362.97897604010444,125.6756412405421A125,125 0,0,1 375.77480920241925,127.68622640692142Z" style="pointer-events: none; stroke-width: 1; fill: rgb(102, 197, 204); fill-opacity: 1; stroke: rgb(255, 255, 255); stroke-opacity: 1; opacity: 0.7;"/><g class="slicetext"><text data-notex="1" class="slicetext" text-anchor="middle" x="0" y="0" style="font-family: Arial; font-size: 12px; fill: rgb(68, 68, 68); fill-opacity: 1; white-space: pre;" transform="translate(388.3787321303441,31.5180666853167)rotate(-81.07023411371233)">Pomes</text></g></g><g class="slice"><path class="surface" d="M362.97897604010444,125.6756412405421L375.9579520802089,1.351282481084212A250,250 0,0,0 364.43908369735715,0.41732259233072L357.2195418486786,125.20866129616536A125,125 0,0,1 362.97897604010444,125.6756412405421Z" style="pointer-events: none; stroke-width: 1; fill: rgb(102, 197, 204); fill-opacity: 1; stroke: rgb(255, 255, 255); stroke-opacity: 1; opacity: 0.7;"/><g class="slicetext"><text data-notex="1" class="slicetext" text-anchor="middle" x="0" y="0" style="font-family: Arial; font-size: 12px; fill: rgb(68, 68, 68); fill-opacity: 1; white-space: pre;" transform="translate(370.9419774815546,24.19357456740204)scale(0.65619550498558)rotate(-85.3645484949833)">Other fruits</text></g></g><g class="slice"><path class="surface" d="M357.21954184867855,125.20866129616536L364.4390836973571,0.41732259233072A250,250 0,0,0 306.5304713564717,3.808204686855021L328.26523567823585,126.90410234342751A125,125 0,0,1 357.21954184867855,125.20866129616536Z" style="pointer-events: none; stroke-width: 1; fill: rgb(246, 207, 113); fill-opacity: 1; stroke: rgb(255, 255, 255); stroke-opacity: 1; opacity: 0.7;"/><g class="slicetext"><text data-notex="1" class="slicetext" text-anchor="middle" x="0" y="0" style="font-family: Arial; font-size: 12px; fill: rgb(68, 68, 68); fill-opacity: 1; white-space: pre;" transform="translate(335.0513560955128,63.138886458872676)rotate(86.64882943143812)">Root vegetables</text></g></g><g class="slice"><path class="surface" d="M328.26523567823585,126.90410234342751L306.5304713564717,3.808204686855021A250,250 0,0,0 253.21797209089328,19.493516200084116L301.6089860454466,134.74675810004206A125,125 0,0,1 328.26523567823585,126.90410234342751Z" style="pointer-events: none; stroke-width: 1; fill: rgb(246, 207, 113); fill-opacity: 1; stroke: rgb(255, 255, 255); stroke-opacity: 1; opacity: 0.7;"/><g class="slicetext"><text data-notex="1" class="slicetext" text-anchor="middle" x="0" y="0" style="font-family: Arial; font-size: 12px; fill: rgb(68, 68, 68); fill-opacity: 1; white-space: pre;" transform="translate(293.2637958534403,71.33216280117502)rotate(73.60535117056861)">Fruit vegetables</text></g></g><g class="slice"><path class="surface" d="M301.6089860454466,134.74675810004206L253.21797209089328,19.493516200084116A250,250 0,0,0 211.6083582315693,41.79876684169628L280.8041791157847,145.89938342084815A125,125 0,0,1 301.6089860454466,134.74675810004206Z" style="pointer-events: none; stroke-width: 1; fill: rgb(246, 207, 113); fill-opacity: 1; stroke: rgb(255, 255, 255); stroke-opacity: 1; opacity: 0.7;"/><g class="slicetext"><text data-notex="1" class="slicetext" text-anchor="middle" x="0" y="0" style="font-family: Arial; font-size: 12px; fill: rgb(68, 68, 68); fill-opacity: 1; white-space: pre;" transform="translate(257.9294971158751,86.71226600490884)rotate(61.80602006688957)">Leaf vegetables</text></g></g><g class="slice"><path class="surface" d="M280.8041791157847,145.89938342084815L211.6083582315693,41.79876684169628A250,250 0,0,0 181.03252592325896,65.74476207139767L265.5162629616295,157.87238103569882A125,125 0,0,1 280.8041791157847,145.89938342084815Z" style="pointer-events: none; stroke-width: 1; fill: rgb(246, 207, 113); fill-opacity: 1; stroke: rgb(255, 255, 255); stroke-opacity: 1; opacity: 0.7;"/><g class="slicetext"><text data-notex="1" class="slicetext" text-anchor="middle" x="0" y="0" style="font-family: Arial; font-size: 12px; fill: rgb(68, 68, 68); fill-opacity: 1; white-space: pre;" transform="translate(223.39165564702546,94.82547003707252)rotate(51.93311036789294)">Cabbages</text></g></g><g class="slice"><path class="surface" d="M265.5162629616295,157.87238103569882L181.03252592325896,65.74476207139767A250,250 0,0,0 159.88429318310617,87.65463350771952L254.94214659155307,168.82731675385975A125,125 0,0,1 265.5162629616295,157.87238103569882Z" style="pointer-events: none; stroke-width: 1; fill: rgb(246, 207, 113); fill-opacity: 1; stroke: rgb(255, 255, 255); stroke-opacity: 1; opacity: 0.7;"/><g class="slicetext"><text data-notex="1" class="slicetext" text-anchor="middle" x="0" y="0" style="font-family: Arial; font-size: 12px; fill: rgb(68, 68, 68); fill-opacity: 1; white-space: pre;" transform="translate(191.11741192360006,102.19994561183626)rotate(43.98662207357859)">Tubers</text></g></g><g class="slice"><path class="surface" d="M254.94214659155307,168.82731675385975L159.88429318310617,87.65463350771952A250,250 0,0,0 142.52867700024373,110.51648795384165L246.26433850012188,180.25824397692082A125,125 0,0,1 254.94214659155307,168.82731675385975Z" style="pointer-events: none; stroke-width: 1; fill: rgb(246, 207, 113); fill-opacity: 1; stroke: rgb(255, 255, 255); stroke-opacity: 1; opacity: 0.7;"/><g class="slicetext"><text data-notex="1" class="slicetext" text-anchor="middle" x="0" y="0" style="font-family: Arial; font-size: 12px; fill: rgb(68, 68, 68); fill-opacity: 1; white-space: pre;" transform="translate(194.16420738102465,136.71903912479405)rotate(37.20401337792646)">Other vegetables</text></g></g><g class="slice"><path class="surface" d="M246.26433850012188,180.25824397692082L142.52867700024373,110.51648795384165A250,250 0,0,0 132.23524247827456,127.20541387543128L241.1176212391373,188.60270693771565A125,125 0,0,1 246.26433850012188,180.25824397692082Z" style="pointer-events: none; stroke-width: 1; fill: rgb(246, 207, 113); fill-opacity: 1; stroke: rgb(255, 255, 255); stroke-opacity: 1; opacity: 0.7;"/><g class="slicetext"><text data-notex="1" class="slicetext" text-anchor="middle" x="0" y="0" style="font-family: Arial; font-size: 12px; fill: rgb(68, 68, 68); fill-opacity: 1; white-space: pre;" transform="translate(174.64377414970014,145.90329953753678)scale(0.8638767929969279)rotate(31.66555183946491)">Shoot vegetables</text></g></g><g class="slice"><path class="surface" d="M241.1176212391373,188.60270693771565L132.23524247827456,127.20541387543128A250,250 0,0,0 125.23755497184041,140.53839346618588L237.6187774859202,195.26919673309294A125,125 0,0,1 241.1176212391373,188.60270693771565Z" style="pointer-events: none; stroke-width: 1; fill: rgb(246, 207, 113); fill-opacity: 1; stroke: rgb(255, 255, 255); stroke-opacity: 1; opacity: 0.7;"/><g class="slicetext"><text data-notex="1" class="slicetext" text-anchor="middle" x="0" y="0" style="font-family: Arial; font-size: 12px; fill: rgb(68, 68, 68); fill-opacity: 1; white-space: pre;" transform="translate(152.5282990841147,150.01580664981861)scale(0.8095171916287173)rotate(27.692307692307736)">Mushrooms</text></g></g><g class="slice"><path class="surface" d="M237.6187774859202,195.26919673309294L125.23755497184041,140.53839346618588A250,250 0,0,0 119.59533228302334,152.9758324218673L234.79766614151168,201.48791621093363A125,125 0,0,1 237.6187774859202,195.26919673309294Z" style="pointer-events: none; stroke-width: 1; fill: rgb(246, 207, 113); fill-opacity: 1; stroke: rgb(255, 255, 255); stroke-opacity: 1; opacity: 0.7;"/><g class="slicetext"><text data-notex="1" class="slicetext" text-anchor="middle" x="0" y="0" style="font-family: Arial; font-size: 12px; fill: rgb(68, 68, 68); fill-opacity: 1; white-space: pre;" transform="translate(136.8563761804764,151.655511255602)scale(0.39547612979016905)rotate(24.401337792642153)"><tspan class="line" dy="0em" x="0" y="0">Onion-family</tspan><tspan class="line" dy="1.3em" x="0" y="0">vegetables</tspan></text></g></g><g class="slice"><path class="surface" d="M234.79766614151168,201.48791621093363L119.59533228302334,152.9758324218673A250,250 0,0,0 114.87784061440044,165.04371614852306L232.43892030720022,207.52185807426153A125,125 0,0,1 234.79766614151168,201.48791621093363Z" style="pointer-events: none; stroke-width: 1; fill: rgb(246, 207, 113); fill-opacity: 1; stroke: rgb(255, 255, 255); stroke-opacity: 1; opacity: 0.7;"/><g class="slicetext"><text data-notex="1" class="slicetext" text-anchor="middle" x="0" y="0" style="font-family: Arial; font-size: 12px; fill: rgb(68, 68, 68); fill-opacity: 1; white-space: pre;" transform="translate(147.4642332998228,173.6653110732691)scale(0.6610743713169634)rotate(21.351170568561884)">Stalk vegetables</text></g></g><g class="slice"><path class="surface" d="M232.43892030720022,207.52185807426153L114.87784061440044,165.04371614852306A250,250 0,0,0 105.39052220958732,301.6352919532911L227.69526110479364,275.81764597664557A125,125 0,0,1 232.43892030720022,207.52185807426153Z" style="pointer-events: none; stroke-width: 1; fill: rgb(248, 156, 116); fill-opacity: 1; stroke: rgb(255, 255, 255); stroke-opacity: 1; opacity: 0.7;"/><g class="slicetext"><text data-notex="1" class="slicetext" text-anchor="middle" x="0" y="0" style="font-family: Arial; font-size: 12px; fill: rgb(68, 68, 68); fill-opacity: 1; white-space: pre;" transform="translate(154.2149173543374,240.4012446812462)">Herbs</text></g></g><g class="slice"><path class="surface" d="M227.69526110479364,275.81764597664557L105.39052220958732,301.6352919532911A250,250 0,0,0 139.6435932679859,385.09323501491644L244.82179663399296,317.5466175074582A125,125 0,0,1 227.69526110479364,275.81764597664557Z" style="pointer-events: none; stroke-width: 1; fill: rgb(248, 156, 116); fill-opacity: 1; stroke: rgb(255, 255, 255); stroke-opacity: 1; opacity: 0.7;"/><g class="slicetext"><text data-notex="1" class="slicetext" text-anchor="middle" x="0" y="0" style="font-family: Arial; font-size: 12px; fill: rgb(68, 68, 68); fill-opacity: 1; white-space: pre;" transform="translate(154.07212315032555,334.41333445155203)">Spices</text></g></g><g class="slice"><path class="surface" d="M244.82179663399296,317.5466175074582L139.6435932679859,385.09323501491644A250,250 0,0,0 172.2046962257552,425.7521833600482L261.1023481128776,337.8760916800241A125,125 0,0,1 244.82179663399296,317.5466175074582Z" style="pointer-events: none; stroke-width: 1; fill: rgb(248, 156, 116); fill-opacity: 1; stroke: rgb(255, 255, 255); stroke-opacity: 1; opacity: 0.7;"/><g class="slicetext"><text data-notex="1" class="slicetext" text-anchor="middle" x="0" y="0" style="font-family: Arial; font-size: 12px; fill: rgb(68, 68, 68); fill-opacity: 1; white-space: pre;" transform="translate(206.2400793188776,370.25254124537065)rotate(-38.688963210702354)">Oilseed crops</text></g></g><g class="slice"><path class="surface" d="M261.1023481128776,337.8760916800241L172.2046962257552,425.7521833600482A250,250 0,0,0 189.9972419746251,442.09142985639244L269.99862098731256,346.0457149281962A125,125 0,0,1 261.1023481128776,337.8760916800241Z" style="pointer-events: none; stroke-width: 1; fill: rgb(248, 156, 116); fill-opacity: 1; stroke: rgb(255, 255, 255); stroke-opacity: 1; opacity: 0.7;"/><g class="slicetext"><text data-notex="1" class="slicetext" text-anchor="middle" x="0" y="0" style="font-family: Arial; font-size: 12px; fill: rgb(68, 68, 68); fill-opacity: 1; white-space: pre;" transform="translate(212.0125152844113,406.1746065949588)rotate(-47.43812709030101)">Other seeds</text></g></g><g class="slice"><path class="surface" d="M269.99862098731256,346.0457149281962L189.9972419746251,442.09142985639244A250,250 0,0,0 230.8065060551516,469.7564811358686L290.40325302757583,359.8782405679343A125,125 0,0,1 269.99862098731256,346.0457149281962Z" style="pointer-events: none; stroke-width: 1; fill: rgb(220, 176, 242); fill-opacity: 1; stroke: rgb(255, 255, 255); stroke-opacity: 1; opacity: 0.7;"/><g class="slicetext"><text data-notex="1" class="slicetext" text-anchor="middle" x="0" y="0" style="font-family: Arial; font-size: 12px; fill: rgb(68, 68, 68); fill-opacity: 1; white-space: pre;" transform="translate(222.3092156232761,442.359200481408)">Beans</text></g></g><g class="slice"><path class="surface" d="M290.40325302757583,359.8782405679343L230.8065060551516,469.7564811358686A250,250 0,0,0 262.9883087886221,484.3692931945988L306.494154394311,367.18464659729943A125,125 0,0,1 290.40325302757583,359.8782405679343Z" style="pointer-events: none; stroke-width: 1; fill: rgb(220, 176, 242); fill-opacity: 1; stroke: rgb(255, 255, 255); stroke-opacity: 1; opacity: 0.7;"/><g class="slicetext"><text data-notex="1" class="slicetext" text-anchor="middle" x="0" y="0" style="font-family: Arial; font-size: 12px; fill: rgb(68, 68, 68); fill-opacity: 1; white-space: pre;" transform="translate(253.4628742309731,466.60375658489266)">Peas</text></g></g><g class="slice"><path class="surface" d="M306.494154394311,367.18464659729943L262.9883087886221,484.3692931945988A250,250 0,0,0 269.2567730494792,486.60205261496924L309.6283865247396,368.3010263074846A125,125 0,0,1 306.494154394311,367.18464659729943Z" style="pointer-events: none; stroke-width: 1; fill: rgb(220, 176, 242); fill-opacity: 1; stroke: rgb(255, 255, 255); stroke-opacity: 1; opacity: 0.7;"/><g class="slicetext"><text data-notex="1" class="slicetext" text-anchor="middle" x="0" y="0" style="font-family: Arial; font-size: 12px; fill: rgb(68, 68, 68); fill-opacity: 1; white-space: pre;" transform="translate(270.64416013611554,477.9396742098671)scale(0.4318755948025536)rotate(-70.39464882943139)">Lentils</text></g></g><g class="slice"><path class="surface" d="M309.6283865247396,368.3010263074846L269.2567730494792,486.60205261496924A250,250 0,0,0 274.5800306382799,488.3523195219153L312.29001531913997,369.17615976095766A125,125 0,0,1 309.6283865247396,368.3010263074846Z" style="pointer-events: none; stroke-width: 1; fill: rgb(220, 176, 242); fill-opacity: 1; stroke: rgb(255, 255, 255); stroke-opacity: 1; opacity: 0.7;"/><g class="slicetext"><text data-notex="1" class="slicetext" text-anchor="middle" x="0" y="0" style="font-family: Arial; font-size: 12px; fill: rgb(68, 68, 68); fill-opacity: 1; white-space: pre;" transform="translate(277.47619927144063,475.0338530433607)scale(0.34827663766029315)rotate(-71.79933110367892)">Other pulses</text></g></g><g class="slice"><path class="surface" d="M312.29001531914,369.17615976095766L274.5800306382801,488.3523195219153A250,250 0,0,0 368.2833522257481,499.330541713985L359.14167611287405,374.6652708569925A125,125 0,0,1 312.29001531914,369.17615976095766Z" style="pointer-events: none; stroke-width: 1; fill: rgb(135, 197, 95); fill-opacity: 1; stroke: rgb(255, 255, 255); stroke-opacity: 1; opacity: 0.7;"/><g class="slicetext"><text data-notex="1" class="slicetext" text-anchor="middle" x="0" y="0" style="font-family: Arial; font-size: 12px; fill: rgb(68, 68, 68); fill-opacity: 1; white-space: pre;" transform="translate(325.5269199207532,462.8870905307476)">Cereals</text></g></g><g class="slice"><path class="surface" d="M359.14167611287405,374.6652708569925L368.2833522257481,499.330541713985A250,250 0,0,0 456.2229413520463,476.3110397893124L403.11147067602315,363.1555198946562A125,125 0,0,1 359.14167611287405,374.6652708569925Z" style="pointer-events: none; stroke-width: 1; fill: rgb(158, 185, 243); fill-opacity: 1; stroke: rgb(255, 255, 255); stroke-opacity: 1; opacity: 0.7;"/><g class="slicetext"><text data-notex="1" class="slicetext" text-anchor="middle" x="0" y="0" style="font-family: Arial; font-size: 12px; fill: rgb(68, 68, 68); fill-opacity: 1; white-space: pre;" transform="translate(403.5690753891328,458.64571714068586)">Unknown</text></g></g><g class="slice"><path class="surface" d="M403.11147067602315,363.1555198946562L456.2229413520463,476.3110397893124A250,250 0,0,0 509.8681651546974,442.20345930828194L429.9340825773487,346.10172965414097A125,125 0,0,1 403.11147067602315,363.1555198946562Z" style="pointer-events: none; stroke-width: 1; fill: rgb(254, 136, 177); fill-opacity: 1; stroke: rgb(255, 255, 255); stroke-opacity: 1; opacity: 0.7;"/><g class="slicetext"><text data-notex="1" class="slicetext" text-anchor="middle" x="0" y="0" style="font-family: Arial; font-size: 12px; fill: rgb(68, 68, 68); fill-opacity: 1; white-space: pre;" transform="translate(469.0039330384459,441.17225118896107)">Fishes</text></g></g><g class="slice"><path class="surface" d="M429.9340825773487,346.10172965414097L509.8681651546974,442.20345930828194A250,250 0,0,0 514.926950678548,437.88054965822255L432.463475339274,343.9402748291113A125,125 0,0,1 429.9340825773487,346.10172965414097Z" style="pointer-events: none; stroke-width: 1; fill: rgb(254, 136, 177); fill-opacity: 1; stroke: rgb(255, 255, 255); stroke-opacity: 1; opacity: 0.7;"/><g class="slicetext"><text data-notex="1" class="slicetext" text-anchor="middle" x="0" y="0" style="font-family: Arial; font-size: 12px; fill: rgb(68, 68, 68); fill-opacity: 1; white-space: pre;" transform="translate(504.06230382192257,432.89622180987385)scale(0.42362825768742063)rotate(49.48494983277595)">Mollusks</text></g></g><g class="slice"><path class="surface" d="M432.463475339274,343.9402748291113L514.926950678548,437.88054965822255A250,250 0,0,0 518.8383679969643,434.3735487864832L434.41918399848214,342.1867743932416A125,125 0,0,1 432.463475339274,343.9402748291113Z" style="pointer-events: none; stroke-width: 1; fill: rgb(254, 136, 177); fill-opacity: 1; stroke: rgb(255, 255, 255); stroke-opacity: 1; opacity: 0.7;"/><g class="slicetext"><text data-notex="1" class="slicetext" text-anchor="middle" x="0" y="0" style="font-family: Arial; font-size: 12px; fill: rgb(68, 68, 68); fill-opacity: 1; white-space: pre;" transform="translate(507.56072825601035,427.7052337385501)scale(0.32962675564972616)rotate(48.12040133779266)">Crustaceans</text></g></g><g class="slice"><path class="surface" d="M434.41918399848214,342.1867743932416L518.8383679969643,434.3735487864832A250,250 0,0,0 521.6594536274742,431.74991603936724L435.8297268137371,340.8749580196836A125,125 0,0,1 434.41918399848214,342.1867743932416Z" style="pointer-events: none; stroke-width: 1; fill: rgb(254, 136, 177); fill-opacity: 1; stroke: rgb(255, 255, 255); stroke-opacity: 1; opacity: 0.7;"/><g class="slicetext"><text data-notex="1" class="slicetext" text-anchor="middle" x="0" y="0" style="font-family: Arial; font-size: 12px; fill: rgb(68, 68, 68); fill-opacity: 1; white-space: pre;" transform="translate(514.4014891687538,428.2570766569907)scale(0.2524592210231986)rotate(47.076923076923094)">Pinnipeds</text></g></g><g class="slice"><path class="surface" d="M435.8297268137371,340.8749580196836L521.6594536274742,431.74991603936724A250,250 0,0,0 523.6855861602659,429.81467448505106L436.84279308013294,339.9073372425255A125,125 0,0,1 435.8297268137371,340.8749580196836Z" style="pointer-events: none; stroke-width: 1; fill: rgb(254, 136, 177); fill-opacity: 1; stroke: rgb(255, 255, 255); stroke-opacity: 1; opacity: 0.7;"/><g class="slicetext"><text data-notex="1" class="slicetext" text-anchor="middle" x="0" y="0" style="font-family: Arial; font-size: 12px; fill: rgb(68, 68, 68); fill-opacity: 1; white-space: pre;" transform="translate(518.5535508194537,427.55419431070464)scale(0.18723529737584887)rotate(46.31438127090297)">Seaweed</text></g></g><g class="slice"><path class="surface" d="M436.84279308013294,339.9073372425255L523.6855861602659,429.81467448505106A250,250 0,0,0 524.9408566238556,428.59366361579464L437.4704283119278,339.2968318078973A125,125 0,0,1 436.84279308013294,339.9073372425255Z" style="pointer-events: none; stroke-width: 1; fill: rgb(254, 136, 177); fill-opacity: 1; stroke: rgb(255, 255, 255); stroke-opacity: 1; opacity: 0.7;"/><g class="slicetext"><text data-notex="1" class="slicetext" text-anchor="middle" x="0" y="0" style="font-family: Arial; font-size: 12px; fill: rgb(68, 68, 68); fill-opacity: 1; white-space: pre;" transform="translate(521.3514539232215,426.8385779823003)scale(0.1184080048086402)rotate(45.79264214046822)">Cetaceans</text></g></g><g class="slice"><path class="surface" d="M437.4704283119278,339.2968318078973L524.9408566238556,428.59366361579464A250,250 0,0,0 525.9388958181717,427.6105428691736L437.96944790908583,338.8052714345868A125,125 0,0,1 437.4704283119278,339.2968318078973Z" style="pointer-events: none; stroke-width: 1; fill: rgb(254, 136, 177); fill-opacity: 1; stroke: rgb(255, 255, 255); stroke-opacity: 1; opacity: 0.7;"/><g class="slicetext"><text data-notex="1" class="slicetext" text-anchor="middle" x="0" y="0" style="font-family: Arial; font-size: 12px; fill: rgb(68, 68, 68); fill-opacity: 1; white-space: pre;" transform="translate(521.1859859238969,424.3150356562012)scale(0.0932245062283708)rotate(45.4314381270903)">Other aquatic foods</text></g></g><g class="slice"><path class="surface" d="M437.9694479090857,338.80527143458687L525.9388958181714,427.6105428691738A250,250 0,0,0 569.5474166413142,369.5781411718932L459.7737083206571,309.7890705859466A125,125 0,0,1 437.9694479090857,338.80527143458687Z" style="pointer-events: none; stroke-width: 1; fill: rgb(201, 219, 116); fill-opacity: 1; stroke: rgb(255, 255, 255); stroke-opacity: 1; opacity: 0.7;"/><g class="slicetext"><text data-notex="1" class="slicetext" text-anchor="middle" x="0" y="0" style="font-family: Arial; font-size: 12px; fill: rgb(68, 68, 68); fill-opacity: 1; white-space: pre;" transform="translate(524.5230610691383,385.14557247608735)">Nuts</text></g></g><g class="slice"><path class="surface" d="M459.7737083206571,309.7890705859466L569.5474166413142,369.5781411718932A250,250 0,0,0 587.1341104867863,329.16699845036845L468.56705524339316,289.58349922518426A125,125 0,0,1 459.7737083206571,309.7890705859466Z" style="pointer-events: none; stroke-width: 1; fill: rgb(139, 224, 164); fill-opacity: 1; stroke: rgb(255, 255, 255); stroke-opacity: 1; opacity: 0.7;"/><g class="slicetext"><text data-notex="1" class="slicetext" text-anchor="middle" x="0" y="0" style="font-family: Arial; font-size: 12px; fill: rgb(68, 68, 68); fill-opacity: 1; white-space: pre;" transform="translate(536.9651002140769,335.72849581605664)rotate(23.518394648829485)">Gourds</text></g></g><g class="slice"><path class="surface" d="M468.56705524339316,289.58349922518426L587.1341104867863,329.16699845036845A250,250 0,0,0 592.4391805151429,311.0183886311821L471.21959025757144,280.50919431559106A125,125 0,0,1 468.56705524339316,289.58349922518426Z" style="pointer-events: none; stroke-width: 1; fill: rgb(180, 151, 231); fill-opacity: 1; stroke: rgb(255, 255, 255); stroke-opacity: 1; opacity: 0.7;"/><g class="slicetext"><text data-notex="1" class="slicetext" text-anchor="middle" x="0" y="0" style="font-family: Arial; font-size: 12px; fill: rgb(68, 68, 68); fill-opacity: 1; white-space: pre;" transform="translate(566.5311777004922,317.46221483417804)rotate(16.294314381270965)">Poultry</text></g></g><g class="slice"><path class="surface" d="M471.21959025757144,280.50919431559106L592.4391805151429,311.0183886311821A250,250 0,0,0 593.5101887797698,306.5931794515989L471.7550943898849,278.29658972579944A125,125 0,0,1 471.21959025757144,280.50919431559106Z" style="pointer-events: none; stroke-width: 1; fill: rgb(180, 151, 231); fill-opacity: 1; stroke: rgb(255, 255, 255); stroke-opacity: 1; opacity: 0.7;"/><g class="slicetext"><text data-notex="1" class="slicetext" text-anchor="middle" x="0" y="0" style="font-family: Arial; font-size: 12px; fill: rgb(68, 68, 68); fill-opacity: 1; white-space: pre;" transform="translate(585.8344591324992,308.31020884318394)scale(0.29948674883555376)rotate(13.60535117056861)">Bovines</text></g></g><g class="slice"><path class="surface" d="M471.7550943898849,278.29658972579944L593.5101887797698,306.5931794515989A250,250 0,0,0 594.2791000425102,303.1763225733156L472.1395500212551,276.5881612866578A125,125 0,0,1 471.7550943898849,278.29658972579944Z" style="pointer-events: none; stroke-width: 1; fill: rgb(180, 151, 231); fill-opacity: 1; stroke: rgb(255, 255, 255); stroke-opacity: 1; opacity: 0.7;"/><g class="slicetext"><text data-notex="1" class="slicetext" text-anchor="middle" x="0" y="0" style="font-family: Arial; font-size: 12px; fill: rgb(68, 68, 68); fill-opacity: 1; white-space: pre;" transform="translate(588.101565143519,304.5362952641643)scale(0.2329709377521175)rotate(12.682274247491762)">Equines</text></g></g><g class="slice"><path class="surface" d="M472.1395500212551,276.5881612866578L594.2791000425102,303.1763225733156A250,250 0,0,0 594.8597179069266,300.43529068559354L472.4298589534633,275.2176453427968A125,125 0,0,1 472.1395500212551,276.5881612866578Z" style="pointer-events: none; stroke-width: 1; fill: rgb(180, 151, 231); fill-opacity: 1; stroke: rgb(255, 255, 255); stroke-opacity: 1; opacity: 0.7;"/><g class="slicetext"><text data-notex="1" class="slicetext" text-anchor="middle" x="0" y="0" style="font-family: Arial; font-size: 12px; fill: rgb(68, 68, 68); fill-opacity: 1; white-space: pre;" transform="translate(590.9867803107808,301.82319926983547)scale(0.18985765649773595)rotate(11.959866220735876)">Swine</text></g></g><g class="slice"><path class="surface" d="M472.4298589534633,275.2176453427968L594.8597179069266,300.43529068559354A250,250 0,0,0 595.275001627366,298.3753405848019L472.637500813683,274.187670292401A125,125 0,0,1 472.4298589534633,275.2176453427968Z" style="pointer-events: none; stroke-width: 1; fill: rgb(180, 151, 231); fill-opacity: 1; stroke: rgb(255, 255, 255); stroke-opacity: 1; opacity: 0.7;"/><g class="slicetext"><text data-notex="1" class="slicetext" text-anchor="middle" x="0" y="0" style="font-family: Arial; font-size: 12px; fill: rgb(68, 68, 68); fill-opacity: 1; white-space: pre;" transform="translate(593.1412882735133,299.60595976998354)scale(0.14433077313679057)rotate(11.397993311036885)">Ovis</text></g></g><g class="slice"><path class="surface" d="M472.637500813683,274.187670292401L595.275001627366,298.3753405848019A250,250 0,0,0 595.6078347281041,296.65609842423925L472.80391736405204,273.3280492121196A125,125 0,0,1 472.637500813683,274.187670292401Z" style="pointer-events: none; stroke-width: 1; fill: rgb(180, 151, 231); fill-opacity: 1; stroke: rgb(255, 255, 255); stroke-opacity: 1; opacity: 0.7;"/><g class="slicetext"><text data-notex="1" class="slicetext" text-anchor="middle" x="0" y="0" style="font-family: Arial; font-size: 12px; fill: rgb(68, 68, 68); fill-opacity: 1; white-space: pre;" transform="translate(592.8247900450144,297.4963127434935)scale(0.11956847878611739)rotate(10.956521739130494)">Caprae</text></g></g><g class="slice"><path class="surface" d="M472.80391736405204,273.3280492121196L595.6078347281041,296.65609842423925A250,250 0,0,0 595.6729557663825,296.31197258818736L472.83647788319126,273.1559862940937A125,125 0,0,1 472.80391736405204,273.3280492121196Z" style="pointer-events: none; stroke-width: 1; fill: rgb(180, 151, 231); fill-opacity: 1; stroke: rgb(255, 255, 255); stroke-opacity: 1; opacity: 0.7;"/><g class="slicetext"><text data-notex="1" class="slicetext" text-anchor="middle" x="0" y="0" style="font-family: Arial; font-size: 12px; fill: rgb(68, 68, 68); fill-opacity: 1; white-space: pre;" transform="translate(594.707472630651,296.40615079613576)scale(0.024234383012437015)rotate(10.71571906354518)">Lagomorphs</text></g></g><g class="slice"><path class="surface" d="M472.83647788319126,273.1559862940937L595.6729557663825,296.31197258818736A250,250 0,0,0 597.7424747539462,283.5211306908093L473.8712373769731,266.76056534540464A125,125 0,0,1 472.83647788319126,273.1559862940937Z" style="pointer-events: none; stroke-width: 1; fill: rgb(179, 179, 179); fill-opacity: 1; stroke: rgb(255, 255, 255); stroke-opacity: 1; opacity: 0.7;"/><g class="slicetext"><text data-notex="1" class="slicetext" text-anchor="middle" x="0" y="0" style="font-family: Arial; font-size: 12px; fill: rgb(68, 68, 68); fill-opacity: 1; white-space: pre;" transform="translate(586.8928009886895,291.713144517688)scale(0.83529137539703)rotate(9.190635451505102)">Soy</text></g></g><g class="slice"><path class="surface" d="M473.8712373769731,266.76056534540464L597.7424747539462,283.5211306908093A250,250 0,0,0 598.7293041826379,275.1740588864968L474.36465209131893,262.5870294432484A125,125 0,0,1 473.8712373769731,266.76056534540464Z" style="pointer-events: none; stroke-width: 1; fill: rgb(179, 226, 230); fill-opacity: 1; stroke: rgb(255, 255, 255); stroke-opacity: 1; opacity: 0.7;"/><g class="slicetext"><text data-notex="1" class="slicetext" text-anchor="middle" x="0" y="0" style="font-family: Arial; font-size: 12px; fill: rgb(68, 68, 68); fill-opacity: 1; white-space: pre;" transform="translate(590.9593398516076,280.708813487145)scale(0.5515304979327736)rotate(6.742474916388005)">Teas</text></g></g><g class="slice"><path class="surface" d="M474.36465209131893,262.5870294432484L598.7293041826379,275.1740588864968A250,250 0,0,0 599.1465037624474,270.64024377154414L474.5732518812237,260.32012188577204A125,125 0,0,1 474.36465209131893,262.5870294432484Z" style="pointer-events: none; stroke-width: 1; fill: rgb(179, 226, 230); fill-opacity: 1; stroke: rgb(255, 255, 255); stroke-opacity: 1; opacity: 0.7;"/><g class="slicetext"><text data-notex="1" class="slicetext" text-anchor="middle" x="0" y="0" style="font-family: Arial; font-size: 12px; fill: rgb(68, 68, 68); fill-opacity: 1; white-space: pre;" transform="translate(588.7167301324315,273.1379822979142)scale(0.29161264372367757)rotate(5.257525083612109)">Herbal teas</text></g></g><g class="slice"><path class="surface" d="M474.5732518812237,260.32012188577204L599.1465037624474,270.64024377154414A250,250 0,0,0 599.8466864716801,258.7540424446072L474.92334323584004,254.3770212223036A125,125 0,0,1 474.5732518812237,260.32012188577204Z" style="pointer-events: none; stroke-width: 1; fill: rgb(252, 239, 209); fill-opacity: 1; stroke: rgb(255, 255, 255); stroke-opacity: 1; opacity: 0.7;"/><g class="slicetext"><text data-notex="1" class="slicetext" text-anchor="middle" x="0" y="0" style="font-family: Arial; font-size: 12px; fill: rgb(68, 68, 68); fill-opacity: 1; white-space: pre;" transform="translate(585.3869651220274,266.82027031173436)scale(0.7372933443586601)rotate(3.3712374581941162)">Coffee</text></g></g><g class="slice"><path class="surface" d="M474.92334323584004,254.3770212223036L599.8466864716801,258.7540424446072A250,250 0,0,0 599.9997546733186,250.3502331801529L474.9998773366593,250.17511659007644A125,125 0,0,1 474.92334323584004,254.3770212223036Z" style="pointer-events: none; stroke-width: 1; fill: rgb(253, 225, 213); fill-opacity: 1; stroke: rgb(255, 255, 255); stroke-opacity: 1; opacity: 0.7;"/><g class="slicetext"><text data-notex="1" class="slicetext" text-anchor="middle" x="0" y="0" style="font-family: Arial; font-size: 12px; fill: rgb(68, 68, 68); fill-opacity: 1; white-space: pre;" transform="translate(589.9441211203875,256.52809841782414)scale(0.5393408856767052)rotate(1.0434782608696764)">Cocoa</text></g></g><g class="slice"><path class="surface" d="M474.9998773366593,250.17511659007644L599.9997546733186,250.3502331801529A250,250 0,0,0 600,250.0000000000005L475,250.00000000000026A125,125 0,0,1 474.9998773366593,250.17511659007644Z" style="pointer-events: none; stroke-width: 1; fill: rgb(255, 255, 255); fill-opacity: 1; stroke: rgb(255, 255, 255); stroke-opacity: 1; opacity: 0.7;"/><g class="slicetext"><text data-notex="1" class="slicetext" text-anchor="middle" x="0" y="0" style="font-family: Arial; font-size: 12px; fill: rgb(68, 68, 68); fill-opacity: 1; white-space: pre;" transform="translate(599.0070912546804,250.27131061642723)scale(0.02422235404392142)rotate(0.040133779264294844)">Oilseed crops</text></g></g></g></g><g class="glimages"/><defs id="topdefs-c0f4d9"><g class="clips"/></defs><g class="layer-above"><g class="imagelayer"/><g class="shapelayer"/></g><g class="infolayer"><g class="g-gtitle"/></g></svg>