<svg class="main-svg" xmlns="http://www.w3.org/2000/svg" xmlns:xlink="http://www.w3.org/1999/xlink" width="700" height="500" style="" viewBox="0 0 700 500"><rect x="0" y="0" width="700" height="500" style="fill: rgb(255, 255, 255); fill-opacity: 1;"/><defs id="defs-e2a184"><g class="clips"/><g class="gradients"/><g class="patterns"/></defs><g class="bglayer"/><g class="layer-below"><g class="imagelayer"/><g class="shapelayer"/></g><g class="cartesianlayer"/><g class="polarlayer"/><g class="smithlayer"/><g class="ternarylayer"/><g class="geolayer"/><g class="funnelarealayer"/><g class="pielayer"/><g class="iciclelayer"/><g class="treemaplayer"/><g class="sunburstlayer"><g class="trace sunburst" stroke-linejoin="round" style="opacity: 1;"><g class="slice"><path class="surface" d="M350,250A0,0 0,1,0 350,250A0,0 0,1,0 350,250ZM475,250A125,125 0,1,1 225,249.99999999999997A125,125 0,1,1 475,250.00000000000003Z" style="pointer-events: none; stroke-width: 1; fill: rgb(0, 0, 0); fill-opacity: 0; stroke: rgb(255, 255, 255); stroke-opacity: 1;"/><g class="slicetext"><text data-notex="1" class="slicetext" text-anchor="middle" x="0" y="0" style="font-family: Arial; font-size: 12px; fill: rgb(42, 63, 95); fill-opacity: 1; white-space: pre;" transform="translate(350,254)">Source</text></g></g><g class="slice"><path class="surface" d="M475,250L600,250A250,250 0,1,0 111.68312899781282,325.53190713683114L230.8415644989064,287.76595356841557A125,125 0,1,1 475,250Z" style="pointer-events: none; stroke-width: 1; fill: rgb(99, 110, 250); fill-opacity: 1; stroke: rgb(255, 255, 255); stroke-opacity: 1; opacity: 0.7;"/><g class="slicetext"><text data-notex="1" class="slicetext" text-anchor="middle" x="0" y="0" style="font-family: Arial; font-size: 12px; fill: rgb(255, 255, 255); fill-opacity: 1; white-space: pre;" transform="translate(325.7930788256712,93.50126386944129)rotate(-8.79271916790492)">annotation</text></g></g><g class="slice"><path class="surface" d="M230.8415644989064,287.76595356841557L111.68312899781282,325.53190713683114A250,250 0,0,0 417.42476342627066,490.73616528662956L383.71238171313536,370.3680826433148A125,125 0,0,1 230.8415644989064,287.76595356841557Z" style="pointer-events: none; stroke-width: 1; fill: rgb(239, 85, 59); fill-opacity: 1; stroke: rgb(255, 255, 255); stroke-opacity: 1; opacity: 0.7;"/><g class="slicetext"><text data-notex="1" class="slicetext" text-anchor="middle" x="0" y="0" style="font-family: Arial; font-size: 12px; fill: rgb(68, 68, 68); fill-opacity: 1; white-space: pre;" transform="translate(260.86623166527716,418.9588474209612)">MeSH</text></g></g><g class="slice"><path class="surface" d="M383.71238171313536,370.3680826433148L417.42476342627066,490.73616528662956A250,250 0,0,0 600,250.00000000000006L475,250.00000000000003A125,125 0,0,1 383.71238171313536,370.3680826433148Z" style="pointer-events: none; stroke-width: 1; fill: rgb(0, 204, 150); fill-opacity: 1; stroke: rgb(255, 255, 255); stroke-opacity: 1; opacity: 0.7;"/><g class="slicetext"><text data-notex="1" class="slicetext" text-anchor="middle" x="0" y="0" style="font-family: Arial; font-size: 12px; fill: rgb(68, 68, 68); fill-opacity: 1; white-space: pre;" transform="translate(499.3952096903032,367.3019034332184)">NCBI</text></g></g></g></g><g class="glimages"/><defs id="topdefs-e2a184"><g class="clips"/></defs><g class="layer-above"><g class="imagelayer"/><g class="shapelayer"/></g><g class="infolayer"><g class="g-gtitle"/></g></svg>