<svg class="main-svg" xmlns="http://www.w3.org/2000/svg" xmlns:xlink="http://www.w3.org/1999/xlink" width="700" height="500" style="" viewBox="0 0 700 500"><rect x="0" y="0" width="700" height="500" style="fill: rgb(255, 255, 255); fill-opacity: 1;"/><defs id="defs-87b6de"><g class="clips"/><g class="gradients"/><g class="patterns"/></defs><g class="bglayer"/><g class="layer-below"><g class="imagelayer"/><g class="shapelayer"/></g><g class="cartesianlayer"/><g class="polarlayer"/><g class="smithlayer"/><g class="ternarylayer"/><g class="geolayer"/><g class="funnelarealayer"/><g class="pielayer"/><g class="iciclelayer"/><g class="treemaplayer"/><g class="sunburstlayer"><g class="trace sunburst" stroke-linejoin="round" style="opacity: 1;"><g class="slice"><path class="surface" d="M350,250A0,0 0,1,0 350,250A0,0 0,1,0 350,250ZM433.3333333333333,250A83.33333333333333,83.33333333333333 0,1,1 266.6666666666667,250A83.33333333333333,83.33333333333333 0,1,1 433.3333333333333,250.00000000000003Z" style="pointer-events: none; stroke-width: 1; fill: rgb(0, 0, 0); fill-opacity: 0; stroke: rgb(255, 255, 255); stroke-opacity: 1;"/><g class="slicetext"><text data-notex="1" class="slicetext" text-anchor="middle" x="0" y="0" style="font-family: Arial; font-size: 12px; fill: rgb(42, 63, 95); fill-opacity: 1; white-space: pre;" transform="translate(350,254)">Source</text></g></g><g class="slice cursor-pointer"><path class="surface" d="M433.3333333333333,250L516.6666666666666,250A166.66666666666666,166.66666666666666 0,1,0 355.26053601043003,416.5836262621892L352.63026800521504,333.2918131310946A83.33333333333333,83.33333333333333 0,1,1 433.3333333333333,250Z" style="pointer-events: none; stroke-width: 1; fill: rgb(99, 110, 250); fill-opacity: 1; stroke: rgb(255, 255, 255); stroke-opacity: 1;"/><g class="slicetext"><text data-notex="1" class="slicetext" text-anchor="middle" x="0" y="0" style="font-family: Arial; font-size: 12px; fill: rgb(255, 255, 255); fill-opacity: 1; white-space: pre;" transform="translate(267.10226051417436,169.67876032728168)rotate(-45.90436973756994)">Low</text></g></g><g class="slice cursor-pointer"><path class="surface" d="M352.63026800521504,333.2918131310946L355.26053601043003,416.5836262621892A166.66666666666666,166.66666666666666 0,0,0 514.1732833437476,278.7212606602034L432.0866416718738,264.36063033010174A83.33333333333333,83.33333333333333 0,0,1 352.63026800521504,333.2918131310946Z" style="pointer-events: none; stroke-width: 1; fill: rgb(239, 85, 59); fill-opacity: 1; stroke: rgb(255, 255, 255); stroke-opacity: 1;"/><g class="slicetext"><text data-notex="1" class="slicetext" text-anchor="middle" x="0" y="0" style="font-family: Arial; font-size: 12px; fill: rgb(68, 68, 68); fill-opacity: 1; white-space: pre;" transform="translate(431.9131265153132,348.42054704610797)">High</text></g></g><g class="slice cursor-pointer"><path class="surface" d="M432.0866416718738,264.36063033010174L514.1732833437476,278.7212606602034A166.66666666666666,166.66666666666666 0,0,0 516.6666666666666,250.0000000000002L433.3333333333333,250.00000000000009A83.33333333333333,83.33333333333333 0,0,1 432.0866416718738,264.36063033010174Z" style="pointer-events: none; stroke-width: 1; fill: rgb(0, 204, 150); fill-opacity: 1; stroke: rgb(255, 255, 255); stroke-opacity: 1;"/><g class="slicetext"><text data-notex="1" class="slicetext" text-anchor="middle" x="0" y="0" style="font-family: Arial; font-size: 12px; fill: rgb(68, 68, 68); fill-opacity: 1; white-space: pre;" transform="translate(484.5171514693507,265.6929034013608)rotate(4.961588101530424)">Medium</text></g></g><g class="slice"><path class="surface" d="M516.6666666666666,250L600,250A250,250 0,1,0 161.49142400014574,414.2087597374366L224.32761600009718,359.47250649162436A166.66666666666666,166.66666666666666 0,1,1 516.6666666666666,250Z" style="pointer-events: none; stroke-width: 1; fill: rgb(99, 110, 250); fill-opacity: 1; stroke: rgb(255, 255, 255); stroke-opacity: 1; opacity: 0.7;"/><g class="slicetext"><text data-notex="1" class="slicetext" text-anchor="middle" x="0" y="0" style="font-family: Arial; font-size: 12px; fill: rgb(255, 255, 255); fill-opacity: 1; white-space: pre;" transform="translate(286.2347831741764,79.71922768722348)rotate(-20.529469608505906)">FoodAtlas:prediction</text></g></g><g class="slice"><path class="surface" d="M224.32761600009718,359.47250649162436L161.49142400014574,414.2087597374366A250,250 0,0,0 357.8908040156451,499.87543939328384L355.26053601043003,416.5836262621892A166.66666666666666,166.66666666666666 0,0,1 224.32761600009718,359.47250649162436Z" style="pointer-events: none; stroke-width: 1; fill: rgb(99, 110, 250); fill-opacity: 1; stroke: rgb(255, 255, 255); stroke-opacity: 1; opacity: 0.7;"/><g class="slicetext"><text data-notex="1" class="slicetext" text-anchor="middle" x="0" y="0" style="font-family: Arial; font-size: 12px; fill: rgb(255, 255, 255); fill-opacity: 1; white-space: pre;" transform="translate(266.70671841673385,444.95812897299896)">Frida:Low</text></g></g><g class="slice"><path class="surface" d="M355.26053601043003,416.5836262621892L357.8908040156451,499.87543939328384A250,250 0,0,0 357.8908040156451,499.87543939328384L355.26053601043003,416.5836262621892A166.66666666666666,166.66666666666666 0,0,1 355.26053601043003,416.5836262621892Z" style="pointer-events: none; stroke-width: 1; fill: rgb(99, 110, 250); fill-opacity: 1; stroke: rgb(255, 255, 255); stroke-opacity: 1; opacity: 0.7;"/><g class="slicetext"><text data-notex="1" class="slicetext" text-anchor="middle" x="0" y="0" style="font-family: Arial; font-size: 12px; fill: rgb(255, 255, 255); fill-opacity: 1; white-space: pre;" transform="translate(350,41.666666666666686)scale(0)">Phenol-Explorer:Low</text></g></g><g class="slice"><path class="surface" d="M355.26053601043003,416.5836262621892L357.8908040156451,499.87543939328384A250,250 0,0,0 544.1157576630035,407.54070149303675L479.410505108669,355.02713432869115A166.66666666666666,166.66666666666666 0,0,1 355.26053601043003,416.5836262621892Z" style="pointer-events: none; stroke-width: 1; fill: rgb(239, 85, 59); fill-opacity: 1; stroke: rgb(255, 255, 255); stroke-opacity: 1; opacity: 0.7;"/><g class="slicetext"><text data-notex="1" class="slicetext" text-anchor="middle" x="0" y="0" style="font-family: Arial; font-size: 12px; fill: rgb(68, 68, 68); fill-opacity: 1; white-space: pre;" transform="translate(442.5453668631568,440.6497598443177)">MeSH</text></g></g><g class="slice"><path class="surface" d="M479.410505108669,355.02713432869115L544.1157576630035,407.54070149303675A250,250 0,0,0 587.6909333285934,327.479159864974L508.4606222190622,301.652773243316A166.66666666666666,166.66666666666666 0,0,1 479.410505108669,355.02713432869115Z" style="pointer-events: none; stroke-width: 1; fill: rgb(239, 85, 59); fill-opacity: 1; stroke: rgb(255, 255, 255); stroke-opacity: 1; opacity: 0.7;"/><g class="slicetext"><text data-notex="1" class="slicetext" text-anchor="middle" x="0" y="0" style="font-family: Arial; font-size: 12px; fill: rgb(68, 68, 68); fill-opacity: 1; white-space: pre;" transform="translate(564.3366468475206,366.6572220323133)scale(0.6739368813539492)rotate(-61.44182902095747)">FoodAtlas:annotation</text></g></g><g class="slice"><path class="surface" d="M508.4606222190622,301.652773243316L587.6909333285934,327.479159864974A250,250 0,0,0 596.2599250156213,293.08189099030517L514.1732833437476,278.7212606602034A166.66666666666666,166.66666666666666 0,0,1 508.4606222190622,301.652773243316Z" style="pointer-events: none; stroke-width: 1; fill: rgb(239, 85, 59); fill-opacity: 1; stroke: rgb(255, 255, 255); stroke-opacity: 1; opacity: 0.7;"/><g class="slicetext"><text data-notex="1" class="slicetext" text-anchor="middle" x="0" y="0" style="font-family: Arial; font-size: 12px; fill: rgb(68, 68, 68); fill-opacity: 1; white-space: pre;" transform="translate(576.525838658489,310.43174856219855)">NCBI</text></g></g><g class="slice"><path class="surface" d="M514.1732833437476,278.7212606602034L596.2599250156213,293.08189099030517A250,250 0,0,0 599.9723716646238,253.71663885293816L516.6482477764159,252.4777592352921A166.66666666666666,166.66666666666666 0,0,1 514.1732833437476,278.7212606602034Z" style="pointer-events: none; stroke-width: 1; fill: rgb(0, 204, 150); fill-opacity: 1; stroke: rgb(255, 255, 255); stroke-opacity: 1; opacity: 0.7;"/><g class="slicetext"><text data-notex="1" class="slicetext" text-anchor="middle" x="0" y="0" style="font-family: Arial; font-size: 12px; fill: rgb(68, 68, 68); fill-opacity: 1; white-space: pre;" transform="translate(557.18799673672,271.7767657584996)scale(0.5568643592641248)rotate(5.387499231762035)">Phenol-Explorer:Medium</text></g></g><g class="slice"><path class="surface" d="M516.6482477764159,252.4777592352921L599.9723716646238,253.71663885293816A250,250 0,0,0 600,250.00000000000028L516.6666666666666,250.0000000000002A166.66666666666666,166.66666666666666 0,0,1 516.6482477764159,252.4777592352921Z" style="pointer-events: none; stroke-width: 1; fill: rgb(0, 204, 150); fill-opacity: 1; stroke: rgb(255, 255, 255); stroke-opacity: 1; opacity: 0.7;"/><g class="slicetext"><text data-notex="1" class="slicetext" text-anchor="middle" x="0" y="0" style="font-family: Arial; font-size: 12px; fill: rgb(68, 68, 68); fill-opacity: 1; white-space: pre;" transform="translate(590.0799875292782,252.73905862293125)scale(0.23858810506881897)rotate(0.4259111302317251)">Frida:Medium</text></g></g></g></g><g class="glimages"/><defs id="topdefs-87b6de"><g class="clips"/></defs><g class="layer-above"><g class="imagelayer"/><g class="shapelayer"/></g><g class="infolayer"><g class="g-gtitle"/></g></svg>