<svg class="main-svg" xmlns="http://www.w3.org/2000/svg" xmlns:xlink="http://www.w3.org/1999/xlink" width="700" height="500" style="" viewBox="0 0 700 500"><rect x="0" y="0" width="700" height="500" style="fill: rgb(255, 255, 255); fill-opacity: 1;"/><defs id="defs-a56ce5"><g class="clips"/><g class="gradients"/><g class="patterns"/></defs><g class="bglayer"/><g class="layer-below"><g class="imagelayer"/><g class="shapelayer"/></g><g class="cartesianlayer"/><g class="polarlayer"/><g class="smithlayer"/><g class="ternarylayer"/><g class="geolayer"/><g class="funnelarealayer"/><g class="pielayer"/><g class="iciclelayer"/><g class="treemaplayer"/><g class="sunburstlayer"><g class="trace sunburst" stroke-linejoin="round" style="opacity: 1;"><g class="slice"><path class="surface" d="M350,250A0,0 0,1,0 350,250A0,0 0,1,0 350,250ZM433.3333333333333,250A83.33333333333333,83.33333333333333 0,1,1 266.6666666666667,250A83.33333333333333,83.33333333333333 0,1,1 433.3333333333333,250.00000000000003Z" style="pointer-events: none; stroke-width: 1; fill: rgb(0, 0, 0); fill-opacity: 0; stroke: rgb(255, 255, 255); stroke-opacity: 1;"/><g class="slicetext"><text data-notex="1" class="slicetext" text-anchor="middle" x="0" y="0" style="font-family: Arial; font-size: 12px; fill: rgb(42, 63, 95); fill-opacity: 1; white-space: pre;" transform="translate(350,254)">Entity</text></g></g><g class="slice cursor-pointer"><path class="surface" d="M433.3333333333333,250L516.6666666666666,250A166.66666666666666,166.66666666666666 0,1,0 264.2181722952827,392.89596150142233L307.1090861476414,321.44798075071117A83.33333333333333,83.33333333333333 0,1,1 433.3333333333333,250Z" style="pointer-events: none; stroke-width: 1; fill: rgb(99, 110, 250); fill-opacity: 1; stroke: rgb(255, 255, 255); stroke-opacity: 1;"/><g class="slicetext"><text data-notex="1" class="slicetext" text-anchor="middle" x="0" y="0" style="font-family: Arial; font-size: 12px; fill: rgb(255, 255, 255); fill-opacity: 1; white-space: pre;" transform="translate(297.51926295371476,157.2844122980806)rotate(-29.511599511599456)">chemical</text></g></g><g class="slice cursor-pointer"><path class="surface" d="M307.1090861476414,321.44798075071117L264.2181722952827,392.89596150142233A166.66666666666666,166.66666666666666 0,0,0 459.3726544193872,375.7592948574183L404.68632720969356,312.8796474287092A83.33333333333333,83.33333333333333 0,0,1 307.1090861476414,321.44798075071117Z" style="pointer-events: none; stroke-width: 1; fill: rgb(239, 85, 59); fill-opacity: 1; stroke: rgb(255, 255, 255); stroke-opacity: 1;"/><g class="slicetext"><text data-notex="1" class="slicetext" text-anchor="middle" x="0" y="0" style="font-family: Arial; font-size: 12px; fill: rgb(68, 68, 68); fill-opacity: 1; white-space: pre;" transform="translate(360.9342724085954,378.5208484025652)">organism</text></g></g><g class="slice cursor-pointer"><path class="surface" d="M404.68632720969356,312.8796474287092L459.3726544193872,375.7592948574183A166.66666666666666,166.66666666666666 0,0,0 516.6666666666666,250.00000000000003L433.3333333333333,250.00000000000003A83.33333333333333,83.33333333333333 0,0,1 404.68632720969356,312.8796474287092Z" style="pointer-events: none; stroke-width: 1; fill: rgb(0, 204, 150); fill-opacity: 1; stroke: rgb(255, 255, 255); stroke-opacity: 1;"/><g class="slicetext"><text data-notex="1" class="slicetext" text-anchor="middle" x="0" y="0" style="font-family: Arial; font-size: 12px; fill: rgb(68, 68, 68); fill-opacity: 1; white-space: pre;" transform="translate(463.7512337335678,305.8233231671921)">food-part</text></g></g><g class="slice"><path class="surface" d="M516.6666666666666,250L600,250A250,250 0,0,0 101.89410242179375,219.2841476284212L184.59606828119584,229.52276508561414A166.66666666666666,166.66666666666666 0,0,1 516.6666666666666,250Z" style="pointer-events: none; stroke-width: 1; fill: rgb(99, 110, 250); fill-opacity: 1; stroke: rgb(255, 255, 255); stroke-opacity: 1; opacity: 0.7;"/><g class="slicetext"><text data-notex="1" class="slicetext" text-anchor="middle" x="0" y="0" style="font-family: Arial; font-size: 12px; fill: rgb(255, 255, 255); fill-opacity: 1; white-space: pre;" transform="translate(361.27742774096237,67.1187568122601)rotate(3.528693528693566)">chemical - only us</text></g></g><g class="slice"><path class="surface" d="M184.59606828119584,229.52276508561414L101.89410242179375,219.2841476284212A250,250 0,0,0 172.34023356332324,425.8891906561215L231.56015570888218,367.2594604374143A166.66666666666666,166.66666666666666 0,0,1 184.59606828119584,229.52276508561414Z" style="pointer-events: none; stroke-width: 1; fill: rgb(99, 110, 250); fill-opacity: 1; stroke: rgb(255, 255, 255); stroke-opacity: 1; opacity: 0.7;"/><g class="slicetext"><text data-notex="1" class="slicetext" text-anchor="middle" x="0" y="0" style="font-family: Arial; font-size: 12px; fill: rgb(255, 255, 255); fill-opacity: 1; white-space: pre;" transform="translate(140.7782308809185,321.33835635875323)rotate(71.17216117216117)">chemical - MeSH</text></g></g><g class="slice"><path class="surface" d="M231.56015570888218,367.2594604374143L172.34023356332324,425.8891906561215A250,250 0,0,0 200.62489743916794,450.4671512615992L250.41659829277864,383.6447675077328A166.66666666666666,166.66666666666666 0,0,1 231.56015570888218,367.2594604374143Z" style="pointer-events: none; stroke-width: 1; fill: rgb(99, 110, 250); fill-opacity: 1; stroke: rgb(255, 255, 255); stroke-opacity: 1; opacity: 0.7;"/><g class="slicetext"><text data-notex="1" class="slicetext" text-anchor="middle" x="0" y="0" style="font-family: Arial; font-size: 12px; fill: rgb(255, 255, 255); fill-opacity: 1; white-space: pre;" transform="translate(215.98647436233657,409.496381845604)scale(0.8644499967435484)rotate(-49.01098901098908)">chemical - both</text></g></g><g class="slice"><path class="surface" d="M250.41659829277864,383.6447675077328L200.62489743916794,450.4671512615992A250,250 0,0,0 221.3272584429243,464.3439422521336L264.2181722952829,392.89596150142245A166.66666666666666,166.66666666666666 0,0,1 250.41659829277864,383.6447675077328Z" style="pointer-events: none; stroke-width: 1; fill: rgb(99, 110, 250); fill-opacity: 1; stroke: rgb(255, 255, 255); stroke-opacity: 1; opacity: 0.7;"/><g class="slicetext"><text data-notex="1" class="slicetext" text-anchor="middle" x="0" y="0" style="font-family: Arial; font-size: 12px; fill: rgb(255, 255, 255); fill-opacity: 1; white-space: pre;" transform="translate(236.38613260139886,424.619318265679)scale(0.7130025238947322)rotate(-56.16605616605625)">chemical - only ext</text></g></g><g class="slice"><path class="surface" d="M264.2181722952827,392.89596150142233L221.32725844292412,464.34394225213356A250,250 0,0,0 420.3727245979517,489.890974471031L396.9151497319678,409.9273163140207A166.66666666666666,166.66666666666666 0,0,1 264.2181722952827,392.89596150142233Z" style="pointer-events: none; stroke-width: 1; fill: rgb(239, 85, 59); fill-opacity: 1; stroke: rgb(255, 255, 255); stroke-opacity: 1; opacity: 0.7;"/><g class="slicetext"><text data-notex="1" class="slicetext" text-anchor="middle" x="0" y="0" style="font-family: Arial; font-size: 12px; fill: rgb(68, 68, 68); fill-opacity: 1; white-space: pre;" transform="translate(321.40010727234136,472.8313226829396)rotate(7.313797313797295)">food - taxonomy</text></g></g><g class="slice"><path class="surface" d="M396.9151497319678,409.9273163140207L420.3727245979517,489.890974471031A250,250 0,0,0 467.82862756478016,470.4913026089699L428.5524183765201,396.9942017393132A166.66666666666666,166.66666666666666 0,0,1 396.9151497319678,409.9273163140207Z" style="pointer-events: none; stroke-width: 1; fill: rgb(239, 85, 59); fill-opacity: 1; stroke: rgb(255, 255, 255); stroke-opacity: 1; opacity: 0.7;"/><g class="slicetext"><text data-notex="1" class="slicetext" text-anchor="middle" x="0" y="0" style="font-family: Arial; font-size: 12px; fill: rgb(68, 68, 68); fill-opacity: 1; white-space: pre;" transform="translate(425.11058748411705,444.30807195672776)rotate(67.76556776556777)">food - only us</text></g></g><g class="slice"><path class="surface" d="M428.5524183765201,396.9942017393132L467.82862756478016,470.4913026089699A250,250 0,0,0 502.0106606425403,448.47609188770934L451.3404404283602,382.31739459180625A166.66666666666666,166.66666666666666 0,0,1 428.5524183765201,396.9942017393132Z" style="pointer-events: none; stroke-width: 1; fill: rgb(239, 85, 59); fill-opacity: 1; stroke: rgb(255, 255, 255); stroke-opacity: 1; opacity: 0.7;"/><g class="slicetext"><text data-notex="1" class="slicetext" text-anchor="middle" x="0" y="0" style="font-family: Arial; font-size: 12px; fill: rgb(68, 68, 68); fill-opacity: 1; white-space: pre;" transform="translate(459.4016048737983,427.2502528261738)rotate(57.2161172161172)">food - both</text></g></g><g class="slice"><path class="surface" d="M451.3404404283602,382.31739459180625L502.0106606425403,448.47609188770934A250,250 0,0,0 514.0589816290809,438.63894228612736L459.3726544193873,375.75929485741824A166.66666666666666,166.66666666666666 0,0,1 451.3404404283602,382.31739459180625Z" style="pointer-events: none; stroke-width: 1; fill: rgb(239, 85, 59); fill-opacity: 1; stroke: rgb(255, 255, 255); stroke-opacity: 1; opacity: 0.7;"/><g class="slicetext"><text data-notex="1" class="slicetext" text-anchor="middle" x="0" y="0" style="font-family: Arial; font-size: 12px; fill: rgb(68, 68, 68); fill-opacity: 1; white-space: pre;" transform="translate(483.7785601713911,418.81125699097385)scale(0.7845905843663142)rotate(50.76923076923072)">food - only ext</text></g></g><g class="slice"><path class="surface" d="M459.3726544193872,375.7592948574183L514.0589816290808,438.6389422861275A250,250 0,0,0 600,250.00000000000006L516.6666666666666,250.00000000000003A166.66666666666666,166.66666666666666 0,0,1 459.3726544193872,375.7592948574183Z" style="pointer-events: none; stroke-width: 1; fill: rgb(0, 204, 150); fill-opacity: 1; stroke: rgb(255, 255, 255); stroke-opacity: 1; opacity: 0.7;"/><g class="slicetext"><text data-notex="1" class="slicetext" text-anchor="middle" x="0" y="0" style="font-family: Arial; font-size: 12px; fill: rgb(68, 68, 68); fill-opacity: 1; white-space: pre;" transform="translate(554.0315703068686,342.9536643891562)rotate(-65.50671550671552)">food-part - only us</text></g></g><g class="slice"><path class="surface" d="M516.6666666666666,250.00000000000003L600,250.00000000000006A250,250 0,0,0 600,250.00000000000006L516.6666666666666,250.00000000000003A166.66666666666666,166.66666666666666 0,0,1 516.6666666666666,250.00000000000003Z" style="pointer-events: none; stroke-width: 1; fill: rgb(0, 204, 150); fill-opacity: 1; stroke: rgb(255, 255, 255); stroke-opacity: 1; opacity: 0.7;"/><g class="slicetext"><text data-notex="1" class="slicetext" text-anchor="middle" x="0" y="0" style="font-family: Arial; font-size: 12px; fill: rgb(68, 68, 68); fill-opacity: 1; white-space: pre;" transform="translate(350,41.666666666666686)scale(0)">food-part - taxonomy</text></g></g><g class="slice"><path class="surface" d="M516.6666666666666,250.00000000000003L600,250.00000000000006A250,250 0,0,0 600,250.00000000000006L516.6666666666666,250.00000000000003A166.66666666666666,166.66666666666666 0,0,1 516.6666666666666,250.00000000000003Z" style="pointer-events: none; stroke-width: 1; fill: rgb(0, 204, 150); fill-opacity: 1; stroke: rgb(255, 255, 255); stroke-opacity: 1; opacity: 0.7;"/><g class="slicetext"><text data-notex="1" class="slicetext" text-anchor="middle" x="0" y="0" style="font-family: Arial; font-size: 12px; fill: rgb(68, 68, 68); fill-opacity: 1; white-space: pre;" transform="translate(350,41.666666666666686)scale(0)">food-part - only ext</text></g></g><g class="slice"><path class="surface" d="M516.6666666666666,250.00000000000003L600,250.00000000000006A250,250 0,0,0 600,250.00000000000006L516.6666666666666,250.00000000000003A166.66666666666666,166.66666666666666 0,0,1 516.6666666666666,250.00000000000003Z" style="pointer-events: none; stroke-width: 1; fill: rgb(0, 204, 150); fill-opacity: 1; stroke: rgb(255, 255, 255); stroke-opacity: 1; opacity: 0.7;"/><g class="slicetext"><text data-notex="1" class="slicetext" text-anchor="middle" x="0" y="0" style="font-family: Arial; font-size: 12px; fill: rgb(68, 68, 68); fill-opacity: 1; white-space: pre;" transform="translate(350,41.666666666666686)scale(0)">food-part - both</text></g></g></g></g><g class="glimages"/><defs id="topdefs-a56ce5"><g class="clips"/></defs><g class="layer-above"><g class="imagelayer"/><g class="shapelayer"/></g><g class="infolayer"><g class="g-gtitle"/></g></svg>