<svg class="main-svg" xmlns="http://www.w3.org/2000/svg" xmlns:xlink="http://www.w3.org/1999/xlink" width="700" height="500" style="" viewBox="0 0 700 500"><rect x="0" y="0" width="700" height="500" style="fill: rgb(255, 255, 255); fill-opacity: 1;"/><defs id="defs-39e71f"><g class="clips"/><g class="gradients"/><g class="patterns"/></defs><g class="bglayer"/><g class="layer-below"><g class="imagelayer"/><g class="shapelayer"/></g><g class="cartesianlayer"/><g class="polarlayer"/><g class="smithlayer"/><g class="ternarylayer"/><g class="geolayer"/><g class="funnelarealayer"/><g class="pielayer"/><g class="iciclelayer"/><g class="treemaplayer"/><g class="sunburstlayer"><g class="trace sunburst" stroke-linejoin="round" style="opacity: 1;"><g class="slice"><path class="surface" d="M350,250A0,0 0,1,0 350,250A0,0 0,1,0 350,250ZM433.3333333333333,250A83.33333333333333,83.33333333333333 0,1,1 266.6666666666667,250A83.33333333333333,83.33333333333333 0,1,1 433.3333333333333,250.00000000000003Z" style="pointer-events: none; stroke-width: 1; fill: rgb(0, 0, 0); fill-opacity: 0; stroke: rgb(255, 255, 255); stroke-opacity: 1;"/><g class="slicetext"><text data-notex="1" class="slicetext" text-anchor="middle" x="0" y="0" style="font-family: Arial; font-size: 12px; fill: rgb(42, 63, 95); fill-opacity: 1; white-space: pre;" transform="translate(350,254)">Relation</text></g></g><g class="slice cursor-pointer"><path class="surface" d="M433.3333333333333,250L516.6666666666666,250A166.66666666666666,166.66666666666666 0,0,0 190.69142309903987,201.02495427701322L270.34571154951993,225.5124771385066A83.33333333333333,83.33333333333333 0,0,1 433.3333333333333,250Z" style="pointer-events: none; stroke-width: 1; fill: rgb(99, 110, 250); fill-opacity: 1; stroke: rgb(255, 255, 255); stroke-opacity: 1;"/><g class="slicetext"><text data-notex="1" class="slicetext" text-anchor="middle" x="0" y="0" style="font-family: Arial; font-size: 12px; fill: rgb(255, 255, 255); fill-opacity: 1; white-space: pre;" transform="translate(368.57176506871366,130.38734068780616)">contains</text></g></g><g class="slice"><path class="surface" d="M270.34571154951993,225.5124771385066L190.69142309903987,201.02495427701322A166.66666666666666,166.66666666666666 0,0,0 311.61627382583754,412.1865202252169L330.80813691291877,331.09326011260845A83.33333333333333,83.33333333333333 0,0,1 270.34571154951993,225.5124771385066Z" style="pointer-events: none; stroke-width: 1; fill: rgb(239, 85, 59); fill-opacity: 1; stroke: rgb(255, 255, 255); stroke-opacity: 1; opacity: 0.7;"/><g class="slicetext"><text data-notex="1" class="slicetext" text-anchor="middle" x="0" y="0" style="font-family: Arial; font-size: 12px; fill: rgb(68, 68, 68); fill-opacity: 1; white-space: pre;" transform="translate(241.0274312715139,316.1184500244803)">isA</text></g></g><g class="slice"><path class="surface" d="M330.80813691291877,331.09326011260845L311.61627382583754,412.1865202252169A166.66666666666666,166.66666666666666 0,0,0 502.0942667964804,318.1550569321075L426.0471333982402,284.07752846605376A83.33333333333333,83.33333333333333 0,0,1 330.80813691291877,331.09326011260845Z" style="pointer-events: none; stroke-width: 1; fill: rgb(0, 204, 150); fill-opacity: 1; stroke: rgb(255, 255, 255); stroke-opacity: 1; opacity: 0.7;"/><g class="slicetext"><text data-notex="1" class="slicetext" text-anchor="middle" x="0" y="0" style="font-family: Arial; font-size: 12px; fill: rgb(68, 68, 68); fill-opacity: 1; white-space: pre;" transform="translate(405.3325215513796,366.08618139077674)">hasChild</text></g></g><g class="slice"><path class="surface" d="M426.0471333982402,284.07752846605376L502.0942667964804,318.1550569321075A166.66666666666666,166.66666666666666 0,0,0 516.6666666666666,249.9999999999999L433.3333333333333,249.99999999999994A83.33333333333333,83.33333333333333 0,0,1 426.0471333982402,284.07752846605376Z" style="pointer-events: none; stroke-width: 1; fill: rgb(171, 99, 250); fill-opacity: 1; stroke: rgb(255, 255, 255); stroke-opacity: 1; opacity: 0.7;"/><g class="slicetext"><text data-notex="1" class="slicetext" text-anchor="middle" x="0" y="0" style="font-family: Arial; font-size: 12px; fill: rgb(68, 68, 68); fill-opacity: 1; white-space: pre;" transform="translate(484.798332441018,282.82156204669565)">hasPart</text></g></g><g class="slice"><path class="surface" d="M516.6666666666666,250L600,250A250,250 0,0,0 224.2832037644635,33.90907667309904L266.18880250964236,105.93938444873268A166.66666666666666,166.66666666666666 0,0,1 516.6666666666666,250Z" style="pointer-events: none; stroke-width: 1; fill: rgb(99, 110, 250); fill-opacity: 1; stroke: rgb(255, 255, 255); stroke-opacity: 1; opacity: 0.7;"/><g class="slicetext"><text data-notex="1" class="slicetext" text-anchor="middle" x="0" y="0" style="font-family: Arial; font-size: 12px; fill: rgb(255, 255, 255); fill-opacity: 1; white-space: pre;" transform="translate(442.45433359214667,89.24986075059014)rotate(29.905063291139186)">contains - pred</text></g></g><g class="slice"><path class="surface" d="M266.18880250964236,105.93938444873268L224.2832037644635,33.90907667309904A250,250 0,0,0 154.21050644140678,94.54430144870986L219.47367096093788,146.36286763247324A166.66666666666666,166.66666666666666 0,0,1 266.18880250964236,105.93938444873268Z" style="pointer-events: none; stroke-width: 1; fill: rgb(99, 110, 250); fill-opacity: 1; stroke: rgb(255, 255, 255); stroke-opacity: 1; opacity: 0.7;"/><g class="slicetext"><text data-notex="1" class="slicetext" text-anchor="middle" x="0" y="0" style="font-family: Arial; font-size: 12px; fill: rgb(255, 255, 255); fill-opacity: 1; white-space: pre;" transform="translate(195.87583685358334,71.88742807015566)scale(0.9510809261881484)rotate(-40.87025316455697)">contains - high</text></g></g><g class="slice"><path class="surface" d="M219.47367096093788,146.36286763247324L154.21050644140678,94.54430144870986A250,250 0,0,0 111.03713464855983,176.53743141551973L190.6914230990399,201.02495427701314A166.66666666666666,166.66666666666666 0,0,1 219.47367096093788,146.36286763247324Z" style="pointer-events: none; stroke-width: 1; fill: rgb(99, 110, 250); fill-opacity: 1; stroke: rgb(255, 255, 255); stroke-opacity: 1; opacity: 0.7;"/><g class="slicetext"><text data-notex="1" class="slicetext" text-anchor="middle" x="0" y="0" style="font-family: Arial; font-size: 12px; fill: rgb(255, 255, 255); fill-opacity: 1; white-space: pre;" transform="translate(142.2099250194743,140.58841679017286)rotate(-62.23101265822788)">contains - low</text></g></g></g></g><g class="glimages"/><defs id="topdefs-39e71f"><g class="clips"/></defs><g class="layer-above"><g class="imagelayer"/><g class="shapelayer"/></g><g class="infolayer"><g class="g-gtitle"/></g></svg>