<svg class="main-svg" xmlns="http://www.w3.org/2000/svg" xmlns:xlink="http://www.w3.org/1999/xlink" width="700" height="500" style="" viewBox="0 0 700 500"><rect x="0" y="0" width="700" height="500" style="fill: rgb(255, 255, 255); fill-opacity: 1;"/><defs id="defs-7dc74a"><g class="clips"/><g class="gradients"/><g class="patterns"/></defs><g class="bglayer"/><g class="layer-below"><g class="imagelayer"/><g class="shapelayer"/></g><g class="cartesianlayer"/><g class="polarlayer"/><g class="smithlayer"/><g class="ternarylayer"/><g class="geolayer"/><g class="funnelarealayer"/><g class="pielayer"/><g class="iciclelayer"/><g class="treemaplayer"/><g class="sunburstlayer"><g class="trace sunburst" stroke-linejoin="round" style="opacity: 1;"><g class="slice"><path class="surface" d="M350,250A0,0 0,1,0 350,250A0,0 0,1,0 350,250ZM433.3333333333333,250A83.33333333333333,83.33333333333333 0,1,1 266.6666666666667,250A83.33333333333333,83.33333333333333 0,1,1 433.3333333333333,250.00000000000003Z" style="pointer-events: none; stroke-width: 1; fill: rgb(0, 0, 0); fill-opacity: 0; stroke: rgb(255, 255, 255); stroke-opacity: 1;"/><g class="slicetext"><text data-notex="1" class="slicetext" text-anchor="middle" x="0" y="0" style="font-family: Arial; font-size: 12px; fill: rgb(42, 63, 95); fill-opacity: 1; white-space: pre;" transform="translate(350,254)">Relation</text></g></g><g class="slice cursor-pointer"><path class="surface" d="M433.3333333333333,250L516.6666666666666,250A166.66666666666666,166.66666666666666 0,1,0 347.2215356504187,416.6435054649172L348.61076782520934,333.3217527324586A83.33333333333333,83.33333333333333 0,1,1 433.3333333333333,250Z" style="pointer-events: none; stroke-width: 1; fill: rgb(99, 110, 250); fill-opacity: 1; stroke: rgb(255, 255, 255); stroke-opacity: 1;"/><g class="slicetext"><text data-notex="1" class="slicetext" text-anchor="middle" x="0" y="0" style="font-family: Arial; font-size: 12px; fill: rgb(255, 255, 255); fill-opacity: 1; white-space: pre;" transform="translate(274.7975788898277,173.53326904519025)rotate(-44.52239503370936)">contains</text></g></g><g class="slice cursor-pointer"><path class="surface" d="M348.61076782520934,333.3217527324586L347.2215356504187,416.6435054649172A166.66666666666666,166.66666666666666 0,0,0 506.8045012051515,306.4812020019176L428.40225060257575,278.2406010009588A83.33333333333333,83.33333333333333 0,0,1 348.61076782520934,333.3217527324586Z" style="pointer-events: none; stroke-width: 1; fill: rgb(239, 85, 59); fill-opacity: 1; stroke: rgb(255, 255, 255); stroke-opacity: 1;"/><g class="slicetext"><text data-notex="1" class="slicetext" text-anchor="middle" x="0" y="0" style="font-family: Arial; font-size: 12px; fill: rgb(68, 68, 68); fill-opacity: 1; white-space: pre;" transform="translate(420.5125185050327,356.8699286262627)">isA</text></g></g><g class="slice cursor-pointer"><path class="surface" d="M428.40225060257575,278.2406010009588L506.8045012051515,306.4812020019176A166.66666666666666,166.66666666666666 0,0,0 515.030812761697,273.29396095539573L432.5154063808485,261.64698047769787A83.33333333333333,83.33333333333333 0,0,1 428.40225060257575,278.2406010009588Z" style="pointer-events: none; stroke-width: 1; fill: rgb(0, 204, 150); fill-opacity: 1; stroke: rgb(255, 255, 255); stroke-opacity: 1;"/><g class="slicetext"><text data-notex="1" class="slicetext" text-anchor="middle" x="0" y="0" style="font-family: Arial; font-size: 12px; fill: rgb(68, 68, 68); fill-opacity: 1; white-space: pre;" transform="translate(475.8897933157552,285.3260772730869)rotate(13.921634069821835)">hasChild</text></g></g><g class="slice cursor-pointer"><path class="surface" d="M432.5154063808485,261.64698047769787L515.030812761697,273.29396095539573A166.66666666666666,166.66666666666666 0,0,0 516.6666666666666,250.00000000000003L433.3333333333333,250.00000000000003A83.33333333333333,83.33333333333333 0,0,1 432.5154063808485,261.64698047769787Z" style="pointer-events: none; stroke-width: 1; fill: rgb(171, 99, 250); fill-opacity: 1; stroke: rgb(255, 255, 255); stroke-opacity: 1;"/><g class="slicetext"><text data-notex="1" class="slicetext" text-anchor="middle" x="0" y="0" style="font-family: Arial; font-size: 12px; fill: rgb(68, 68, 68); fill-opacity: 1; white-space: pre;" transform="translate(490.35288247723355,263.8663464490143)rotate(4.0170883118616985)">hasPart</text></g></g><g class="slice"><path class="surface" d="M516.6666666666666,250L600,250A250,250 0,1,0 203.53620694199637,452.60394202251416L252.35747129466426,385.06929468167607A166.66666666666666,166.66666666666666 0,1,1 516.6666666666666,250Z" style="pointer-events: none; stroke-width: 1; fill: rgb(99, 110, 250); fill-opacity: 1; stroke: rgb(255, 255, 255); stroke-opacity: 1; opacity: 0.7;"/><g class="slicetext"><text data-notex="1" class="slicetext" text-anchor="middle" x="0" y="0" style="font-family: Arial; font-size: 12px; fill: rgb(255, 255, 255); fill-opacity: 1; white-space: pre;" transform="translate(265.0818447474624,83.82863336801074)rotate(-27.068286496228552)">contains - low</text></g></g><g class="slice"><path class="surface" d="M252.35747129466426,385.06929468167607L203.53620694199637,452.60394202251416A250,250 0,0,0 305.0112800206472,495.9187163975515L320.0075200137648,413.945810931701A166.66666666666666,166.66666666666666 0,0,1 252.35747129466426,385.06929468167607Z" style="pointer-events: none; stroke-width: 1; fill: rgb(99, 110, 250); fill-opacity: 1; stroke: rgb(255, 255, 255); stroke-opacity: 1; opacity: 0.7;"/><g class="slicetext"><text data-notex="1" class="slicetext" text-anchor="middle" x="0" y="0" style="font-family: Arial; font-size: 12px; fill: rgb(255, 255, 255); fill-opacity: 1; white-space: pre;" transform="translate(255.53405565185,471.30875075495555)rotate(23.115279353848223)">contains - high</text></g></g><g class="slice"><path class="surface" d="M320.0075200137648,413.945810931701L305.0112800206472,495.9187163975515A250,250 0,0,0 345.832303475628,499.96525819737576L347.2215356504187,416.6435054649172A166.66666666666666,166.66666666666666 0,0,1 320.0075200137648,413.945810931701Z" style="pointer-events: none; stroke-width: 1; fill: rgb(99, 110, 250); fill-opacity: 1; stroke: rgb(255, 255, 255); stroke-opacity: 1; opacity: 0.7;"/><g class="slicetext"><text data-notex="1" class="slicetext" text-anchor="middle" x="0" y="0" style="font-family: Arial; font-size: 12px; fill: rgb(255, 255, 255); fill-opacity: 1; white-space: pre;" transform="translate(332.31468809717177,457.574559934706)scale(0.7193042603789299)rotate(-84.33882918363258)">contains - medium</text></g></g><g class="slice"><path class="surface" d="M347.2215356504187,416.6435054649172L345.832303475628,499.96525819737576A250,250 0,0,0 585.2067518077272,334.7218030028764L506.8045012051515,306.4812020019176A166.66666666666666,166.66666666666666 0,0,1 347.2215356504187,416.6435054649172Z" style="pointer-events: none; stroke-width: 1; fill: rgb(239, 85, 59); fill-opacity: 1; stroke: rgb(255, 255, 255); stroke-opacity: 1; opacity: 0.7;"/><g class="slicetext"><text data-notex="1" class="slicetext" text-anchor="middle" x="0" y="0" style="font-family: Arial; font-size: 12px; fill: rgb(68, 68, 68); fill-opacity: 1; white-space: pre;" transform="translate(468.3541975083878,425.44988104377114)">isA - high</text></g></g><g class="slice"><path class="surface" d="M506.8045012051515,306.4812020019176L585.2067518077272,334.7218030028764A250,250 0,0,0 597.5462191425454,284.94094143309366L515.030812761697,273.29396095539573A166.66666666666666,166.66666666666666 0,0,1 506.8045012051515,306.4812020019176Z" style="pointer-events: none; stroke-width: 1; fill: rgb(0, 204, 150); fill-opacity: 1; stroke: rgb(255, 255, 255); stroke-opacity: 1; opacity: 0.7;"/><g class="slicetext"><text data-notex="1" class="slicetext" text-anchor="middle" x="0" y="0" style="font-family: Arial; font-size: 12px; fill: rgb(68, 68, 68); fill-opacity: 1; white-space: pre;" transform="translate(551.3041699930374,303.6188813898272)scale(0.9027943947728652)rotate(13.921634069821835)">hasChild - high</text></g></g><g class="slice"><path class="surface" d="M515.030812761697,273.29396095539573L597.5462191425454,284.94094143309366A250,250 0,0,0 599.8639400707247,258.24690562170616L516.5759600471497,255.49793708113745A166.66666666666666,166.66666666666666 0,0,1 515.030812761697,273.29396095539573Z" style="pointer-events: none; stroke-width: 1; fill: rgb(171, 99, 250); fill-opacity: 1; stroke: rgb(255, 255, 255); stroke-opacity: 1; opacity: 0.7;"/><g class="slicetext"><text data-notex="1" class="slicetext" text-anchor="middle" x="0" y="0" style="font-family: Arial; font-size: 12px; fill: rgb(68, 68, 68); fill-opacity: 1; white-space: pre;" transform="translate(557.1479521734506,272.00075739353866)rotate(4.9622855617114965)">hasPart - low</text></g></g><g class="slice"><path class="surface" d="M516.5759600471497,255.49793708113745L599.8639400707247,258.24690562170616A250,250 0,0,0 600,250.00000000000006L516.6666666666666,250.00000000000003A166.66666666666666,166.66666666666666 0,0,1 516.5759600471497,255.49793708113745Z" style="pointer-events: none; stroke-width: 1; fill: rgb(171, 99, 250); fill-opacity: 1; stroke: rgb(255, 255, 255); stroke-opacity: 1; opacity: 0.7;"/><g class="slicetext"><text data-notex="1" class="slicetext" text-anchor="middle" x="0" y="0" style="font-family: Arial; font-size: 12px; fill: rgb(68, 68, 68); fill-opacity: 1; white-space: pre;" transform="translate(579.4632151318893,255.70979534800657)scale(0.4809451022119228)rotate(0.9451972498498549)">hasPart - high</text></g></g><g class="slice"><path class="surface" d="M516.6666666666666,250.00000000000003L600,250.00000000000006A250,250 0,0,0 600,250.00000000000006L516.6666666666666,250.00000000000003A166.66666666666666,166.66666666666666 0,0,1 516.6666666666666,250.00000000000003Z" style="pointer-events: none; stroke-width: 1; fill: rgb(171, 99, 250); fill-opacity: 1; stroke: rgb(255, 255, 255); stroke-opacity: 1; opacity: 0.7;"/><g class="slicetext"><text data-notex="1" class="slicetext" text-anchor="middle" x="0" y="0" style="font-family: Arial; font-size: 12px; fill: rgb(68, 68, 68); fill-opacity: 1; white-space: pre;" transform="translate(350,41.666666666666686)scale(0)">hasPart - medium</text></g></g></g></g><g class="glimages"/><defs id="topdefs-7dc74a"><g class="clips"/></defs><g class="layer-above"><g class="imagelayer"/><g class="shapelayer"/></g><g class="infolayer"><g class="g-gtitle"/></g></svg>