<svg class="main-svg" xmlns="http://www.w3.org/2000/svg" xmlns:xlink="http://www.w3.org/1999/xlink" width="600" height="300" style="" viewBox="0 0 600 300"><rect x="0" y="0" width="600" height="300" style="fill: rgb(255, 255, 255); fill-opacity: 1;"/><defs id="defs-8a1b1d"><g class="clips"/><g class="gradients"/><g class="patterns"/></defs><g class="bglayer"/><g class="layer-below"><g class="imagelayer"/><g class="shapelayer"/></g><g class="cartesianlayer"/><g class="polarlayer"/><g class="smithlayer"/><g class="ternarylayer"/><g class="geolayer"/><g class="funnelarealayer"/><g class="pielayer"/><g class="iciclelayer"/><g class="treemaplayer"/><g class="sunburstlayer"/><g class="glimages"/><g class="sankey" transform="matrix(1 0 0 1 0 0)" style="box-sizing: content-box; position: absolute; left: 0px; shape-rendering: geometricprecision; pointer-events: none;"><g class="sankey-links" style="fill: none;"><path class="sankey-link" d="M15,275.7163270470179C153.75,275.7163270470179 153.75,231.132492275932 292.5,231.132492275932L292.5,255.41616522891417C153.75,255.41616522891417 153.75,300 15,300Z" style="stroke: rgb(68, 68, 68); stroke-opacity: 1; fill: rgb(0, 0, 0); fill-opacity: 0.2; stroke-width: 0; opacity: 1;"/><path class="sankey-link" d="M15,242.80424958074488C153.75,242.80424958074488 153.75,282.08792253372684 292.5,282.08792253372684L292.5,299.99999999999994C153.75,299.99999999999994 153.75,260.716327047018 15,260.716327047018Z" style="stroke: rgb(68, 68, 68); stroke-opacity: 1; fill: rgb(0, 0, 0); fill-opacity: 0.2; stroke-width: 0; opacity: 1;"/><path class="sankey-link" d="M15,216.74232109945606C153.75,216.74232109945606 153.75,148.9888571991333 292.5,148.9888571991333L292.5,175.0507856804221C153.75,175.0507856804221 153.75,242.80424958074488 15,242.80424958074488Z" style="stroke: rgb(68, 68, 68); stroke-opacity: 1; fill: rgb(0, 0, 0); fill-opacity: 0.2; stroke-width: 0; opacity: 1;"/><path class="sankey-link" d="M15,160.66061450394616C153.75,160.66061450394616 153.75,190.05078568042217 292.5,190.05078568042217L292.5,231.132492275932C153.75,231.132492275932 153.75,201.742321099456 15,201.742321099456Z" style="stroke: rgb(68, 68, 68); stroke-opacity: 1; fill: rgb(0, 0, 0); fill-opacity: 0.2; stroke-width: 0; opacity: 1;"/><path class="sankey-link" d="M15,146.2733634048968C153.75,146.2733634048968 153.75,134.60160610008393 292.5,134.60160610008393L292.5,148.9888571991333C153.75,148.9888571991333 153.75,160.66061450394616 15,160.66061450394616Z" style="stroke: rgb(68, 68, 68); stroke-opacity: 1; fill: rgb(0, 0, 0); fill-opacity: 0.2; stroke-width: 0; opacity: 1;"/><path class="sankey-link" d="M15,73.67160593505899C153.75,73.67160593505899 153.75,1.9895196601282805e-13 292.5,1.9895196601282805e-13L292.5,30.519703904837833C153.75,30.519703904837833 153.75,104.19130983989662 15,104.19130983989662Z" style="stroke: rgb(68, 68, 68); stroke-opacity: 1; fill: rgb(0, 0, 0); fill-opacity: 0.2; stroke-width: 0; opacity: 1;"/><path class="sankey-link" d="M15,104.19130983989663C153.75,104.19130983989663 153.75,45.519703904837826 292.5,45.519703904837826L292.5,66.45783629664326C153.75,66.45783629664326 153.75,125.12944223170206 15,125.12944223170206Z" style="stroke: rgb(68, 68, 68); stroke-opacity: 1; fill: rgb(0, 0, 0); fill-opacity: 0.2; stroke-width: 0; opacity: 1;"/><path class="sankey-link" d="M15,125.12944223170207C153.75,125.12944223170207 153.75,81.45783629664314 292.5,81.45783629664314L292.5,102.60175746983788C153.75,102.60175746983788 153.75,146.2733634048968 15,146.2733634048968Z" style="stroke: rgb(68, 68, 68); stroke-opacity: 1; fill: rgb(0, 0, 0); fill-opacity: 0.2; stroke-width: 0; opacity: 1;"/><path class="sankey-link" d="M307.5,282.08792253372684C446.25,282.08792253372684 446.25,140.862103752078 585,140.862103752078L585,158.77418121835117C446.25,158.77418121835117 446.25,299.99999999999994 307.5,299.99999999999994Z" style="stroke: rgb(68, 68, 68); stroke-opacity: 1; fill: rgb(0, 0, 0); fill-opacity: 0.2; stroke-width: 0; opacity: 1;"/><path class="sankey-link" d="M307.5,190.05078568042217C446.25,190.05078568042217 446.25,207.96286314669518 585,207.96286314669518L585,244.57961030048816C446.25,244.57961030048816 446.25,226.66753283421514 307.5,226.66753283421514Z" style="stroke: rgb(68, 68, 68); stroke-opacity: 1; fill: rgb(0, 0, 0); fill-opacity: 0.2; stroke-width: 0; opacity: 1;"/><path class="sankey-link" d="M307.5,226.66753283421514C446.25,226.66753283421514 446.25,259.57961030048824 585,259.57961030048824L585,299.99999999999994C446.25,299.99999999999994 446.25,267.0879225337269 307.5,267.0879225337269Z" style="stroke: rgb(68, 68, 68); stroke-opacity: 1; fill: rgb(0, 0, 0); fill-opacity: 0.2; stroke-width: 0; opacity: 1;"/><path class="sankey-link" d="M307.5,134.60160610008393C446.25,134.60160610008393 446.25,114.8001752707892 585,114.8001752707892L585,140.862103752078C446.25,140.862103752078 446.25,160.66353458137274 307.5,160.66353458137274Z" style="stroke: rgb(68, 68, 68); stroke-opacity: 1; fill: rgb(0, 0, 0); fill-opacity: 0.2; stroke-width: 0; opacity: 1;"/><path class="sankey-link" d="M307.5,160.66353458137274C446.25,160.66353458137274 446.25,193.57561204764582 585,193.57561204764582L585,207.96286314669518C446.25,207.96286314669518 446.25,175.0507856804221 307.5,175.0507856804221Z" style="stroke: rgb(68, 68, 68); stroke-opacity: 1; fill: rgb(0, 0, 0); fill-opacity: 0.2; stroke-width: 0; opacity: 1;"/><path class="sankey-link" d="M307.5,1.9895196601282805e-13C446.25,1.9895196601282805e-13 446.25,44.99999999999983 585,44.99999999999983L585,75.51970390483746C446.25,75.51970390483746 446.25,30.519703904837833 307.5,30.519703904837833Z" style="stroke: rgb(68, 68, 68); stroke-opacity: 1; fill: rgb(0, 0, 0); fill-opacity: 0.2; stroke-width: 0; opacity: 1;"/><path class="sankey-link" d="M307.5,45.519703904837826C446.25,45.519703904837826 446.25,75.51970390483746 585,75.51970390483746L585,96.45783629664288C446.25,96.45783629664288 446.25,66.45783629664326 307.5,66.45783629664326Z" style="stroke: rgb(68, 68, 68); stroke-opacity: 1; fill: rgb(0, 0, 0); fill-opacity: 0.2; stroke-width: 0; opacity: 1;"/><path class="sankey-link" d="M307.5,81.45783629664314C446.25,81.45783629664314 446.25,96.4578362966429 585,96.4578362966429L585,114.80017527078918C446.25,114.80017527078918 446.25,99.80017527078942 307.5,99.80017527078942Z" style="stroke: rgb(68, 68, 68); stroke-opacity: 1; fill: rgb(0, 0, 0); fill-opacity: 0.2; stroke-width: 0; opacity: 1;"/><path class="sankey-link" d="M307.5,99.80017527078942C446.25,99.80017527078942 446.25,173.7741812183512 585,173.7741812183512L585,193.5756120476458C446.25,193.5756120476458 446.25,119.60160610008404 307.5,119.60160610008404Z" style="stroke: rgb(68, 68, 68); stroke-opacity: 1; fill: rgb(0, 0, 0); fill-opacity: 0.2; stroke-width: 0; opacity: 1;"/></g><g class="sankey-node-set" style="cursor: move;"><g class="sankey-node" transform="translate(292.500,282.088)" style="opacity: 1;"><rect class="node-rect" width="15" height="17.91207746627316" style="stroke-width: 0.5; stroke: rgb(0, 0, 0); stroke-opacity: 1; fill: rgb(219, 236, 255); fill-opacity: 1;"/><text class="node-label" data-notex="1" x="0" y="0" text-anchor="start" transform="translate(18.25,13.15603873313658)" style="cursor: default; font-family: Arial; font-size: 12px; fill: rgb(42, 63, 95); fill-opacity: 1; white-space: pre; text-shadow: white 1px 1px 1px, white -1px -1px 1px, white 1px -1px 1px, white -1px 1px 1px;">FDC</text></g><g class="sankey-node" transform="translate(292.500,190.051)" style="opacity: 1;"><rect class="node-rect" width="15" height="77.03713685330467" style="stroke-width: 0.5; stroke: rgb(0, 0, 0); stroke-opacity: 1; fill: rgb(220, 240, 203); fill-opacity: 1;"/><text class="node-label" data-notex="1" x="0" y="0" text-anchor="start" transform="translate(18.25,42.71856842665234)" style="cursor: default; font-family: Arial; font-size: 12px; fill: rgb(42, 63, 95); fill-opacity: 1; white-space: pre; text-shadow: white 1px 1px 1px, white -1px -1px 1px, white 1px -1px 1px, white -1px 1px 1px;">FoodAtlas</text></g><g class="sankey-node" transform="translate(292.500,134.602)" style="opacity: 1;"><rect class="node-rect" width="15" height="40.44917958033827" style="stroke-width: 0.5; stroke: rgb(0, 0, 0); stroke-opacity: 1; fill: rgb(255, 235, 156); fill-opacity: 1;"/><text class="node-label" data-notex="1" x="0" y="0" text-anchor="start" transform="translate(18.25,24.424589790169133)" style="cursor: default; font-family: Arial; font-size: 12px; fill: rgb(42, 63, 95); fill-opacity: 1; white-space: pre; text-shadow: white 1px 1px 1px, white -1px -1px 1px, white 1px -1px 1px, white -1px 1px 1px;">Frida</text></g><g class="sankey-node" transform="translate(292.500,0.000)" style="opacity: 1;"><rect class="node-rect" width="15" height="30.519703904837627" style="stroke-width: 0.5; stroke: rgb(0, 0, 0); stroke-opacity: 1; fill: rgb(72, 231, 151); fill-opacity: 1;"/><text class="node-label" data-notex="1" x="0" y="0" text-anchor="start" transform="translate(18.25,19.459851952418813)" style="cursor: default; font-family: Arial; font-size: 12px; fill: rgb(42, 63, 95); fill-opacity: 1; white-space: pre; text-shadow: white 1px 1px 1px, white -1px -1px 1px, white 1px -1px 1px, white -1px 1px 1px;">MeSH</text></g><g class="sankey-node" transform="translate(292.500,45.520)" style="opacity: 1;"><rect class="node-rect" width="15" height="20.93813239180531" style="stroke-width: 0.5; stroke: rgb(0, 0, 0); stroke-opacity: 1; fill: rgb(43, 233, 89); fill-opacity: 1;"/><text class="node-label" data-notex="1" x="0" y="0" text-anchor="start" transform="translate(18.25,14.669066195902655)" style="cursor: default; font-family: Arial; font-size: 12px; fill: rgb(42, 63, 95); fill-opacity: 1; white-space: pre; text-shadow: white 1px 1px 1px, white -1px -1px 1px, white 1px -1px 1px, white -1px 1px 1px;">NCBI_taxonomy</text></g><g class="sankey-node" transform="translate(292.500,81.458)" style="opacity: 1;"><rect class="node-rect" width="15" height="38.14376980344079" style="stroke-width: 0.5; stroke: rgb(0, 0, 0); stroke-opacity: 1; fill: rgb(127, 253, 233); fill-opacity: 1;"/><text class="node-label" data-notex="1" x="0" y="0" text-anchor="start" transform="translate(18.25,23.271884901720394)" style="cursor: default; font-family: Arial; font-size: 12px; fill: rgb(42, 63, 95); fill-opacity: 1; white-space: pre; text-shadow: white 1px 1px 1px, white -1px -1px 1px, white 1px -1px 1px, white -1px 1px 1px;">Phenol-Explorer</text></g><g class="sankey-node" transform="translate(0.000,275.716)" style="opacity: 1;"><rect class="node-rect" width="15" height="24.2836729529821" style="stroke-width: 0.5; stroke: rgb(0, 0, 0); stroke-opacity: 1; fill: rgb(102, 102, 102); fill-opacity: 1;"/><text class="node-label" data-notex="1" x="0" y="0" text-anchor="start" transform="translate(18.25,16.34183647649105)" style="cursor: default; font-family: Arial; font-size: 12px; fill: rgb(42, 63, 95); fill-opacity: 1; white-space: pre; text-shadow: white 1px 1px 1px, white -1px -1px 1px, white 1px -1px 1px, white -1px 1px 1px;">high</text></g><g class="sankey-node" transform="translate(0.000,216.742)" style="opacity: 1;"><rect class="node-rect" width="15" height="43.974005947561835" style="stroke-width: 0.5; stroke: rgb(0, 0, 0); stroke-opacity: 1; fill: rgb(230, 230, 230); fill-opacity: 1;"/><text class="node-label" data-notex="1" x="0" y="0" text-anchor="start" transform="translate(18.25,26.187002973780917)" style="cursor: default; font-family: Arial; font-size: 12px; fill: rgb(42, 63, 95); fill-opacity: 1; white-space: pre; text-shadow: white 1px 1px 1px, white -1px -1px 1px, white 1px -1px 1px, white -1px 1px 1px;">low</text></g><g class="sankey-node" transform="translate(0.000,73.672)" style="opacity: 1;"><rect class="node-rect" width="15" height="128.0707151643971" style="stroke-width: 0.5; stroke: rgb(0, 0, 0); stroke-opacity: 1; fill: rgb(179, 179, 179); fill-opacity: 1;"/><text class="node-label" data-notex="1" x="0" y="0" text-anchor="start" transform="translate(18.25,68.23535758219855)" style="cursor: default; font-family: Arial; font-size: 12px; fill: rgb(42, 63, 95); fill-opacity: 1; white-space: pre; text-shadow: white 1px 1px 1px, white -1px -1px 1px, white 1px -1px 1px, white -1px 1px 1px;">medium</text></g><g class="sankey-node" transform="translate(585.000,45.000)" style="opacity: 1;"><rect class="node-rect" width="15" height="113.77418121835137" style="stroke-width: 0.5; stroke: rgb(0, 0, 0); stroke-opacity: 1; fill: rgb(223, 239, 89); fill-opacity: 1;"/><text class="node-label" data-notex="1" x="0" y="0" text-anchor="end" transform="translate(-3.25,61.08709060917569)" style="cursor: default; font-family: Arial; font-size: 12px; fill: rgb(42, 63, 95); fill-opacity: 1; white-space: pre; text-shadow: white 1px 1px 1px, white -1px -1px 1px, white 1px -1px 1px, white -1px 1px 1px;">none</text></g><g class="sankey-node" transform="translate(585.000,173.774)" style="opacity: 1;"><rect class="node-rect" width="15" height="70.80542908213704" style="stroke-width: 0.5; stroke: rgb(0, 0, 0); stroke-opacity: 1; fill: rgb(253, 140, 128); fill-opacity: 1;"/><text class="node-label" data-notex="1" x="0" y="0" text-anchor="end" transform="translate(-3.25,39.60271454106852)" style="cursor: default; font-family: Arial; font-size: 12px; fill: rgb(42, 63, 95); fill-opacity: 1; white-space: pre; text-shadow: white 1px 1px 1px, white -1px -1px 1px, white 1px -1px 1px, white -1px 1px 1px;">pmid</text></g><g class="sankey-node" transform="translate(585.000,259.580)" style="opacity: 1;"><rect class="node-rect" width="15" height="40.42038969951176" style="stroke-width: 0.5; stroke: rgb(0, 0, 0); stroke-opacity: 1; fill: rgb(255, 99, 67); fill-opacity: 1;"/><text class="node-label" data-notex="1" x="0" y="0" text-anchor="end" transform="translate(-3.25,24.41019484975588)" style="cursor: default; font-family: Arial; font-size: 12px; fill: rgb(42, 63, 95); fill-opacity: 1; white-space: pre; text-shadow: white 1px 1px 1px, white -1px -1px 1px, white 1px -1px 1px, white -1px 1px 1px;">pmid &amp; pmcid</text></g></g></g><defs id="topdefs-8a1b1d"><g class="clips"/></defs><g class="layer-above"><g class="imagelayer"/><g class="shapelayer"/></g><g class="infolayer"><g class="g-gtitle"/><g class="first-render"/></g></svg>