<svg class="main-svg" xmlns="http://www.w3.org/2000/svg" xmlns:xlink="http://www.w3.org/1999/xlink" width="700" height="500" style="" viewBox="0 0 700 500"><rect x="0" y="0" width="700" height="500" style="fill: rgb(255, 255, 255); fill-opacity: 1;"/><defs id="defs-a83430"><g class="clips"/><g class="gradients"/><g class="patterns"/></defs><g class="bglayer"/><g class="layer-below"><g class="imagelayer"/><g class="shapelayer"/></g><g class="cartesianlayer"/><g class="polarlayer"/><g class="smithlayer"/><g class="ternarylayer"/><g class="geolayer"/><g class="funnelarealayer"/><g class="pielayer"/><g class="iciclelayer"/><g class="treemaplayer"/><g class="sunburstlayer"><g class="trace sunburst" stroke-linejoin="round" style="opacity: 1;"><g class="slice cursor-pointer"><path class="surface" d="M350,250L475,250A125,125 0,0,0 355.88296214889095,125.13851371878229L350,250A0,0 0,0,1 350,250Z" style="pointer-events: none; stroke-width: 1; fill: rgb(102, 197, 204); fill-opacity: 1; stroke: rgb(255, 255, 255); stroke-opacity: 1;"/><g class="slicetext"><text data-notex="1" class="slicetext" text-anchor="middle" x="0" y="0" style="font-family: Arial; font-size: 12px; fill: rgb(68, 68, 68); fill-opacity: 1; white-space: pre;" transform="translate(403.5089371307904,202.9528254114675)">Fruits</text></g></g><g class="slice cursor-pointer"><path class="surface" d="M350,250L355.88296214889095,125.13851371878229A125,125 0,0,0 232.2051487024847,208.17449333485294L350,250A0,0 0,0,1 350,250Z" style="pointer-events: none; stroke-width: 1; fill: rgb(246, 207, 113); fill-opacity: 1; stroke: rgb(255, 255, 255); stroke-opacity: 1;"/><g class="slicetext"><text data-notex="1" class="slicetext" text-anchor="middle" x="0" y="0" style="font-family: Arial; font-size: 12px; fill: rgb(68, 68, 68); fill-opacity: 1; white-space: pre;" transform="translate(306.33945263394037,188.96986418327953)">Vegetables</text></g></g><g class="slice cursor-pointer"><path class="surface" d="M350,250L232.2051487024847,208.17449333485294A125,125 0,0,0 274.2336845594257,349.4206489848029L350,250A0,0 0,0,1 350,250Z" style="pointer-events: none; stroke-width: 1; fill: rgb(248, 156, 116); fill-opacity: 1; stroke: rgb(255, 255, 255); stroke-opacity: 1;"/><g class="slicetext"><text data-notex="1" class="slicetext" text-anchor="middle" x="0" y="0" style="font-family: Arial; font-size: 12px; fill: rgb(68, 68, 68); fill-opacity: 1; white-space: pre;" transform="translate(250.9757746403312,279.4651786243934)rotate(73.42934994161146)">Herbs and Spices</text></g></g><g class="slice cursor-pointer"><path class="surface" d="M350,250L274.2336845594257,349.4206489848029A125,125 0,0,0 315.8180726820254,370.2355847693548L350,250A0,0 0,0,1 350,250Z" style="pointer-events: none; stroke-width: 1; fill: rgb(220, 176, 242); fill-opacity: 1; stroke: rgb(255, 255, 255); stroke-opacity: 1;"/><g class="slicetext"><text data-notex="1" class="slicetext" text-anchor="middle" x="0" y="0" style="font-family: Arial; font-size: 12px; fill: rgb(68, 68, 68); fill-opacity: 1; white-space: pre;" transform="translate(308.3774757774624,327.79598648486086)scale(0.6303582537904096)rotate(-63.409887115609195)"><tspan class="line" dy="0em" x="0" y="0">Cereals and cereal</tspan><tspan class="line" dy="1.3em" x="0" y="0">products</tspan></text></g></g><g class="slice cursor-pointer"><path class="surface" d="M350,250L315.8180726820254,370.2355847693548A125,125 0,0,0 361.5245914559467,374.46760137390584L350,250A0,0 0,0,1 350,250Z" style="pointer-events: none; stroke-width: 1; fill: rgb(135, 197, 95); fill-opacity: 1; stroke: rgb(255, 255, 255); stroke-opacity: 1;"/><g class="slicetext"><text data-notex="1" class="slicetext" text-anchor="middle" x="0" y="0" style="font-family: Arial; font-size: 12px; fill: rgb(68, 68, 68); fill-opacity: 1; white-space: pre;" transform="translate(345.358972832214,343.50939021177777)rotate(-84.71000389256517)">Pulses</text></g></g><g class="slice cursor-pointer"><path class="surface" d="M350,250L361.5245914559467,374.46760137390584A125,125 0,0,0 403.75294259380473,362.8522093824801L350,250A0,0 0,0,1 350,250Z" style="pointer-events: none; stroke-width: 1; fill: rgb(158, 185, 243); fill-opacity: 1; stroke: rgb(255, 255, 255); stroke-opacity: 1;"/><g class="slicetext"><text data-notex="1" class="slicetext" text-anchor="middle" x="0" y="0" style="font-family: Arial; font-size: 12px; fill: rgb(68, 68, 68); fill-opacity: 1; white-space: pre;" transform="translate(369.42626322134805,335.70747049872966)rotate(74.62047489295446)">Unknown</text></g></g><g class="slice cursor-pointer"><path class="surface" d="M350,250L403.75294259380473,362.8522093824801A125,125 0,0,0 438.09060414209955,338.6850915423777L350,250A0,0 0,0,1 350,250Z" style="pointer-events: none; stroke-width: 1; fill: rgb(254, 136, 177); fill-opacity: 1; stroke: rgb(255, 255, 255); stroke-opacity: 1;"/><g class="slicetext"><text data-notex="1" class="slicetext" text-anchor="middle" x="0" y="0" style="font-family: Arial; font-size: 12px; fill: rgb(68, 68, 68); fill-opacity: 1; white-space: pre;" transform="translate(394.7443680107444,320.2830729807089)scale(0.9652534815110123)rotate(54.861813935383395)">Aquatic foods</text></g></g><g class="slice cursor-pointer"><path class="surface" d="M350,250L438.09060414209955,338.6850915423777A125,125 0,0,0 461.1214067609527,307.24537500503334L350,250A0,0 0,0,1 350,250Z" style="pointer-events: none; stroke-width: 1; fill: rgb(201, 219, 116); fill-opacity: 1; stroke: rgb(255, 255, 255); stroke-opacity: 1;"/><g class="slicetext"><text data-notex="1" class="slicetext" text-anchor="middle" x="0" y="0" style="font-family: Arial; font-size: 12px; fill: rgb(68, 68, 68); fill-opacity: 1; white-space: pre;" transform="translate(437.2390565166822,317.9059671197784)">Nuts</text></g></g><g class="slice cursor-pointer"><path class="surface" d="M350,250L461.1214067609527,307.24537500503334A125,125 0,0,0 469.1113879664154,287.91407728949855L350,250A0,0 0,0,1 350,250Z" style="pointer-events: none; stroke-width: 1; fill: rgb(139, 224, 164); fill-opacity: 1; stroke: rgb(255, 255, 255); stroke-opacity: 1;"/><g class="slicetext"><text data-notex="1" class="slicetext" text-anchor="middle" x="0" y="0" style="font-family: Arial; font-size: 12px; fill: rgb(68, 68, 68); fill-opacity: 1; white-space: pre;" transform="translate(444.2838229937079,293.03881593169484)scale(0.9402468540571055)rotate(22.456208641494754)">Gourds</text></g></g><g class="slice cursor-pointer"><path class="surface" d="M350,250L469.1113879664154,287.91407728949855A125,125 0,0,0 473.14641071011295,271.4467137160029L350,250A0,0 0,0,1 350,250Z" style="pointer-events: none; stroke-width: 1; fill: rgb(180, 151, 231); fill-opacity: 1; stroke: rgb(255, 255, 255); stroke-opacity: 1;"/><g class="slicetext"><text data-notex="1" class="slicetext" text-anchor="middle" x="0" y="0" style="font-family: Arial; font-size: 12px; fill: rgb(68, 68, 68); fill-opacity: 1; white-space: pre;" transform="translate(444.73656778421747,275.9343674182128)scale(0.6606862540197834)rotate(13.768003114052135)">Animal foods</text></g></g><g class="slice cursor-pointer"><path class="surface" d="M350,250L473.14641071011295,271.4467137160029A125,125 0,0,0 474.0477694030268,265.3997047417635L350,250A0,0 0,0,1 350,250Z" style="pointer-events: none; stroke-width: 1; fill: rgb(179, 179, 179); fill-opacity: 1; stroke: rgb(255, 255, 255); stroke-opacity: 1;"/><g class="slicetext"><text data-notex="1" class="slicetext" text-anchor="middle" x="0" y="0" style="font-family: Arial; font-size: 12px; fill: rgb(68, 68, 68); fill-opacity: 1; white-space: pre;" transform="translate(468.96231254904967,269.293715069462)scale(0.3860743941851564)rotate(8.47800700661736)">Soy</text></g></g><g class="slice cursor-pointer"><path class="surface" d="M350,250L474.0477694030268,265.3997047417635A125,125 0,0,0 474.64089051352084,259.4682845329292L350,250A0,0 0,0,1 350,250Z" style="pointer-events: none; stroke-width: 1; fill: rgb(179, 226, 230); fill-opacity: 1; stroke: rgb(255, 255, 255); stroke-opacity: 1;"/><g class="slicetext"><text data-notex="1" class="slicetext" text-anchor="middle" x="0" y="0" style="font-family: Arial; font-size: 12px; fill: rgb(68, 68, 68); fill-opacity: 1; white-space: pre;" transform="translate(469.3271571062786,263.4292342345972)scale(0.37237767262927407)rotate(5.710393149085235)">Teas</text></g></g><g class="slice cursor-pointer"><path class="surface" d="M350,250L474.64089051352084,259.4682845329292A125,125 0,0,0 474.931869805755,254.12648843908187L350,250A0,0 0,0,1 350,250Z" style="pointer-events: none; stroke-width: 1; fill: rgb(252, 239, 209); fill-opacity: 1; stroke: rgb(255, 255, 255); stroke-opacity: 1;"/><g class="slicetext"><text data-notex="1" class="slicetext" text-anchor="middle" x="0" y="0" style="font-family: Arial; font-size: 12px; fill: rgb(68, 68, 68); fill-opacity: 1; white-space: pre;" transform="translate(466.66876285550165,255.78544165972434)scale(0.1495305642667391)rotate(3.117944725574091)"><tspan class="line" dy="0em" x="0" y="0">Coffee and coffee</tspan><tspan class="line" dy="1.3em" x="0" y="0">products</tspan></text></g></g><g class="slice cursor-pointer"><path class="surface" d="M350,250L474.931869805755,254.12648843908187A125,125 0,0,0 474.9996261379965,250.30572105114146L350,250A0,0 0,0,1 350,250Z" style="pointer-events: none; stroke-width: 1; fill: rgb(253, 225, 213); fill-opacity: 1; stroke: rgb(255, 255, 255); stroke-opacity: 1;"/><g class="slicetext"><text data-notex="1" class="slicetext" text-anchor="middle" x="0" y="0" style="font-family: Arial; font-size: 12px; fill: rgb(68, 68, 68); fill-opacity: 1; white-space: pre;" transform="translate(469.02186978272897,251.68770482714282)scale(0.11115932252007495)rotate(1.0159595173219031)"><tspan class="line" dy="0em" x="0" y="0">Cocoa and cocoa</tspan><tspan class="line" dy="1.3em" x="0" y="0">products</tspan></text></g></g><g class="slice cursor-pointer"><path class="surface" d="M350,250L474.9996261379965,250.30572105114146A125,125 0,0,0 475,249.99999999999991L350,250A0,0 0,0,1 350,250Z" style="pointer-events: none; stroke-width: 1; fill: rgb(255, 255, 255); fill-opacity: 1; stroke: rgb(255, 255, 255); stroke-opacity: 1;"/><g class="slicetext"><text data-notex="1" class="slicetext" text-anchor="middle" x="0" y="0" style="font-family: Arial; font-size: 12px; fill: rgb(68, 68, 68); fill-opacity: 1; white-space: pre;" transform="translate(473.89497824048584,250.23319583454293)scale(0.020421583743563836)rotate(0.07006617360838163)">Herbs and spices</text></g></g><g class="slice"><path class="surface" d="M475,250L600,250A250,250 0,0,0 552.218302844012,103.00422456788951L451.109151422006,176.50211228394477A125,125 0,0,1 475,250Z" style="pointer-events: none; stroke-width: 1; fill: rgb(102, 197, 204); fill-opacity: 1; stroke: rgb(255, 255, 255); stroke-opacity: 1; opacity: 0.7;"/><g class="slicetext"><text data-notex="1" class="slicetext" text-anchor="middle" x="0" y="0" style="font-family: Arial; font-size: 12px; fill: rgb(68, 68, 68); fill-opacity: 1; white-space: pre;" transform="translate(532.1122780054109,194.96603904462927)">Tropical fruits</text></g></g><g class="slice"><path class="surface" d="M451.109151422006,176.50211228394477L552.218302844012,103.00422456788951A250,250 0,0,0 474.0279509734894,32.93533825765718L412.0139754867447,141.4676691288286A125,125 0,0,1 451.109151422006,176.50211228394477Z" style="pointer-events: none; stroke-width: 1; fill: rgb(102, 197, 204); fill-opacity: 1; stroke: rgb(255, 255, 255); stroke-opacity: 1; opacity: 0.7;"/><g class="slicetext"><text data-notex="1" class="slicetext" text-anchor="middle" x="0" y="0" style="font-family: Arial; font-size: 12px; fill: rgb(68, 68, 68); fill-opacity: 1; white-space: pre;" transform="translate(487.888485864094,100.12929081145347)">Berries</text></g></g><g class="slice"><path class="surface" d="M412.0139754867447,141.4676691288286L474.0279509734894,32.93533825765718A250,250 0,0,0 435.80820884197556,15.187412400161321L392.9041044209878,132.59370620008065A125,125 0,0,1 412.0139754867447,141.4676691288286Z" style="pointer-events: none; stroke-width: 1; fill: rgb(102, 197, 204); fill-opacity: 1; stroke: rgb(255, 255, 255); stroke-opacity: 1; opacity: 0.7;"/><g class="slicetext"><text data-notex="1" class="slicetext" text-anchor="middle" x="0" y="0" style="font-family: Arial; font-size: 12px; fill: rgb(68, 68, 68); fill-opacity: 1; white-space: pre;" transform="translate(440.7852379623868,63.99345444628375)rotate(-65.09147528221092)">Drupes</text></g></g><g class="slice"><path class="surface" d="M392.9041044209878,132.59370620008065L435.80820884197556,15.187412400161321A250,250 0,0,0 398.45395198055155,4.740515907200006L374.2269759902758,127.3702579536A125,125 0,0,1 392.9041044209878,132.59370620008065Z" style="pointer-events: none; stroke-width: 1; fill: rgb(102, 197, 204); fill-opacity: 1; stroke: rgb(255, 255, 255); stroke-opacity: 1; opacity: 0.7;"/><g class="slicetext"><text data-notex="1" class="slicetext" text-anchor="middle" x="0" y="0" style="font-family: Arial; font-size: 12px; fill: rgb(68, 68, 68); fill-opacity: 1; white-space: pre;" transform="translate(411.66609703620964,44.35607335680981)rotate(-74.37524328532504)">Citrus</text></g></g><g class="slice"><path class="surface" d="M374.2269759902758,127.3702579536L398.45395198055155,4.740515907200006A250,250 0,0,0 373.353584832482,1.0931698898721152L361.676792416241,125.54658494493606A125,125 0,0,1 374.2269759902758,127.3702579536Z" style="pointer-events: none; stroke-width: 1; fill: rgb(102, 197, 204); fill-opacity: 1; stroke: rgb(255, 255, 255); stroke-opacity: 1; opacity: 0.7;"/><g class="slicetext"><text data-notex="1" class="slicetext" text-anchor="middle" x="0" y="0" style="font-family: Arial; font-size: 12px; fill: rgb(68, 68, 68); fill-opacity: 1; white-space: pre;" transform="translate(385.9186761589941,30.63062052323722)rotate(-81.7321915142079)">Pomes</text></g></g><g class="slice"><path class="surface" d="M361.676792416241,125.54658494493606L373.353584832482,1.0931698898721152A250,250 0,0,0 361.76592429778185,0.27702743756458403L355.88296214889095,125.13851371878229A125,125 0,0,1 361.676792416241,125.54658494493606Z" style="pointer-events: none; stroke-width: 1; fill: rgb(102, 197, 204); fill-opacity: 1; stroke: rgb(255, 255, 255); stroke-opacity: 1; opacity: 0.7;"/><g class="slicetext"><text data-notex="1" class="slicetext" text-anchor="middle" x="0" y="0" style="font-family: Arial; font-size: 12px; fill: rgb(68, 68, 68); fill-opacity: 1; white-space: pre;" transform="translate(368.55414415267126,24.082913045322762)scale(0.6589538822405091)rotate(-85.9711950175165)">Other fruits</text></g></g><g class="slice"><path class="surface" d="M355.88296214889095,125.13851371878229L361.76592429778185,0.27702743756458403A250,250 0,0,0 306.3538044404499,3.8394637372238662L328.176902220225,126.91973186861193A125,125 0,0,1 355.88296214889095,125.13851371878229Z" style="pointer-events: none; stroke-width: 1; fill: rgb(246, 207, 113); fill-opacity: 1; stroke: rgb(255, 255, 255); stroke-opacity: 1; opacity: 0.7;"/><g class="slicetext"><text data-notex="1" class="slicetext" text-anchor="middle" x="0" y="0" style="font-family: Arial; font-size: 12px; fill: rgb(68, 68, 68); fill-opacity: 1; white-space: pre;" transform="translate(333.9841571149485,63.2273293945429)rotate(86.32152588555857)">Root vegetables</text></g></g><g class="slice"><path class="surface" d="M328.176902220225,126.91973186861193L306.3538044404499,3.8394637372238662A250,250 0,0,0 254.78831127286378,18.8404569788932L302.3941556364319,134.4202284894466A125,125 0,0,1 328.176902220225,126.91973186861193Z" style="pointer-events: none; stroke-width: 1; fill: rgb(246, 207, 113); fill-opacity: 1; stroke: rgb(255, 255, 255); stroke-opacity: 1; opacity: 0.7;"/><g class="slicetext"><text data-notex="1" class="slicetext" text-anchor="middle" x="0" y="0" style="font-family: Arial; font-size: 12px; fill: rgb(68, 68, 68); fill-opacity: 1; white-space: pre;" transform="translate(293.8076770743088,71.16036302183801)rotate(73.77968080965354)">Fruit vegetables</text></g></g><g class="slice"><path class="surface" d="M302.3941556364319,134.4202284894466L254.78831127286378,18.8404569788932A250,250 0,0,0 213.4516030804641,40.58525529775872L281.72580154023206,145.29262764887937A125,125 0,0,1 302.3941556364319,134.4202284894466Z" style="pointer-events: none; stroke-width: 1; fill: rgb(246, 207, 113); fill-opacity: 1; stroke: rgb(255, 255, 255); stroke-opacity: 1; opacity: 0.7;"/><g class="slicetext"><text data-notex="1" class="slicetext" text-anchor="middle" x="0" y="0" style="font-family: Arial; font-size: 12px; fill: rgb(68, 68, 68); fill-opacity: 1; white-space: pre;" transform="translate(259.20841412974045,85.99771492521643)rotate(62.253795251070414)">Leaf vegetables</text></g></g><g class="slice"><path class="surface" d="M281.72580154023206,145.29262764887937L213.4516030804641,40.58525529775872A250,250 0,0,0 180.89280894885064,65.87298423427902L265.4464044744253,157.9364921171395A125,125 0,0,1 281.72580154023206,145.29262764887937Z" style="pointer-events: none; stroke-width: 1; fill: rgb(246, 207, 113); fill-opacity: 1; stroke: rgb(255, 255, 255); stroke-opacity: 1; opacity: 0.7;"/><g class="slicetext"><text data-notex="1" class="slicetext" text-anchor="middle" x="0" y="0" style="font-family: Arial; font-size: 12px; fill: rgb(68, 68, 68); fill-opacity: 1; white-space: pre;" transform="translate(225.1361495345748,95.7546625780083)rotate(52.16426625145971)">Cabbages</text></g></g><g class="slice"><path class="surface" d="M265.4464044744253,157.9364921171395L180.89280894885064,65.87298423427902A250,250 0,0,0 159.69514410140653,87.87639955448935L254.84757205070326,168.93819977724468A125,125 0,0,1 265.4464044744253,157.9364921171395Z" style="pointer-events: none; stroke-width: 1; fill: rgb(246, 207, 113); fill-opacity: 1; stroke: rgb(255, 255, 255); stroke-opacity: 1; opacity: 0.7;"/><g class="slicetext"><text data-notex="1" class="slicetext" text-anchor="middle" x="0" y="0" style="font-family: Arial; font-size: 12px; fill: rgb(68, 68, 68); fill-opacity: 1; white-space: pre;" transform="translate(209.91551417258066,120.59956005550796)rotate(43.93149085247171)">Other vegetables</text></g></g><g class="slice"><path class="surface" d="M254.84757205070326,168.93819977724468L159.69514410140653,87.87639955448935A250,250 0,0,0 141.33984603257815,112.3012703533841L245.6699230162891,181.15063517669205A125,125 0,0,1 254.84757205070326,168.93819977724468Z" style="pointer-events: none; stroke-width: 1; fill: rgb(246, 207, 113); fill-opacity: 1; stroke: rgb(255, 255, 255); stroke-opacity: 1; opacity: 0.7;"/><g class="slicetext"><text data-notex="1" class="slicetext" text-anchor="middle" x="0" y="0" style="font-family: Arial; font-size: 12px; fill: rgb(68, 68, 68); fill-opacity: 1; white-space: pre;" transform="translate(174.2172143520399,122.9027844889081)rotate(36.92487349163093)">Tubers</text></g></g><g class="slice"><path class="surface" d="M245.6699230162891,181.15063517669205L141.33984603257815,112.3012703533841A250,250 0,0,0 131.9563381429671,127.7013429183464L240.97816907148353,188.8506714591732A125,125 0,0,1 245.6699230162891,181.15063517669205Z" style="pointer-events: none; stroke-width: 1; fill: rgb(246, 207, 113); fill-opacity: 1; stroke: rgb(255, 255, 255); stroke-opacity: 1; opacity: 0.7;"/><g class="slicetext"><text data-notex="1" class="slicetext" text-anchor="middle" x="0" y="0" style="font-family: Arial; font-size: 12px; fill: rgb(68, 68, 68); fill-opacity: 1; white-space: pre;" transform="translate(172.11283943974965,145.44531100649274)scale(0.8186887299852091)rotate(31.35461268976246)">Shoot vegetables</text></g></g><g class="slice"><path class="surface" d="M240.97816907148353,188.8506714591732L131.9563381429671,127.7013429183464A250,250 0,0,0 124.62530395149119,141.804591682261L237.3126519757456,195.9022958411305A125,125 0,0,1 240.97816907148353,188.8506714591732Z" style="pointer-events: none; stroke-width: 1; fill: rgb(246, 207, 113); fill-opacity: 1; stroke: rgb(255, 255, 255); stroke-opacity: 1; opacity: 0.7;"/><g class="slicetext"><text data-notex="1" class="slicetext" text-anchor="middle" x="0" y="0" style="font-family: Arial; font-size: 12px; fill: rgb(68, 68, 68); fill-opacity: 1; white-space: pre;" transform="translate(153.15175474097558,151.47989937301793)scale(0.8437920064887843)rotate(27.46594005449583)">Mushrooms</text></g></g><g class="slice"><path class="surface" d="M237.3126519757456,195.9022958411305L124.62530395149119,141.804591682261A250,250 0,0,0 118.55045523836469,155.49545921157141L234.27522761918235,202.7477296057857A125,125 0,0,1 237.3126519757456,195.9022958411305Z" style="pointer-events: none; stroke-width: 1; fill: rgb(246, 207, 113); fill-opacity: 1; stroke: rgb(255, 255, 255); stroke-opacity: 1; opacity: 0.7;"/><g class="slicetext"><text data-notex="1" class="slicetext" text-anchor="middle" x="0" y="0" style="font-family: Arial; font-size: 12px; fill: rgb(68, 68, 68); fill-opacity: 1; white-space: pre;" transform="translate(137.27960504799708,153.82832017849896)scale(0.42868560489879914)rotate(23.92759828727128)"><tspan class="line" dy="0em" x="0" y="0">Onion-family</tspan><tspan class="line" dy="1.3em" x="0" y="0">vegetables</tspan></text></g></g><g class="slice"><path class="surface" d="M234.27522761918235,202.7477296057857L118.55045523836469,155.49545921157141A250,250 0,0,0 114.41029740496938,166.348986669706L232.20514870248468,208.174493334853A125,125 0,0,1 234.27522761918235,202.7477296057857Z" style="pointer-events: none; stroke-width: 1; fill: rgb(246, 207, 113); fill-opacity: 1; stroke: rgb(255, 255, 255); stroke-opacity: 1; opacity: 0.7;"/><g class="slicetext"><text data-notex="1" class="slicetext" text-anchor="middle" x="0" y="0" style="font-family: Arial; font-size: 12px; fill: rgb(68, 68, 68); fill-opacity: 1; white-space: pre;" transform="translate(144.46973076729256,174.20864329950845)scale(0.6095749411404207)rotate(20.87971973530557)">Stalk vegetables</text></g></g><g class="slice"><path class="surface" d="M232.2051487024847,208.17449333485294L114.41029740496941,166.34898666970588A250,250 0,0,0 107.36619743252294,310.2398360858208L228.68309871626147,280.1199180429104A125,125 0,0,1 232.2051487024847,208.17449333485294Z" style="pointer-events: none; stroke-width: 1; fill: rgb(248, 156, 116); fill-opacity: 1; stroke: rgb(255, 255, 255); stroke-opacity: 1; opacity: 0.7;"/><g class="slicetext"><text data-notex="1" class="slicetext" text-anchor="middle" x="0" y="0" style="font-family: Arial; font-size: 12px; fill: rgb(68, 68, 68); fill-opacity: 1; white-space: pre;" transform="translate(156.1518008345812,244.51026455163174)">Herbs</text></g></g><g class="slice"><path class="surface" d="M228.68309871626147,280.1199180429104L107.36619743252294,310.2398360858208A250,250 0,0,0 146.5308085145606,395.25938219702573L248.2654042572803,322.62969109851286A125,125 0,0,1 228.68309871626147,280.1199180429104Z" style="pointer-events: none; stroke-width: 1; fill: rgb(248, 156, 116); fill-opacity: 1; stroke: rgb(255, 255, 255); stroke-opacity: 1; opacity: 0.7;"/><g class="slicetext"><text data-notex="1" class="slicetext" text-anchor="middle" x="0" y="0" style="font-family: Arial; font-size: 12px; fill: rgb(68, 68, 68); fill-opacity: 1; white-space: pre;" transform="translate(158.7401709526442,342.10464373050206)">Spices</text></g></g><g class="slice"><path class="surface" d="M248.2654042572803,322.62969109851286L146.5308085145606,395.25938219702573A250,250 0,0,0 180.89280894885067,434.127015765721L265.4464044744253,342.0635078828605A125,125 0,0,1 248.2654042572803,322.62969109851286Z" style="pointer-events: none; stroke-width: 1; fill: rgb(248, 156, 116); fill-opacity: 1; stroke: rgb(255, 255, 255); stroke-opacity: 1; opacity: 0.7;"/><g class="slicetext"><text data-notex="1" class="slicetext" text-anchor="middle" x="0" y="0" style="font-family: Arial; font-size: 12px; fill: rgb(68, 68, 68); fill-opacity: 1; white-space: pre;" transform="translate(212.26430066953645,377.10808628942647)rotate(-41.4791747761775)">Oilseed crops</text></g></g><g class="slice"><path class="surface" d="M265.4464044744253,342.0635078828605L180.89280894885067,434.127015765721A250,250 0,0,0 198.46736911885134,448.84129796960576L274.2336845594257,349.4206489848029A125,125 0,0,1 265.4464044744253,342.0635078828605Z" style="pointer-events: none; stroke-width: 1; fill: rgb(248, 156, 116); fill-opacity: 1; stroke: rgb(255, 255, 255); stroke-opacity: 1; opacity: 0.7;"/><g class="slicetext"><text data-notex="1" class="slicetext" text-anchor="middle" x="0" y="0" style="font-family: Arial; font-size: 12px; fill: rgb(68, 68, 68); fill-opacity: 1; white-space: pre;" transform="translate(218.37483404114855,413.4424723986941)rotate(-50.06228104320746)">Other seeds</text></g></g><g class="slice"><path class="surface" d="M274.2336845594257,349.4206489848029L198.46736911885134,448.84129796960576A250,250 0,0,0 281.6361453640508,490.4711695387096L315.8180726820254,370.2355847693548A125,125 0,0,1 274.2336845594257,349.4206489848029Z" style="pointer-events: none; stroke-width: 1; fill: rgb(220, 176, 242); fill-opacity: 1; stroke: rgb(255, 255, 255); stroke-opacity: 1; opacity: 0.7;"/><g class="slicetext"><text data-notex="1" class="slicetext" text-anchor="middle" x="0" y="0" style="font-family: Arial; font-size: 12px; fill: rgb(68, 68, 68); fill-opacity: 1; white-space: pre;" transform="translate(255.6491665241827,442.4954976349752)">Cereals</text></g></g><g class="slice"><path class="surface" d="M315.8180726820254,370.2355847693548L281.6361453640508,490.4711695387096A250,250 0,0,0 326.9508170881063,498.9352027478116L338.47540854405315,374.46760137390584A125,125 0,0,1 315.8180726820254,370.2355847693548Z" style="pointer-events: none; stroke-width: 1; fill: rgb(135, 197, 95); fill-opacity: 1; stroke: rgb(255, 255, 255); stroke-opacity: 1; opacity: 0.7;"/><g class="slicetext"><text data-notex="1" class="slicetext" text-anchor="middle" x="0" y="0" style="font-family: Arial; font-size: 12px; fill: rgb(68, 68, 68); fill-opacity: 1; white-space: pre;" transform="translate(307.9727508417774,479.0051425863909)">Beans</text></g></g><g class="slice"><path class="surface" d="M338.47540854405315,374.46760137390584L326.9508170881063,498.9352027478116A250,250 0,0,0 361.46053299310864,499.7371742122383L355.73026649655435,374.86858710611915A125,125 0,0,1 338.47540854405315,374.46760137390584Z" style="pointer-events: none; stroke-width: 1; fill: rgb(135, 197, 95); fill-opacity: 1; stroke: rgb(255, 255, 255); stroke-opacity: 1; opacity: 0.7;"/><g class="slicetext"><text data-notex="1" class="slicetext" text-anchor="middle" x="0" y="0" style="font-family: Arial; font-size: 12px; fill: rgb(68, 68, 68); fill-opacity: 1; white-space: pre;" transform="translate(344.5669070963718,487.7919750345795)">Peas</text></g></g><g class="slice"><path class="surface" d="M355.73026649655435,374.86858710611915L361.46053299310864,499.7371742122383A250,250 0,0,0 367.8694481744191,499.3605478457684L358.9347240872096,374.6802739228842A125,125 0,0,1 355.73026649655435,374.86858710611915Z" style="pointer-events: none; stroke-width: 1; fill: rgb(135, 197, 95); fill-opacity: 1; stroke: rgb(255, 255, 255); stroke-opacity: 1; opacity: 0.7;"/><g class="slicetext"><text data-notex="1" class="slicetext" text-anchor="middle" x="0" y="0" style="font-family: Arial; font-size: 12px; fill: rgb(68, 68, 68); fill-opacity: 1; white-space: pre;" transform="translate(362.507712308425,491.31874020451676)scale(0.4176861242953555)rotate(86.63682366679643)">Lentils</text></g></g><g class="slice"><path class="surface" d="M358.9347240872096,374.6802739228842L367.8694481744191,499.3605478457684A250,250 0,0,0 373.04918291189335,498.9352027478117L361.5245914559467,374.46760137390584A125,125 0,0,1 358.9347240872096,374.6802739228842Z" style="pointer-events: none; stroke-width: 1; fill: rgb(135, 197, 95); fill-opacity: 1; stroke: rgb(255, 255, 255); stroke-opacity: 1; opacity: 0.7;"/><g class="slicetext"><text data-notex="1" class="slicetext" text-anchor="middle" x="0" y="0" style="font-family: Arial; font-size: 12px; fill: rgb(68, 68, 68); fill-opacity: 1; white-space: pre;" transform="translate(368.12415491482415,486.6234394382)scale(0.3255765122844522)rotate(85.30556636823667)">Other pulses</text></g></g><g class="slice"><path class="surface" d="M361.5245914559467,374.46760137390584L373.04918291189335,498.9352027478117A250,250 0,0,0 457.50588518760946,475.7044187649602L403.75294259380473,362.8522093824801A125,125 0,0,1 361.5245914559467,374.46760137390584Z" style="pointer-events: none; stroke-width: 1; fill: rgb(158, 185, 243); fill-opacity: 1; stroke: rgb(255, 255, 255); stroke-opacity: 1; opacity: 0.7;"/><g class="slicetext"><text data-notex="1" class="slicetext" text-anchor="middle" x="0" y="0" style="font-family: Arial; font-size: 12px; fill: rgb(68, 68, 68); fill-opacity: 1; white-space: pre;" transform="translate(406.4190255734014,459.1142505158758)">Unknown</text></g></g><g class="slice"><path class="surface" d="M403.75294259380473,362.8522093824801L457.50588518760946,475.7044187649602A250,250 0,0,0 509.9018600277727,442.17542808501446L429.95093001388636,346.08771404250723A125,125 0,0,1 403.75294259380473,362.8522093824801Z" style="pointer-events: none; stroke-width: 1; fill: rgb(254, 136, 177); fill-opacity: 1; stroke: rgb(255, 255, 255); stroke-opacity: 1; opacity: 0.7;"/><g class="slicetext"><text data-notex="1" class="slicetext" text-anchor="middle" x="0" y="0" style="font-family: Arial; font-size: 12px; fill: rgb(68, 68, 68); fill-opacity: 1; white-space: pre;" transform="translate(469.8412061423005,441.2766431231253)">Fishes</text></g></g><g class="slice"><path class="surface" d="M429.95093001388636,346.08771404250723L509.9018600277727,442.17542808501446A250,250 0,0,0 515.013559242594,437.8044868103287L432.506779621297,343.9022434051643A125,125 0,0,1 429.95093001388636,346.08771404250723Z" style="pointer-events: none; stroke-width: 1; fill: rgb(254, 136, 177); fill-opacity: 1; stroke: rgb(255, 255, 255); stroke-opacity: 1; opacity: 0.7;"/><g class="slicetext"><text data-notex="1" class="slicetext" text-anchor="middle" x="0" y="0" style="font-family: Arial; font-size: 12px; fill: rgb(68, 68, 68); fill-opacity: 1; white-space: pre;" transform="translate(504.0385765168979,432.77692811017124)scale(0.4277772195982559)rotate(49.46671856753602)">Mollusks</text></g></g><g class="slice"><path class="surface" d="M432.506779621297,343.9022434051643L515.013559242594,437.8044868103287A250,250 0,0,0 518.6563532306956,434.540062086591L434.3281766153478,342.2700310432955A125,125 0,0,1 432.506779621297,343.9022434051643Z" style="pointer-events: none; stroke-width: 1; fill: rgb(254, 136, 177); fill-opacity: 1; stroke: rgb(255, 255, 255); stroke-opacity: 1; opacity: 0.7;"/><g class="slicetext"><text data-notex="1" class="slicetext" text-anchor="middle" x="0" y="0" style="font-family: Arial; font-size: 12px; fill: rgb(68, 68, 68); fill-opacity: 1; white-space: pre;" transform="translate(508.0969448274631,428.2737783574627)scale(0.3090449975598334)rotate(48.135461268976314)">Crustaceans</text></g></g><g class="slice"><path class="surface" d="M434.3281766153478,342.2700310432955L518.6563532306956,434.540062086591A250,250 0,0,0 521.5686453525459,431.8356398836387L435.78432267627295,340.91781994181935A125,125 0,0,1 434.3281766153478,342.2700310432955Z" style="pointer-events: none; stroke-width: 1; fill: rgb(254, 136, 177); fill-opacity: 1; stroke: rgb(255, 255, 255); stroke-opacity: 1; opacity: 0.7;"/><g class="slicetext"><text data-notex="1" class="slicetext" text-anchor="middle" x="0" y="0" style="font-family: Arial; font-size: 12px; fill: rgb(68, 68, 68); fill-opacity: 1; white-space: pre;" transform="translate(514.0953357024573,428.23623783181495)scale(0.25994818996394986)rotate(47.11950175165441)">Pinnipeds</text></g></g><g class="slice"><path class="surface" d="M435.78432267627295,340.91781994181935L521.5686453525459,431.8356398836387A250,250 0,0,0 523.7794030198729,429.7240080959041L436.88970150993646,339.86200404795204A125,125 0,0,1 435.78432267627295,340.91781994181935Z" style="pointer-events: none; stroke-width: 1; fill: rgb(254, 136, 177); fill-opacity: 1; stroke: rgb(255, 255, 255); stroke-opacity: 1; opacity: 0.7;"/><g class="slicetext"><text data-notex="1" class="slicetext" text-anchor="middle" x="0" y="0" style="font-family: Arial; font-size: 12px; fill: rgb(68, 68, 68); fill-opacity: 1; white-space: pre;" transform="translate(518.1965919618433,427.27088248009034)scale(0.20353016293615608)rotate(46.31374075515771)">Seaweed</text></g></g><g class="slice"><path class="surface" d="M436.88970150993646,339.86200404795204L523.7794030198729,429.7240080959041A250,250 0,0,0 525.3114903425649,428.22985539428794L437.65574517128243,339.11492769714397A125,125 0,0,1 436.88970150993646,339.86200404795204Z" style="pointer-events: none; stroke-width: 1; fill: rgb(254, 136, 177); fill-opacity: 1; stroke: rgb(255, 255, 255); stroke-opacity: 1; opacity: 0.7;"/><g class="slicetext"><text data-notex="1" class="slicetext" text-anchor="middle" x="0" y="0" style="font-family: Arial; font-size: 12px; fill: rgb(68, 68, 68); fill-opacity: 1; white-space: pre;" transform="translate(520.9462915805188,426.10991557028154)scale(0.14374243454735583)rotate(45.71817827948621)">Cetaceans</text></g></g><g class="slice"><path class="surface" d="M437.65574517128243,339.11492769714397L525.3114903425649,428.22985539428794A250,250 0,0,0 526.181208284199,427.3701830847555L438.0906041420995,338.6850915423778A125,125 0,0,1 437.65574517128243,339.11492769714397Z" style="pointer-events: none; stroke-width: 1; fill: rgb(254, 136, 177); fill-opacity: 1; stroke: rgb(255, 255, 255); stroke-opacity: 1; opacity: 0.7;"/><g class="slicetext"><text data-notex="1" class="slicetext" text-anchor="middle" x="0" y="0" style="font-family: Arial; font-size: 12px; fill: rgb(68, 68, 68); fill-opacity: 1; white-space: pre;" transform="translate(522.0057828380507,424.4814657217409)scale(0.08184937033251823)rotate(45.33281432463991)">Other aquatic foods</text></g></g><g class="slice"><path class="surface" d="M438.09060414209955,338.6850915423777L526.1812082841991,427.37018308475535A250,250 0,0,0 572.2428135219054,364.4907500100667L461.1214067609527,307.24537500503334A125,125 0,0,1 438.09060414209955,338.6850915423777Z" style="pointer-events: none; stroke-width: 1; fill: rgb(201, 219, 116); fill-opacity: 1; stroke: rgb(255, 255, 255); stroke-opacity: 1; opacity: 0.7;"/><g class="slicetext"><text data-notex="1" class="slicetext" text-anchor="middle" x="0" y="0" style="font-family: Arial; font-size: 12px; fill: rgb(68, 68, 68); fill-opacity: 1; white-space: pre;" transform="translate(524.4781130333644,381.81193423955676)">Nuts</text></g></g><g class="slice"><path class="surface" d="M461.1214067609527,307.24537500503334L572.2428135219054,364.4907500100667A250,250 0,0,0 588.2227759328308,325.8281545789971L469.1113879664154,287.91407728949855A125,125 0,0,1 461.1214067609527,307.24537500503334Z" style="pointer-events: none; stroke-width: 1; fill: rgb(139, 224, 164); fill-opacity: 1; stroke: rgb(255, 255, 255); stroke-opacity: 1; opacity: 0.7;"/><g class="slicetext"><text data-notex="1" class="slicetext" text-anchor="middle" x="0" y="0" style="font-family: Arial; font-size: 12px; fill: rgb(68, 68, 68); fill-opacity: 1; white-space: pre;" transform="translate(539.9129600597132,332.82272222296376)rotate(22.456208641494754)">Gourds</text></g></g><g class="slice"><path class="surface" d="M469.1113879664154,287.91407728949855L588.2227759328308,325.8281545789971A250,250 0,0,0 593.2115135138495,307.8632845101503L471.60575675692473,278.93164225507513A125,125 0,0,1 469.1113879664154,287.91407728949855Z" style="pointer-events: none; stroke-width: 1; fill: rgb(180, 151, 231); fill-opacity: 1; stroke: rgb(255, 255, 255); stroke-opacity: 1; opacity: 0.7;"/><g class="slicetext"><text data-notex="1" class="slicetext" text-anchor="middle" x="0" y="0" style="font-family: Arial; font-size: 12px; fill: rgb(68, 68, 68); fill-opacity: 1; white-space: pre;" transform="translate(567.6797433900085,314.59973428599676)rotate(15.519657454262301)">Poultry</text></g></g><g class="slice"><path class="surface" d="M471.60575675692473,278.93164225507513L593.2115135138495,307.8632845101503A250,250 0,0,0 594.1664647168302,303.6911306240138L472.0832323584151,276.8455653120069A125,125 0,0,1 471.60575675692473,278.93164225507513Z" style="pointer-events: none; stroke-width: 1; fill: rgb(180, 151, 231); fill-opacity: 1; stroke: rgb(255, 255, 255); stroke-opacity: 1; opacity: 0.7;"/><g class="slicetext"><text data-notex="1" class="slicetext" text-anchor="middle" x="0" y="0" style="font-family: Arial; font-size: 12px; fill: rgb(68, 68, 68); fill-opacity: 1; white-space: pre;" transform="translate(586.9485685388387,305.393596090497)scale(0.2824902945988202)rotate(12.892175943946995)">Bovines</text></g></g><g class="slice"><path class="surface" d="M472.0832323584151,276.8455653120069L594.1664647168302,303.6911306240138A250,250 0,0,0 594.9280441555189,300.1024269487235L472.46402207775947,275.05121347436176A125,125 0,0,1 472.0832323584151,276.8455653120069Z" style="pointer-events: none; stroke-width: 1; fill: rgb(180, 151, 231); fill-opacity: 1; stroke: rgb(255, 255, 255); stroke-opacity: 1; opacity: 0.7;"/><g class="slicetext"><text data-notex="1" class="slicetext" text-anchor="middle" x="0" y="0" style="font-family: Arial; font-size: 12px; fill: rgb(68, 68, 68); fill-opacity: 1; white-space: pre;" transform="translate(589.8968004488735,301.91765661723826)scale(0.24645583214038622)rotate(11.981315687037693)">Swine</text></g></g><g class="slice"><path class="surface" d="M472.46402207775947,275.05121347436176L594.9280441555189,300.1024269487235A250,250 0,0,0 595.5224105220593,297.1035660161456L472.76120526102966,273.5517830080728A125,125 0,0,1 472.46402207775947,275.05121347436176Z" style="pointer-events: none; stroke-width: 1; fill: rgb(180, 151, 231); fill-opacity: 1; stroke: rgb(255, 255, 255); stroke-opacity: 1; opacity: 0.7;"/><g class="slicetext"><text data-notex="1" class="slicetext" text-anchor="middle" x="0" y="0" style="font-family: Arial; font-size: 12px; fill: rgb(68, 68, 68); fill-opacity: 1; white-space: pre;" transform="translate(590.1324773982368,298.4277582874405)scale(0.20455390497736065)rotate(11.21058777734521)">Equines</text></g></g><g class="slice"><path class="surface" d="M472.76120526102966,273.5517830080728L595.5224105220593,297.1035660161456A250,250 0,0,0 595.9166259310975,295.00014545159434L472.95831296554877,272.50007272579717A125,125 0,0,1 472.76120526102966,273.5517830080728Z" style="pointer-events: none; stroke-width: 1; fill: rgb(180, 151, 231); fill-opacity: 1; stroke: rgb(255, 255, 255); stroke-opacity: 1; opacity: 0.7;"/><g class="slicetext"><text data-notex="1" class="slicetext" text-anchor="middle" x="0" y="0" style="font-family: Arial; font-size: 12px; fill: rgb(68, 68, 68); fill-opacity: 1; white-space: pre;" transform="translate(593.7615322176539,296.2829124344602)scale(0.14694537632627674)rotate(10.615025301673711)">Ovis</text></g></g><g class="slice"><path class="surface" d="M472.95831296554877,272.50007272579717L595.9166259310975,295.00014545159434A250,250 0,0,0 596.2401835269944,293.1945831857664L473.1200917634972,271.5972915928832A125,125 0,0,1 472.95831296554877,272.50007272579717Z" style="pointer-events: none; stroke-width: 1; fill: rgb(180, 151, 231); fill-opacity: 1; stroke: rgb(255, 255, 255); stroke-opacity: 1; opacity: 0.7;"/><g class="slicetext"><text data-notex="1" class="slicetext" text-anchor="middle" x="0" y="0" style="font-family: Arial; font-size: 12px; fill: rgb(68, 68, 68); fill-opacity: 1; white-space: pre;" transform="translate(593.3401802038335,294.11514343501415)scale(0.12512438308558976)rotate(10.159595173219031)">Caprae</text></g></g><g class="slice"><path class="surface" d="M473.1200917634972,271.5972915928832L596.2401835269944,293.1945831857664A250,250 0,0,0 596.2928214202259,292.8934274320056L473.14641071011295,271.44671371600276A125,125 0,0,1 473.1200917634972,271.5972915928832Z" style="pointer-events: none; stroke-width: 1; fill: rgb(180, 151, 231); fill-opacity: 1; stroke: rgb(255, 255, 255); stroke-opacity: 1; opacity: 0.7;"/><g class="slicetext"><text data-notex="1" class="slicetext" text-anchor="middle" x="0" y="0" style="font-family: Arial; font-size: 12px; fill: rgb(68, 68, 68); fill-opacity: 1; white-space: pre;" transform="translate(595.4505031750907,292.9873615729079)scale(0.02117442734927938)rotate(9.914363565589667)">Lagomorphs</text></g></g><g class="slice"><path class="surface" d="M473.14641071011295,271.4467137160029L596.2928214202259,292.8934274320058A250,250 0,0,0 598.0955388060536,280.7994094835271L474.0477694030268,265.3997047417635A125,125 0,0,1 473.14641071011295,271.4467137160029Z" style="pointer-events: none; stroke-width: 1; fill: rgb(179, 179, 179); fill-opacity: 1; stroke: rgb(255, 255, 255); stroke-opacity: 1; opacity: 0.7;"/><g class="slicetext"><text data-notex="1" class="slicetext" text-anchor="middle" x="0" y="0" style="font-family: Arial; font-size: 12px; fill: rgb(68, 68, 68); fill-opacity: 1; white-space: pre;" transform="translate(587.9131456646066,288.66444302834844)scale(0.7916147242115812)rotate(8.47800700661736)">Soy</text></g></g><g class="slice"><path class="surface" d="M474.0477694030268,265.3997047417635L598.0955388060536,280.7994094835271A250,250 0,0,0 598.8925042033509,273.5057727246933L474.44625210167544,261.75288636234666A125,125 0,0,1 474.0477694030268,265.3997047417635Z" style="pointer-events: none; stroke-width: 1; fill: rgb(179, 226, 230); fill-opacity: 1; stroke: rgb(255, 255, 255); stroke-opacity: 1; opacity: 0.7;"/><g class="slicetext"><text data-notex="1" class="slicetext" text-anchor="middle" x="0" y="0" style="font-family: Arial; font-size: 12px; fill: rgb(68, 68, 68); fill-opacity: 1; white-space: pre;" transform="translate(592.1044195738694,278.40620534853224)scale(0.4850621203800419)rotate(6.235889451148296)">Teas</text></g></g><g class="slice"><path class="surface" d="M474.44625210167544,261.75288636234666L598.8925042033509,273.5057727246933A250,250 0,0,0 599.2817810270417,268.9365690658584L474.64089051352084,259.4682845329292A125,125 0,0,1 474.44625210167544,261.75288636234666Z" style="pointer-events: none; stroke-width: 1; fill: rgb(179, 226, 230); fill-opacity: 1; stroke: rgb(255, 255, 255); stroke-opacity: 1; opacity: 0.7;"/><g class="slicetext"><text data-notex="1" class="slicetext" text-anchor="middle" x="0" y="0" style="font-family: Arial; font-size: 12px; fill: rgb(68, 68, 68); fill-opacity: 1; white-space: pre;" transform="translate(588.8002181628407,271.52318513513853)scale(0.2935407919180598)rotate(4.869599065784314)">Herbal teas</text></g></g><g class="slice"><path class="surface" d="M474.64089051352084,259.4682845329292L599.2817810270417,268.9365690658584A250,250 0,0,0 599.86373961151,258.25297687816374L474.931869805755,254.12648843908187A125,125 0,0,1 474.64089051352084,259.4682845329292Z" style="pointer-events: none; stroke-width: 1; fill: rgb(252, 239, 209); fill-opacity: 1; stroke: rgb(255, 255, 255); stroke-opacity: 1; opacity: 0.7;"/><g class="slicetext"><text data-notex="1" class="slicetext" text-anchor="middle" x="0" y="0" style="font-family: Arial; font-size: 12px; fill: rgb(68, 68, 68); fill-opacity: 1; white-space: pre;" transform="translate(586.7546837661192,265.58100779036647)scale(0.6701223928038452)rotate(3.117944725574091)">Coffee</text></g></g><g class="slice"><path class="surface" d="M474.931869805755,254.12648843908187L599.86373961151,258.25297687816374A250,250 0,0,0 599.999252275993,250.61144210228295L474.9996261379965,250.30572105114146A125,125 0,0,1 474.931869805755,254.12648843908187Z" style="pointer-events: none; stroke-width: 1; fill: rgb(253, 225, 213); fill-opacity: 1; stroke: rgb(255, 255, 255); stroke-opacity: 1; opacity: 0.7;"/><g class="slicetext"><text data-notex="1" class="slicetext" text-anchor="middle" x="0" y="0" style="font-family: Arial; font-size: 12px; fill: rgb(68, 68, 68); fill-opacity: 1; white-space: pre;" transform="translate(590.791712116431,256.246357428956)scale(0.4939798563071124)rotate(1.0159595173219031)">Cocoa</text></g></g><g class="slice"><path class="surface" d="M474.9996261379965,250.30572105114146L599.999252275993,250.61144210228295A250,250 0,0,0 600,249.99999999999983L475,249.99999999999991A125,125 0,0,1 474.9996261379965,250.30572105114146Z" style="pointer-events: none; stroke-width: 1; fill: rgb(255, 255, 255); fill-opacity: 1; stroke: rgb(255, 255, 255); stroke-opacity: 1; opacity: 0.7;"/><g class="slicetext"><text data-notex="1" class="slicetext" text-anchor="middle" x="0" y="0" style="font-family: Arial; font-size: 12px; fill: rgb(68, 68, 68); fill-opacity: 1; white-space: pre;" transform="translate(598.2765271051089,250.4717690440485)scale(0.04203875522869748)rotate(0.07006617360838163)">Oilseed crops</text></g></g></g></g><g class="glimages"/><defs id="topdefs-a83430"><g class="clips"/></defs><g class="layer-above"><g class="imagelayer"/><g class="shapelayer"/></g><g class="infolayer"><g class="g-gtitle"/></g></svg>