<svg class="main-svg" xmlns="http://www.w3.org/2000/svg" xmlns:xlink="http://www.w3.org/1999/xlink" width="600" height="300" style="" viewBox="0 0 600 300"><rect x="0" y="0" width="600" height="300" style="fill: rgb(255, 255, 255); fill-opacity: 1;"/><defs id="defs-197560"><g class="clips"/><g class="gradients"/><g class="patterns"/></defs><g class="bglayer"/><g class="layer-below"><g class="imagelayer"/><g class="shapelayer"/></g><g class="cartesianlayer"/><g class="polarlayer"/><g class="smithlayer"/><g class="ternarylayer"/><g class="geolayer"/><g class="funnelarealayer"/><g class="pielayer"/><g class="iciclelayer"/><g class="treemaplayer"/><g class="sunburstlayer"/><g class="glimages"/><g class="sankey" transform="matrix(1 0 0 1 0 0)" style="box-sizing: content-box; position: absolute; left: 0px; shape-rendering: geometricprecision; pointer-events: none;"><g class="sankey-links" style="fill: none;"><path class="sankey-link" d="M15,278.13296669120984C153.75,278.13296669120984 153.75,185.46855042310375 292.5,185.46855042310375L292.5,207.3355837318939C153.75,207.3355837318939 153.75,300 15,300Z" style="stroke: rgb(68, 68, 68); stroke-opacity: 1; fill: rgb(0, 0, 0); fill-opacity: 0.2; stroke-width: 0; opacity: 1;"/><path class="sankey-link" d="M15,246.99997411762575C153.75,246.99997411762575 153.75,283.867007426416 292.5,283.867007426416L292.5,299.99999999999994C153.75,299.99999999999994 153.75,263.13296669120973 15,263.13296669120973Z" style="stroke: rgb(68, 68, 68); stroke-opacity: 1; fill: rgb(0, 0, 0); fill-opacity: 0.2; stroke-width: 0; opacity: 1;"/><path class="sankey-link" d="M15,199.89526525367708C153.75,199.89526525367708 153.75,161.837215847179 292.5,161.837215847179L292.5,185.46855042310372C153.75,185.46855042310372 153.75,223.5265998296018 15,223.5265998296018Z" style="stroke: rgb(68, 68, 68); stroke-opacity: 1; fill: rgb(0, 0, 0); fill-opacity: 0.2; stroke-width: 0; opacity: 1;"/><path class="sankey-link" d="M15,223.52659982960182C153.75,223.52659982960182 153.75,245.39363313839203 292.5,245.39363313839203L292.5,268.86700742641597C153.75,268.86700742641597 153.75,246.99997411762575 15,246.99997411762575Z" style="stroke: rgb(68, 68, 68); stroke-opacity: 1; fill: rgb(0, 0, 0); fill-opacity: 0.2; stroke-width: 0; opacity: 1;"/><path class="sankey-link" d="M15,135.2708176706539C153.75,135.2708176706539 153.75,125.17103151264236 292.5,125.17103151264236L292.5,161.83721584717904C153.75,161.83721584717904 153.75,171.9370020051906 15,171.9370020051906Z" style="stroke: rgb(68, 68, 68); stroke-opacity: 1; fill: rgb(0, 0, 0); fill-opacity: 0.2; stroke-width: 0; opacity: 1;"/><path class="sankey-link" d="M15,171.93700200519058C153.75,171.93700200519058 153.75,232.43536988990553 292.5,232.43536988990553L292.5,245.39363313839203C153.75,245.39363313839203 153.75,184.89526525367708 15,184.89526525367708Z" style="stroke: rgb(68, 68, 68); stroke-opacity: 1; fill: rgb(0, 0, 0); fill-opacity: 0.2; stroke-width: 0; opacity: 1;"/><path class="sankey-link" d="M15,70.40853798751732C153.75,70.40853798751732 153.75,-2.7000623958883807e-13 292.5,-2.7000623958883807e-13L292.5,26.969962792024283C153.75,26.969962792024283 153.75,97.37850077954187 15,97.37850077954187Z" style="stroke: rgb(68, 68, 68); stroke-opacity: 1; fill: rgb(0, 0, 0); fill-opacity: 0.2; stroke-width: 0; opacity: 1;"/><path class="sankey-link" d="M15,97.37850077954187C153.75,97.37850077954187 153.75,41.96996279202419 292.5,41.96996279202419L292.5,60.82000962981181C153.75,60.82000962981181 153.75,116.22854761732947 15,116.22854761732947Z" style="stroke: rgb(68, 68, 68); stroke-opacity: 1; fill: rgb(0, 0, 0); fill-opacity: 0.2; stroke-width: 0; opacity: 1;"/><path class="sankey-link" d="M15,116.22854761732948C153.75,116.22854761732948 153.75,75.8200096298118 292.5,75.8200096298118L292.5,94.86227968313622C153.75,94.86227968313622 153.75,135.2708176706539 15,135.2708176706539Z" style="stroke: rgb(68, 68, 68); stroke-opacity: 1; fill: rgb(0, 0, 0); fill-opacity: 0.2; stroke-width: 0; opacity: 1;"/><path class="sankey-link" d="M307.5,283.867007426416C446.25,283.867007426416 446.25,154.44105106616064 585,154.44105106616064L585,170.57404363974462C446.25,170.57404363974462 446.25,299.99999999999994 307.5,299.99999999999994Z" style="stroke: rgb(68, 68, 68); stroke-opacity: 1; fill: rgb(0, 0, 0); fill-opacity: 0.2; stroke-width: 0; opacity: 1;"/><path class="sankey-link" d="M307.5,125.17103151264233C446.25,125.17103151264233 446.25,107.336342202212 585,107.336342202212L585,130.96767677813673C446.25,130.96767677813673 446.25,148.80236608856706 307.5,148.80236608856706Z" style="stroke: rgb(68, 68, 68); stroke-opacity: 1; fill: rgb(0, 0, 0); fill-opacity: 0.2; stroke-width: 0; opacity: 1;"/><path class="sankey-link" d="M307.5,148.80236608856708C446.25,148.80236608856708 446.25,203.40873295017497 585,203.40873295017497L585,235.94109832304002C446.25,235.94109832304002 446.25,181.33473146143214 307.5,181.33473146143214Z" style="stroke: rgb(68, 68, 68); stroke-opacity: 1; fill: rgb(0, 0, 0); fill-opacity: 0.2; stroke-width: 0; opacity: 1;"/><path class="sankey-link" d="M307.5,181.33473146143214C446.25,181.33473146143214 446.25,263.89936157152687 585,263.89936157152687L585,299.99999999999994C446.25,299.99999999999994 446.25,217.43536988990527 307.5,217.43536988990527Z" style="stroke: rgb(68, 68, 68); stroke-opacity: 1; fill: rgb(0, 0, 0); fill-opacity: 0.2; stroke-width: 0; opacity: 1;"/><path class="sankey-link" d="M307.5,232.43536988990553C446.25,232.43536988990553 446.25,130.96767677813673 585,130.96767677813673L585,154.44105106616067C446.25,154.44105106616067 446.25,255.90874417792946 307.5,255.90874417792946Z" style="stroke: rgb(68, 68, 68); stroke-opacity: 1; fill: rgb(0, 0, 0); fill-opacity: 0.2; stroke-width: 0; opacity: 1;"/><path class="sankey-link" d="M307.5,255.9087441779295C446.25,255.9087441779295 446.25,235.94109832304002 585,235.94109832304002L585,248.89936157152653C446.25,248.89936157152653 446.25,268.867007426416 307.5,268.867007426416Z" style="stroke: rgb(68, 68, 68); stroke-opacity: 1; fill: rgb(0, 0, 0); fill-opacity: 0.2; stroke-width: 0; opacity: 1;"/><path class="sankey-link" d="M307.5,-2.7000623958883807e-13C446.25,-2.7000623958883807e-13 446.25,44.999999999999886 585,44.999999999999886L585,71.96996279202443C446.25,71.96996279202443 446.25,26.969962792024283 307.5,26.969962792024283Z" style="stroke: rgb(68, 68, 68); stroke-opacity: 1; fill: rgb(0, 0, 0); fill-opacity: 0.2; stroke-width: 0; opacity: 1;"/><path class="sankey-link" d="M307.5,41.96996279202419C446.25,41.96996279202419 446.25,71.96996279202443 585,71.96996279202443L585,90.82000962981203C446.25,90.82000962981203 446.25,60.82000962981181 307.5,60.82000962981181Z" style="stroke: rgb(68, 68, 68); stroke-opacity: 1; fill: rgb(0, 0, 0); fill-opacity: 0.2; stroke-width: 0; opacity: 1;"/><path class="sankey-link" d="M307.5,75.8200096298118C446.25,75.8200096298118 446.25,90.82000962981205 585,90.82000962981205L585,107.33634220221201C446.25,107.33634220221201 446.25,92.33634220221177 307.5,92.33634220221177Z" style="stroke: rgb(68, 68, 68); stroke-opacity: 1; fill: rgb(0, 0, 0); fill-opacity: 0.2; stroke-width: 0; opacity: 1;"/><path class="sankey-link" d="M307.5,92.33634220221175C446.25,92.33634220221175 446.25,185.5740436397444 585,185.5740436397444L585,203.40873295017497C446.25,203.40873295017497 446.25,110.17103151264233 307.5,110.17103151264233Z" style="stroke: rgb(68, 68, 68); stroke-opacity: 1; fill: rgb(0, 0, 0); fill-opacity: 0.2; stroke-width: 0; opacity: 1;"/></g><g class="sankey-node-set" style="cursor: move;"><g class="sankey-node" transform="translate(292.500,283.867)" style="opacity: 1;"><rect class="node-rect" width="15" height="16.132992573583977" style="stroke-width: 0.5; stroke: rgb(0, 0, 0); stroke-opacity: 1; fill: rgb(219, 236, 255); fill-opacity: 1;"/><text class="node-label" data-notex="1" x="0" y="0" text-anchor="start" transform="translate(18.25,12.266496286791988)" style="cursor: default; font-family: Arial; font-size: 12px; fill: rgb(42, 63, 95); fill-opacity: 1; white-space: pre; text-shadow: white 1px 1px 1px, white -1px -1px 1px, white 1px -1px 1px, white -1px 1px 1px;">FDC</text></g><g class="sankey-node" transform="translate(292.500,125.171)" style="opacity: 1;"><rect class="node-rect" width="15" height="92.26433837726319" style="stroke-width: 0.5; stroke: rgb(0, 0, 0); stroke-opacity: 1; fill: rgb(220, 240, 203); fill-opacity: 1;"/><text class="node-label" data-notex="1" x="0" y="0" text-anchor="start" transform="translate(18.25,50.332169188631596)" style="cursor: default; font-family: Arial; font-size: 12px; fill: rgb(42, 63, 95); fill-opacity: 1; white-space: pre; text-shadow: white 1px 1px 1px, white -1px -1px 1px, white 1px -1px 1px, white -1px 1px 1px;">FoodAtlas</text></g><g class="sankey-node" transform="translate(292.500,232.435)" style="opacity: 1;"><rect class="node-rect" width="15" height="36.43163753651049" style="stroke-width: 0.5; stroke: rgb(0, 0, 0); stroke-opacity: 1; fill: rgb(255, 235, 156); fill-opacity: 1;"/><text class="node-label" data-notex="1" x="0" y="0" text-anchor="start" transform="translate(18.25,22.415818768255246)" style="cursor: default; font-family: Arial; font-size: 12px; fill: rgb(42, 63, 95); fill-opacity: 1; white-space: pre; text-shadow: white 1px 1px 1px, white -1px -1px 1px, white 1px -1px 1px, white -1px 1px 1px;">Frida</text></g><g class="sankey-node" transform="translate(292.500,-0.000)" style="opacity: 1;"><rect class="node-rect" width="15" height="26.96996279202446" style="stroke-width: 0.5; stroke: rgb(0, 0, 0); stroke-opacity: 1; fill: rgb(72, 231, 151); fill-opacity: 1;"/><text class="node-label" data-notex="1" x="0" y="0" text-anchor="start" transform="translate(18.25,17.68498139601223)" style="cursor: default; font-family: Arial; font-size: 12px; fill: rgb(42, 63, 95); fill-opacity: 1; white-space: pre; text-shadow: white 1px 1px 1px, white -1px -1px 1px, white 1px -1px 1px, white -1px 1px 1px;">MeSH</text></g><g class="sankey-node" transform="translate(292.500,41.970)" style="opacity: 1;"><rect class="node-rect" width="15" height="18.850046837787616" style="stroke-width: 0.5; stroke: rgb(0, 0, 0); stroke-opacity: 1; fill: rgb(43, 233, 89); fill-opacity: 1;"/><text class="node-label" data-notex="1" x="0" y="0" text-anchor="start" transform="translate(18.25,13.625023418893807)" style="cursor: default; font-family: Arial; font-size: 12px; fill: rgb(42, 63, 95); fill-opacity: 1; white-space: pre; text-shadow: white 1px 1px 1px, white -1px -1px 1px, white 1px -1px 1px, white -1px 1px 1px;">NCBI_taxonomy</text></g><g class="sankey-node" transform="translate(292.500,75.820)" style="opacity: 1;"><rect class="node-rect" width="15" height="34.35102188283054" style="stroke-width: 0.5; stroke: rgb(0, 0, 0); stroke-opacity: 1; fill: rgb(127, 253, 233); fill-opacity: 1;"/><text class="node-label" data-notex="1" x="0" y="0" text-anchor="start" transform="translate(18.25,21.375510941415268)" style="cursor: default; font-family: Arial; font-size: 12px; fill: rgb(42, 63, 95); fill-opacity: 1; white-space: pre; text-shadow: white 1px 1px 1px, white -1px -1px 1px, white 1px -1px 1px, white -1px 1px 1px;">Phenol-Explorer</text></g><g class="sankey-node" transform="translate(0.000,278.133)" style="opacity: 1;"><rect class="node-rect" width="15" height="21.867033308790155" style="stroke-width: 0.5; stroke: rgb(0, 0, 0); stroke-opacity: 1; fill: rgb(102, 102, 102); fill-opacity: 1;"/><text class="node-label" data-notex="1" x="0" y="0" text-anchor="start" transform="translate(18.25,15.133516654395077)" style="cursor: default; font-family: Arial; font-size: 12px; fill: rgb(42, 63, 95); fill-opacity: 1; white-space: pre; text-shadow: white 1px 1px 1px, white -1px -1px 1px, white 1px -1px 1px, white -1px 1px 1px;">high</text></g><g class="sankey-node" transform="translate(0.000,199.895)" style="opacity: 1;"><rect class="node-rect" width="15" height="63.23770143753276" style="stroke-width: 0.5; stroke: rgb(0, 0, 0); stroke-opacity: 1; fill: rgb(230, 230, 230); fill-opacity: 1;"/><text class="node-label" data-notex="1" x="0" y="0" text-anchor="start" transform="translate(18.25,35.818850718766384)" style="cursor: default; font-family: Arial; font-size: 12px; fill: rgb(42, 63, 95); fill-opacity: 1; white-space: pre; text-shadow: white 1px 1px 1px, white -1px -1px 1px, white 1px -1px 1px, white -1px 1px 1px;">low</text></g><g class="sankey-node" transform="translate(0.000,70.409)" style="opacity: 1;"><rect class="node-rect" width="15" height="114.48672726615976" style="stroke-width: 0.5; stroke: rgb(0, 0, 0); stroke-opacity: 1; fill: rgb(179, 179, 179); fill-opacity: 1;"/><text class="node-label" data-notex="1" x="0" y="0" text-anchor="start" transform="translate(18.25,61.44336363307988)" style="cursor: default; font-family: Arial; font-size: 12px; fill: rgb(42, 63, 95); fill-opacity: 1; white-space: pre; text-shadow: white 1px 1px 1px, white -1px -1px 1px, white 1px -1px 1px, white -1px 1px 1px;">medium</text></g><g class="sankey-node" transform="translate(585.000,45.000)" style="opacity: 1;"><rect class="node-rect" width="15" height="125.5740436397445" style="stroke-width: 0.5; stroke: rgb(0, 0, 0); stroke-opacity: 1; fill: rgb(223, 239, 89); fill-opacity: 1;"/><text class="node-label" data-notex="1" x="0" y="0" text-anchor="end" transform="translate(-3.25,66.98702181987225)" style="cursor: default; font-family: Arial; font-size: 12px; fill: rgb(42, 63, 95); fill-opacity: 1; white-space: pre; text-shadow: white 1px 1px 1px, white -1px -1px 1px, white 1px -1px 1px, white -1px 1px 1px;">none</text></g><g class="sankey-node" transform="translate(585.000,185.574)" style="opacity: 1;"><rect class="node-rect" width="15" height="63.32531793178248" style="stroke-width: 0.5; stroke: rgb(0, 0, 0); stroke-opacity: 1; fill: rgb(253, 140, 128); fill-opacity: 1;"/><text class="node-label" data-notex="1" x="0" y="0" text-anchor="end" transform="translate(-3.25,35.86265896589124)" style="cursor: default; font-family: Arial; font-size: 12px; fill: rgb(42, 63, 95); fill-opacity: 1; white-space: pre; text-shadow: white 1px 1px 1px, white -1px -1px 1px, white 1px -1px 1px, white -1px 1px 1px;">pmid</text></g><g class="sankey-node" transform="translate(585.000,263.899)" style="opacity: 1;"><rect class="node-rect" width="15" height="36.10063842847313" style="stroke-width: 0.5; stroke: rgb(0, 0, 0); stroke-opacity: 1; fill: rgb(255, 99, 67); fill-opacity: 1;"/><text class="node-label" data-notex="1" x="0" y="0" text-anchor="end" transform="translate(-3.25,22.250319214236566)" style="cursor: default; font-family: Arial; font-size: 12px; fill: rgb(42, 63, 95); fill-opacity: 1; white-space: pre; text-shadow: white 1px 1px 1px, white -1px -1px 1px, white 1px -1px 1px, white -1px 1px 1px;">pmid &amp; pmcid</text></g></g></g><defs id="topdefs-197560"><g class="clips"/></defs><g class="layer-above"><g class="imagelayer"/><g class="shapelayer"/></g><g class="infolayer"><g class="g-gtitle"/><g class="first-render"/></g></svg>