<svg class="main-svg" xmlns="http://www.w3.org/2000/svg" xmlns:xlink="http://www.w3.org/1999/xlink" width="700" height="500" style="" viewBox="0 0 700 500"><rect x="0" y="0" width="700" height="500" style="fill: rgb(255, 255, 255); fill-opacity: 1;"/><defs id="defs-12af92"><g class="clips"/><g class="gradients"/><g class="patterns"/></defs><g class="bglayer"/><g class="layer-below"><g class="imagelayer"/><g class="shapelayer"/></g><g class="cartesianlayer"/><g class="polarlayer"/><g class="smithlayer"/><g class="ternarylayer"/><g class="geolayer"/><g class="funnelarealayer"/><g class="pielayer"/><g class="iciclelayer"/><g class="treemaplayer"/><g class="sunburstlayer"><g class="trace sunburst" stroke-linejoin="round" style="opacity: 1;"><g class="slice cursor-pointer"><path class="surface" d="M350,250L475,250A125,125 0,0,0 354.4811876930352,125.08034999704896L350,250A0,0 0,0,1 350,250Z" style="pointer-events: none; stroke-width: 1; fill: rgb(102, 197, 204); fill-opacity: 1; stroke: rgb(255, 255, 255); stroke-opacity: 1;"/><g class="slicetext"><text data-notex="1" class="slicetext" text-anchor="middle" x="0" y="0" style="font-family: Arial; font-size: 12px; fill: rgb(68, 68, 68); fill-opacity: 1; white-space: pre;" transform="translate(403.0944142461936,202.7760672965856)">Fruits</text></g></g><g class="slice cursor-pointer"><path class="surface" d="M350,250L354.4811876930352,125.08034999704896A125,125 0,0,0 231.62846896966815,209.83557990540405L350,250A0,0 0,0,1 350,250Z" style="pointer-events: none; stroke-width: 1; fill: rgb(246, 207, 113); fill-opacity: 1; stroke: rgb(255, 255, 255); stroke-opacity: 1;"/><g class="slicetext"><text data-notex="1" class="slicetext" text-anchor="middle" x="0" y="0" style="font-family: Arial; font-size: 12px; fill: rgb(68, 68, 68); fill-opacity: 1; white-space: pre;" transform="translate(305.5524121563827,189.57321461827834)">Vegetables</text></g></g><g class="slice cursor-pointer"><path class="surface" d="M350,250L231.62846896966815,209.83557990540405A125,125 0,0,0 276.89630673658775,351.39452663358577L350,250A0,0 0,0,1 350,250Z" style="pointer-events: none; stroke-width: 1; fill: rgb(248, 156, 116); fill-opacity: 1; stroke: rgb(255, 255, 255); stroke-opacity: 1;"/><g class="slicetext"><text data-notex="1" class="slicetext" text-anchor="middle" x="0" y="0" style="font-family: Arial; font-size: 12px; fill: rgb(68, 68, 68); fill-opacity: 1; white-space: pre;" transform="translate(251.9244019087156,281.3626963600883)rotate(72.26672006407682)">Herbs and Spices</text></g></g><g class="slice cursor-pointer"><path class="surface" d="M350,250L276.89630673658775,351.39452663358577A125,125 0,0,0 319.41061177548323,371.19937841445307L350,250A0,0 0,0,1 350,250Z" style="pointer-events: none; stroke-width: 1; fill: rgb(220, 176, 242); fill-opacity: 1; stroke: rgb(255, 255, 255); stroke-opacity: 1;"/><g class="slicetext"><text data-notex="1" class="slicetext" text-anchor="middle" x="0" y="0" style="font-family: Arial; font-size: 12px; fill: rgb(68, 68, 68); fill-opacity: 1; white-space: pre;" transform="translate(310.63191652841914,328.80965566125707)scale(0.6326551979772738)rotate(-65.02202643171802)"><tspan class="line" dy="0em" x="0" y="0">Cereals and cereal</tspan><tspan class="line" dy="1.3em" x="0" y="0">products</tspan></text></g></g><g class="slice cursor-pointer"><path class="surface" d="M350,250L319.41061177548323,371.19937841445307A125,125 0,0,0 363.8895076323627,374.22592957080474L350,250A0,0 0,0,1 350,250Z" style="pointer-events: none; stroke-width: 1; fill: rgb(135, 197, 95); fill-opacity: 1; stroke: rgb(255, 255, 255); stroke-opacity: 1;"/><g class="slicetext"><text data-notex="1" class="slicetext" text-anchor="middle" x="0" y="0" style="font-family: Arial; font-size: 12px; fill: rgb(68, 68, 68); fill-opacity: 1; white-space: pre;" transform="translate(347.60793087452,344.075258548971)rotate(-86.1073287945535)">Pulses</text></g></g><g class="slice cursor-pointer"><path class="surface" d="M350,250L363.8895076323627,374.22592957080474A125,125 0,0,0 405.05382361687435,362.22333315831463L350,250A0,0 0,0,1 350,250Z" style="pointer-events: none; stroke-width: 1; fill: rgb(158, 185, 243); fill-opacity: 1; stroke: rgb(255, 255, 255); stroke-opacity: 1;"/><g class="slicetext"><text data-notex="1" class="slicetext" text-anchor="middle" x="0" y="0" style="font-family: Arial; font-size: 12px; fill: rgb(68, 68, 68); fill-opacity: 1; white-space: pre;" transform="translate(370.8277243441904,335.7208617804566)rotate(73.74449339207058)">Unknown</text></g></g><g class="slice cursor-pointer"><path class="surface" d="M350,250L405.05382361687435,362.22333315831463A125,125 0,0,0 438.63820558008615,338.13778140810206L350,250A0,0 0,0,1 350,250Z" style="pointer-events: none; stroke-width: 1; fill: rgb(254, 136, 177); fill-opacity: 1; stroke: rgb(255, 255, 255); stroke-opacity: 1;"/><g class="slicetext"><text data-notex="1" class="slicetext" text-anchor="middle" x="0" y="0" style="font-family: Arial; font-size: 12px; fill: rgb(68, 68, 68); fill-opacity: 1; white-space: pre;" transform="translate(395.51681540593955,320.05668071804763)scale(0.9599951736472995)rotate(54.35322386864232)">Aquatic foods</text></g></g><g class="slice cursor-pointer"><path class="surface" d="M350,250L438.63820558008615,338.13778140810206A125,125 0,0,0 461.6988512658003,306.1103076617891L350,250A0,0 0,0,1 350,250Z" style="pointer-events: none; stroke-width: 1; fill: rgb(201, 219, 116); fill-opacity: 1; stroke: rgb(255, 255, 255); stroke-opacity: 1;"/><g class="slicetext"><text data-notex="1" class="slicetext" text-anchor="middle" x="0" y="0" style="font-family: Arial; font-size: 12px; fill: rgb(68, 68, 68); fill-opacity: 1; white-space: pre;" transform="translate(437.6100738534754,317.08161822681456)">Nuts</text></g></g><g class="slice cursor-pointer"><path class="surface" d="M350,250L461.6988512658003,306.1103076617891A125,125 0,0,0 469.3446062687217,287.173444211746L350,250A0,0 0,0,1 350,250Z" style="pointer-events: none; stroke-width: 1; fill: rgb(139, 224, 164); fill-opacity: 1; stroke: rgb(255, 255, 255); stroke-opacity: 1;"/><g class="slicetext"><text data-notex="1" class="slicetext" text-anchor="middle" x="0" y="0" style="font-family: Arial; font-size: 12px; fill: rgb(68, 68, 68); fill-opacity: 1; white-space: pre;" transform="translate(444.972688042248,292.33704647853045)scale(0.9253816369860539)rotate(21.98638366039245)">Gourds</text></g></g><g class="slice cursor-pointer"><path class="surface" d="M350,250L469.3446062687217,287.173444211746A125,125 0,0,0 473.17458913046636,271.2842804092786L350,250A0,0 0,0,1 350,250Z" style="pointer-events: none; stroke-width: 1; fill: rgb(180, 151, 231); fill-opacity: 1; stroke: rgb(255, 255, 255); stroke-opacity: 1;"/><g class="slicetext"><text data-notex="1" class="slicetext" text-anchor="middle" x="0" y="0" style="font-family: Arial; font-size: 12px; fill: rgb(68, 68, 68); fill-opacity: 1; white-space: pre;" transform="translate(445.39528944756603,275.65583815042027)scale(0.6468254591865537)rotate(13.552262715258337)">Animal foods</text></g></g><g class="slice cursor-pointer"><path class="surface" d="M350,250L473.17458913046636,271.2842804092786A125,125 0,0,0 474.07029095901515,265.2171909807731L350,250A0,0 0,0,1 350,250Z" style="pointer-events: none; stroke-width: 1; fill: rgb(179, 179, 179); fill-opacity: 1; stroke: rgb(255, 255, 255); stroke-opacity: 1;"/><g class="slicetext"><text data-notex="1" class="slicetext" text-anchor="middle" x="0" y="0" style="font-family: Arial; font-size: 12px; fill: rgb(68, 68, 68); fill-opacity: 1; white-space: pre;" transform="translate(468.97551967369907,269.13024580772316)scale(0.38719032443319756)rotate(8.398077693231869)">Soy</text></g></g><g class="slice cursor-pointer"><path class="surface" d="M350,250L474.07029095901515,265.2171909807731A125,125 0,0,0 474.6673358976493,259.1134713574287L350,250A0,0 0,0,1 350,250Z" style="pointer-events: none; stroke-width: 1; fill: rgb(179, 226, 230); fill-opacity: 1; stroke: rgb(255, 255, 255); stroke-opacity: 1;"/><g class="slicetext"><text data-notex="1" class="slicetext" text-anchor="middle" x="0" y="0" style="font-family: Arial; font-size: 12px; fill: rgb(68, 68, 68); fill-opacity: 1; white-space: pre;" transform="translate(469.2216127119268,263.1980148618195)scale(0.38221711810728204)rotate(5.586704044853889)">Teas</text></g></g><g class="slice cursor-pointer"><path class="surface" d="M350,250L474.6673358976493,259.1134713574287A125,125 0,0,0 474.9331270246115,254.08824801746198L350,250A0,0 0,0,1 350,250Z" style="pointer-events: none; stroke-width: 1; fill: rgb(252, 239, 209); fill-opacity: 1; stroke: rgb(255, 255, 255); stroke-opacity: 1;"/><g class="slicetext"><text data-notex="1" class="slicetext" text-anchor="middle" x="0" y="0" style="font-family: Arial; font-size: 12px; fill: rgb(68, 68, 68); fill-opacity: 1; white-space: pre;" transform="translate(467.10244650743107,255.653622974385)scale(0.14175570934776277)rotate(3.027633159791776)"><tspan class="line" dy="0em" x="0" y="0">Coffee and coffee</tspan><tspan class="line" dy="1.3em" x="0" y="0">products</tspan></text></g></g><g class="slice cursor-pointer"><path class="surface" d="M350,250L474.9331270246115,254.08824801746198A125,125 0,0,0 474.99960426684254,250.3145363774833L350,250A0,0 0,0,1 350,250Z" style="pointer-events: none; stroke-width: 1; fill: rgb(253, 225, 213); fill-opacity: 1; stroke: rgb(255, 255, 255); stroke-opacity: 1;"/><g class="slicetext"><text data-notex="1" class="slicetext" text-anchor="middle" x="0" y="0" style="font-family: Arial; font-size: 12px; fill: rgb(68, 68, 68); fill-opacity: 1; white-space: pre;" transform="translate(469.08868292527757,251.67957915580473)scale(0.10991904554389392)rotate(1.0092110532639254)"><tspan class="line" dy="0em" x="0" y="0">Cocoa and cocoa</tspan><tspan class="line" dy="1.3em" x="0" y="0">products</tspan></text></g></g><g class="slice cursor-pointer"><path class="surface" d="M350,250L474.99960426684254,250.3145363774833A125,125 0,0,0 475,250.00000000000003L350,250A0,0 0,0,1 350,250Z" style="pointer-events: none; stroke-width: 1; fill: rgb(255, 255, 255); fill-opacity: 1; stroke: rgb(255, 255, 255); stroke-opacity: 1;"/><g class="slicetext"><text data-notex="1" class="slicetext" text-anchor="middle" x="0" y="0" style="font-family: Arial; font-size: 12px; fill: rgb(68, 68, 68); fill-opacity: 1; white-space: pre;" transform="translate(473.8636861806586,250.23983776838608)scale(0.020999728652363724)rotate(0.07208650380454174)">Herbs and spices</text></g></g><g class="slice"><path class="surface" d="M475,250L600,250A250,250 0,0,0 551.5866081276837,102.13912138913929L450.79330406384184,176.06956069456965A125,125 0,0,1 475,250Z" style="pointer-events: none; stroke-width: 1; fill: rgb(102, 197, 204); fill-opacity: 1; stroke: rgb(255, 255, 255); stroke-opacity: 1; opacity: 0.7;"/><g class="slicetext"><text data-notex="1" class="slicetext" text-anchor="middle" x="0" y="0" style="font-family: Arial; font-size: 12px; fill: rgb(68, 68, 68); fill-opacity: 1; white-space: pre;" transform="translate(531.703474950602,194.66939866834682)">Tropical fruits</text></g></g><g class="slice"><path class="surface" d="M450.79330406384184,176.06956069456965L551.5866081276837,102.13912138913929A250,250 0,0,0 470.9837928836241,31.224037290445608L410.49189644181206,140.6120186452228A125,125 0,0,1 450.79330406384184,176.06956069456965Z" style="pointer-events: none; stroke-width: 1; fill: rgb(102, 197, 204); fill-opacity: 1; stroke: rgb(255, 255, 255); stroke-opacity: 1; opacity: 0.7;"/><g class="slicetext"><text data-notex="1" class="slicetext" text-anchor="middle" x="0" y="0" style="font-family: Arial; font-size: 12px; fill: rgb(68, 68, 68); fill-opacity: 1; white-space: pre;" transform="translate(485.94679108068453,99.48147656076694)">Berries</text></g></g><g class="slice"><path class="surface" d="M410.49189644181206,140.6120186452228L470.9837928836241,31.224037290445608A250,250 0,0,0 432.55916233555405,14.02545748650843L391.279581167777,132.01272874325423A125,125 0,0,1 410.49189644181206,140.6120186452228Z" style="pointer-events: none; stroke-width: 1; fill: rgb(102, 197, 204); fill-opacity: 1; stroke: rgb(255, 255, 255); stroke-opacity: 1; opacity: 0.7;"/><g class="slicetext"><text data-notex="1" class="slicetext" text-anchor="middle" x="0" y="0" style="font-family: Arial; font-size: 12px; fill: rgb(68, 68, 68); fill-opacity: 1; white-space: pre;" transform="translate(438.2052947618045,62.72501474262648)rotate(-65.88706447737286)">Drupes</text></g></g><g class="slice"><path class="surface" d="M391.279581167777,132.01272874325423L432.55916233555405,14.02545748650843A250,250 0,0,0 394.8912069804632,4.06346441442011L372.4456034902316,127.03173220721006A125,125 0,0,1 391.279581167777,132.01272874325423Z" style="pointer-events: none; stroke-width: 1; fill: rgb(102, 197, 204); fill-opacity: 1; stroke: rgb(255, 255, 255); stroke-opacity: 1; opacity: 0.7;"/><g class="slicetext"><text data-notex="1" class="slicetext" text-anchor="middle" x="0" y="0" style="font-family: Arial; font-size: 12px; fill: rgb(68, 68, 68); fill-opacity: 1; white-space: pre;" transform="translate(408.71947853818125,43.61653433895139)rotate(-75.18622346816176)">Citrus</text></g></g><g class="slice"><path class="surface" d="M372.4456034902316,127.03173220721006L394.8912069804632,4.06346441442011A250,250 0,0,0 370.89229646474615,0.8745056233121034L360.44614823237305,125.43725281165605A125,125 0,0,1 372.4456034902316,127.03173220721006Z" style="pointer-events: none; stroke-width: 1; fill: rgb(102, 197, 204); fill-opacity: 1; stroke: rgb(255, 255, 255); stroke-opacity: 1; opacity: 0.7;"/><g class="slicetext"><text data-notex="1" class="slicetext" text-anchor="middle" x="0" y="0" style="font-family: Arial; font-size: 12px; fill: rgb(68, 68, 68); fill-opacity: 1; white-space: pre;" transform="translate(383.3727934187685,29.21594413245571)rotate(-82.43091710052067)">Pomes</text></g></g><g class="slice"><path class="surface" d="M360.44614823237305,125.43725281165605L370.89229646474615,0.8745056233121034A250,250 0,0,0 358.9623753860704,0.1606999940979108L354.4811876930352,125.08034999704896A125,125 0,0,1 360.44614823237305,125.43725281165605Z" style="pointer-events: none; stroke-width: 1; fill: rgb(102, 197, 204); fill-opacity: 1; stroke: rgb(255, 255, 255); stroke-opacity: 1; opacity: 0.7;"/><g class="slicetext"><text data-notex="1" class="slicetext" text-anchor="middle" x="0" y="0" style="font-family: Arial; font-size: 12px; fill: rgb(68, 68, 68); fill-opacity: 1; white-space: pre;" transform="translate(366.19764784607673,24.44803274842351)scale(0.674330689945072)rotate(-86.57589106928322)">Other fruits</text></g></g><g class="slice"><path class="surface" d="M354.4811876930352,125.08034999704896L358.96237538607045,0.1606999940979108A250,250 0,0,0 303.2535440753861,4.409346964327369L326.62677203769306,127.20467348216368A125,125 0,0,1 354.4811876930352,125.08034999704896Z" style="pointer-events: none; stroke-width: 1; fill: rgb(246, 207, 113); fill-opacity: 1; stroke: rgb(255, 255, 255); stroke-opacity: 1; opacity: 0.7;"/><g class="slicetext"><text data-notex="1" class="slicetext" text-anchor="middle" x="0" y="0" style="font-family: Arial; font-size: 12px; fill: rgb(68, 68, 68); fill-opacity: 1; white-space: pre;" transform="translate(331.7596892522582,63.43143680609251)rotate(85.63876651982378)">Root vegetables</text></g></g><g class="slice"><path class="surface" d="M326.62677203769306,127.20467348216368L303.2535440753861,4.409346964327369A250,250 0,0,0 251.9007729789547,20.05100205072992L300.95038648947735,135.02550102536497A125,125 0,0,1 326.62677203769306,127.20467348216368Z" style="pointer-events: none; stroke-width: 1; fill: rgb(246, 207, 113); fill-opacity: 1; stroke: rgb(255, 255, 255); stroke-opacity: 1; opacity: 0.7;"/><g class="slicetext"><text data-notex="1" class="slicetext" text-anchor="middle" x="0" y="0" style="font-family: Arial; font-size: 12px; fill: rgb(68, 68, 68); fill-opacity: 1; white-space: pre;" transform="translate(291.5647791606449,71.88060780554602)rotate(73.05967160592706)">Fruit vegetables</text></g></g><g class="slice"><path class="surface" d="M300.95038648947735,135.02550102536497L251.9007729789547,20.05100205072992A250,250 0,0,0 210.24233990385784,42.71325067807351L280.1211699519289,146.35662533903675A125,125 0,0,1 300.95038648947735,135.02550102536497Z" style="pointer-events: none; stroke-width: 1; fill: rgb(246, 207, 113); fill-opacity: 1; stroke: rgb(255, 255, 255); stroke-opacity: 1; opacity: 0.7;"/><g class="slicetext"><text data-notex="1" class="slicetext" text-anchor="middle" x="0" y="0" style="font-family: Arial; font-size: 12px; fill: rgb(68, 68, 68); fill-opacity: 1; white-space: pre;" transform="translate(256.92729049871184,87.28143215761727)rotate(61.45374449339204)">Leaf vegetables</text></g></g><g class="slice"><path class="surface" d="M280.1211699519289,146.35662533903675L210.24233990385784,42.71325067807351A250,250 0,0,0 178.58369461015414,68.0207422630395L264.29184730507706,159.01037113151975A125,125 0,0,1 280.1211699519289,146.35662533903675Z" style="pointer-events: none; stroke-width: 1; fill: rgb(246, 207, 113); fill-opacity: 1; stroke: rgb(255, 255, 255); stroke-opacity: 1; opacity: 0.7;"/><g class="slicetext"><text data-notex="1" class="slicetext" text-anchor="middle" x="0" y="0" style="font-family: Arial; font-size: 12px; fill: rgb(68, 68, 68); fill-opacity: 1; white-space: pre;" transform="translate(222.6623724135584,97.1119151937773)rotate(51.3616339607529)">Cabbages</text></g></g><g class="slice"><path class="surface" d="M264.29184730507706,159.01037113151975L178.58369461015414,68.0207422630395A250,250 0,0,0 157.50408124313356,90.4841034192834L253.75204062156678,170.24205170964171A125,125 0,0,1 264.29184730507706,159.01037113151975Z" style="pointer-events: none; stroke-width: 1; fill: rgb(246, 207, 113); fill-opacity: 1; stroke: rgb(255, 255, 255); stroke-opacity: 1; opacity: 0.7;"/><g class="slicetext"><text data-notex="1" class="slicetext" text-anchor="middle" x="0" y="0" style="font-family: Arial; font-size: 12px; fill: rgb(68, 68, 68); fill-opacity: 1; white-space: pre;" transform="translate(189.25765505074241,104.64480772104916)rotate(43.17981577893477)">Tubers</text></g></g><g class="slice"><path class="surface" d="M253.75204062156678,170.24205170964171L157.50408124313356,90.4841034192834A250,250 0,0,0 139.68661679220472,114.83979563610055L244.84330839610237,182.4198978180503A125,125 0,0,1 253.75204062156678,170.24205170964171Z" style="pointer-events: none; stroke-width: 1; fill: rgb(246, 207, 113); fill-opacity: 1; stroke: rgb(255, 255, 255); stroke-opacity: 1; opacity: 0.7;"/><g class="slicetext"><text data-notex="1" class="slicetext" text-anchor="middle" x="0" y="0" style="font-family: Arial; font-size: 12px; fill: rgb(68, 68, 68); fill-opacity: 1; white-space: pre;" transform="translate(193.44329537487567,140.42664841451938)rotate(36.18742490989189)">Other vegetables</text></g></g><g class="slice"><path class="surface" d="M244.84330839610237,182.4198978180503L139.68661679220472,114.83979563610055A250,250 0,0,0 130.84458168781512,129.70493516186434L240.42229084390755,189.85246758093217A125,125 0,0,1 244.84330839610237,182.4198978180503Z" style="pointer-events: none; stroke-width: 1; fill: rgb(246, 207, 113); fill-opacity: 1; stroke: rgb(255, 255, 255); stroke-opacity: 1; opacity: 0.7;"/><g class="slicetext"><text data-notex="1" class="slicetext" text-anchor="middle" x="0" y="0" style="font-family: Arial; font-size: 12px; fill: rgb(68, 68, 68); fill-opacity: 1; white-space: pre;" transform="translate(170.03912620261644,146.6635388654198)scale(0.7965604035334923)rotate(30.74489387264714)">Shoot vegetables</text></g></g><g class="slice"><path class="surface" d="M240.42229084390755,189.85246758093217L130.84458168781512,129.70493516186434A250,250 0,0,0 123.4489073180014,144.29000801914475L236.7244536590007,197.14500400957238A125,125 0,0,1 240.42229084390755,189.85246758093217Z" style="pointer-events: none; stroke-width: 1; fill: rgb(246, 207, 113); fill-opacity: 1; stroke: rgb(255, 255, 255); stroke-opacity: 1; opacity: 0.7;"/><g class="slicetext"><text data-notex="1" class="slicetext" text-anchor="middle" x="0" y="0" style="font-family: Arial; font-size: 12px; fill: rgb(68, 68, 68); fill-opacity: 1; white-space: pre;" transform="translate(152.71810199621126,153.83077763572044)scale(0.8621902591727472)rotate(26.888265919102878)">Mushrooms</text></g></g><g class="slice"><path class="surface" d="M236.7244536590007,197.14500400957238L123.4489073180014,144.29000801914475A250,250 0,0,0 117.36648002888452,158.44867348941023L233.68324001444228,204.2243367447051A125,125 0,0,1 236.7244536590007,197.14500400957238Z" style="pointer-events: none; stroke-width: 1; fill: rgb(246, 207, 113); fill-opacity: 1; stroke: rgb(255, 255, 255); stroke-opacity: 1; opacity: 0.7;"/><g class="slicetext"><text data-notex="1" class="slicetext" text-anchor="middle" x="0" y="0" style="font-family: Arial; font-size: 12px; fill: rgb(68, 68, 68); fill-opacity: 1; white-space: pre;" transform="translate(136.5510796429224,156.48497150588182)scale(0.4393757624274232)rotate(23.247897476972412)"><tspan class="line" dy="0em" x="0" y="0">Onion-family</tspan><tspan class="line" dy="1.3em" x="0" y="0">vegetables</tspan></text></g></g><g class="slice"><path class="surface" d="M233.68324001444228,204.2243367447051L117.36648002888452,158.44867348941023A250,250 0,0,0 113.2569379393363,169.6711598108081L231.62846896966815,209.83557990540405A125,125 0,0,1 233.68324001444228,204.2243367447051Z" style="pointer-events: none; stroke-width: 1; fill: rgb(246, 207, 113); fill-opacity: 1; stroke: rgb(255, 255, 255); stroke-opacity: 1; opacity: 0.7;"/><g class="slicetext"><text data-notex="1" class="slicetext" text-anchor="middle" x="0" y="0" style="font-family: Arial; font-size: 12px; fill: rgb(68, 68, 68); fill-opacity: 1; white-space: pre;" transform="translate(144.08192892867697,177.24782697991)scale(0.6227109495237988)rotate(20.112134561473795)">Stalk vegetables</text></g></g><g class="slice"><path class="surface" d="M231.62846896966815,209.83557990540405L113.2569379393363,169.6711598108081A250,250 0,0,0 108.59332809208973,314.983219051895L229.29666404604487,282.4916095259475A125,125 0,0,1 231.62846896966815,209.83557990540405Z" style="pointer-events: none; stroke-width: 1; fill: rgb(248, 156, 116); fill-opacity: 1; stroke: rgb(255, 255, 255); stroke-opacity: 1; opacity: 0.7;"/><g class="slicetext"><text data-notex="1" class="slicetext" text-anchor="middle" x="0" y="0" style="font-family: Arial; font-size: 12px; fill: rgb(68, 68, 68); fill-opacity: 1; white-space: pre;" transform="translate(156.41739290213923,247.78720694323505)">Herbs</text></g></g><g class="slice"><path class="surface" d="M229.29666404604487,282.4916095259475L108.59332809208973,314.983219051895A250,250 0,0,0 149.91182337447222,399.882359117648L249.9559116872361,324.941179558824A125,125 0,0,1 229.29666404604487,282.4916095259475Z" style="pointer-events: none; stroke-width: 1; fill: rgb(248, 156, 116); fill-opacity: 1; stroke: rgb(255, 255, 255); stroke-opacity: 1; opacity: 0.7;"/><g class="slicetext"><text data-notex="1" class="slicetext" text-anchor="middle" x="0" y="0" style="font-family: Arial; font-size: 12px; fill: rgb(68, 68, 68); fill-opacity: 1; white-space: pre;" transform="translate(160.9148469746332,346.0234762942989)">Spices</text></g></g><g class="slice"><path class="surface" d="M249.9559116872361,324.941179558824L149.91182337447222,399.882359117648A250,250 0,0,0 185.57285142888134,438.3181159972967L267.78642571444067,344.15905799864834A125,125 0,0,1 249.9559116872361,324.941179558824Z" style="pointer-events: none; stroke-width: 1; fill: rgb(248, 156, 116); fill-opacity: 1; stroke: rgb(255, 255, 255); stroke-opacity: 1; opacity: 0.7;"/><g class="slicetext"><text data-notex="1" class="slicetext" text-anchor="middle" x="0" y="0" style="font-family: Arial; font-size: 12px; fill: rgb(68, 68, 68); fill-opacity: 1; white-space: pre;" transform="translate(215.35689161572432,380.37952996859724)rotate(-42.855426511814244)">Oilseed crops</text></g></g><g class="slice"><path class="surface" d="M267.78642571444067,344.15905799864834L185.57285142888134,438.3181159972967A250,250 0,0,0 203.7926134731755,452.78905326717154L276.89630673658775,351.39452663358577A125,125 0,0,1 267.78642571444067,344.15905799864834Z" style="pointer-events: none; stroke-width: 1; fill: rgb(248, 156, 116); fill-opacity: 1; stroke: rgb(255, 255, 255); stroke-opacity: 1; opacity: 0.7;"/><g class="slicetext"><text data-notex="1" class="slicetext" text-anchor="middle" x="0" y="0" style="font-family: Arial; font-size: 12px; fill: rgb(68, 68, 68); fill-opacity: 1; white-space: pre;" transform="translate(222.89519422460867,416.4638934167911)rotate(-51.54185022026434)">Other seeds</text></g></g><g class="slice"><path class="surface" d="M276.89630673658775,351.39452663358577L203.7926134731755,452.78905326717154A250,250 0,0,0 288.82122355096647,492.39875682890613L319.41061177548323,371.19937841445307A125,125 0,0,1 276.89630673658775,351.39452663358577Z" style="pointer-events: none; stroke-width: 1; fill: rgb(220, 176, 242); fill-opacity: 1; stroke: rgb(255, 255, 255); stroke-opacity: 1; opacity: 0.7;"/><g class="slicetext"><text data-notex="1" class="slicetext" text-anchor="middle" x="0" y="0" style="font-family: Arial; font-size: 12px; fill: rgb(68, 68, 68); fill-opacity: 1; white-space: pre;" transform="translate(261.1088589254873,444.8191552611471)">Cereals</text></g></g><g class="slice"><path class="surface" d="M319.41061177548323,371.19937841445307L288.82122355096647,492.39875682890613A250,250 0,0,0 332.2436389076075,499.36862601529606L341.12181945380377,374.68431300764803A125,125 0,0,1 319.41061177548323,371.19937841445307Z" style="pointer-events: none; stroke-width: 1; fill: rgb(135, 197, 95); fill-opacity: 1; stroke: rgb(255, 255, 255); stroke-opacity: 1; opacity: 0.7;"/><g class="slicetext"><text data-notex="1" class="slicetext" text-anchor="middle" x="0" y="0" style="font-family: Arial; font-size: 12px; fill: rgb(68, 68, 68); fill-opacity: 1; white-space: pre;" transform="translate(313.58206541652333,480.88441341232556)">Beans</text></g></g><g class="slice"><path class="surface" d="M341.12181945380377,374.68431300764803L332.2436389076075,499.36862601529606A250,250 0,0,0 365.8734189556857,499.495560222336L357.93670947784284,374.747780111168A125,125 0,0,1 341.12181945380377,374.68431300764803Z" style="pointer-events: none; stroke-width: 1; fill: rgb(135, 197, 95); fill-opacity: 1; stroke: rgb(255, 255, 255); stroke-opacity: 1; opacity: 0.7;"/><g class="slicetext"><text data-notex="1" class="slicetext" text-anchor="middle" x="0" y="0" style="font-family: Arial; font-size: 12px; fill: rgb(68, 68, 68); fill-opacity: 1; white-space: pre;" transform="translate(349.11585944093844,488.24302421068114)">Peas</text></g></g><g class="slice"><path class="surface" d="M357.93670947784284,374.747780111168L365.8734189556857,499.495560222336A250,250 0,0,0 372.45905500537975,498.98913801261557L361.2295275026899,374.49456900630776A125,125 0,0,1 357.93670947784284,374.747780111168Z" style="pointer-events: none; stroke-width: 1; fill: rgb(135, 197, 95); fill-opacity: 1; stroke: rgb(255, 255, 255); stroke-opacity: 1; opacity: 0.7;"/><g class="slicetext"><text data-notex="1" class="slicetext" text-anchor="middle" x="0" y="0" style="font-family: Arial; font-size: 12px; fill: rgb(68, 68, 68); fill-opacity: 1; white-space: pre;" transform="translate(366.79887195681147,490.8327059037817)scale(0.42890383023937984)rotate(85.60272326792153)">Lentils</text></g></g><g class="slice"><path class="surface" d="M361.2295275026899,374.49456900630776L372.45905500537975,498.98913801261557A250,250 0,0,0 377.77901526472544,498.4518591416095L363.8895076323627,374.22592957080474A125,125 0,0,1 361.2295275026899,374.49456900630776Z" style="pointer-events: none; stroke-width: 1; fill: rgb(135, 197, 95); fill-opacity: 1; stroke: rgb(255, 255, 255); stroke-opacity: 1; opacity: 0.7;"/><g class="slicetext"><text data-notex="1" class="slicetext" text-anchor="middle" x="0" y="0" style="font-family: Arial; font-size: 12px; fill: rgb(68, 68, 68); fill-opacity: 1; white-space: pre;" transform="translate(372.48350168551354,485.91974035310386)scale(0.3339875963899847)rotate(84.23307969563484)">Other pulses</text></g></g><g class="slice"><path class="surface" d="M363.8895076323627,374.22592957080474L377.77901526472544,498.4518591416095A250,250 0,0,0 460.10764723374876,474.44666631662926L405.05382361687435,362.22333315831463A125,125 0,0,1 363.8895076323627,374.22592957080474Z" style="pointer-events: none; stroke-width: 1; fill: rgb(158, 185, 243); fill-opacity: 1; stroke: rgb(255, 255, 255); stroke-opacity: 1; opacity: 0.7;"/><g class="slicetext"><text data-notex="1" class="slicetext" text-anchor="middle" x="0" y="0" style="font-family: Arial; font-size: 12px; fill: rgb(68, 68, 68); fill-opacity: 1; white-space: pre;" transform="translate(409.73494764910674,458.8680282032373)">Unknown</text></g></g><g class="slice"><path class="surface" d="M405.05382361687435,362.22333315831463L460.10764723374876,474.44666631662926A250,250 0,0,0 511.3251790155033,440.9821630823565L430.66258950775165,345.49108154117823A125,125 0,0,1 405.05382361687435,362.22333315831463Z" style="pointer-events: none; stroke-width: 1; fill: rgb(254, 136, 177); fill-opacity: 1; stroke: rgb(255, 255, 255); stroke-opacity: 1; opacity: 0.7;"/><g class="slicetext"><text data-notex="1" class="slicetext" text-anchor="middle" x="0" y="0" style="font-family: Arial; font-size: 12px; fill: rgb(68, 68, 68); fill-opacity: 1; white-space: pre;" transform="translate(471.83589725059227,440.4702397016291)">Fishes</text></g></g><g class="slice"><path class="surface" d="M430.66258950775165,345.49108154117823L511.3251790155033,440.9821630823565A250,250 0,0,0 516.0792732747174,436.8627169569728L433.0396366373587,343.4313584784864A125,125 0,0,1 430.66258950775165,345.49108154117823Z" style="pointer-events: none; stroke-width: 1; fill: rgb(254, 136, 177); fill-opacity: 1; stroke: rgb(255, 255, 255); stroke-opacity: 1; opacity: 0.7;"/><g class="slicetext"><text data-notex="1" class="slicetext" text-anchor="middle" x="0" y="0" style="font-family: Arial; font-size: 12px; fill: rgb(68, 68, 68); fill-opacity: 1; white-space: pre;" transform="translate(505.73822730857967,432.1893290958807)scale(0.4023846923954291)rotate(49.090909090909065)">Mollusks</text></g></g><g class="slice"><path class="surface" d="M433.0396366373587,343.4313584784864L516.0792732747174,436.8627169569728A250,250 0,0,0 519.8069819129362,433.48184894866245L434.9034909564681,341.7409244743312A125,125 0,0,1 433.0396366373587,343.4313584784864Z" style="pointer-events: none; stroke-width: 1; fill: rgb(254, 136, 177); fill-opacity: 1; stroke: rgb(255, 255, 255); stroke-opacity: 1; opacity: 0.7;"/><g class="slicetext"><text data-notex="1" class="slicetext" text-anchor="middle" x="0" y="0" style="font-family: Arial; font-size: 12px; fill: rgb(68, 68, 68); fill-opacity: 1; white-space: pre;" transform="translate(508.92924795980656,427.12171425450686)scale(0.31709904614870144)rotate(47.793352022426916)">Crustaceans</text></g></g><g class="slice"><path class="surface" d="M434.9034909564681,341.7409244743312L519.8069819129362,433.48184894866245A250,250 0,0,0 522.7851480007604,430.68008365715167L436.3925740003802,340.34004182857586A125,125 0,0,1 434.9034909564681,341.7409244743312Z" style="pointer-events: none; stroke-width: 1; fill: rgb(254, 136, 177); fill-opacity: 1; stroke: rgb(255, 255, 255); stroke-opacity: 1; opacity: 0.7;"/><g class="slicetext"><text data-notex="1" class="slicetext" text-anchor="middle" x="0" y="0" style="font-family: Arial; font-size: 12px; fill: rgb(68, 68, 68); fill-opacity: 1; white-space: pre;" transform="translate(515.0836160056369,427.03584330872576)scale(0.266967919233307)rotate(46.74809771726069)">Pinnipeds</text></g></g><g class="slice"><path class="surface" d="M436.3925740003802,340.34004182857586L522.7851480007604,430.68008365715167A250,250 0,0,0 524.8199260328399,428.7120406180635L437.40996301641997,339.35602030903175A125,125 0,0,1 436.3925740003802,340.34004182857586Z" style="pointer-events: none; stroke-width: 1; fill: rgb(254, 136, 177); fill-opacity: 1; stroke: rgb(255, 255, 255); stroke-opacity: 1; opacity: 0.7;"/><g class="slicetext"><text data-notex="1" class="slicetext" text-anchor="middle" x="0" y="0" style="font-family: Arial; font-size: 12px; fill: rgb(68, 68, 68); fill-opacity: 1; white-space: pre;" transform="translate(519.6224170661924,426.4621374569497)scale(0.18908981093985602)rotate(45.955146175410505)">Seaweed</text></g></g><g class="slice"><path class="surface" d="M437.40996301641997,339.35602030903175L524.8199260328399,428.7120406180635A250,250 0,0,0 526.3870478078338,427.16548581943647L438.1935239039169,338.58274290971826A125,125 0,0,1 437.40996301641997,339.35602030903175Z" style="pointer-events: none; stroke-width: 1; fill: rgb(254, 136, 177); fill-opacity: 1; stroke: rgb(255, 255, 255); stroke-opacity: 1; opacity: 0.7;"/><g class="slicetext"><text data-notex="1" class="slicetext" text-anchor="middle" x="0" y="0" style="font-family: Arial; font-size: 12px; fill: rgb(68, 68, 68); fill-opacity: 1; white-space: pre;" transform="translate(521.88704870158,425.01417282632315)scale(0.14773158182505677)rotate(45.378454144973944)">Cetaceans</text></g></g><g class="slice"><path class="surface" d="M438.1935239039169,338.58274290971826L526.3870478078338,427.16548581943647A250,250 0,0,0 527.2764111601723,426.2755628162041L438.63820558008615,338.13778140810206A125,125 0,0,1 438.1935239039169,338.58274290971826Z" style="pointer-events: none; stroke-width: 1; fill: rgb(254, 136, 177); fill-opacity: 1; stroke: rgb(255, 255, 255); stroke-opacity: 1; opacity: 0.7;"/><g class="slicetext"><text data-notex="1" class="slicetext" text-anchor="middle" x="0" y="0" style="font-family: Arial; font-size: 12px; fill: rgb(68, 68, 68); fill-opacity: 1; white-space: pre;" transform="translate(522.9669224556342,423.33381115180634)scale(0.0841126443173504)rotate(44.98197837404882)">Other aquatic foods</text></g></g><g class="slice"><path class="surface" d="M438.63820558008615,338.13778140810206L527.2764111601723,426.2755628162041A250,250 0,0,0 573.3977025316005,362.2206153235782L461.6988512658003,306.1103076617891A125,125 0,0,1 438.63820558008615,338.13778140810206Z" style="pointer-events: none; stroke-width: 1; fill: rgb(201, 219, 116); fill-opacity: 1; stroke: rgb(255, 255, 255); stroke-opacity: 1; opacity: 0.7;"/><g class="slicetext"><text data-notex="1" class="slicetext" text-anchor="middle" x="0" y="0" style="font-family: Arial; font-size: 12px; fill: rgb(68, 68, 68); fill-opacity: 1; white-space: pre;" transform="translate(525.2201477069508,380.1632364536291)">Nuts</text></g></g><g class="slice"><path class="surface" d="M461.6988512658003,306.1103076617891L573.3977025316005,362.2206153235782A250,250 0,0,0 588.6892125374434,324.34688842349203L469.3446062687217,287.173444211746A125,125 0,0,1 461.6988512658003,306.1103076617891Z" style="pointer-events: none; stroke-width: 1; fill: rgb(139, 224, 164); fill-opacity: 1; stroke: rgb(255, 255, 255); stroke-opacity: 1; opacity: 0.7;"/><g class="slicetext"><text data-notex="1" class="slicetext" text-anchor="middle" x="0" y="0" style="font-family: Arial; font-size: 12px; fill: rgb(68, 68, 68); fill-opacity: 1; white-space: pre;" transform="translate(541.2194323295388,331.5185342018001)rotate(21.98638366039245)">Gourds</text></g></g><g class="slice"><path class="surface" d="M469.3446062687217,287.173444211746L588.6892125374434,324.34688842349203A250,250 0,0,0 593.3308896880844,307.35920260607975L471.6654448440422,278.6796013030399A125,125 0,0,1 469.3446062687217,287.173444211746Z" style="pointer-events: none; stroke-width: 1; fill: rgb(180, 151, 231); fill-opacity: 1; stroke: rgb(255, 255, 255); stroke-opacity: 1; opacity: 0.7;"/><g class="slicetext"><text data-notex="1" class="slicetext" text-anchor="middle" x="0" y="0" style="font-family: Arial; font-size: 12px; fill: rgb(68, 68, 68); fill-opacity: 1; white-space: pre;" transform="translate(568.9654598869547,313.9762610694547)rotate(15.282338806567907)">Poultry</text></g></g><g class="slice"><path class="surface" d="M471.6654448440422,278.6796013030399L593.3308896880844,307.35920260607975A250,250 0,0,0 594.3034193051415,303.06448262082864L472.15170965257073,276.5322413104143A125,125 0,0,1 471.6654448440422,278.6796013030399Z" style="pointer-events: none; stroke-width: 1; fill: rgb(180, 151, 231); fill-opacity: 1; stroke: rgb(255, 255, 255); stroke-opacity: 1; opacity: 0.7;"/><g class="slicetext"><text data-notex="1" class="slicetext" text-anchor="middle" x="0" y="0" style="font-family: Arial; font-size: 12px; fill: rgb(68, 68, 68); fill-opacity: 1; white-space: pre;" transform="translate(586.8921727619734,304.83384526130163)scale(0.2901900168636162)rotate(12.759311173408094)">Bovines</text></g></g><g class="slice"><path class="surface" d="M472.15170965257073,276.5322413104143L594.3034193051415,303.06448262082864A250,250 0,0,0 595.0767007740054,299.37014014289L472.5383503870027,274.685070071445A125,125 0,0,1 472.15170965257073,276.5322413104143Z" style="pointer-events: none; stroke-width: 1; fill: rgb(180, 151, 231); fill-opacity: 1; stroke: rgb(255, 255, 255); stroke-opacity: 1; opacity: 0.7;"/><g class="slicetext"><text data-notex="1" class="slicetext" text-anchor="middle" x="0" y="0" style="font-family: Arial; font-size: 12px; fill: rgb(68, 68, 68); fill-opacity: 1; white-space: pre;" transform="translate(589.9106314464248,301.252048801613)scale(0.25329660090356254)rotate(11.82218662394871)">Swine</text></g></g><g class="slice"><path class="surface" d="M472.5383503870027,274.685070071445L595.0767007740054,299.37014014289A250,250 0,0,0 595.6784364941019,296.2828892984605L472.83921824705095,273.1414446492302A125,125 0,0,1 472.5383503870027,274.685070071445Z" style="pointer-events: none; stroke-width: 1; fill: rgb(180, 151, 231); fill-opacity: 1; stroke: rgb(255, 255, 255); stroke-opacity: 1; opacity: 0.7;"/><g class="slicetext"><text data-notex="1" class="slicetext" text-anchor="middle" x="0" y="0" style="font-family: Arial; font-size: 12px; fill: rgb(68, 68, 68); fill-opacity: 1; white-space: pre;" transform="translate(590.1435230222152,297.66300283133364)scale(0.2102081689594742)rotate(11.029235082098523)">Equines</text></g></g><g class="slice"><path class="surface" d="M472.83921824705095,273.1414446492302L595.6784364941019,296.2828892984605A250,250 0,0,0 596.0765181128479,294.11742550803746L473.03825905642395,272.05871275401876A125,125 0,0,1 472.83921824705095,273.1414446492302Z" style="pointer-events: none; stroke-width: 1; fill: rgb(180, 151, 231); fill-opacity: 1; stroke: rgb(255, 255, 255); stroke-opacity: 1; opacity: 0.7;"/><g class="slicetext"><text data-notex="1" class="slicetext" text-anchor="middle" x="0" y="0" style="font-family: Arial; font-size: 12px; fill: rgb(68, 68, 68); fill-opacity: 1; white-space: pre;" transform="translate(593.8647474706983,295.4447495016839)scale(0.15111685852945592)rotate(10.416499799759777)">Ovis</text></g></g><g class="slice"><path class="surface" d="M473.03825905642395,272.05871275401876L596.0765181128479,294.11742550803746A250,250 0,0,0 596.295425797732,292.8784704847766L473.147712898866,271.4392352423883A125,125 0,0,1 473.03825905642395,272.05871275401876Z" style="pointer-events: none; stroke-width: 1; fill: rgb(180, 151, 231); fill-opacity: 1; stroke: rgb(255, 255, 255); stroke-opacity: 1; opacity: 0.7;"/><g class="slicetext"><text data-notex="1" class="slicetext" text-anchor="middle" x="0" y="0" style="font-family: Arial; font-size: 12px; fill: rgb(68, 68, 68); fill-opacity: 1; white-space: pre;" transform="translate(594.2950671216214,293.5148272171433)scale(0.08640618103421704)rotate(10.020024028834655)">Caprae</text></g></g><g class="slice"><path class="surface" d="M473.147712898866,271.4392352423883L596.295425797732,292.8784704847766A250,250 0,0,0 596.3491782609326,292.56856081855744L473.1745891304663,271.2842804092787A125,125 0,0,1 473.147712898866,271.4392352423883Z" style="pointer-events: none; stroke-width: 1; fill: rgb(180, 151, 231); fill-opacity: 1; stroke: rgb(255, 255, 255); stroke-opacity: 1; opacity: 0.7;"/><g class="slicetext"><text data-notex="1" class="slicetext" text-anchor="middle" x="0" y="0" style="font-family: Arial; font-size: 12px; fill: rgb(68, 68, 68); fill-opacity: 1; white-space: pre;" transform="translate(595.4828561727828,292.6663418327377)scale(0.02178089580627219)rotate(9.839807769323215)">Lagomorphs</text></g></g><g class="slice"><path class="surface" d="M473.17458913046636,271.2842804092786L596.3491782609327,292.5685608185572A250,250 0,0,0 598.1405819180303,280.4343819615463L474.07029095901515,265.2171909807731A125,125 0,0,1 473.17458913046636,271.2842804092786Z" style="pointer-events: none; stroke-width: 1; fill: rgb(179, 179, 179); fill-opacity: 1; stroke: rgb(255, 255, 255); stroke-opacity: 1; opacity: 0.7;"/><g class="slicetext"><text data-notex="1" class="slicetext" text-anchor="middle" x="0" y="0" style="font-family: Arial; font-size: 12px; fill: rgb(68, 68, 68); fill-opacity: 1; white-space: pre;" transform="translate(587.939634490103,288.33774309235844)scale(0.7939028500983211)rotate(8.398077693231869)">Soy</text></g></g><g class="slice"><path class="surface" d="M474.07029095901515,265.2171909807731L598.1405819180303,280.4343819615463A250,250 0,0,0 598.946309454466,272.92891207626883L474.473154727233,261.4644560381344A125,125 0,0,1 474.07029095901515,265.2171909807731Z" style="pointer-events: none; stroke-width: 1; fill: rgb(179, 226, 230); fill-opacity: 1; stroke: rgb(255, 255, 255); stroke-opacity: 1; opacity: 0.7;"/><g class="slicetext"><text data-notex="1" class="slicetext" text-anchor="middle" x="0" y="0" style="font-family: Arial; font-size: 12px; fill: rgb(68, 68, 68); fill-opacity: 1; white-space: pre;" transform="translate(591.9820063752853,277.9819366759748)scale(0.4983052707643952)rotate(6.127352823388094)">Teas</text></g></g><g class="slice"><path class="surface" d="M474.473154727233,261.4644560381344L598.946309454466,272.92891207626883A250,250 0,0,0 599.3346717952986,268.22694271485744L474.6673358976493,259.1134713574287A125,125 0,0,1 474.473154727233,261.4644560381344Z" style="pointer-events: none; stroke-width: 1; fill: rgb(179, 226, 230); fill-opacity: 1; stroke: rgb(255, 255, 255); stroke-opacity: 1; opacity: 0.7;"/><g class="slicetext"><text data-notex="1" class="slicetext" text-anchor="middle" x="0" y="0" style="font-family: Arial; font-size: 12px; fill: rgb(68, 68, 68); fill-opacity: 1; white-space: pre;" transform="translate(588.5827904737486,270.91518718325113)scale(0.3012940696603885)rotate(4.721665999199047)">Herbal teas</text></g></g><g class="slice"><path class="surface" d="M474.6673358976493,259.1134713574287L599.3346717952986,268.22694271485744A250,250 0,0,0 599.866254049223,258.17649603492396L474.9331270246115,254.08824801746198A125,125 0,0,1 474.6673358976493,259.1134713574287Z" style="pointer-events: none; stroke-width: 1; fill: rgb(252, 239, 209); fill-opacity: 1; stroke: rgb(255, 255, 255); stroke-opacity: 1; opacity: 0.7;"/><g class="slicetext"><text data-notex="1" class="slicetext" text-anchor="middle" x="0" y="0" style="font-family: Arial; font-size: 12px; fill: rgb(68, 68, 68); fill-opacity: 1; white-space: pre;" transform="translate(587.4717419124576,265.1004697807115)scale(0.6341774412442672)rotate(3.027633159791776)">Coffee</text></g></g><g class="slice"><path class="surface" d="M474.9331270246115,254.08824801746198L599.866254049223,258.17649603492396A250,250 0,0,0 599.9992085336851,250.6290727549666L474.99960426684254,250.3145363774833A125,125 0,0,1 474.9331270246115,254.08824801746198Z" style="pointer-events: none; stroke-width: 1; fill: rgb(253, 225, 213); fill-opacity: 1; stroke: rgb(255, 255, 255); stroke-opacity: 1; opacity: 0.7;"/><g class="slicetext"><text data-notex="1" class="slicetext" text-anchor="middle" x="0" y="0" style="font-family: Arial; font-size: 12px; fill: rgb(68, 68, 68); fill-opacity: 1; white-space: pre;" transform="translate(590.8975346171813,256.1972579553989)scale(0.4883333560032896)rotate(1.0092110532639254)">Cocoa</text></g></g><g class="slice"><path class="surface" d="M474.99960426684254,250.3145363774833L599.9992085336851,250.6290727549666A250,250 0,0,0 600,250.00000000000006L475,250.00000000000003A125,125 0,0,1 474.99960426684254,250.3145363774833Z" style="pointer-events: none; stroke-width: 1; fill: rgb(255, 255, 255); fill-opacity: 1; stroke: rgb(255, 255, 255); stroke-opacity: 1; opacity: 0.7;"/><g class="slicetext"><text data-notex="1" class="slicetext" text-anchor="middle" x="0" y="0" style="font-family: Arial; font-size: 12px; fill: rgb(68, 68, 68); fill-opacity: 1; white-space: pre;" transform="translate(598.2275189531932,250.48524194118096)scale(0.04323374288379278)rotate(0.07208650380454174)">Oilseed crops</text></g></g></g></g><g class="glimages"/><defs id="topdefs-12af92"><g class="clips"/></defs><g class="layer-above"><g class="imagelayer"/><g class="shapelayer"/></g><g class="infolayer"><g class="g-gtitle"/></g></svg>