<svg class="main-svg" xmlns="http://www.w3.org/2000/svg" xmlns:xlink="http://www.w3.org/1999/xlink" width="1000" height="450" style="" viewBox="0 0 1000 450"><rect x="0" y="0" width="1000" height="450" style="fill: rgb(255, 255, 255); fill-opacity: 1;"/><defs id="defs-6e0737"><g class="clips"><clipPath id="clip6e0737xyplot" class="plotclip"><rect width="721" height="167"/></clipPath><clipPath class="axesclip" id="clip6e0737x"><rect x="80" y="0" width="721" height="450"/></clipPath><clipPath class="axesclip" id="clip6e0737y"><rect x="0" y="100" width="1000" height="167"/></clipPath><clipPath class="axesclip" id="clip6e0737xy"><rect x="80" y="100" width="721" height="167"/></clipPath></g><g class="gradients"/><g class="patterns"/></defs><g class="bglayer"><rect class="bg" x="80" y="100" width="721" height="167" style="fill: rgb(229, 236, 246); fill-opacity: 1; stroke-width: 0;"/></g><g class="layer-below"><g class="imagelayer"/><g class="shapelayer"/></g><g class="cartesianlayer"><g class="subplot xy"><g class="layer-subplot"><g class="shapelayer"/><g class="imagelayer"/></g><g class="minor-gridlayer"><g class="x"/><g class="y"/></g><g class="gridlayer"><g class="x"/><g class="y"><path class="ygrid crisp" transform="translate(0,234.51)" d="M80,0h721" style="stroke: rgb(255, 255, 255); stroke-opacity: 1; stroke-width: 1px;"/><path class="ygrid crisp" transform="translate(0,178.88)" d="M80,0h721" style="stroke: rgb(255, 255, 255); stroke-opacity: 1; stroke-width: 1px;"/><path class="ygrid crisp" transform="translate(0,123.26)" d="M80,0h721" style="stroke: rgb(255, 255, 255); stroke-opacity: 1; stroke-width: 1px;"/></g></g><g class="zerolinelayer"/><path class="xlines-below"/><path class="ylines-below"/><g class="overlines-below"/><g class="xaxislayer-below"/><g class="yaxislayer-below"/><g class="overaxes-below"/><g class="plot" transform="translate(80,100)" clip-path="url(#clip6e0737xyplot)"><g class="boxlayer mlayer"><g class="trace boxes" style="opacity: 1;"><path class="box" d="M13.18,29.14H22.16M13.18,34.72H22.16V22.21H13.18ZM17.67,34.72V39.68M17.67,22.21V17.3M15.42,39.68H19.91M15.42,17.3H19.91" style="vector-effect: non-scaling-stroke; stroke-width: 2px; stroke: rgb(99, 110, 250); stroke-opacity: 1; fill: rgb(99, 110, 250); fill-opacity: 0.5;"/><path class="box" d="M68.18,44.23H77.16M68.18,57.88H77.16V42.86H68.18ZM72.67,57.88V58.98M72.67,42.86V38.95M70.42,58.98H74.91M70.42,38.95H74.91" style="vector-effect: non-scaling-stroke; stroke-width: 2px; stroke: rgb(99, 110, 250); stroke-opacity: 1; fill: rgb(99, 110, 250); fill-opacity: 0.5;"/><path class="box" d="M123.18,25.68H132.16M123.18,33.8H132.16V19.73H123.18ZM127.67,33.8V34.33M127.67,19.73V8.35M125.42,34.33H129.91M125.42,8.35H129.91" style="vector-effect: non-scaling-stroke; stroke-width: 2px; stroke: rgb(99, 110, 250); stroke-opacity: 1; fill: rgb(99, 110, 250); fill-opacity: 0.5;"/><path class="box" d="M178.18,52.8H187.16M178.18,59.94H187.16V41.65H178.18ZM182.67,59.94V70.32M182.67,41.65V36.49M180.42,70.32H184.91M180.42,36.49H184.91" style="vector-effect: non-scaling-stroke; stroke-width: 2px; stroke: rgb(99, 110, 250); stroke-opacity: 1; fill: rgb(99, 110, 250); fill-opacity: 0.5;"/><path class="box" d="M233.18,50.19H242.16M233.18,51.2H242.16V38.84H233.18ZM237.67,51.2V53.3M237.67,38.84V32.3M235.42,53.3H239.91M235.42,32.3H239.91" style="vector-effect: non-scaling-stroke; stroke-width: 2px; stroke: rgb(99, 110, 250); stroke-opacity: 1; fill: rgb(99, 110, 250); fill-opacity: 0.5;"/><path class="box" d="M288.17,50.4H297.16M288.17,57.79H297.16V46.36H288.17ZM292.67,57.79V69.14M292.67,46.36V40.44M290.42,69.14H294.91M290.42,40.44H294.91" style="vector-effect: non-scaling-stroke; stroke-width: 2px; stroke: rgb(99, 110, 250); stroke-opacity: 1; fill: rgb(99, 110, 250); fill-opacity: 0.5;"/><path class="box" d="M343.17,48.82H352.16M343.17,50.8H352.16V43.54H343.17ZM347.67,50.8V54.2M347.67,43.54V42.33M345.42,54.2H349.91M345.42,42.33H349.91" style="vector-effect: non-scaling-stroke; stroke-width: 2px; stroke: rgb(99, 110, 250); stroke-opacity: 1; fill: rgb(99, 110, 250); fill-opacity: 0.5;"/><path class="box" d="M398.17,50.77H407.16M398.17,57.27H407.16V42.53H398.17ZM402.67,57.27V58.5M402.67,42.53V34.95M400.42,58.5H404.91M400.42,34.95H404.91" style="vector-effect: non-scaling-stroke; stroke-width: 2px; stroke: rgb(99, 110, 250); stroke-opacity: 1; fill: rgb(99, 110, 250); fill-opacity: 0.5;"/><path class="box" d="M453.17,42.97H462.16M453.17,44.7H462.16V41.95H453.17ZM457.67,44.7V46.47M457.67,41.95V40.49M455.42,46.47H459.91M455.42,40.49H459.91" style="vector-effect: non-scaling-stroke; stroke-width: 2px; stroke: rgb(99, 110, 250); stroke-opacity: 1; fill: rgb(99, 110, 250); fill-opacity: 0.5;"/><path class="box" d="M508.18,54.44H517.16M508.18,57.81H517.16V50.22H508.18ZM512.67,57.81V57.97M512.67,50.22V42.06M510.42,57.97H514.91M510.42,42.06H514.91" style="vector-effect: non-scaling-stroke; stroke-width: 2px; stroke: rgb(99, 110, 250); stroke-opacity: 1; fill: rgb(99, 110, 250); fill-opacity: 0.5;"/><path class="box" d="M563.18,29.59H572.16M563.18,39.71H572.16V25.62H563.18ZM567.67,39.71V41.41M567.67,25.62V24.7M565.42,41.41H569.91M565.42,24.7H569.91" style="vector-effect: non-scaling-stroke; stroke-width: 2px; stroke: rgb(99, 110, 250); stroke-opacity: 1; fill: rgb(99, 110, 250); fill-opacity: 0.5;"/><path class="box" d="M618.18,49.11H627.16M618.18,53.32H627.16V37.46H618.18ZM622.67,53.32V56.36M622.67,37.46V36.32M620.42,56.36H624.91M620.42,36.32H624.91" style="vector-effect: non-scaling-stroke; stroke-width: 2px; stroke: rgb(99, 110, 250); stroke-opacity: 1; fill: rgb(99, 110, 250); fill-opacity: 0.5;"/><path class="box" d="M673.18,65.61H682.16M673.18,66.61H682.16V64.42H673.18ZM677.67,66.61V67.96M677.67,64.42V63.71M675.42,67.96H679.91M675.42,63.71H679.91" style="vector-effect: non-scaling-stroke; stroke-width: 2px; stroke: rgb(99, 110, 250); stroke-opacity: 1; fill: rgb(99, 110, 250); fill-opacity: 0.5;"/><g class="points"/><g class="points"/><g class="points"/><g class="points"/><g class="points"/><g class="points"/><g class="points"/><g class="points"/><g class="points"/><g class="points"/><g class="points"/><g class="points"/><g class="points"/></g><g class="trace boxes" style="opacity: 1;"><path class="box" d="M26.01,32.38H34.99M26.01,37.16H34.99V23.49H26.01ZM30.5,37.16V40.58M30.5,23.49V21.43M28.25,40.58H32.75M28.25,21.43H32.75" style="vector-effect: non-scaling-stroke; stroke-width: 2px; stroke: rgb(239, 85, 59); stroke-opacity: 1; fill: rgb(239, 85, 59); fill-opacity: 0.5;"/><path class="box" d="M81.01,50.98H89.99M81.01,52.96H89.99V44.18H81.01ZM85.5,52.96V56.25M85.5,44.18V42.21M83.25,56.25H87.75M83.25,42.21H87.75" style="vector-effect: non-scaling-stroke; stroke-width: 2px; stroke: rgb(239, 85, 59); stroke-opacity: 1; fill: rgb(239, 85, 59); fill-opacity: 0.5;"/><path class="box" d="M136.01,31.24H144.99M136.01,39.19H144.99V29.06H136.01ZM140.5,39.19V39.19M140.5,29.06V24.38M138.25,39.19H142.75M138.25,24.38H142.75" style="vector-effect: non-scaling-stroke; stroke-width: 2px; stroke: rgb(239, 85, 59); stroke-opacity: 1; fill: rgb(239, 85, 59); fill-opacity: 0.5;"/><path class="box" d="M191.01,39.08H199.99M191.01,46.57H199.99V28.39H191.01ZM195.5,46.57V48.01M195.5,28.39V26.96M193.25,48.01H197.75M193.25,26.96H197.75" style="vector-effect: non-scaling-stroke; stroke-width: 2px; stroke: rgb(239, 85, 59); stroke-opacity: 1; fill: rgb(239, 85, 59); fill-opacity: 0.5;"/><path class="box" d="M246.01,37.48H254.99M246.01,49.17H254.99V34.51H246.01ZM250.5,49.17V54.31M250.5,34.51V31.24M248.25,54.31H252.75M248.25,31.24H252.75" style="vector-effect: non-scaling-stroke; stroke-width: 2px; stroke: rgb(239, 85, 59); stroke-opacity: 1; fill: rgb(239, 85, 59); fill-opacity: 0.5;"/><path class="box" d="M301.01,40.99H309.99M301.01,43.7H309.99V30.94H301.01ZM305.5,43.7V46.09M305.5,30.94V23.77M303.25,46.09H307.75M303.25,23.77H307.75" style="vector-effect: non-scaling-stroke; stroke-width: 2px; stroke: rgb(239, 85, 59); stroke-opacity: 1; fill: rgb(239, 85, 59); fill-opacity: 0.5;"/><path class="box" d="M356.01,36.07H364.99M356.01,39.65H364.99V32.81H356.01ZM360.5,39.65V46.65M360.5,32.81V32.34M358.25,46.65H362.75M358.25,32.34H362.75" style="vector-effect: non-scaling-stroke; stroke-width: 2px; stroke: rgb(239, 85, 59); stroke-opacity: 1; fill: rgb(239, 85, 59); fill-opacity: 0.5;"/><path class="box" d="M411.01,42.92H419.99M411.01,45.41H419.99V35.61H411.01ZM415.5,45.41V52.87M415.5,35.61V34.21M413.25,52.87H417.75M413.25,34.21H417.75" style="vector-effect: non-scaling-stroke; stroke-width: 2px; stroke: rgb(239, 85, 59); stroke-opacity: 1; fill: rgb(239, 85, 59); fill-opacity: 0.5;"/><path class="box" d="M466.01,47.9H474.99M466.01,52.72H474.99V46.65H466.01ZM470.5,52.72V52.72M470.5,46.65V44.79M468.25,52.72H472.75M468.25,44.79H472.75" style="vector-effect: non-scaling-stroke; stroke-width: 2px; stroke: rgb(239, 85, 59); stroke-opacity: 1; fill: rgb(239, 85, 59); fill-opacity: 0.5;"/><path class="box" d="M521.01,37.32H529.99M521.01,43.23H529.99V33.74H521.01ZM525.5,43.23V51.63M525.5,33.74V32.34M523.25,51.63H527.75M523.25,32.34H527.75" style="vector-effect: non-scaling-stroke; stroke-width: 2px; stroke: rgb(239, 85, 59); stroke-opacity: 1; fill: rgb(239, 85, 59); fill-opacity: 0.5;"/><path class="box" d="M576.01,51.01H584.99M576.01,54.9H584.99V47.12H576.01ZM580.5,54.9V55.36M580.5,47.12V35.45M578.25,55.36H582.75M578.25,35.45H582.75" style="vector-effect: non-scaling-stroke; stroke-width: 2px; stroke: rgb(239, 85, 59); stroke-opacity: 1; fill: rgb(239, 85, 59); fill-opacity: 0.5;"/><path class="box" d="M631.01,46.03H639.99M631.01,52.72H639.99V40.43H631.01ZM635.5,52.72V54.12M635.5,40.43V38.56M633.25,54.12H637.75M633.25,38.56H637.75" style="vector-effect: non-scaling-stroke; stroke-width: 2px; stroke: rgb(239, 85, 59); stroke-opacity: 1; fill: rgb(239, 85, 59); fill-opacity: 0.5;"/><path class="box" d="M686.01,157.16H694.99M686.01,158.65H694.99V156.16H686.01ZM690.5,158.65V158.65M690.5,156.16V156.16M688.25,158.65H692.75M688.25,156.16H692.75" style="vector-effect: non-scaling-stroke; stroke-width: 2px; stroke: rgb(239, 85, 59); stroke-opacity: 1; fill: rgb(239, 85, 59); fill-opacity: 0.5;"/><g class="points"/><g class="points"/><g class="points"><path class="point" transform="translate(140.5,59.3)" d="M3,0A3,3 0 1,1 0,-3A3,3 0 0,1 3,0Z" style="opacity: 1; stroke-width: 0px; fill: rgb(239, 85, 59); fill-opacity: 1;"/></g><g class="points"/><g class="points"/><g class="points"/><g class="points"/><g class="points"/><g class="points"><path class="point" transform="translate(470.5,63.45)" d="M3,0A3,3 0 1,1 0,-3A3,3 0 0,1 3,0Z" style="opacity: 1; stroke-width: 0px; fill: rgb(239, 85, 59); fill-opacity: 1;"/></g><g class="points"/><g class="points"/><g class="points"/><g class="points"/></g><g class="trace boxes" style="opacity: 1;"><path class="box" d="M38.84,30.94H47.83M38.84,32.59H47.83V26.97H38.84ZM43.33,32.59V32.73M43.33,26.97V26.68M41.09,32.73H45.58M41.09,26.68H45.58" style="vector-effect: non-scaling-stroke; stroke-width: 2px; stroke: rgb(0, 204, 150); stroke-opacity: 1; fill: rgb(0, 204, 150); fill-opacity: 0.5;"/><path class="box" d="M93.84,50.39H102.83M93.84,52.7H102.83V46.24H93.84ZM98.33,52.7V54.3M98.33,46.24V40.59M96.09,54.3H100.58M96.09,40.59H100.58" style="vector-effect: non-scaling-stroke; stroke-width: 2px; stroke: rgb(0, 204, 150); stroke-opacity: 1; fill: rgb(0, 204, 150); fill-opacity: 0.5;"/><path class="box" d="M148.84,28.18H157.82M148.84,33.93H157.82V26.16H148.84ZM153.33,33.93V33.93M153.33,26.16V20.37M151.09,33.93H155.58M151.09,20.37H155.58" style="vector-effect: non-scaling-stroke; stroke-width: 2px; stroke: rgb(0, 204, 150); stroke-opacity: 1; fill: rgb(0, 204, 150); fill-opacity: 0.5;"/><path class="box" d="M203.84,45.71H212.83M203.84,47.58H212.83V42.44H203.84ZM208.33,47.58V51.78M208.33,42.44V41.41M206.09,51.78H210.58M206.09,41.41H210.58" style="vector-effect: non-scaling-stroke; stroke-width: 2px; stroke: rgb(0, 204, 150); stroke-opacity: 1; fill: rgb(0, 204, 150); fill-opacity: 0.5;"/><path class="box" d="M258.84,44.03H267.83M258.84,44.43H267.83V43.26H258.84ZM263.33,44.43V44.84M263.33,43.26V43.26M261.09,44.84H265.58M261.09,43.26H265.58" style="vector-effect: non-scaling-stroke; stroke-width: 2px; stroke: rgb(0, 204, 150); stroke-opacity: 1; fill: rgb(0, 204, 150); fill-opacity: 0.5;"/><path class="box" d="M313.84,45.61H322.83M313.84,46.61H322.83V43.98H313.84ZM318.33,46.61V49.03M318.33,43.98V43.31M316.09,49.03H320.58M316.09,43.31H320.58" style="vector-effect: non-scaling-stroke; stroke-width: 2px; stroke: rgb(0, 204, 150); stroke-opacity: 1; fill: rgb(0, 204, 150); fill-opacity: 0.5;"/><path class="box" d="M368.84,43.1H377.83M368.84,44.22H377.83V40.86H368.84ZM373.33,44.22V45.31M373.33,40.86V39.85M371.09,45.31H375.58M371.09,39.85H375.58" style="vector-effect: non-scaling-stroke; stroke-width: 2px; stroke: rgb(0, 204, 150); stroke-opacity: 1; fill: rgb(0, 204, 150); fill-opacity: 0.5;"/><path class="box" d="M423.84,46.86H432.83M423.84,47.86H432.83V43.4H423.84ZM428.33,47.86V50.14M428.33,43.4V40.66M426.09,50.14H430.58M426.09,40.66H430.58" style="vector-effect: non-scaling-stroke; stroke-width: 2px; stroke: rgb(0, 204, 150); stroke-opacity: 1; fill: rgb(0, 204, 150); fill-opacity: 0.5;"/><path class="box" d="M478.84,45.87H487.83M478.84,49.02H487.83V44.87H478.84ZM483.33,49.02V52.65M483.33,44.87V43.88M481.09,52.65H485.58M481.09,43.88H485.58" style="vector-effect: non-scaling-stroke; stroke-width: 2px; stroke: rgb(0, 204, 150); stroke-opacity: 1; fill: rgb(0, 204, 150); fill-opacity: 0.5;"/><path class="box" d="M533.84,46.68H542.82M533.84,46.9H542.82V46.18H533.84ZM538.33,46.9V46.96M538.33,46.18V45.97M536.09,46.96H540.58M536.09,45.97H540.58" style="vector-effect: non-scaling-stroke; stroke-width: 2px; stroke: rgb(0, 204, 150); stroke-opacity: 1; fill: rgb(0, 204, 150); fill-opacity: 0.5;"/><path class="box" d="M588.84,41.17H597.82M588.84,43.79H597.82V38.75H588.84ZM593.33,43.79V46.32M593.33,38.75V37.32M591.09,46.32H595.58M591.09,37.32H595.58" style="vector-effect: non-scaling-stroke; stroke-width: 2px; stroke: rgb(0, 204, 150); stroke-opacity: 1; fill: rgb(0, 204, 150); fill-opacity: 0.5;"/><path class="box" d="M643.84,46.84H652.82M643.84,47.65H652.82V45.88H643.84ZM648.33,47.65V47.86M648.33,45.88V44.6M646.09,47.86H650.58M646.09,44.6H650.58" style="vector-effect: non-scaling-stroke; stroke-width: 2px; stroke: rgb(0, 204, 150); stroke-opacity: 1; fill: rgb(0, 204, 150); fill-opacity: 0.5;"/><path class="box" d="M698.84,127.07H707.83M698.84,128.3H707.83V126.07H698.84ZM703.33,128.3V128.83M703.33,126.07V125.67M701.09,128.83H705.58M701.09,125.67H705.58" style="vector-effect: non-scaling-stroke; stroke-width: 2px; stroke: rgb(0, 204, 150); stroke-opacity: 1; fill: rgb(0, 204, 150); fill-opacity: 0.5;"/><g class="points"/><g class="points"/><g class="points"><path class="point" transform="translate(153.33,47.29)" d="M3,0A3,3 0 1,1 0,-3A3,3 0 0,1 3,0Z" style="opacity: 1; stroke-width: 0px; fill: rgb(0, 204, 150); fill-opacity: 1;"/></g><g class="points"/><g class="points"><path class="point" transform="translate(263.33,41.32)" d="M3,0A3,3 0 1,1 0,-3A3,3 0 0,1 3,0Z" style="opacity: 1; stroke-width: 0px; fill: rgb(0, 204, 150); fill-opacity: 1;"/></g><g class="points"/><g class="points"/><g class="points"/><g class="points"/><g class="points"/><g class="points"/><g class="points"/><g class="points"/></g></g></g><g class="overplot"/><path class="xlines-above crisp" d="M0,0" style="fill: none;"/><path class="ylines-above crisp" d="M0,0" style="fill: none;"/><g class="overlines-above"/><g class="xaxislayer-above"><g class="xtick"><text text-anchor="start" x="0" y="280" transform="translate(110.5,0) rotate(30,0,274)" style="font-family: Arial; font-size: 12px; fill: rgb(42, 63, 95); fill-opacity: 1; white-space: pre; opacity: 1;">annotations</text></g><g class="xtick"><text text-anchor="start" x="0" y="280" transform="translate(165.5,0) rotate(30,0,274)" style="font-family: Arial; font-size: 12px; fill: rgb(42, 63, 95); fill-opacity: 1; white-space: pre; opacity: 1;">annotations_extdb</text></g><g class="xtick"><text text-anchor="start" x="0" y="280" transform="translate(220.5,0) rotate(30,0,274)" style="font-family: Arial; font-size: 12px; fill: rgb(42, 63, 95); fill-opacity: 1; white-space: pre; opacity: 1;">annotations_mesh_ncbi</text></g><g class="xtick"><text text-anchor="start" x="0" y="280" transform="translate(275.5,0) rotate(30,0,274)" style="font-family: Arial; font-size: 12px; fill: rgb(42, 63, 95); fill-opacity: 1; white-space: pre; opacity: 1;">annotations_predictions</text></g><g class="xtick"><text text-anchor="start" x="0" y="280" transform="translate(330.5,0) rotate(30,0,274)" style="font-family: Arial; font-size: 12px; fill: rgb(42, 63, 95); fill-opacity: 1; white-space: pre; opacity: 1;">annotations_extdb_mesh_ncbi</text></g><g class="xtick"><text text-anchor="start" x="0" y="280" transform="translate(385.5,0) rotate(30,0,274)" style="font-family: Arial; font-size: 12px; fill: rgb(42, 63, 95); fill-opacity: 1; white-space: pre; opacity: 1;">annotations_predictions_extdb</text></g><g class="xtick"><text text-anchor="start" x="0" y="280" transform="translate(440.5,0) rotate(30,0,274)" style="font-family: Arial; font-size: 12px; fill: rgb(42, 63, 95); fill-opacity: 1; white-space: pre; opacity: 1;">annotations_predictions_mesh_ncbi</text></g><g class="xtick"><text text-anchor="start" x="0" y="280" transform="translate(495.5,0) rotate(30,0,274)" style="font-family: Arial; font-size: 12px; fill: rgb(42, 63, 95); fill-opacity: 1; white-space: pre; opacity: 1;">annotations_predictions_extdb_mesh_ncbi</text></g><g class="xtick"><text text-anchor="start" x="0" y="280" transform="translate(550.5,0) rotate(30,0,274)" style="font-family: Arial; font-size: 12px; fill: rgb(42, 63, 95); fill-opacity: 1; white-space: pre; opacity: 1;">annotations_predictions-above60_extdb_mesh_ncbi</text></g><g class="xtick"><text text-anchor="start" x="0" y="280" transform="translate(605.5,0) rotate(30,0,274)" style="font-family: Arial; font-size: 12px; fill: rgb(42, 63, 95); fill-opacity: 1; white-space: pre; opacity: 1;">annotations_predictions-above70_extdb_mesh_ncbi</text></g><g class="xtick"><text text-anchor="start" x="0" y="280" transform="translate(660.5,0) rotate(30,0,274)" style="font-family: Arial; font-size: 12px; fill: rgb(42, 63, 95); fill-opacity: 1; white-space: pre; opacity: 1;">annotations_predictions-above80_extdb_mesh_ncbi</text></g><g class="xtick"><text text-anchor="start" x="0" y="280" transform="translate(715.5,0) rotate(30,0,274)" style="font-family: Arial; font-size: 12px; fill: rgb(42, 63, 95); fill-opacity: 1; white-space: pre; opacity: 1;">annotations_predictions-above90_extdb_mesh_ncbi</text></g><g class="xtick"><text text-anchor="start" x="0" y="280" transform="translate(770.5,0) rotate(30,0,274)" style="font-family: Arial; font-size: 12px; fill: rgb(42, 63, 95); fill-opacity: 1; white-space: pre; opacity: 1;">None</text></g></g><g class="yaxislayer-above"><g class="ytick"><text text-anchor="end" x="79" y="4.199999999999999" transform="translate(0,234.51)" style="font-family: Arial; font-size: 12px; fill: rgb(42, 63, 95); fill-opacity: 1; white-space: pre; opacity: 1;">0.4</text></g><g class="ytick"><text text-anchor="end" x="79" y="4.199999999999999" style="font-family: Arial; font-size: 12px; fill: rgb(42, 63, 95); fill-opacity: 1; white-space: pre; opacity: 1;" transform="translate(0,178.88)">0.6</text></g><g class="ytick"><text text-anchor="end" x="79" y="4.199999999999999" style="font-family: Arial; font-size: 12px; fill: rgb(42, 63, 95); fill-opacity: 1; white-space: pre; opacity: 1;" transform="translate(0,123.26)">0.8</text></g></g><g class="overaxes-above"/></g></g><g class="polarlayer"/><g class="smithlayer"/><g class="ternarylayer"/><g class="geolayer"/><g class="funnelarealayer"/><g class="pielayer"/><g class="iciclelayer"/><g class="treemaplayer"/><g class="sunburstlayer"/><g class="glimages"/><defs id="topdefs-6e0737"><g class="clips"/><clipPath id="legend6e0737"><rect width="137" height="67" x="0" y="0"/></clipPath></defs><g class="layer-above"><g class="imagelayer"/><g class="shapelayer"/></g><g class="infolayer"><g class="legend" pointer-events="all" transform="translate(815.42,100)"><rect class="bg" shape-rendering="crispEdges" width="137" height="67" x="0" y="0" style="stroke: rgb(68, 68, 68); stroke-opacity: 1; fill: rgb(255, 255, 255); fill-opacity: 1; stroke-width: 0px;"/><g class="scrollbox" transform="" clip-path="url(#legend6e0737)"><g class="groups"><g class="traces" transform="translate(0,14.5)" style="opacity: 1;"><text class="legendtext" text-anchor="start" x="40" y="4.680000000000001" style="font-family: Arial; font-size: 12px; fill: rgb(42, 63, 95); fill-opacity: 1; white-space: pre;">precision_score</text><g class="layers" style="opacity: 1;"><g class="legendfill"/><g class="legendlines"/><g class="legendsymbols"><g class="legendpoints"><path class="legendbox" d="M6,6H-6V-6H6Z" transform="translate(20,0)" style="stroke-width: 2px; fill: rgb(99, 110, 250); fill-opacity: 0.5; stroke: rgb(99, 110, 250); stroke-opacity: 1;"/></g></g></g><rect class="legendtoggle" x="0" y="-9.5" width="132" height="19" style="fill: rgb(0, 0, 0); fill-opacity: 0;"/></g><g class="traces" transform="translate(0,33.5)" style="opacity: 1;"><text class="legendtext" text-anchor="start" x="40" y="4.680000000000001" style="font-family: Arial; font-size: 12px; fill: rgb(42, 63, 95); fill-opacity: 1; white-space: pre;">recall_score</text><g class="layers" style="opacity: 1;"><g class="legendfill"/><g class="legendlines"/><g class="legendsymbols"><g class="legendpoints"><path class="legendbox" d="M6,6H-6V-6H6Z" transform="translate(20,0)" style="stroke-width: 2px; fill: rgb(239, 85, 59); fill-opacity: 0.5; stroke: rgb(239, 85, 59); stroke-opacity: 1;"/></g></g></g><rect class="legendtoggle" x="0" y="-9.5" width="132" height="19" style="fill: rgb(0, 0, 0); fill-opacity: 0;"/></g><g class="traces" transform="translate(0,52.5)" style="opacity: 1;"><text class="legendtext" text-anchor="start" x="40" y="4.680000000000001" style="font-family: Arial; font-size: 12px; fill: rgb(42, 63, 95); fill-opacity: 1; white-space: pre;">f1_score</text><g class="layers" style="opacity: 1;"><g class="legendfill"/><g class="legendlines"/><g class="legendsymbols"><g class="legendpoints"><path class="legendbox" d="M6,6H-6V-6H6Z" transform="translate(20,0)" style="stroke-width: 2px; fill: rgb(0, 204, 150); fill-opacity: 0.5; stroke: rgb(0, 204, 150); stroke-opacity: 1;"/></g></g></g><rect class="legendtoggle" x="0" y="-9.5" width="132" height="19" style="fill: rgb(0, 0, 0); fill-opacity: 0;"/></g></g></g><rect class="scrollbar" rx="20" ry="3" width="0" height="0" x="0" y="0" style="fill: rgb(128, 139, 164); fill-opacity: 1;"/></g><g class="g-gtitle"/><g class="g-xtitle"/><g class="g-ytitle"/></g></svg>