<?xml version="1.0" encoding="utf-8" standalone="no"?>
<!DOCTYPE svg PUBLIC "-//W3C//DTD SVG 1.1//EN"
  "http://www.w3.org/Graphics/SVG/1.1/DTD/svg11.dtd">
<svg xmlns:xlink="http://www.w3.org/1999/xlink" width="460.8pt" height="345.6pt" viewBox="0 0 460.8 345.6" xmlns="http://www.w3.org/2000/svg" version="1.1">
 <metadata>
  <rdf:RDF xmlns:dc="http://purl.org/dc/elements/1.1/" xmlns:cc="http://creativecommons.org/ns#" xmlns:rdf="http://www.w3.org/1999/02/22-rdf-syntax-ns#">
   <cc:Work>
    <dc:type rdf:resource="http://purl.org/dc/dcmitype/StillImage"/>
    <dc:date>2022-09-15T12:37:06.104626</dc:date>
    <dc:format>image/svg+xml</dc:format>
    <dc:creator>
     <cc:Agent>
      <dc:title>Matplotlib v3.5.3, https://matplotlib.org/</dc:title>
     </cc:Agent>
    </dc:creator>
   </cc:Work>
  </rdf:RDF>
 </metadata>
 <defs>
  <style type="text/css">*{stroke-linejoin: round; stroke-linecap: butt}</style>
 </defs>
 <g id="figure_1">
  <g id="patch_1">
   <path d="M 0 345.6 
L 460.8 345.6 
L 460.8 0 
L 0 0 
z
" style="fill: #ffffff"/>
  </g>
  <g id="axes_1">
   <g id="patch_2">
    <path d="M 57.6 307.584 
L 414.72 307.584 
L 414.72 41.472 
L 57.6 41.472 
z
" style="fill: #ffffff"/>
   </g>
   <g id="PolyCollection_1">
    <path d="M 129.204687 53.568 
L 129.204687 58.056573 
L 129.204687 53.568 
L 129.204687 53.568 
z
" clip-path="url(#p8a6b1c2c64)" style="fill: #1f77b4; fill-opacity: 0.2; stroke: #1f77b4; stroke-opacity: 0.2"/>
    <path d="M 153.684922 62.801636 
L 153.684922 65.792198 
L 153.684922 62.801636 
L 153.684922 62.801636 
z
" clip-path="url(#p8a6b1c2c64)" style="fill: #1f77b4; fill-opacity: 0.2; stroke: #1f77b4; stroke-opacity: 0.2"/>
    <path d="M 156.599236 65.373562 
L 156.599236 71.03704 
L 156.599236 65.373562 
L 156.599236 65.373562 
z
" clip-path="url(#p8a6b1c2c64)" style="fill: #1f77b4; fill-opacity: 0.2; stroke: #1f77b4; stroke-opacity: 0.2"/>
    <path d="M 161.845001 70.03563 
L 161.845001 72.658639 
L 161.845001 70.03563 
L 161.845001 70.03563 
z
" clip-path="url(#p8a6b1c2c64)" style="fill: #1f77b4; fill-opacity: 0.2; stroke: #1f77b4; stroke-opacity: 0.2"/>
    <path d="M 171.170805 70.903178 
L 171.170805 73.266423 
L 171.170805 70.903178 
L 171.170805 70.903178 
z
" clip-path="url(#p8a6b1c2c64)" style="fill: #1f77b4; fill-opacity: 0.2; stroke: #1f77b4; stroke-opacity: 0.2"/>
    <path d="M 218.382686 67.033719 
L 218.382686 68.657988 
L 218.382686 67.033719 
L 218.382686 67.033719 
z
" clip-path="url(#p8a6b1c2c64)" style="fill: #1f77b4; fill-opacity: 0.2; stroke: #1f77b4; stroke-opacity: 0.2"/>
    <path d="M 235.868569 67.080638 
L 235.868569 68.52991 
L 235.868569 67.080638 
L 235.868569 67.080638 
z
" clip-path="url(#p8a6b1c2c64)" style="fill: #1f77b4; fill-opacity: 0.2; stroke: #1f77b4; stroke-opacity: 0.2"/>
    <path d="M 243.445784 67.883714 
L 243.445784 69.263142 
L 243.445784 67.883714 
L 243.445784 67.883714 
z
" clip-path="url(#p8a6b1c2c64)" style="fill: #1f77b4; fill-opacity: 0.2; stroke: #1f77b4; stroke-opacity: 0.2"/>
    <path d="M 259.183078 67.975091 
L 259.183078 69.2372 
L 259.765941 70.440708 
L 259.765941 69.189861 
L 259.765941 69.189861 
L 259.183078 67.975091 
z
" clip-path="url(#p8a6b1c2c64)" style="fill: #1f77b4; fill-opacity: 0.2; stroke: #1f77b4; stroke-opacity: 0.2"/>
    <path d="M 265.594568 69.947354 
L 265.594568 72.357375 
L 265.594568 69.947354 
L 265.594568 69.947354 
z
" clip-path="url(#p8a6b1c2c64)" style="fill: #1f77b4; fill-opacity: 0.2; stroke: #1f77b4; stroke-opacity: 0.2"/>
    <path d="M 270.25747 71.930344 
L 270.25747 73.099014 
L 270.25747 71.930344 
L 270.25747 71.930344 
z
" clip-path="url(#p8a6b1c2c64)" style="fill: #1f77b4; fill-opacity: 0.2; stroke: #1f77b4; stroke-opacity: 0.2"/>
    <path d="M 274.337509 72.719244 
L 274.337509 73.859831 
L 274.337509 72.719244 
L 274.337509 72.719244 
z
" clip-path="url(#p8a6b1c2c64)" style="fill: #1f77b4; fill-opacity: 0.2; stroke: #1f77b4; stroke-opacity: 0.2"/>
    <path d="M 277.251823 73.58262 
L 277.251823 75.815709 
L 277.251823 73.58262 
L 277.251823 73.58262 
z
" clip-path="url(#p8a6b1c2c64)" style="fill: #1f77b4; fill-opacity: 0.2; stroke: #1f77b4; stroke-opacity: 0.2"/>
    <path d="M 280.166137 75.517482 
L 280.166137 77.698568 
L 280.166137 75.517482 
L 280.166137 75.517482 
z
" clip-path="url(#p8a6b1c2c64)" style="fill: #1f77b4; fill-opacity: 0.2; stroke: #1f77b4; stroke-opacity: 0.2"/>
    <path d="M 281.331862 77.570554 
L 281.331862 78.64701 
L 281.331862 77.570554 
L 281.331862 77.570554 
z
" clip-path="url(#p8a6b1c2c64)" style="fill: #1f77b4; fill-opacity: 0.2; stroke: #1f77b4; stroke-opacity: 0.2"/>
    <path d="M 290.074803 77.689796 
L 290.074803 79.749448 
L 290.657666 80.702949 
L 290.657666 79.683333 
L 290.657666 79.683333 
L 290.074803 77.689796 
z
" clip-path="url(#p8a6b1c2c64)" style="fill: #1f77b4; fill-opacity: 0.2; stroke: #1f77b4; stroke-opacity: 0.2"/>
    <path d="M 292.989117 80.432277 
L 292.989117 81.437348 
L 292.989117 80.432277 
L 292.989117 80.432277 
z
" clip-path="url(#p8a6b1c2c64)" style="fill: #1f77b4; fill-opacity: 0.2; stroke: #1f77b4; stroke-opacity: 0.2"/>
    <path d="M 294.737705 81.230908 
L 294.737705 82.224111 
L 294.737705 81.230908 
L 294.737705 81.230908 
z
" clip-path="url(#p8a6b1c2c64)" style="fill: #1f77b4; fill-opacity: 0.2; stroke: #1f77b4; stroke-opacity: 0.2"/>
    <path d="M 295.903431 82.083639 
L 295.903431 83.067472 
L 295.903431 82.083639 
L 295.903431 82.083639 
z
" clip-path="url(#p8a6b1c2c64)" style="fill: #1f77b4; fill-opacity: 0.2; stroke: #1f77b4; stroke-opacity: 0.2"/>
    <path d="M 298.817744 82.711198 
L 298.817744 84.642735 
L 298.817744 82.711198 
L 298.817744 82.711198 
z
" clip-path="url(#p8a6b1c2c64)" style="fill: #1f77b4; fill-opacity: 0.2; stroke: #1f77b4; stroke-opacity: 0.2"/>
    <path d="M 300.566333 84.420243 
L 300.566333 86.320722 
L 300.566333 84.420243 
L 300.566333 84.420243 
z
" clip-path="url(#p8a6b1c2c64)" style="fill: #1f77b4; fill-opacity: 0.2; stroke: #1f77b4; stroke-opacity: 0.2"/>
    <path d="M 303.480646 85.9363 
L 303.480646 86.869637 
L 303.480646 85.9363 
L 303.480646 85.9363 
z
" clip-path="url(#p8a6b1c2c64)" style="fill: #1f77b4; fill-opacity: 0.2; stroke: #1f77b4; stroke-opacity: 0.2"/>
    <path d="M 305.229235 86.6373 
L 305.229235 87.560348 
L 305.229235 86.6373 
L 305.229235 86.6373 
z
" clip-path="url(#p8a6b1c2c64)" style="fill: #1f77b4; fill-opacity: 0.2; stroke: #1f77b4; stroke-opacity: 0.2"/>
    <path d="M 309.309274 87.017091 
L 309.309274 88.8237 
L 309.309274 87.017091 
L 309.309274 87.017091 
z
" clip-path="url(#p8a6b1c2c64)" style="fill: #1f77b4; fill-opacity: 0.2; stroke: #1f77b4; stroke-opacity: 0.2"/>
    <path d="M 310.474999 88.664172 
L 310.474999 89.557641 
L 310.474999 88.664172 
L 310.474999 88.664172 
z
" clip-path="url(#p8a6b1c2c64)" style="fill: #1f77b4; fill-opacity: 0.2; stroke: #1f77b4; stroke-opacity: 0.2"/>
    <path d="M 313.972176 89.07671 
L 313.972176 90.830122 
L 313.972176 89.07671 
L 313.972176 89.07671 
z
" clip-path="url(#p8a6b1c2c64)" style="fill: #1f77b4; fill-opacity: 0.2; stroke: #1f77b4; stroke-opacity: 0.2"/>
    <path d="M 318.052215 90.260613 
L 318.052215 91.119459 
L 318.052215 90.260613 
L 318.052215 90.260613 
z
" clip-path="url(#p8a6b1c2c64)" style="fill: #1f77b4; fill-opacity: 0.2; stroke: #1f77b4; stroke-opacity: 0.2"/>
    <path d="M 320.383666 90.795041 
L 320.383666 91.64348 
L 320.383666 90.795041 
L 320.383666 90.795041 
z
" clip-path="url(#p8a6b1c2c64)" style="fill: #1f77b4; fill-opacity: 0.2; stroke: #1f77b4; stroke-opacity: 0.2"/>
    <path d="M 322.715117 91.318049 
L 322.715117 92.156328 
L 322.715117 91.318049 
L 322.715117 91.318049 
z
" clip-path="url(#p8a6b1c2c64)" style="fill: #1f77b4; fill-opacity: 0.2; stroke: #1f77b4; stroke-opacity: 0.2"/>
    <path d="M 324.463705 91.911063 
L 324.463705 93.567434 
L 324.463705 91.911063 
L 324.463705 91.911063 
z
" clip-path="url(#p8a6b1c2c64)" style="fill: #1f77b4; fill-opacity: 0.2; stroke: #1f77b4; stroke-opacity: 0.2"/>
    <path d="M 325.62943 93.399369 
L 325.62943 94.219226 
L 325.62943 93.399369 
L 325.62943 93.399369 
z
" clip-path="url(#p8a6b1c2c64)" style="fill: #1f77b4; fill-opacity: 0.2; stroke: #1f77b4; stroke-opacity: 0.2"/>
    <path d="M 332.623783 93.22165 
L 332.623783 94.020118 
L 333.206646 94.731498 
L 333.789509 95.437117 
L 333.789509 94.648002 
L 333.789509 94.648002 
L 333.206646 93.937731 
L 332.623783 93.22165 
z
" clip-path="url(#p8a6b1c2c64)" style="fill: #1f77b4; fill-opacity: 0.2; stroke: #1f77b4; stroke-opacity: 0.2"/>
    <path d="M 339.618136 94.606381 
L 339.618136 95.37839 
L 339.618136 94.606381 
L 339.618136 94.606381 
z
" clip-path="url(#p8a6b1c2c64)" style="fill: #1f77b4; fill-opacity: 0.2; stroke: #1f77b4; stroke-opacity: 0.2"/>
    <path d="M 346.029626 94.487083 
L 346.029626 95.241404 
L 346.029626 94.487083 
L 346.029626 94.487083 
z
" clip-path="url(#p8a6b1c2c64)" style="fill: #1f77b4; fill-opacity: 0.2; stroke: #1f77b4; stroke-opacity: 0.2"/>
    <path d="M 347.195352 95.080813 
L 347.195352 95.82964 
L 347.195352 95.080813 
L 347.195352 95.080813 
z
" clip-path="url(#p8a6b1c2c64)" style="fill: #1f77b4; fill-opacity: 0.2; stroke: #1f77b4; stroke-opacity: 0.2"/>
    <path d="M 349.526803 95.507032 
L 349.526803 96.247916 
L 349.526803 95.507032 
L 349.526803 95.507032 
z
" clip-path="url(#p8a6b1c2c64)" style="fill: #1f77b4; fill-opacity: 0.2; stroke: #1f77b4; stroke-opacity: 0.2"/>
    <path d="M 350.692528 96.085943 
L 350.692528 96.821521 
L 350.692528 96.085943 
L 350.692528 96.085943 
z
" clip-path="url(#p8a6b1c2c64)" style="fill: #1f77b4; fill-opacity: 0.2; stroke: #1f77b4; stroke-opacity: 0.2"/>
    <path d="M 358.269744 95.782157 
L 358.269744 96.499295 
L 358.852606 97.13356 
L 359.435469 98.47014 
L 359.435469 97.290142 
L 359.435469 97.290142 
L 358.852606 96.420232 
L 358.269744 95.782157 
z
" clip-path="url(#p8a6b1c2c64)" style="fill: #1f77b4; fill-opacity: 0.2; stroke: #1f77b4; stroke-opacity: 0.2"/>
    <path d="M 361.184057 98.22522 
L 361.184057 98.92621 
L 361.76692 99.541376 
L 362.349783 101.668828 
L 362.932646 103.494372 
L 363.515508 104.082383 
L 364.098371 105.337265 
L 364.681234 106.578913 
L 365.264097 108.595446 
L 365.846959 110.324721 
L 366.429822 113.06969 
L 367.012685 114.600336 
L 367.012685 113.968078 
L 367.012685 113.968078 
L 366.429822 111.147985 
L 365.846959 109.023342 
L 365.264097 107.014562 
L 364.681234 105.245961 
L 364.098371 104.21729 
L 363.515508 103.405535 
L 362.932646 102.131307 
L 362.349783 100.01187 
L 361.76692 98.84404 
L 361.184057 98.22522 
z
" clip-path="url(#p8a6b1c2c64)" style="fill: #1f77b4; fill-opacity: 0.2; stroke: #1f77b4; stroke-opacity: 0.2"/>
    <path d="M 368.17841 114.392743 
L 368.17841 115.647245 
L 368.761273 117.918197 
L 369.344136 119.750096 
L 369.926999 122.650722 
L 369.926999 120.847589 
L 369.926999 120.847589 
L 369.344136 118.528251 
L 368.761273 116.26786 
L 368.17841 114.392743 
z
" clip-path="url(#p8a6b1c2c64)" style="fill: #1f77b4; fill-opacity: 0.2; stroke: #1f77b4; stroke-opacity: 0.2"/>
    <path d="M 371.092724 123.61627 
L 371.092724 124.207836 
L 371.092724 123.61627 
L 371.092724 123.61627 
z
" clip-path="url(#p8a6b1c2c64)" style="fill: #1f77b4; fill-opacity: 0.2; stroke: #1f77b4; stroke-opacity: 0.2"/>
    <path d="M 372.258449 123.976986 
L 372.258449 124.565068 
L 372.841312 125.909143 
L 373.424175 126.6614 
L 374.007038 127.11988 
L 374.5899 127.961482 
L 374.5899 127.00163 
L 374.5899 127.00163 
L 374.007038 126.543508 
L 373.424175 126.08242 
L 372.841312 124.742126 
L 372.258449 123.976986 
z
" clip-path="url(#p8a6b1c2c64)" style="fill: #1f77b4; fill-opacity: 0.2; stroke: #1f77b4; stroke-opacity: 0.2"/>
    <path d="M 375.755626 127.909092 
L 375.755626 129.04464 
L 376.338489 130.051575 
L 376.921351 133.428643 
L 376.921351 131.432287 
L 376.921351 131.432287 
L 376.338489 128.924645 
L 375.755626 127.909092 
z
" clip-path="url(#p8a6b1c2c64)" style="fill: #1f77b4; fill-opacity: 0.2; stroke: #1f77b4; stroke-opacity: 0.2"/>
    <path d="M 378.087077 135.736434 
L 378.087077 137.41866 
L 378.66994 140.089859 
L 379.252802 142.272562 
L 379.252802 140.883966 
L 379.252802 140.883966 
L 378.66994 138.610968 
L 378.087077 135.736434 
z
" clip-path="url(#p8a6b1c2c64)" style="fill: #1f77b4; fill-opacity: 0.2; stroke: #1f77b4; stroke-opacity: 0.2"/>
    <path d="M 381.584253 142.340497 
L 381.584253 142.854207 
L 382.167116 143.231947 
L 382.749979 143.607432 
L 382.749979 143.09792 
L 382.749979 143.09792 
L 382.167116 142.720344 
L 381.584253 142.340497 
z
" clip-path="url(#p8a6b1c2c64)" style="fill: #1f77b4; fill-opacity: 0.2; stroke: #1f77b4; stroke-opacity: 0.2"/>
    <path d="M 383.915704 143.92907 
L 383.915704 145.190035 
L 384.498567 147.624969 
L 385.08143 149.630378 
L 385.664292 151.089617 
L 386.247155 152.721107 
L 386.830018 160.257403 
L 386.830018 157.618565 
L 386.830018 157.618565 
L 386.247155 151.573512 
L 385.664292 150.122242 
L 385.08143 148.456582 
L 384.498567 146.221419 
L 383.915704 143.92907 
z
" clip-path="url(#p8a6b1c2c64)" style="fill: #1f77b4; fill-opacity: 0.2; stroke: #1f77b4; stroke-opacity: 0.2"/>
    <path d="M 387.995743 167.965931 
L 387.995743 170.171884 
L 388.578606 176.965647 
L 389.161469 178.942135 
L 389.744332 182.163846 
L 389.744332 180.50502 
L 389.744332 180.50502 
L 389.161469 178.541179 
L 388.578606 175.246982 
L 387.995743 167.965931 
z
" clip-path="url(#p8a6b1c2c64)" style="fill: #1f77b4; fill-opacity: 0.2; stroke: #1f77b4; stroke-opacity: 0.2"/>
    <path d="M 390.910057 184.780382 
L 390.910057 186.23366 
L 391.49292 200.71693 
L 392.075783 214.096578 
L 392.075783 212.425596 
L 392.075783 212.425596 
L 391.49292 197.320149 
L 390.910057 184.780382 
z
" clip-path="url(#p8a6b1c2c64)" style="fill: #1f77b4; fill-opacity: 0.2; stroke: #1f77b4; stroke-opacity: 0.2"/>
    <path d="M 393.241508 218.660351 
L 393.241508 220.2332 
L 393.824371 227.969465 
L 394.407234 234.177777 
L 394.990096 249.730458 
L 395.572959 265.798589 
L 396.155822 274.350968 
L 396.738685 278.765084 
L 397.321547 280.946393 
L 397.90441 286.229766 
L 398.487273 295.488 
L 398.487273 294.0038 
L 398.487273 294.0038 
L 397.90441 284.887419 
L 397.321547 280.196861 
L 396.738685 278.067448 
L 396.155822 272.976533 
L 395.572959 264.223512 
L 394.990096 247.110919 
L 394.407234 232.918279 
L 393.824371 226.160538 
L 393.241508 218.660351 
z
" clip-path="url(#p8a6b1c2c64)" style="fill: #1f77b4; fill-opacity: 0.2; stroke: #1f77b4; stroke-opacity: 0.2"/>
   </g>
   <g id="matplotlib.axis_1">
    <g id="xtick_1">
     <g id="line2d_1">
      <defs>
       <path id="m3c73a56533" d="M 0 0 
L 0 3.5 
" style="stroke: #000000; stroke-width: 0.8"/>
      </defs>
      <g>
       <use xlink:href="#m3c73a56533" x="73.832727" y="307.584" style="stroke: #000000; stroke-width: 0.8"/>
      </g>
     </g>
     <g id="text_1">
      <!-- 0.0 -->
      <g transform="translate(65.881165 322.182437)scale(0.1 -0.1)">
       <defs>
        <path id="DejaVuSans-30" d="M 2034 4250 
Q 1547 4250 1301 3770 
Q 1056 3291 1056 2328 
Q 1056 1369 1301 889 
Q 1547 409 2034 409 
Q 2525 409 2770 889 
Q 3016 1369 3016 2328 
Q 3016 3291 2770 3770 
Q 2525 4250 2034 4250 
z
M 2034 4750 
Q 2819 4750 3233 4129 
Q 3647 3509 3647 2328 
Q 3647 1150 3233 529 
Q 2819 -91 2034 -91 
Q 1250 -91 836 529 
Q 422 1150 422 2328 
Q 422 3509 836 4129 
Q 1250 4750 2034 4750 
z
" transform="scale(0.015625)"/>
        <path id="DejaVuSans-2e" d="M 684 794 
L 1344 794 
L 1344 0 
L 684 0 
L 684 794 
z
" transform="scale(0.015625)"/>
       </defs>
       <use xlink:href="#DejaVuSans-30"/>
       <use xlink:href="#DejaVuSans-2e" x="63.623047"/>
       <use xlink:href="#DejaVuSans-30" x="95.410156"/>
      </g>
     </g>
    </g>
    <g id="xtick_2">
     <g id="line2d_2">
      <g>
       <use xlink:href="#m3c73a56533" x="138.763636" y="307.584" style="stroke: #000000; stroke-width: 0.8"/>
      </g>
     </g>
     <g id="text_2">
      <!-- 0.2 -->
      <g transform="translate(130.812074 322.182437)scale(0.1 -0.1)">
       <defs>
        <path id="DejaVuSans-32" d="M 1228 531 
L 3431 531 
L 3431 0 
L 469 0 
L 469 531 
Q 828 903 1448 1529 
Q 2069 2156 2228 2338 
Q 2531 2678 2651 2914 
Q 2772 3150 2772 3378 
Q 2772 3750 2511 3984 
Q 2250 4219 1831 4219 
Q 1534 4219 1204 4116 
Q 875 4013 500 3803 
L 500 4441 
Q 881 4594 1212 4672 
Q 1544 4750 1819 4750 
Q 2544 4750 2975 4387 
Q 3406 4025 3406 3419 
Q 3406 3131 3298 2873 
Q 3191 2616 2906 2266 
Q 2828 2175 2409 1742 
Q 1991 1309 1228 531 
z
" transform="scale(0.015625)"/>
       </defs>
       <use xlink:href="#DejaVuSans-30"/>
       <use xlink:href="#DejaVuSans-2e" x="63.623047"/>
       <use xlink:href="#DejaVuSans-32" x="95.410156"/>
      </g>
     </g>
    </g>
    <g id="xtick_3">
     <g id="line2d_3">
      <g>
       <use xlink:href="#m3c73a56533" x="203.694545" y="307.584" style="stroke: #000000; stroke-width: 0.8"/>
      </g>
     </g>
     <g id="text_3">
      <!-- 0.4 -->
      <g transform="translate(195.742983 322.182437)scale(0.1 -0.1)">
       <defs>
        <path id="DejaVuSans-34" d="M 2419 4116 
L 825 1625 
L 2419 1625 
L 2419 4116 
z
M 2253 4666 
L 3047 4666 
L 3047 1625 
L 3713 1625 
L 3713 1100 
L 3047 1100 
L 3047 0 
L 2419 0 
L 2419 1100 
L 313 1100 
L 313 1709 
L 2253 4666 
z
" transform="scale(0.015625)"/>
       </defs>
       <use xlink:href="#DejaVuSans-30"/>
       <use xlink:href="#DejaVuSans-2e" x="63.623047"/>
       <use xlink:href="#DejaVuSans-34" x="95.410156"/>
      </g>
     </g>
    </g>
    <g id="xtick_4">
     <g id="line2d_4">
      <g>
       <use xlink:href="#m3c73a56533" x="268.625455" y="307.584" style="stroke: #000000; stroke-width: 0.8"/>
      </g>
     </g>
     <g id="text_4">
      <!-- 0.6 -->
      <g transform="translate(260.673892 322.182437)scale(0.1 -0.1)">
       <defs>
        <path id="DejaVuSans-36" d="M 2113 2584 
Q 1688 2584 1439 2293 
Q 1191 2003 1191 1497 
Q 1191 994 1439 701 
Q 1688 409 2113 409 
Q 2538 409 2786 701 
Q 3034 994 3034 1497 
Q 3034 2003 2786 2293 
Q 2538 2584 2113 2584 
z
M 3366 4563 
L 3366 3988 
Q 3128 4100 2886 4159 
Q 2644 4219 2406 4219 
Q 1781 4219 1451 3797 
Q 1122 3375 1075 2522 
Q 1259 2794 1537 2939 
Q 1816 3084 2150 3084 
Q 2853 3084 3261 2657 
Q 3669 2231 3669 1497 
Q 3669 778 3244 343 
Q 2819 -91 2113 -91 
Q 1303 -91 875 529 
Q 447 1150 447 2328 
Q 447 3434 972 4092 
Q 1497 4750 2381 4750 
Q 2619 4750 2861 4703 
Q 3103 4656 3366 4563 
z
" transform="scale(0.015625)"/>
       </defs>
       <use xlink:href="#DejaVuSans-30"/>
       <use xlink:href="#DejaVuSans-2e" x="63.623047"/>
       <use xlink:href="#DejaVuSans-36" x="95.410156"/>
      </g>
     </g>
    </g>
    <g id="xtick_5">
     <g id="line2d_5">
      <g>
       <use xlink:href="#m3c73a56533" x="333.556364" y="307.584" style="stroke: #000000; stroke-width: 0.8"/>
      </g>
     </g>
     <g id="text_5">
      <!-- 0.8 -->
      <g transform="translate(325.604801 322.182437)scale(0.1 -0.1)">
       <defs>
        <path id="DejaVuSans-38" d="M 2034 2216 
Q 1584 2216 1326 1975 
Q 1069 1734 1069 1313 
Q 1069 891 1326 650 
Q 1584 409 2034 409 
Q 2484 409 2743 651 
Q 3003 894 3003 1313 
Q 3003 1734 2745 1975 
Q 2488 2216 2034 2216 
z
M 1403 2484 
Q 997 2584 770 2862 
Q 544 3141 544 3541 
Q 544 4100 942 4425 
Q 1341 4750 2034 4750 
Q 2731 4750 3128 4425 
Q 3525 4100 3525 3541 
Q 3525 3141 3298 2862 
Q 3072 2584 2669 2484 
Q 3125 2378 3379 2068 
Q 3634 1759 3634 1313 
Q 3634 634 3220 271 
Q 2806 -91 2034 -91 
Q 1263 -91 848 271 
Q 434 634 434 1313 
Q 434 1759 690 2068 
Q 947 2378 1403 2484 
z
M 1172 3481 
Q 1172 3119 1398 2916 
Q 1625 2713 2034 2713 
Q 2441 2713 2670 2916 
Q 2900 3119 2900 3481 
Q 2900 3844 2670 4047 
Q 2441 4250 2034 4250 
Q 1625 4250 1398 4047 
Q 1172 3844 1172 3481 
z
" transform="scale(0.015625)"/>
       </defs>
       <use xlink:href="#DejaVuSans-30"/>
       <use xlink:href="#DejaVuSans-2e" x="63.623047"/>
       <use xlink:href="#DejaVuSans-38" x="95.410156"/>
      </g>
     </g>
    </g>
    <g id="xtick_6">
     <g id="line2d_6">
      <g>
       <use xlink:href="#m3c73a56533" x="398.487273" y="307.584" style="stroke: #000000; stroke-width: 0.8"/>
      </g>
     </g>
     <g id="text_6">
      <!-- 1.0 -->
      <g transform="translate(390.53571 322.182437)scale(0.1 -0.1)">
       <defs>
        <path id="DejaVuSans-31" d="M 794 531 
L 1825 531 
L 1825 4091 
L 703 3866 
L 703 4441 
L 1819 4666 
L 2450 4666 
L 2450 531 
L 3481 531 
L 3481 0 
L 794 0 
L 794 531 
z
" transform="scale(0.015625)"/>
       </defs>
       <use xlink:href="#DejaVuSans-31"/>
       <use xlink:href="#DejaVuSans-2e" x="63.623047"/>
       <use xlink:href="#DejaVuSans-30" x="95.410156"/>
      </g>
     </g>
    </g>
   </g>
   <g id="matplotlib.axis_2">
    <g id="ytick_1">
     <g id="line2d_7">
      <defs>
       <path id="ma381eb8bf0" d="M 0 0 
L -3.5 0 
" style="stroke: #000000; stroke-width: 0.8"/>
      </defs>
      <g>
       <use xlink:href="#ma381eb8bf0" x="57.6" y="269.019498" style="stroke: #000000; stroke-width: 0.8"/>
      </g>
     </g>
     <g id="text_7">
      <!-- 0.5 -->
      <g transform="translate(34.696875 272.818717)scale(0.1 -0.1)">
       <defs>
        <path id="DejaVuSans-35" d="M 691 4666 
L 3169 4666 
L 3169 4134 
L 1269 4134 
L 1269 2991 
Q 1406 3038 1543 3061 
Q 1681 3084 1819 3084 
Q 2600 3084 3056 2656 
Q 3513 2228 3513 1497 
Q 3513 744 3044 326 
Q 2575 -91 1722 -91 
Q 1428 -91 1123 -41 
Q 819 9 494 109 
L 494 744 
Q 775 591 1075 516 
Q 1375 441 1709 441 
Q 2250 441 2565 725 
Q 2881 1009 2881 1497 
Q 2881 1984 2565 2268 
Q 2250 2553 1709 2553 
Q 1456 2553 1204 2497 
Q 953 2441 691 2322 
L 691 4666 
z
" transform="scale(0.015625)"/>
       </defs>
       <use xlink:href="#DejaVuSans-30"/>
       <use xlink:href="#DejaVuSans-2e" x="63.623047"/>
       <use xlink:href="#DejaVuSans-35" x="95.410156"/>
      </g>
     </g>
    </g>
    <g id="ytick_2">
     <g id="line2d_8">
      <g>
       <use xlink:href="#ma381eb8bf0" x="57.6" y="225.929199" style="stroke: #000000; stroke-width: 0.8"/>
      </g>
     </g>
     <g id="text_8">
      <!-- 0.6 -->
      <g transform="translate(34.696875 229.728417)scale(0.1 -0.1)">
       <use xlink:href="#DejaVuSans-30"/>
       <use xlink:href="#DejaVuSans-2e" x="63.623047"/>
       <use xlink:href="#DejaVuSans-36" x="95.410156"/>
      </g>
     </g>
    </g>
    <g id="ytick_3">
     <g id="line2d_9">
      <g>
       <use xlink:href="#ma381eb8bf0" x="57.6" y="182.838899" style="stroke: #000000; stroke-width: 0.8"/>
      </g>
     </g>
     <g id="text_9">
      <!-- 0.7 -->
      <g transform="translate(34.696875 186.638118)scale(0.1 -0.1)">
       <defs>
        <path id="DejaVuSans-37" d="M 525 4666 
L 3525 4666 
L 3525 4397 
L 1831 0 
L 1172 0 
L 2766 4134 
L 525 4134 
L 525 4666 
z
" transform="scale(0.015625)"/>
       </defs>
       <use xlink:href="#DejaVuSans-30"/>
       <use xlink:href="#DejaVuSans-2e" x="63.623047"/>
       <use xlink:href="#DejaVuSans-37" x="95.410156"/>
      </g>
     </g>
    </g>
    <g id="ytick_4">
     <g id="line2d_10">
      <g>
       <use xlink:href="#ma381eb8bf0" x="57.6" y="139.748599" style="stroke: #000000; stroke-width: 0.8"/>
      </g>
     </g>
     <g id="text_10">
      <!-- 0.8 -->
      <g transform="translate(34.696875 143.547818)scale(0.1 -0.1)">
       <use xlink:href="#DejaVuSans-30"/>
       <use xlink:href="#DejaVuSans-2e" x="63.623047"/>
       <use xlink:href="#DejaVuSans-38" x="95.410156"/>
      </g>
     </g>
    </g>
    <g id="ytick_5">
     <g id="line2d_11">
      <g>
       <use xlink:href="#ma381eb8bf0" x="57.6" y="96.6583" style="stroke: #000000; stroke-width: 0.8"/>
      </g>
     </g>
     <g id="text_11">
      <!-- 0.9 -->
      <g transform="translate(34.696875 100.457518)scale(0.1 -0.1)">
       <defs>
        <path id="DejaVuSans-39" d="M 703 97 
L 703 672 
Q 941 559 1184 500 
Q 1428 441 1663 441 
Q 2288 441 2617 861 
Q 2947 1281 2994 2138 
Q 2813 1869 2534 1725 
Q 2256 1581 1919 1581 
Q 1219 1581 811 2004 
Q 403 2428 403 3163 
Q 403 3881 828 4315 
Q 1253 4750 1959 4750 
Q 2769 4750 3195 4129 
Q 3622 3509 3622 2328 
Q 3622 1225 3098 567 
Q 2575 -91 1691 -91 
Q 1453 -91 1209 -44 
Q 966 3 703 97 
z
M 1959 2075 
Q 2384 2075 2632 2365 
Q 2881 2656 2881 3163 
Q 2881 3666 2632 3958 
Q 2384 4250 1959 4250 
Q 1534 4250 1286 3958 
Q 1038 3666 1038 3163 
Q 1038 2656 1286 2365 
Q 1534 2075 1959 2075 
z
" transform="scale(0.015625)"/>
       </defs>
       <use xlink:href="#DejaVuSans-30"/>
       <use xlink:href="#DejaVuSans-2e" x="63.623047"/>
       <use xlink:href="#DejaVuSans-39" x="95.410156"/>
      </g>
     </g>
    </g>
    <g id="ytick_6">
     <g id="line2d_12">
      <g>
       <use xlink:href="#ma381eb8bf0" x="57.6" y="53.568" style="stroke: #000000; stroke-width: 0.8"/>
      </g>
     </g>
     <g id="text_12">
      <!-- 1.0 -->
      <g transform="translate(34.696875 57.367219)scale(0.1 -0.1)">
       <use xlink:href="#DejaVuSans-31"/>
       <use xlink:href="#DejaVuSans-2e" x="63.623047"/>
       <use xlink:href="#DejaVuSans-30" x="95.410156"/>
      </g>
     </g>
    </g>
   </g>
   <g id="line2d_13">
    <path d="M 73.832727 53.568 
L 128.621825 53.568 
L 129.78755 58.010299 
L 137.947629 57.450009 
L 138.530491 61.194602 
L 147.273432 60.300859 
L 153.10206 59.812971 
L 153.684922 64.296917 
L 154.267785 65.706113 
L 156.016373 65.454979 
L 157.182099 70.919799 
L 161.262138 70.141192 
L 162.427864 72.538572 
L 170.005079 71.10475 
L 170.587942 71.003381 
L 171.753667 73.1545 
L 179.913746 71.711284 
L 189.23955 70.302097 
L 199.731079 68.957393 
L 211.388334 67.695967 
L 217.799824 67.086525 
L 218.965549 68.5995 
L 232.371392 67.369164 
L 235.285706 67.127885 
L 235.868569 67.805274 
L 237.034294 68.426724 
L 242.862921 67.931433 
L 244.028647 69.211343 
L 258.600215 68.019015 
L 259.183078 68.606145 
L 259.765941 69.815284 
L 260.348804 70.390039 
L 265.011706 69.995387 
L 266.177431 72.302913 
L 269.674607 71.982658 
L 270.840333 73.043842 
L 273.754647 72.77259 
L 274.920372 73.803776 
L 276.66896 73.637455 
L 277.834686 75.755417 
L 279.583274 75.576486 
L 280.749 77.634391 
L 281.914725 78.580839 
L 289.491941 77.751331 
L 290.074803 78.720493 
L 290.657666 80.193141 
L 291.240529 80.634771 
L 292.406254 80.499437 
L 293.57198 81.368193 
L 294.154843 81.299381 
L 296.486293 82.995522 
L 298.234882 82.781762 
L 299.400607 84.568216 
L 299.98347 84.494052 
L 301.149195 86.243109 
L 302.897784 86.012461 
L 304.063509 86.791829 
L 304.646372 86.714384 
L 305.812097 87.481662 
L 308.726411 87.093634 
L 309.892136 88.743755 
L 311.057862 89.476583 
L 313.389313 89.155971 
L 314.555038 90.747683 
L 317.469352 90.340903 
L 318.635078 91.037826 
L 319.800803 90.875619 
L 320.966528 91.561598 
L 322.132254 91.398884 
L 323.297979 92.074225 
L 323.880842 91.992471 
L 325.046568 93.483225 
L 326.212293 94.134182 
L 332.040921 93.302907 
L 332.623783 93.620884 
L 333.789509 95.042559 
L 334.372371 95.352533 
L 339.035273 94.687968 
L 340.200999 95.295761 
L 345.446764 94.566538 
L 347.778214 95.748524 
L 348.94394 95.587221 
L 351.275391 96.739756 
L 357.686881 95.860331 
L 358.269744 96.140726 
L 358.852606 96.776896 
L 359.435469 97.762314 
L 360.018332 98.388202 
L 360.601195 98.306563 
L 361.184057 98.575715 
L 361.76692 99.192708 
L 362.932646 102.813245 
L 364.098371 104.665438 
L 364.681234 105.912828 
L 365.846959 109.674408 
L 367.012685 114.284207 
L 367.595548 114.496362 
L 368.17841 115.020349 
L 369.344136 119.139514 
L 369.926999 121.750404 
L 370.509861 123.731481 
L 372.258449 124.271027 
L 373.424175 126.37191 
L 374.007038 126.831694 
L 374.5899 127.574804 
L 375.755626 128.477168 
L 376.338489 129.488408 
L 376.921351 132.429958 
L 377.504214 134.781805 
L 378.087077 136.544949 
L 378.66994 139.351051 
L 379.252802 141.57853 
L 379.835665 142.742789 
L 381.001391 142.474191 
L 381.584253 142.597352 
L 382.749979 143.352676 
L 383.332842 143.473245 
L 383.915704 144.601666 
L 385.08143 149.043623 
L 386.247155 152.14731 
L 387.412881 164.711256 
L 387.995743 169.095638 
L 388.578606 176.062434 
L 390.327194 183.725075 
L 390.910057 185.472216 
L 392.075783 213.248379 
L 393.241508 219.434037 
L 394.407234 233.540558 
L 395.572959 265.00702 
L 396.155822 273.662125 
L 396.738685 278.409383 
L 397.321547 280.587506 
L 397.90441 285.541003 
L 398.487273 294.755365 
L 398.487273 294.755365 
" clip-path="url(#p8a6b1c2c64)" style="fill: none; stroke: #1f77b4; stroke-width: 1.5; stroke-linecap: square"/>
   </g>
   <g id="patch_3">
    <path d="M 57.6 307.584 
L 57.6 41.472 
" style="fill: none; stroke: #000000; stroke-width: 0.8; stroke-linejoin: miter; stroke-linecap: square"/>
   </g>
   <g id="patch_4">
    <path d="M 414.72 307.584 
L 414.72 41.472 
" style="fill: none; stroke: #000000; stroke-width: 0.8; stroke-linejoin: miter; stroke-linecap: square"/>
   </g>
   <g id="patch_5">
    <path d="M 57.6 307.584 
L 414.72 307.584 
" style="fill: none; stroke: #000000; stroke-width: 0.8; stroke-linejoin: miter; stroke-linecap: square"/>
   </g>
   <g id="patch_6">
    <path d="M 57.6 41.472 
L 414.72 41.472 
" style="fill: none; stroke: #000000; stroke-width: 0.8; stroke-linejoin: miter; stroke-linecap: square"/>
   </g>
  </g>
 </g>
 <defs>
  <clipPath id="p8a6b1c2c64">
   <rect x="57.6" y="41.472" width="357.12" height="266.112"/>
  </clipPath>
 </defs>
</svg>
