<?xml version="1.0" encoding="utf-8" standalone="no"?>
<!DOCTYPE svg PUBLIC "-//W3C//DTD SVG 1.1//EN"
  "http://www.w3.org/Graphics/SVG/1.1/DTD/svg11.dtd">
<svg xmlns:xlink="http://www.w3.org/1999/xlink" width="460.8pt" height="345.6pt" viewBox="0 0 460.8 345.6" xmlns="http://www.w3.org/2000/svg" version="1.1">
 <metadata>
  <rdf:RDF xmlns:dc="http://purl.org/dc/elements/1.1/" xmlns:cc="http://creativecommons.org/ns#" xmlns:rdf="http://www.w3.org/1999/02/22-rdf-syntax-ns#">
   <cc:Work>
    <dc:type rdf:resource="http://purl.org/dc/dcmitype/StillImage"/>
    <dc:date>2022-09-15T12:37:07.540063</dc:date>
    <dc:format>image/svg+xml</dc:format>
    <dc:creator>
     <cc:Agent>
      <dc:title>Matplotlib v3.5.3, https://matplotlib.org/</dc:title>
     </cc:Agent>
    </dc:creator>
   </cc:Work>
  </rdf:RDF>
 </metadata>
 <defs>
  <style type="text/css">*{stroke-linejoin: round; stroke-linecap: butt}</style>
 </defs>
 <g id="figure_1">
  <g id="patch_1">
   <path d="M 0 345.6 
L 460.8 345.6 
L 460.8 0 
L 0 0 
z
" style="fill: #ffffff"/>
  </g>
  <g id="axes_1">
   <g id="patch_2">
    <path d="M 57.6 307.584 
L 414.72 307.584 
L 414.72 41.472 
L 57.6 41.472 
z
" style="fill: #ffffff"/>
   </g>
   <g id="PolyCollection_1">
    <path d="M 73.832727 282.103874 
L 73.832727 295.488 
L 74.267921 264.616534 
L 74.703115 254.440504 
L 74.703115 248.683745 
L 74.703115 248.683745 
L 74.267921 259.890235 
L 73.832727 282.103874 
z
" clip-path="url(#pb270938a64)" style="fill: #1f77b4; fill-opacity: 0.2; stroke: #1f77b4; stroke-opacity: 0.2"/>
    <path d="M 75.573502 244.692392 
L 75.573502 246.995096 
L 76.44389 244.462122 
L 76.879084 240.547526 
L 77.314277 229.95509 
L 77.749471 195.875078 
L 78.184665 182.058856 
L 78.619859 174.920475 
L 79.055052 163.637228 
L 79.490246 163.176688 
L 80.360634 158.571281 
L 80.795827 154.886955 
L 81.231021 151.66317 
L 82.101409 149.360466 
L 82.971796 147.057763 
L 83.40699 146.136681 
L 84.277378 139.228571 
L 84.712571 138.76803 
L 85.147765 136.925867 
L 85.582959 135.544245 
L 86.018153 134.623164 
L 86.88854 132.32046 
L 87.758928 130.938838 
L 88.194121 128.636135 
L 88.629315 127.254513 
L 89.499703 124.030728 
L 89.934896 123.109646 
L 90.805284 120.346402 
L 91.240478 117.122617 
L 91.675671 115.280454 
L 92.110865 113.438292 
L 92.981253 112.056669 
L 93.416447 111.135588 
L 93.85164 105.6091 
L 94.286834 105.148559 
L 94.722028 104.688018 
L 95.157222 100.082611 
L 95.592415 95.016663 
L 96.027609 94.095582 
L 96.462803 92.253419 
L 96.897997 91.332338 
L 97.33319 85.345309 
L 97.768384 84.884768 
L 98.638772 84.424227 
L 99.073965 83.042605 
L 99.509159 82.582064 
L 101.249934 82.121524 
L 102.120322 81.660983 
L 102.555515 81.200442 
L 103.425903 80.739902 
L 104.296291 80.279361 
L 106.037066 79.81882 
L 106.907453 79.358279 
L 109.518616 78.897739 
L 109.953809 78.437198 
L 110.824197 77.516117 
L 113.000166 77.055576 
L 113.870553 76.595035 
L 116.91691 76.134494 
L 117.352103 75.213413 
L 117.787297 74.292332 
L 119.092878 73.831791 
L 119.528072 73.37125 
L 119.963266 72.91071 
L 120.833653 72.450169 
L 121.704041 71.529087 
L 122.574428 71.068547 
L 126.491172 70.608006 
L 129.537529 69.686925 
L 131.278304 69.226384 
L 133.454272 68.765843 
L 133.889466 66.92368 
L 134.32466 66.46314 
L 134.759854 66.002599 
L 136.935823 65.081518 
L 139.111791 64.620977 
L 140.852566 64.160436 
L 142.158148 63.699895 
L 143.898923 63.239355 
L 155.213961 62.778814 
L 164.353029 61.857733 
L 170.010548 61.397192 
L 170.445742 60.936651 
L 176.103261 60.476111 
L 180.455199 59.555029 
L 209.177987 59.094488 
L 218.317056 58.633948 
L 227.891319 57.712866 
L 241.817519 57.252326 
L 249.215813 56.791785 
L 294.911158 56.331244 
L 315.800458 55.870704 
L 334.51379 55.410163 
L 339.300921 54.949622 
L 346.264021 54.489081 
L 365.847741 54.028541 
L 365.847741 53.568 
L 365.847741 53.568 
L 346.264021 54.028541 
L 339.300921 54.489081 
L 334.51379 54.949622 
L 315.800458 55.410163 
L 294.911158 55.870704 
L 249.215813 56.331244 
L 241.817519 56.791785 
L 227.891319 57.252326 
L 218.317056 57.712866 
L 209.177987 58.633948 
L 180.455199 59.094488 
L 176.103261 59.555029 
L 170.445742 60.476111 
L 170.010548 60.936651 
L 164.353029 61.397192 
L 155.213961 61.857733 
L 143.898923 62.778814 
L 142.158148 63.239355 
L 140.852566 63.699895 
L 139.111791 64.160436 
L 136.935823 64.620977 
L 134.759854 65.081518 
L 134.32466 66.002599 
L 133.889466 66.46314 
L 133.454272 66.92368 
L 131.278304 68.765843 
L 129.537529 69.226384 
L 126.491172 69.686925 
L 122.574428 70.608006 
L 121.704041 71.068547 
L 120.833653 71.529087 
L 119.963266 72.450169 
L 119.528072 72.91071 
L 119.092878 73.37125 
L 117.787297 73.831791 
L 117.352103 74.292332 
L 116.91691 75.213413 
L 113.870553 76.134494 
L 113.000166 76.595035 
L 110.824197 77.055576 
L 109.953809 77.516117 
L 109.518616 78.437198 
L 106.907453 78.897739 
L 106.037066 79.358279 
L 104.296291 79.81882 
L 103.425903 80.279361 
L 102.555515 80.739902 
L 102.120322 81.200442 
L 101.249934 81.660983 
L 99.509159 82.121524 
L 99.073965 82.582064 
L 98.638772 83.042605 
L 97.768384 84.424227 
L 97.33319 84.884768 
L 96.897997 85.345309 
L 96.462803 91.332338 
L 96.027609 92.253419 
L 95.592415 94.095582 
L 95.157222 95.016663 
L 94.722028 100.082611 
L 94.286834 104.688018 
L 93.85164 105.148559 
L 93.416447 105.6091 
L 92.981253 111.135588 
L 92.110865 112.056669 
L 91.675671 113.438292 
L 91.240478 115.280454 
L 90.805284 117.122617 
L 89.934896 120.346402 
L 89.499703 123.109646 
L 88.629315 124.030728 
L 88.194121 127.254513 
L 87.758928 128.636135 
L 86.88854 130.938838 
L 86.018153 132.32046 
L 85.582959 134.623164 
L 85.147765 135.544245 
L 84.712571 136.925867 
L 84.277378 138.76803 
L 83.40699 139.228571 
L 82.971796 146.136681 
L 82.101409 147.057763 
L 81.231021 149.360466 
L 80.795827 151.66317 
L 80.360634 154.886955 
L 79.490246 158.571281 
L 79.055052 163.176688 
L 78.619859 165.824797 
L 78.184665 176.071827 
L 77.749471 182.058856 
L 77.314277 209.400582 
L 76.879084 233.178875 
L 76.44389 241.468607 
L 75.573502 244.692392 
z
" clip-path="url(#pb270938a64)" style="fill: #1f77b4; fill-opacity: 0.2; stroke: #1f77b4; stroke-opacity: 0.2"/>
   </g>
   <g id="matplotlib.axis_1">
    <g id="xtick_1">
     <g id="line2d_1">
      <defs>
       <path id="m4308ec1d72" d="M 0 0 
L 0 3.5 
" style="stroke: #000000; stroke-width: 0.8"/>
      </defs>
      <g>
       <use xlink:href="#m4308ec1d72" x="73.832727" y="307.584" style="stroke: #000000; stroke-width: 0.8"/>
      </g>
     </g>
     <g id="text_1">
      <!-- 0.0 -->
      <g transform="translate(65.881165 322.182437)scale(0.1 -0.1)">
       <defs>
        <path id="DejaVuSans-30" d="M 2034 4250 
Q 1547 4250 1301 3770 
Q 1056 3291 1056 2328 
Q 1056 1369 1301 889 
Q 1547 409 2034 409 
Q 2525 409 2770 889 
Q 3016 1369 3016 2328 
Q 3016 3291 2770 3770 
Q 2525 4250 2034 4250 
z
M 2034 4750 
Q 2819 4750 3233 4129 
Q 3647 3509 3647 2328 
Q 3647 1150 3233 529 
Q 2819 -91 2034 -91 
Q 1250 -91 836 529 
Q 422 1150 422 2328 
Q 422 3509 836 4129 
Q 1250 4750 2034 4750 
z
" transform="scale(0.015625)"/>
        <path id="DejaVuSans-2e" d="M 684 794 
L 1344 794 
L 1344 0 
L 684 0 
L 684 794 
z
" transform="scale(0.015625)"/>
       </defs>
       <use xlink:href="#DejaVuSans-30"/>
       <use xlink:href="#DejaVuSans-2e" x="63.623047"/>
       <use xlink:href="#DejaVuSans-30" x="95.410156"/>
      </g>
     </g>
    </g>
    <g id="xtick_2">
     <g id="line2d_2">
      <g>
       <use xlink:href="#m4308ec1d72" x="138.763636" y="307.584" style="stroke: #000000; stroke-width: 0.8"/>
      </g>
     </g>
     <g id="text_2">
      <!-- 0.2 -->
      <g transform="translate(130.812074 322.182437)scale(0.1 -0.1)">
       <defs>
        <path id="DejaVuSans-32" d="M 1228 531 
L 3431 531 
L 3431 0 
L 469 0 
L 469 531 
Q 828 903 1448 1529 
Q 2069 2156 2228 2338 
Q 2531 2678 2651 2914 
Q 2772 3150 2772 3378 
Q 2772 3750 2511 3984 
Q 2250 4219 1831 4219 
Q 1534 4219 1204 4116 
Q 875 4013 500 3803 
L 500 4441 
Q 881 4594 1212 4672 
Q 1544 4750 1819 4750 
Q 2544 4750 2975 4387 
Q 3406 4025 3406 3419 
Q 3406 3131 3298 2873 
Q 3191 2616 2906 2266 
Q 2828 2175 2409 1742 
Q 1991 1309 1228 531 
z
" transform="scale(0.015625)"/>
       </defs>
       <use xlink:href="#DejaVuSans-30"/>
       <use xlink:href="#DejaVuSans-2e" x="63.623047"/>
       <use xlink:href="#DejaVuSans-32" x="95.410156"/>
      </g>
     </g>
    </g>
    <g id="xtick_3">
     <g id="line2d_3">
      <g>
       <use xlink:href="#m4308ec1d72" x="203.694545" y="307.584" style="stroke: #000000; stroke-width: 0.8"/>
      </g>
     </g>
     <g id="text_3">
      <!-- 0.4 -->
      <g transform="translate(195.742983 322.182437)scale(0.1 -0.1)">
       <defs>
        <path id="DejaVuSans-34" d="M 2419 4116 
L 825 1625 
L 2419 1625 
L 2419 4116 
z
M 2253 4666 
L 3047 4666 
L 3047 1625 
L 3713 1625 
L 3713 1100 
L 3047 1100 
L 3047 0 
L 2419 0 
L 2419 1100 
L 313 1100 
L 313 1709 
L 2253 4666 
z
" transform="scale(0.015625)"/>
       </defs>
       <use xlink:href="#DejaVuSans-30"/>
       <use xlink:href="#DejaVuSans-2e" x="63.623047"/>
       <use xlink:href="#DejaVuSans-34" x="95.410156"/>
      </g>
     </g>
    </g>
    <g id="xtick_4">
     <g id="line2d_4">
      <g>
       <use xlink:href="#m4308ec1d72" x="268.625455" y="307.584" style="stroke: #000000; stroke-width: 0.8"/>
      </g>
     </g>
     <g id="text_4">
      <!-- 0.6 -->
      <g transform="translate(260.673892 322.182437)scale(0.1 -0.1)">
       <defs>
        <path id="DejaVuSans-36" d="M 2113 2584 
Q 1688 2584 1439 2293 
Q 1191 2003 1191 1497 
Q 1191 994 1439 701 
Q 1688 409 2113 409 
Q 2538 409 2786 701 
Q 3034 994 3034 1497 
Q 3034 2003 2786 2293 
Q 2538 2584 2113 2584 
z
M 3366 4563 
L 3366 3988 
Q 3128 4100 2886 4159 
Q 2644 4219 2406 4219 
Q 1781 4219 1451 3797 
Q 1122 3375 1075 2522 
Q 1259 2794 1537 2939 
Q 1816 3084 2150 3084 
Q 2853 3084 3261 2657 
Q 3669 2231 3669 1497 
Q 3669 778 3244 343 
Q 2819 -91 2113 -91 
Q 1303 -91 875 529 
Q 447 1150 447 2328 
Q 447 3434 972 4092 
Q 1497 4750 2381 4750 
Q 2619 4750 2861 4703 
Q 3103 4656 3366 4563 
z
" transform="scale(0.015625)"/>
       </defs>
       <use xlink:href="#DejaVuSans-30"/>
       <use xlink:href="#DejaVuSans-2e" x="63.623047"/>
       <use xlink:href="#DejaVuSans-36" x="95.410156"/>
      </g>
     </g>
    </g>
    <g id="xtick_5">
     <g id="line2d_5">
      <g>
       <use xlink:href="#m4308ec1d72" x="333.556364" y="307.584" style="stroke: #000000; stroke-width: 0.8"/>
      </g>
     </g>
     <g id="text_5">
      <!-- 0.8 -->
      <g transform="translate(325.604801 322.182437)scale(0.1 -0.1)">
       <defs>
        <path id="DejaVuSans-38" d="M 2034 2216 
Q 1584 2216 1326 1975 
Q 1069 1734 1069 1313 
Q 1069 891 1326 650 
Q 1584 409 2034 409 
Q 2484 409 2743 651 
Q 3003 894 3003 1313 
Q 3003 1734 2745 1975 
Q 2488 2216 2034 2216 
z
M 1403 2484 
Q 997 2584 770 2862 
Q 544 3141 544 3541 
Q 544 4100 942 4425 
Q 1341 4750 2034 4750 
Q 2731 4750 3128 4425 
Q 3525 4100 3525 3541 
Q 3525 3141 3298 2862 
Q 3072 2584 2669 2484 
Q 3125 2378 3379 2068 
Q 3634 1759 3634 1313 
Q 3634 634 3220 271 
Q 2806 -91 2034 -91 
Q 1263 -91 848 271 
Q 434 634 434 1313 
Q 434 1759 690 2068 
Q 947 2378 1403 2484 
z
M 1172 3481 
Q 1172 3119 1398 2916 
Q 1625 2713 2034 2713 
Q 2441 2713 2670 2916 
Q 2900 3119 2900 3481 
Q 2900 3844 2670 4047 
Q 2441 4250 2034 4250 
Q 1625 4250 1398 4047 
Q 1172 3844 1172 3481 
z
" transform="scale(0.015625)"/>
       </defs>
       <use xlink:href="#DejaVuSans-30"/>
       <use xlink:href="#DejaVuSans-2e" x="63.623047"/>
       <use xlink:href="#DejaVuSans-38" x="95.410156"/>
      </g>
     </g>
    </g>
    <g id="xtick_6">
     <g id="line2d_6">
      <g>
       <use xlink:href="#m4308ec1d72" x="398.487273" y="307.584" style="stroke: #000000; stroke-width: 0.8"/>
      </g>
     </g>
     <g id="text_6">
      <!-- 1.0 -->
      <g transform="translate(390.53571 322.182437)scale(0.1 -0.1)">
       <defs>
        <path id="DejaVuSans-31" d="M 794 531 
L 1825 531 
L 1825 4091 
L 703 3866 
L 703 4441 
L 1819 4666 
L 2450 4666 
L 2450 531 
L 3481 531 
L 3481 0 
L 794 0 
L 794 531 
z
" transform="scale(0.015625)"/>
       </defs>
       <use xlink:href="#DejaVuSans-31"/>
       <use xlink:href="#DejaVuSans-2e" x="63.623047"/>
       <use xlink:href="#DejaVuSans-30" x="95.410156"/>
      </g>
     </g>
    </g>
   </g>
   <g id="matplotlib.axis_2">
    <g id="ytick_1">
     <g id="line2d_7">
      <defs>
       <path id="m4471994314" d="M 0 0 
L -3.5 0 
" style="stroke: #000000; stroke-width: 0.8"/>
      </defs>
      <g>
       <use xlink:href="#m4471994314" x="57.6" y="258.784938" style="stroke: #000000; stroke-width: 0.8"/>
      </g>
     </g>
     <g id="text_7">
      <!-- 0.2 -->
      <g transform="translate(34.696875 262.584156)scale(0.1 -0.1)">
       <use xlink:href="#DejaVuSans-30"/>
       <use xlink:href="#DejaVuSans-2e" x="63.623047"/>
       <use xlink:href="#DejaVuSans-32" x="95.410156"/>
      </g>
     </g>
    </g>
    <g id="ytick_2">
     <g id="line2d_8">
      <g>
       <use xlink:href="#m4471994314" x="57.6" y="207.480703" style="stroke: #000000; stroke-width: 0.8"/>
      </g>
     </g>
     <g id="text_8">
      <!-- 0.4 -->
      <g transform="translate(34.696875 211.279922)scale(0.1 -0.1)">
       <use xlink:href="#DejaVuSans-30"/>
       <use xlink:href="#DejaVuSans-2e" x="63.623047"/>
       <use xlink:href="#DejaVuSans-34" x="95.410156"/>
      </g>
     </g>
    </g>
    <g id="ytick_3">
     <g id="line2d_9">
      <g>
       <use xlink:href="#m4471994314" x="57.6" y="156.176469" style="stroke: #000000; stroke-width: 0.8"/>
      </g>
     </g>
     <g id="text_9">
      <!-- 0.6 -->
      <g transform="translate(34.696875 159.975688)scale(0.1 -0.1)">
       <use xlink:href="#DejaVuSans-30"/>
       <use xlink:href="#DejaVuSans-2e" x="63.623047"/>
       <use xlink:href="#DejaVuSans-36" x="95.410156"/>
      </g>
     </g>
    </g>
    <g id="ytick_4">
     <g id="line2d_10">
      <g>
       <use xlink:href="#m4471994314" x="57.6" y="104.872234" style="stroke: #000000; stroke-width: 0.8"/>
      </g>
     </g>
     <g id="text_10">
      <!-- 0.8 -->
      <g transform="translate(34.696875 108.671453)scale(0.1 -0.1)">
       <use xlink:href="#DejaVuSans-30"/>
       <use xlink:href="#DejaVuSans-2e" x="63.623047"/>
       <use xlink:href="#DejaVuSans-38" x="95.410156"/>
      </g>
     </g>
    </g>
    <g id="ytick_5">
     <g id="line2d_11">
      <g>
       <use xlink:href="#m4471994314" x="57.6" y="53.568" style="stroke: #000000; stroke-width: 0.8"/>
      </g>
     </g>
     <g id="text_11">
      <!-- 1.0 -->
      <g transform="translate(34.696875 57.367219)scale(0.1 -0.1)">
       <use xlink:href="#DejaVuSans-31"/>
       <use xlink:href="#DejaVuSans-2e" x="63.623047"/>
       <use xlink:href="#DejaVuSans-30" x="95.410156"/>
      </g>
     </g>
    </g>
   </g>
   <g id="line2d_12">
    <path d="M 73.832727 288.795937 
L 74.267921 261.847533 
L 74.703115 251.063205 
L 75.138309 246.995096 
L 75.573502 245.843744 
L 76.44389 243.195635 
L 76.879084 236.8632 
L 77.314277 220.053464 
L 77.749471 188.966967 
L 78.184665 179.756153 
L 78.619859 170.890744 
L 79.055052 163.406958 
L 79.490246 160.873984 
L 80.360634 156.729118 
L 80.795827 153.275062 
L 81.231021 150.511818 
L 82.101409 148.209115 
L 82.971796 146.597222 
L 83.40699 142.682626 
L 84.277378 138.998301 
L 84.712571 137.846949 
L 85.147765 136.235056 
L 85.582959 135.083705 
L 86.018153 133.471812 
L 86.88854 131.629649 
L 87.758928 129.787487 
L 88.194121 127.945324 
L 88.629315 125.64262 
L 89.499703 123.570187 
L 89.934896 121.728024 
L 90.805284 118.73451 
L 91.240478 116.201536 
L 91.675671 114.359373 
L 92.110865 112.74748 
L 92.981253 111.596129 
L 93.416447 108.372344 
L 93.85164 105.378829 
L 94.286834 104.918288 
L 94.722028 102.385315 
L 95.157222 97.549637 
L 95.592415 94.556123 
L 96.027609 93.174501 
L 96.462803 91.792878 
L 96.897997 88.338823 
L 97.33319 85.115038 
L 97.768384 84.654498 
L 98.638772 83.733416 
L 99.073965 82.812335 
L 99.509159 82.351794 
L 101.249934 81.891253 
L 102.120322 81.430713 
L 102.555515 80.970172 
L 103.425903 80.509631 
L 104.296291 80.04909 
L 106.037066 79.58855 
L 106.907453 79.128009 
L 109.518616 78.667468 
L 109.953809 77.976657 
L 110.824197 77.285846 
L 113.000166 76.825306 
L 113.870553 76.364765 
L 116.91691 75.673954 
L 117.352103 74.752872 
L 117.787297 74.062061 
L 119.092878 73.601521 
L 119.528072 73.14098 
L 119.963266 72.680439 
L 120.833653 71.989628 
L 121.704041 71.298817 
L 122.574428 70.838276 
L 126.491172 70.147465 
L 129.537529 69.456654 
L 131.278304 68.996114 
L 133.454272 67.844762 
L 133.889466 66.69341 
L 134.32466 66.232869 
L 134.759854 65.542058 
L 136.935823 64.851247 
L 139.111791 64.390707 
L 140.852566 63.930166 
L 142.158148 63.469625 
L 143.898923 63.009084 
L 155.213961 62.318273 
L 164.353029 61.627462 
L 170.010548 61.166922 
L 170.445742 60.706381 
L 176.103261 60.01557 
L 180.455199 59.324759 
L 209.177987 58.864218 
L 218.317056 58.173407 
L 227.891319 57.482596 
L 241.817519 57.022055 
L 249.215813 56.561515 
L 294.911158 56.100974 
L 315.800458 55.640433 
L 334.51379 55.179892 
L 339.300921 54.719352 
L 346.264021 54.258811 
L 365.847741 53.79827 
L 398.487273 53.568 
" clip-path="url(#pb270938a64)" style="fill: none; stroke: #1f77b4; stroke-width: 1.5; stroke-linecap: square"/>
   </g>
   <g id="patch_3">
    <path d="M 57.6 307.584 
L 57.6 41.472 
" style="fill: none; stroke: #000000; stroke-width: 0.8; stroke-linejoin: miter; stroke-linecap: square"/>
   </g>
   <g id="patch_4">
    <path d="M 414.72 307.584 
L 414.72 41.472 
" style="fill: none; stroke: #000000; stroke-width: 0.8; stroke-linejoin: miter; stroke-linecap: square"/>
   </g>
   <g id="patch_5">
    <path d="M 57.6 307.584 
L 414.72 307.584 
" style="fill: none; stroke: #000000; stroke-width: 0.8; stroke-linejoin: miter; stroke-linecap: square"/>
   </g>
   <g id="patch_6">
    <path d="M 57.6 41.472 
L 414.72 41.472 
" style="fill: none; stroke: #000000; stroke-width: 0.8; stroke-linejoin: miter; stroke-linecap: square"/>
   </g>
  </g>
 </g>
 <defs>
  <clipPath id="pb270938a64">
   <rect x="57.6" y="41.472" width="357.12" height="266.112"/>
  </clipPath>
 </defs>
</svg>
